<svg width="1354" height="426" viewBox="0 0 1354 426" fill="none" xmlns="http://www.w3.org/2000/svg">
<path d="M667.097 205.582V207.533C667.097 208.582 667.003 209.467 666.815 210.188C666.628 210.908 666.358 211.488 666.007 211.928C665.655 212.367 665.23 212.687 664.732 212.886C664.24 213.079 663.684 213.176 663.062 213.176C662.57 213.176 662.116 213.114 661.7 212.991C661.284 212.868 660.909 212.672 660.575 212.402C660.247 212.127 659.966 211.77 659.731 211.33C659.497 210.891 659.318 210.357 659.195 209.73C659.072 209.104 659.011 208.371 659.011 207.533V205.582C659.011 204.533 659.104 203.654 659.292 202.945C659.485 202.236 659.758 201.668 660.109 201.24C660.461 200.807 660.883 200.496 661.375 200.309C661.873 200.121 662.43 200.027 663.045 200.027C663.543 200.027 664 200.089 664.416 200.212C664.838 200.329 665.213 200.52 665.541 200.783C665.869 201.041 666.147 201.387 666.376 201.82C666.61 202.248 666.789 202.772 666.912 203.394C667.035 204.015 667.097 204.744 667.097 205.582ZM665.462 207.797V205.31C665.462 204.735 665.427 204.231 665.356 203.798C665.292 203.358 665.195 202.983 665.066 202.673C664.938 202.362 664.773 202.11 664.574 201.917C664.381 201.724 664.155 201.583 663.897 201.495C663.646 201.401 663.361 201.354 663.045 201.354C662.658 201.354 662.315 201.428 662.017 201.574C661.718 201.715 661.466 201.94 661.261 202.251C661.062 202.562 660.909 202.969 660.804 203.473C660.698 203.977 660.646 204.589 660.646 205.31V207.797C660.646 208.371 660.678 208.878 660.742 209.317C660.812 209.757 660.915 210.138 661.05 210.46C661.185 210.776 661.349 211.037 661.542 211.242C661.735 211.447 661.958 211.6 662.21 211.699C662.468 211.793 662.752 211.84 663.062 211.84C663.461 211.84 663.81 211.764 664.108 211.611C664.407 211.459 664.656 211.222 664.855 210.899C665.061 210.571 665.213 210.152 665.312 209.643C665.412 209.127 665.462 208.512 665.462 207.797ZM670.463 203.49L672.546 206.953L674.655 203.49H676.562L673.451 208.184L676.659 213H674.778L672.581 209.432L670.384 213H668.494L671.693 208.184L668.591 203.49H670.463ZM678.285 199.5H679.92V211.154L679.779 213H678.285V199.5ZM686.345 208.166V208.351C686.345 209.042 686.263 209.684 686.099 210.275C685.935 210.861 685.694 211.371 685.378 211.805C685.062 212.238 684.675 212.575 684.218 212.815C683.761 213.056 683.236 213.176 682.645 213.176C682.041 213.176 681.511 213.073 681.054 212.868C680.603 212.657 680.222 212.355 679.911 211.963C679.601 211.57 679.352 211.096 679.164 210.539C678.982 209.982 678.856 209.355 678.786 208.658V207.85C678.856 207.146 678.982 206.517 679.164 205.96C679.352 205.403 679.601 204.929 679.911 204.536C680.222 204.138 680.603 203.836 681.054 203.631C681.505 203.42 682.029 203.314 682.627 203.314C683.225 203.314 683.755 203.432 684.218 203.666C684.681 203.895 685.067 204.223 685.378 204.65C685.694 205.078 685.935 205.591 686.099 206.188C686.263 206.78 686.345 207.439 686.345 208.166ZM684.71 208.351V208.166C684.71 207.691 684.666 207.246 684.578 206.83C684.49 206.408 684.35 206.039 684.156 205.723C683.963 205.4 683.708 205.148 683.392 204.967C683.075 204.779 682.686 204.686 682.223 204.686C681.812 204.686 681.455 204.756 681.15 204.896C680.852 205.037 680.597 205.228 680.386 205.468C680.175 205.702 680.002 205.972 679.867 206.276C679.738 206.575 679.642 206.886 679.577 207.208V209.326C679.671 209.736 679.823 210.132 680.034 210.513C680.251 210.888 680.538 211.195 680.896 211.436C681.259 211.676 681.707 211.796 682.24 211.796C682.68 211.796 683.055 211.708 683.365 211.532C683.682 211.351 683.937 211.102 684.13 210.785C684.329 210.469 684.476 210.103 684.569 209.687C684.663 209.271 684.71 208.825 684.71 208.351ZM692.207 211.84C692.594 211.84 692.951 211.761 693.279 211.603C693.607 211.444 693.877 211.228 694.088 210.952C694.299 210.671 694.419 210.352 694.448 209.994H695.995C695.966 210.557 695.775 211.081 695.424 211.567C695.078 212.048 694.624 212.438 694.062 212.736C693.499 213.029 692.881 213.176 692.207 213.176C691.492 213.176 690.868 213.05 690.335 212.798C689.808 212.546 689.368 212.2 689.017 211.761C688.671 211.321 688.41 210.817 688.234 210.249C688.064 209.675 687.979 209.068 687.979 208.43V208.061C687.979 207.422 688.064 206.818 688.234 206.25C688.41 205.676 688.671 205.169 689.017 204.729C689.368 204.29 689.808 203.944 690.335 203.692C690.868 203.44 691.492 203.314 692.207 203.314C692.951 203.314 693.602 203.467 694.158 203.771C694.715 204.07 695.151 204.48 695.468 205.002C695.79 205.518 695.966 206.104 695.995 206.76H694.448C694.419 206.367 694.308 206.013 694.114 205.696C693.927 205.38 693.669 205.128 693.341 204.94C693.019 204.747 692.641 204.65 692.207 204.65C691.709 204.65 691.29 204.75 690.95 204.949C690.616 205.143 690.35 205.406 690.15 205.74C689.957 206.068 689.816 206.435 689.729 206.839C689.646 207.237 689.605 207.645 689.605 208.061V208.43C689.605 208.846 689.646 209.256 689.729 209.66C689.811 210.064 689.948 210.431 690.142 210.759C690.341 211.087 690.607 211.351 690.941 211.55C691.281 211.743 691.703 211.84 692.207 211.84ZM699.704 206.909L698.403 206.575L699.045 200.203H705.61V201.706H700.425L700.038 205.187C700.272 205.052 700.568 204.926 700.926 204.809C701.289 204.691 701.705 204.633 702.174 204.633C702.766 204.633 703.296 204.735 703.765 204.94C704.233 205.14 704.632 205.427 704.96 205.802C705.294 206.177 705.549 206.628 705.725 207.155C705.9 207.683 705.988 208.271 705.988 208.922C705.988 209.537 705.903 210.103 705.733 210.618C705.569 211.134 705.32 211.585 704.986 211.972C704.652 212.353 704.23 212.648 703.721 212.859C703.217 213.07 702.622 213.176 701.937 213.176C701.421 213.176 700.932 213.105 700.469 212.965C700.012 212.818 699.602 212.599 699.238 212.306C698.881 212.007 698.588 211.638 698.359 211.198C698.137 210.753 697.996 210.231 697.938 209.634H699.484C699.555 210.114 699.695 210.519 699.906 210.847C700.117 211.175 700.393 211.424 700.732 211.594C701.078 211.758 701.479 211.84 701.937 211.84C702.323 211.84 702.666 211.772 702.965 211.638C703.264 211.503 703.516 211.31 703.721 211.058C703.926 210.806 704.081 210.501 704.187 210.144C704.298 209.786 704.354 209.385 704.354 208.939C704.354 208.535 704.298 208.16 704.187 207.814C704.075 207.469 703.908 207.167 703.686 206.909C703.469 206.651 703.202 206.452 702.886 206.312C702.569 206.165 702.206 206.092 701.796 206.092C701.251 206.092 700.838 206.165 700.557 206.312C700.281 206.458 699.997 206.657 699.704 206.909ZM716.421 208.693V210.029H707.175V209.071L712.905 200.203H714.232L712.809 202.77L709.021 208.693H716.421ZM714.637 200.203V213H713.011V200.203H714.637ZM718.064 199.5H719.699V211.154L719.559 213H718.064V199.5ZM726.124 208.166V208.351C726.124 209.042 726.042 209.684 725.878 210.275C725.714 210.861 725.474 211.371 725.157 211.805C724.841 212.238 724.454 212.575 723.997 212.815C723.54 213.056 723.016 213.176 722.424 213.176C721.82 213.176 721.29 213.073 720.833 212.868C720.382 212.657 720.001 212.355 719.69 211.963C719.38 211.57 719.131 211.096 718.943 210.539C718.762 209.982 718.636 209.355 718.565 208.658V207.85C718.636 207.146 718.762 206.517 718.943 205.96C719.131 205.403 719.38 204.929 719.69 204.536C720.001 204.138 720.382 203.836 720.833 203.631C721.284 203.42 721.809 203.314 722.406 203.314C723.004 203.314 723.534 203.432 723.997 203.666C724.46 203.895 724.847 204.223 725.157 204.65C725.474 205.078 725.714 205.591 725.878 206.188C726.042 206.78 726.124 207.439 726.124 208.166ZM724.489 208.351V208.166C724.489 207.691 724.445 207.246 724.357 206.83C724.27 206.408 724.129 206.039 723.936 205.723C723.742 205.4 723.487 205.148 723.171 204.967C722.854 204.779 722.465 204.686 722.002 204.686C721.592 204.686 721.234 204.756 720.93 204.896C720.631 205.037 720.376 205.228 720.165 205.468C719.954 205.702 719.781 205.972 719.646 206.276C719.518 206.575 719.421 206.886 719.356 207.208V209.326C719.45 209.736 719.603 210.132 719.813 210.513C720.03 210.888 720.317 211.195 720.675 211.436C721.038 211.676 721.486 211.796 722.02 211.796C722.459 211.796 722.834 211.708 723.145 211.532C723.461 211.351 723.716 211.102 723.909 210.785C724.108 210.469 724.255 210.103 724.349 209.687C724.442 209.271 724.489 208.825 724.489 208.351ZM731.986 211.84C732.373 211.84 732.73 211.761 733.059 211.603C733.387 211.444 733.656 211.228 733.867 210.952C734.078 210.671 734.198 210.352 734.228 209.994H735.774C735.745 210.557 735.555 211.081 735.203 211.567C734.857 212.048 734.403 212.438 733.841 212.736C733.278 213.029 732.66 213.176 731.986 213.176C731.271 213.176 730.647 213.05 730.114 212.798C729.587 212.546 729.147 212.2 728.796 211.761C728.45 211.321 728.189 210.817 728.014 210.249C727.844 209.675 727.759 209.068 727.759 208.43V208.061C727.759 207.422 727.844 206.818 728.014 206.25C728.189 205.676 728.45 205.169 728.796 204.729C729.147 204.29 729.587 203.944 730.114 203.692C730.647 203.44 731.271 203.314 731.986 203.314C732.73 203.314 733.381 203.467 733.938 203.771C734.494 204.07 734.931 204.48 735.247 205.002C735.569 205.518 735.745 206.104 735.774 206.76H734.228C734.198 206.367 734.087 206.013 733.894 205.696C733.706 205.38 733.448 205.128 733.12 204.94C732.798 204.747 732.42 204.65 731.986 204.65C731.488 204.65 731.069 204.75 730.729 204.949C730.396 205.143 730.129 205.406 729.93 205.74C729.736 206.068 729.596 206.435 729.508 206.839C729.426 207.237 729.385 207.645 729.385 208.061V208.43C729.385 208.846 729.426 209.256 729.508 209.66C729.59 210.064 729.728 210.431 729.921 210.759C730.12 211.087 730.387 211.351 730.721 211.55C731.061 211.743 731.482 211.84 731.986 211.84ZM743.667 200.186H743.808V201.565H743.667C742.806 201.565 742.085 201.706 741.505 201.987C740.925 202.263 740.465 202.635 740.125 203.104C739.785 203.566 739.539 204.088 739.387 204.668C739.24 205.248 739.167 205.837 739.167 206.435V208.315C739.167 208.884 739.234 209.388 739.369 209.827C739.504 210.261 739.688 210.627 739.923 210.926C740.157 211.225 740.421 211.45 740.714 211.603C741.013 211.755 741.323 211.831 741.646 211.831C742.021 211.831 742.354 211.761 742.647 211.62C742.94 211.474 743.187 211.271 743.386 211.014C743.591 210.75 743.746 210.439 743.852 210.082C743.957 209.725 744.01 209.332 744.01 208.904C744.01 208.523 743.963 208.157 743.869 207.806C743.775 207.448 743.632 207.132 743.438 206.856C743.245 206.575 743.002 206.355 742.709 206.197C742.422 206.033 742.079 205.951 741.681 205.951C741.229 205.951 740.808 206.062 740.415 206.285C740.028 206.502 739.709 206.789 739.457 207.146C739.211 207.498 739.07 207.882 739.035 208.298L738.174 208.289C738.256 207.633 738.408 207.073 738.631 206.61C738.859 206.142 739.141 205.761 739.475 205.468C739.814 205.169 740.192 204.952 740.608 204.817C741.03 204.677 741.476 204.606 741.944 204.606C742.583 204.606 743.134 204.727 743.597 204.967C744.06 205.207 744.44 205.529 744.739 205.934C745.038 206.332 745.258 206.783 745.398 207.287C745.545 207.785 745.618 208.298 745.618 208.825C745.618 209.429 745.533 209.994 745.363 210.521C745.193 211.049 744.938 211.512 744.599 211.91C744.265 212.309 743.852 212.619 743.359 212.842C742.867 213.064 742.296 213.176 741.646 213.176C740.954 213.176 740.351 213.035 739.835 212.754C739.319 212.467 738.892 212.086 738.552 211.611C738.212 211.137 737.957 210.609 737.787 210.029C737.617 209.449 737.532 208.86 737.532 208.263V207.498C737.532 206.596 737.623 205.711 737.805 204.844C737.986 203.977 738.3 203.191 738.745 202.488C739.196 201.785 739.82 201.226 740.617 200.81C741.414 200.394 742.431 200.186 743.667 200.186ZM750.153 213H748.527V202.488C748.527 201.803 748.65 201.226 748.896 200.757C749.148 200.282 749.509 199.925 749.978 199.685C750.446 199.438 751.003 199.315 751.647 199.315C751.835 199.315 752.022 199.327 752.21 199.351C752.403 199.374 752.591 199.409 752.772 199.456L752.685 200.783C752.562 200.754 752.421 200.733 752.263 200.722C752.11 200.71 751.958 200.704 751.806 200.704C751.46 200.704 751.161 200.774 750.909 200.915C750.663 201.05 750.476 201.249 750.347 201.513C750.218 201.776 750.153 202.102 750.153 202.488V213ZM752.175 203.49V204.738H747.024V203.49H752.175ZM757.58 211.84C757.967 211.84 758.324 211.761 758.652 211.603C758.98 211.444 759.25 211.228 759.461 210.952C759.672 210.671 759.792 210.352 759.821 209.994H761.368C761.339 210.557 761.148 211.081 760.797 211.567C760.451 212.048 759.997 212.438 759.435 212.736C758.872 213.029 758.254 213.176 757.58 213.176C756.865 213.176 756.241 213.05 755.708 212.798C755.181 212.546 754.741 212.2 754.39 211.761C754.044 211.321 753.783 210.817 753.607 210.249C753.438 209.675 753.353 209.068 753.353 208.43V208.061C753.353 207.422 753.438 206.818 753.607 206.25C753.783 205.676 754.044 205.169 754.39 204.729C754.741 204.29 755.181 203.944 755.708 203.692C756.241 203.44 756.865 203.314 757.58 203.314C758.324 203.314 758.975 203.467 759.531 203.771C760.088 204.07 760.524 204.48 760.841 205.002C761.163 205.518 761.339 206.104 761.368 206.76H759.821C759.792 206.367 759.681 206.013 759.487 205.696C759.3 205.38 759.042 205.128 758.714 204.94C758.392 204.747 758.014 204.65 757.58 204.65C757.082 204.65 756.663 204.75 756.323 204.949C755.989 205.143 755.723 205.406 755.523 205.74C755.33 206.068 755.189 206.435 755.102 206.839C755.02 207.237 754.979 207.645 754.979 208.061V208.43C754.979 208.846 755.02 209.256 755.102 209.66C755.184 210.064 755.321 210.431 755.515 210.759C755.714 211.087 755.98 211.351 756.314 211.55C756.654 211.743 757.076 211.84 757.58 211.84ZM765.622 213H763.996V202.488C763.996 201.803 764.119 201.226 764.365 200.757C764.617 200.282 764.978 199.925 765.446 199.685C765.915 199.438 766.472 199.315 767.116 199.315C767.304 199.315 767.491 199.327 767.679 199.351C767.872 199.374 768.06 199.409 768.241 199.456L768.153 200.783C768.03 200.754 767.89 200.733 767.731 200.722C767.579 200.71 767.427 200.704 767.274 200.704C766.929 200.704 766.63 200.774 766.378 200.915C766.132 201.05 765.944 201.249 765.815 201.513C765.687 201.776 765.622 202.102 765.622 202.488V213ZM767.644 203.49V204.738H762.493V203.49H767.644ZM777.663 211.664V213H769.287V211.831L773.479 207.164C773.995 206.59 774.394 206.104 774.675 205.705C774.962 205.301 775.161 204.94 775.272 204.624C775.39 204.302 775.448 203.974 775.448 203.64C775.448 203.218 775.36 202.837 775.185 202.497C775.015 202.151 774.763 201.876 774.429 201.671C774.095 201.466 773.69 201.363 773.216 201.363C772.647 201.363 772.173 201.475 771.792 201.697C771.417 201.914 771.136 202.219 770.948 202.611C770.761 203.004 770.667 203.455 770.667 203.965H769.041C769.041 203.244 769.199 202.585 769.516 201.987C769.832 201.39 770.301 200.915 770.922 200.563C771.543 200.206 772.308 200.027 773.216 200.027C774.024 200.027 774.716 200.171 775.29 200.458C775.864 200.739 776.304 201.138 776.608 201.653C776.919 202.163 777.074 202.761 777.074 203.446C777.074 203.821 777.01 204.202 776.881 204.589C776.758 204.97 776.585 205.351 776.362 205.731C776.146 206.112 775.891 206.487 775.598 206.856C775.311 207.226 775.003 207.589 774.675 207.946L771.247 211.664H777.663ZM787.674 200.203V201.117L782.374 213H780.66L785.951 201.539H779.025V200.203H787.674ZM795.769 200.186H795.909V201.565H795.769C794.907 201.565 794.187 201.706 793.606 201.987C793.026 202.263 792.566 202.635 792.227 203.104C791.887 203.566 791.641 204.088 791.488 204.668C791.342 205.248 791.269 205.837 791.269 206.435V208.315C791.269 208.884 791.336 209.388 791.471 209.827C791.605 210.261 791.79 210.627 792.024 210.926C792.259 211.225 792.522 211.45 792.815 211.603C793.114 211.755 793.425 211.831 793.747 211.831C794.122 211.831 794.456 211.761 794.749 211.62C795.042 211.474 795.288 211.271 795.487 211.014C795.692 210.75 795.848 210.439 795.953 210.082C796.059 209.725 796.111 209.332 796.111 208.904C796.111 208.523 796.064 208.157 795.971 207.806C795.877 207.448 795.733 207.132 795.54 206.856C795.347 206.575 795.104 206.355 794.811 206.197C794.523 206.033 794.181 205.951 793.782 205.951C793.331 205.951 792.909 206.062 792.517 206.285C792.13 206.502 791.811 206.789 791.559 207.146C791.312 207.498 791.172 207.882 791.137 208.298L790.275 208.289C790.357 207.633 790.51 207.073 790.732 206.61C790.961 206.142 791.242 205.761 791.576 205.468C791.916 205.169 792.294 204.952 792.71 204.817C793.132 204.677 793.577 204.606 794.046 204.606C794.685 204.606 795.235 204.727 795.698 204.967C796.161 205.207 796.542 205.529 796.841 205.934C797.14 206.332 797.359 206.783 797.5 207.287C797.646 207.785 797.72 208.298 797.72 208.825C797.72 209.429 797.635 209.994 797.465 210.521C797.295 211.049 797.04 211.512 796.7 211.91C796.366 212.309 795.953 212.619 795.461 212.842C794.969 213.064 794.397 213.176 793.747 213.176C793.056 213.176 792.452 213.035 791.937 212.754C791.421 212.467 790.993 212.086 790.653 211.611C790.313 211.137 790.059 210.609 789.889 210.029C789.719 209.449 789.634 208.86 789.634 208.263V207.498C789.634 206.596 789.725 205.711 789.906 204.844C790.088 203.977 790.401 203.191 790.847 202.488C791.298 201.785 791.922 201.226 792.719 200.81C793.516 200.394 794.532 200.186 795.769 200.186ZM673.258 228.579C673.234 229.118 673.152 229.66 673.012 230.205C672.871 230.744 672.66 231.239 672.379 231.69C672.098 232.142 671.731 232.505 671.28 232.78C670.835 233.05 670.296 233.185 669.663 233.185C669.259 233.185 668.904 233.114 668.6 232.974C668.301 232.827 668.055 232.619 667.861 232.35C667.674 232.08 667.542 231.755 667.466 231.374C667.396 230.993 667.384 230.568 667.431 230.1L667.879 225.23H669.171L668.723 230.1C668.688 230.527 668.696 230.876 668.749 231.146C668.808 231.415 668.896 231.623 669.013 231.77C669.13 231.91 669.262 232.007 669.408 232.06C669.561 232.112 669.707 232.139 669.848 232.139C670.199 232.139 670.513 232.048 670.788 231.866C671.063 231.679 671.295 231.424 671.482 231.102C671.676 230.773 671.825 230.396 671.931 229.968C672.036 229.534 672.101 229.071 672.124 228.579C672.165 227.706 672.124 226.903 672.001 226.171C671.884 225.438 671.682 224.788 671.395 224.22C671.113 223.651 670.744 223.171 670.287 222.778C669.83 222.386 669.285 222.087 668.652 221.882C668.02 221.677 667.296 221.574 666.481 221.574C665.743 221.574 665.061 221.688 664.434 221.917C663.812 222.14 663.253 222.462 662.755 222.884C662.263 223.306 661.838 223.812 661.48 224.404C661.129 224.996 660.851 225.664 660.646 226.408C660.446 227.146 660.329 227.943 660.294 228.799C660.253 229.678 660.3 230.486 660.435 231.225C660.569 231.957 660.786 232.61 661.085 233.185C661.39 233.765 661.773 234.254 662.236 234.652C662.699 235.057 663.235 235.361 663.845 235.566C664.454 235.777 665.134 235.883 665.884 235.883C666.399 235.883 666.921 235.821 667.448 235.698C667.981 235.575 668.427 235.408 668.784 235.197L669.118 236.199C668.708 236.463 668.195 236.659 667.58 236.788C666.971 236.917 666.394 236.981 665.849 236.981C664.958 236.981 664.144 236.858 663.405 236.612C662.673 236.372 662.022 236.018 661.454 235.549C660.892 235.086 660.423 234.521 660.048 233.853C659.673 233.19 659.397 232.435 659.222 231.585C659.046 230.735 658.979 229.807 659.02 228.799C659.061 227.838 659.204 226.933 659.45 226.083C659.702 225.233 660.045 224.463 660.479 223.771C660.912 223.08 661.428 222.485 662.025 221.987C662.629 221.483 663.306 221.097 664.056 220.827C664.812 220.558 665.632 220.423 666.517 220.423C667.419 220.423 668.236 220.546 668.969 220.792C669.701 221.038 670.343 221.393 670.894 221.855C671.45 222.318 671.91 222.884 672.273 223.552C672.637 224.22 672.9 224.976 673.064 225.819C673.234 226.663 673.299 227.583 673.258 228.579ZM664.231 229.326C664.19 229.736 664.19 230.103 664.231 230.425C664.272 230.747 664.352 231.02 664.469 231.242C664.586 231.465 664.738 231.635 664.926 231.752C665.119 231.863 665.345 231.919 665.603 231.919C665.772 231.919 665.951 231.878 666.139 231.796C666.326 231.708 666.511 231.573 666.692 231.392C666.874 231.21 667.044 230.973 667.202 230.68C667.36 230.387 667.492 230.035 667.598 229.625L668.178 230.258C668.043 230.738 667.867 231.16 667.65 231.523C667.439 231.887 667.202 232.191 666.938 232.438C666.675 232.684 666.394 232.871 666.095 233C665.802 233.123 665.503 233.185 665.198 233.185C664.771 233.185 664.396 233.094 664.073 232.912C663.751 232.725 663.49 232.461 663.291 232.121C663.092 231.781 662.951 231.377 662.869 230.908C662.793 230.434 662.781 229.906 662.834 229.326C662.887 228.711 662.995 228.143 663.159 227.621C663.323 227.1 663.525 226.634 663.766 226.224C664.012 225.813 664.287 225.465 664.592 225.178C664.902 224.891 665.23 224.674 665.576 224.527C665.922 224.375 666.276 224.299 666.64 224.299C667.272 224.299 667.771 224.393 668.134 224.58C668.497 224.762 668.843 224.979 669.171 225.23L668.424 226.101C668.254 225.937 668.031 225.784 667.756 225.644C667.48 225.503 667.155 225.433 666.78 225.433C666.458 225.433 666.156 225.515 665.875 225.679C665.594 225.843 665.339 226.089 665.11 226.417C664.888 226.745 664.7 227.152 664.548 227.639C664.396 228.119 664.29 228.682 664.231 229.326ZM677.178 219.5V233H675.543V219.5H677.178ZM683.734 233.176C683.072 233.176 682.472 233.064 681.933 232.842C681.399 232.613 680.939 232.294 680.553 231.884C680.172 231.474 679.879 230.987 679.674 230.425C679.469 229.862 679.366 229.247 679.366 228.579V228.21C679.366 227.437 679.48 226.748 679.709 226.145C679.938 225.535 680.248 225.02 680.641 224.598C681.033 224.176 681.479 223.856 681.977 223.64C682.475 223.423 682.99 223.314 683.523 223.314C684.203 223.314 684.789 223.432 685.281 223.666C685.779 223.9 686.187 224.229 686.503 224.65C686.819 225.066 687.054 225.559 687.206 226.127C687.358 226.689 687.435 227.305 687.435 227.973V228.702H680.333V227.375H685.809V227.252C685.785 226.83 685.697 226.42 685.545 226.021C685.398 225.623 685.164 225.295 684.842 225.037C684.52 224.779 684.08 224.65 683.523 224.65C683.154 224.65 682.814 224.729 682.504 224.888C682.193 225.04 681.927 225.269 681.704 225.573C681.481 225.878 681.309 226.25 681.186 226.689C681.062 227.129 681.001 227.636 681.001 228.21V228.579C681.001 229.03 681.062 229.455 681.186 229.854C681.314 230.246 681.499 230.592 681.739 230.891C681.985 231.189 682.281 231.424 682.627 231.594C682.979 231.764 683.377 231.849 683.822 231.849C684.396 231.849 684.883 231.731 685.281 231.497C685.68 231.263 686.028 230.949 686.327 230.557L687.312 231.339C687.106 231.649 686.846 231.945 686.529 232.227C686.213 232.508 685.823 232.736 685.36 232.912C684.903 233.088 684.361 233.176 683.734 233.176ZM695.494 223.49H696.971V232.798C696.971 233.636 696.801 234.351 696.461 234.942C696.121 235.534 695.646 235.982 695.037 236.287C694.434 236.598 693.736 236.753 692.945 236.753C692.617 236.753 692.23 236.7 691.785 236.595C691.346 236.495 690.912 236.322 690.484 236.076C690.062 235.836 689.708 235.511 689.421 235.101L690.273 234.134C690.672 234.614 691.088 234.948 691.521 235.136C691.961 235.323 692.395 235.417 692.822 235.417C693.338 235.417 693.783 235.32 694.158 235.127C694.533 234.934 694.823 234.646 695.028 234.266C695.239 233.891 695.345 233.428 695.345 232.877V225.582L695.494 223.49ZM688.946 228.351V228.166C688.946 227.439 689.031 226.78 689.201 226.188C689.377 225.591 689.626 225.078 689.948 224.65C690.276 224.223 690.672 223.895 691.135 223.666C691.598 223.432 692.119 223.314 692.699 223.314C693.297 223.314 693.818 223.42 694.264 223.631C694.715 223.836 695.096 224.138 695.406 224.536C695.723 224.929 695.972 225.403 696.153 225.96C696.335 226.517 696.461 227.146 696.531 227.85V228.658C696.467 229.355 696.341 229.982 696.153 230.539C695.972 231.096 695.723 231.57 695.406 231.963C695.096 232.355 694.715 232.657 694.264 232.868C693.812 233.073 693.285 233.176 692.682 233.176C692.113 233.176 691.598 233.056 691.135 232.815C690.678 232.575 690.285 232.238 689.957 231.805C689.629 231.371 689.377 230.861 689.201 230.275C689.031 229.684 688.946 229.042 688.946 228.351ZM690.572 228.166V228.351C690.572 228.825 690.619 229.271 690.713 229.687C690.812 230.103 690.962 230.469 691.161 230.785C691.366 231.102 691.627 231.351 691.943 231.532C692.26 231.708 692.638 231.796 693.077 231.796C693.616 231.796 694.062 231.682 694.413 231.453C694.765 231.225 695.043 230.923 695.248 230.548C695.459 230.173 695.623 229.766 695.74 229.326V227.208C695.676 226.886 695.576 226.575 695.441 226.276C695.312 225.972 695.143 225.702 694.932 225.468C694.727 225.228 694.472 225.037 694.167 224.896C693.862 224.756 693.505 224.686 693.095 224.686C692.649 224.686 692.266 224.779 691.943 224.967C691.627 225.148 691.366 225.4 691.161 225.723C690.962 226.039 690.812 226.408 690.713 226.83C690.619 227.246 690.572 227.691 690.572 228.166ZM705.048 231.374V226.479C705.048 226.104 704.972 225.778 704.819 225.503C704.673 225.222 704.45 225.005 704.151 224.853C703.853 224.7 703.483 224.624 703.044 224.624C702.634 224.624 702.273 224.694 701.963 224.835C701.658 224.976 701.418 225.16 701.242 225.389C701.072 225.617 700.987 225.863 700.987 226.127H699.361C699.361 225.787 699.449 225.45 699.625 225.116C699.801 224.782 700.053 224.48 700.381 224.211C700.715 223.936 701.113 223.719 701.576 223.561C702.045 223.396 702.566 223.314 703.141 223.314C703.832 223.314 704.441 223.432 704.969 223.666C705.502 223.9 705.918 224.255 706.217 224.729C706.521 225.198 706.674 225.787 706.674 226.496V230.926C706.674 231.242 706.7 231.579 706.753 231.937C706.812 232.294 706.896 232.602 707.008 232.859V233H705.312C705.229 232.812 705.165 232.563 705.118 232.253C705.071 231.937 705.048 231.644 705.048 231.374ZM705.329 227.234L705.347 228.377H703.703C703.24 228.377 702.827 228.415 702.464 228.491C702.101 228.562 701.796 228.67 701.55 228.816C701.304 228.963 701.116 229.147 700.987 229.37C700.858 229.587 700.794 229.842 700.794 230.135C700.794 230.434 700.861 230.706 700.996 230.952C701.131 231.198 701.333 231.395 701.603 231.541C701.878 231.682 702.215 231.752 702.613 231.752C703.111 231.752 703.551 231.646 703.932 231.436C704.312 231.225 704.614 230.967 704.837 230.662C705.065 230.357 705.188 230.062 705.206 229.774L705.9 230.557C705.859 230.803 705.748 231.075 705.566 231.374C705.385 231.673 705.142 231.96 704.837 232.235C704.538 232.505 704.181 232.73 703.765 232.912C703.354 233.088 702.892 233.176 702.376 233.176C701.731 233.176 701.166 233.05 700.68 232.798C700.199 232.546 699.824 232.209 699.555 231.787C699.291 231.359 699.159 230.882 699.159 230.354C699.159 229.845 699.259 229.396 699.458 229.01C699.657 228.617 699.944 228.292 700.319 228.034C700.694 227.771 701.146 227.571 701.673 227.437C702.2 227.302 702.789 227.234 703.439 227.234H705.329ZM713.037 231.84C713.424 231.84 713.781 231.761 714.109 231.603C714.438 231.444 714.707 231.228 714.918 230.952C715.129 230.671 715.249 230.352 715.278 229.994H716.825C716.796 230.557 716.605 231.081 716.254 231.567C715.908 232.048 715.454 232.438 714.892 232.736C714.329 233.029 713.711 233.176 713.037 233.176C712.322 233.176 711.698 233.05 711.165 232.798C710.638 232.546 710.198 232.2 709.847 231.761C709.501 231.321 709.24 230.817 709.064 230.249C708.895 229.675 708.81 229.068 708.81 228.43V228.061C708.81 227.422 708.895 226.818 709.064 226.25C709.24 225.676 709.501 225.169 709.847 224.729C710.198 224.29 710.638 223.944 711.165 223.692C711.698 223.44 712.322 223.314 713.037 223.314C713.781 223.314 714.432 223.467 714.988 223.771C715.545 224.07 715.981 224.48 716.298 225.002C716.62 225.518 716.796 226.104 716.825 226.76H715.278C715.249 226.367 715.138 226.013 714.944 225.696C714.757 225.38 714.499 225.128 714.171 224.94C713.849 224.747 713.471 224.65 713.037 224.65C712.539 224.65 712.12 224.75 711.78 224.949C711.446 225.143 711.18 225.406 710.98 225.74C710.787 226.068 710.646 226.435 710.559 226.839C710.477 227.237 710.436 227.645 710.436 228.061V228.43C710.436 228.846 710.477 229.256 710.559 229.66C710.641 230.064 710.778 230.431 710.972 230.759C711.171 231.087 711.438 231.351 711.771 231.55C712.111 231.743 712.533 231.84 713.037 231.84ZM721.325 232.016L723.971 223.49H725.711L721.896 234.468C721.809 234.702 721.691 234.954 721.545 235.224C721.404 235.499 721.223 235.76 721 236.006C720.777 236.252 720.508 236.451 720.191 236.604C719.881 236.762 719.509 236.841 719.075 236.841C718.946 236.841 718.782 236.823 718.583 236.788C718.384 236.753 718.243 236.724 718.161 236.7L718.152 235.382C718.199 235.388 718.272 235.394 718.372 235.399C718.478 235.411 718.551 235.417 718.592 235.417C718.961 235.417 719.274 235.367 719.532 235.268C719.79 235.174 720.007 235.013 720.183 234.784C720.364 234.562 720.52 234.254 720.648 233.861L721.325 232.016ZM719.383 223.49L721.853 230.873L722.274 232.587L721.105 233.185L717.607 223.49H719.383ZM734.034 233V234.336H725.975V233H734.034ZM736.398 223.49L738.481 226.953L740.591 223.49H742.498L739.387 228.184L742.595 233H740.714L738.517 229.432L736.319 233H734.43L737.629 228.184L734.526 223.49H736.398ZM746.901 232.016L749.547 223.49H751.287L747.473 234.468C747.385 234.702 747.268 234.954 747.121 235.224C746.98 235.499 746.799 235.76 746.576 236.006C746.354 236.252 746.084 236.451 745.768 236.604C745.457 236.762 745.085 236.841 744.651 236.841C744.522 236.841 744.358 236.823 744.159 236.788C743.96 236.753 743.819 236.724 743.737 236.7L743.729 235.382C743.775 235.388 743.849 235.394 743.948 235.399C744.054 235.411 744.127 235.417 744.168 235.417C744.537 235.417 744.851 235.367 745.108 235.268C745.366 235.174 745.583 235.013 745.759 234.784C745.94 234.562 746.096 234.254 746.225 233.861L746.901 232.016ZM744.959 223.49L747.429 230.873L747.851 232.587L746.682 233.185L743.184 223.49H744.959ZM759.839 231.664V233H752.922V231.664H759.839ZM759.584 224.642L753.291 233H752.298V231.805L758.547 223.49H759.584V224.642ZM758.863 223.49V224.835H752.368V223.49H758.863Z" fill="#838383"/>
<path d="M369.097 293.582V295.533C369.097 296.582 369.003 297.467 368.815 298.188C368.628 298.908 368.358 299.488 368.007 299.928C367.655 300.367 367.23 300.687 366.732 300.886C366.24 301.079 365.684 301.176 365.062 301.176C364.57 301.176 364.116 301.114 363.7 300.991C363.284 300.868 362.909 300.672 362.575 300.402C362.247 300.127 361.966 299.77 361.731 299.33C361.497 298.891 361.318 298.357 361.195 297.73C361.072 297.104 361.011 296.371 361.011 295.533V293.582C361.011 292.533 361.104 291.654 361.292 290.945C361.485 290.236 361.758 289.668 362.109 289.24C362.461 288.807 362.883 288.496 363.375 288.309C363.873 288.121 364.43 288.027 365.045 288.027C365.543 288.027 366 288.089 366.416 288.212C366.838 288.329 367.213 288.52 367.541 288.783C367.869 289.041 368.147 289.387 368.376 289.82C368.61 290.248 368.789 290.772 368.912 291.394C369.035 292.015 369.097 292.744 369.097 293.582ZM367.462 295.797V293.31C367.462 292.735 367.427 292.231 367.356 291.798C367.292 291.358 367.195 290.983 367.066 290.673C366.938 290.362 366.773 290.11 366.574 289.917C366.381 289.724 366.155 289.583 365.897 289.495C365.646 289.401 365.361 289.354 365.045 289.354C364.658 289.354 364.315 289.428 364.017 289.574C363.718 289.715 363.466 289.94 363.261 290.251C363.062 290.562 362.909 290.969 362.804 291.473C362.698 291.977 362.646 292.589 362.646 293.31V295.797C362.646 296.371 362.678 296.878 362.742 297.317C362.812 297.757 362.915 298.138 363.05 298.46C363.185 298.776 363.349 299.037 363.542 299.242C363.735 299.447 363.958 299.6 364.21 299.699C364.468 299.793 364.752 299.84 365.062 299.84C365.461 299.84 365.81 299.764 366.108 299.611C366.407 299.459 366.656 299.222 366.855 298.899C367.061 298.571 367.213 298.152 367.312 297.643C367.412 297.127 367.462 296.512 367.462 295.797ZM372.463 291.49L374.546 294.953L376.655 291.49H378.562L375.451 296.184L378.659 301H376.778L374.581 297.432L372.384 301H370.494L373.693 296.184L370.591 291.49H372.463ZM385.462 288.133V301H383.836V290.163L380.558 291.358V289.891L385.207 288.133H385.462ZM392.616 293.802H393.776C394.345 293.802 394.813 293.708 395.183 293.521C395.558 293.327 395.836 293.066 396.018 292.738C396.205 292.404 396.299 292.029 396.299 291.613C396.299 291.121 396.217 290.708 396.053 290.374C395.889 290.04 395.643 289.788 395.314 289.618C394.986 289.448 394.57 289.363 394.066 289.363C393.609 289.363 393.205 289.454 392.854 289.636C392.508 289.812 392.235 290.063 392.036 290.392C391.843 290.72 391.746 291.106 391.746 291.552H390.12C390.12 290.901 390.284 290.31 390.612 289.776C390.94 289.243 391.4 288.818 391.992 288.502C392.59 288.186 393.281 288.027 394.066 288.027C394.84 288.027 395.517 288.165 396.097 288.44C396.677 288.71 397.128 289.114 397.45 289.653C397.772 290.187 397.934 290.852 397.934 291.648C397.934 291.971 397.857 292.316 397.705 292.686C397.559 293.049 397.327 293.389 397.011 293.705C396.7 294.021 396.296 294.282 395.798 294.487C395.3 294.687 394.702 294.786 394.005 294.786H392.616V293.802ZM392.616 295.138V294.162H394.005C394.819 294.162 395.493 294.259 396.026 294.452C396.56 294.646 396.979 294.903 397.283 295.226C397.594 295.548 397.811 295.902 397.934 296.289C398.062 296.67 398.127 297.051 398.127 297.432C398.127 298.029 398.024 298.56 397.819 299.022C397.62 299.485 397.336 299.878 396.967 300.2C396.604 300.522 396.176 300.766 395.684 300.93C395.191 301.094 394.655 301.176 394.075 301.176C393.519 301.176 392.994 301.097 392.502 300.938C392.016 300.78 391.585 300.552 391.21 300.253C390.835 299.948 390.542 299.576 390.331 299.137C390.12 298.691 390.015 298.185 390.015 297.616H391.641C391.641 298.062 391.737 298.451 391.931 298.785C392.13 299.119 392.411 299.38 392.774 299.567C393.144 299.749 393.577 299.84 394.075 299.84C394.573 299.84 395.001 299.755 395.358 299.585C395.722 299.409 396 299.146 396.193 298.794C396.393 298.442 396.492 298 396.492 297.467C396.492 296.934 396.381 296.497 396.158 296.157C395.936 295.812 395.619 295.557 395.209 295.393C394.805 295.223 394.327 295.138 393.776 295.138H392.616ZM401.985 299.638H402.152C403.09 299.638 403.852 299.506 404.438 299.242C405.023 298.979 405.475 298.624 405.791 298.179C406.107 297.733 406.324 297.232 406.441 296.676C406.559 296.113 406.617 295.536 406.617 294.944V292.984C406.617 292.404 406.55 291.889 406.415 291.438C406.286 290.986 406.104 290.608 405.87 290.304C405.642 289.999 405.381 289.768 405.088 289.609C404.795 289.451 404.484 289.372 404.156 289.372C403.781 289.372 403.444 289.448 403.146 289.601C402.853 289.747 402.604 289.955 402.398 290.225C402.199 290.494 402.047 290.811 401.941 291.174C401.836 291.537 401.783 291.933 401.783 292.36C401.783 292.741 401.83 293.11 401.924 293.468C402.018 293.825 402.161 294.147 402.354 294.435C402.548 294.722 402.788 294.95 403.075 295.12C403.368 295.284 403.711 295.366 404.104 295.366C404.467 295.366 404.807 295.296 405.123 295.155C405.445 295.009 405.729 294.812 405.976 294.566C406.228 294.314 406.427 294.03 406.573 293.714C406.726 293.397 406.813 293.066 406.837 292.721H407.61C407.61 293.207 407.514 293.688 407.32 294.162C407.133 294.631 406.869 295.059 406.529 295.445C406.189 295.832 405.791 296.143 405.334 296.377C404.877 296.605 404.379 296.72 403.84 296.72C403.207 296.72 402.659 296.597 402.196 296.351C401.733 296.104 401.353 295.776 401.054 295.366C400.761 294.956 400.541 294.499 400.395 293.995C400.254 293.485 400.184 292.97 400.184 292.448C400.184 291.839 400.269 291.268 400.438 290.734C400.608 290.201 400.86 289.732 401.194 289.328C401.528 288.918 401.941 288.599 402.434 288.37C402.932 288.142 403.506 288.027 404.156 288.027C404.889 288.027 405.513 288.174 406.028 288.467C406.544 288.76 406.963 289.152 407.285 289.645C407.613 290.137 407.854 290.69 408.006 291.306C408.158 291.921 408.234 292.554 408.234 293.204V293.793C408.234 294.455 408.19 295.129 408.103 295.814C408.021 296.494 407.859 297.145 407.619 297.766C407.385 298.387 407.042 298.943 406.591 299.436C406.14 299.922 405.551 300.309 404.824 300.596C404.104 300.877 403.213 301.018 402.152 301.018H401.985V299.638ZM412.11 299.638H412.277C413.215 299.638 413.977 299.506 414.562 299.242C415.148 298.979 415.6 298.624 415.916 298.179C416.232 297.733 416.449 297.232 416.566 296.676C416.684 296.113 416.742 295.536 416.742 294.944V292.984C416.742 292.404 416.675 291.889 416.54 291.438C416.411 290.986 416.229 290.608 415.995 290.304C415.767 289.999 415.506 289.768 415.213 289.609C414.92 289.451 414.609 289.372 414.281 289.372C413.906 289.372 413.569 289.448 413.271 289.601C412.978 289.747 412.729 289.955 412.523 290.225C412.324 290.494 412.172 290.811 412.066 291.174C411.961 291.537 411.908 291.933 411.908 292.36C411.908 292.741 411.955 293.11 412.049 293.468C412.143 293.825 412.286 294.147 412.479 294.435C412.673 294.722 412.913 294.95 413.2 295.12C413.493 295.284 413.836 295.366 414.229 295.366C414.592 295.366 414.932 295.296 415.248 295.155C415.57 295.009 415.854 294.812 416.101 294.566C416.353 294.314 416.552 294.03 416.698 293.714C416.851 293.397 416.938 293.066 416.962 292.721H417.735C417.735 293.207 417.639 293.688 417.445 294.162C417.258 294.631 416.994 295.059 416.654 295.445C416.314 295.832 415.916 296.143 415.459 296.377C415.002 296.605 414.504 296.72 413.965 296.72C413.332 296.72 412.784 296.597 412.321 296.351C411.858 296.104 411.478 295.776 411.179 295.366C410.886 294.956 410.666 294.499 410.52 293.995C410.379 293.485 410.309 292.97 410.309 292.448C410.309 291.839 410.394 291.268 410.563 290.734C410.733 290.201 410.985 289.732 411.319 289.328C411.653 288.918 412.066 288.599 412.559 288.37C413.057 288.142 413.631 288.027 414.281 288.027C415.014 288.027 415.638 288.174 416.153 288.467C416.669 288.76 417.088 289.152 417.41 289.645C417.738 290.137 417.979 290.69 418.131 291.306C418.283 291.921 418.359 292.554 418.359 293.204V293.793C418.359 294.455 418.315 295.129 418.228 295.814C418.146 296.494 417.984 297.145 417.744 297.766C417.51 298.387 417.167 298.943 416.716 299.436C416.265 299.922 415.676 300.309 414.949 300.596C414.229 300.877 413.338 301.018 412.277 301.018H412.11V299.638ZM422.991 293.802H424.151C424.72 293.802 425.188 293.708 425.558 293.521C425.933 293.327 426.211 293.066 426.393 292.738C426.58 292.404 426.674 292.029 426.674 291.613C426.674 291.121 426.592 290.708 426.428 290.374C426.264 290.04 426.018 289.788 425.689 289.618C425.361 289.448 424.945 289.363 424.441 289.363C423.984 289.363 423.58 289.454 423.229 289.636C422.883 289.812 422.61 290.063 422.411 290.392C422.218 290.72 422.121 291.106 422.121 291.552H420.495C420.495 290.901 420.659 290.31 420.987 289.776C421.315 289.243 421.775 288.818 422.367 288.502C422.965 288.186 423.656 288.027 424.441 288.027C425.215 288.027 425.892 288.165 426.472 288.44C427.052 288.71 427.503 289.114 427.825 289.653C428.147 290.187 428.309 290.852 428.309 291.648C428.309 291.971 428.232 292.316 428.08 292.686C427.934 293.049 427.702 293.389 427.386 293.705C427.075 294.021 426.671 294.282 426.173 294.487C425.675 294.687 425.077 294.786 424.38 294.786H422.991V293.802ZM422.991 295.138V294.162H424.38C425.194 294.162 425.868 294.259 426.401 294.452C426.935 294.646 427.354 294.903 427.658 295.226C427.969 295.548 428.186 295.902 428.309 296.289C428.438 296.67 428.502 297.051 428.502 297.432C428.502 298.029 428.399 298.56 428.194 299.022C427.995 299.485 427.711 299.878 427.342 300.2C426.979 300.522 426.551 300.766 426.059 300.93C425.566 301.094 425.03 301.176 424.45 301.176C423.894 301.176 423.369 301.097 422.877 300.938C422.391 300.78 421.96 300.552 421.585 300.253C421.21 299.948 420.917 299.576 420.706 299.137C420.495 298.691 420.39 298.185 420.39 297.616H422.016C422.016 298.062 422.112 298.451 422.306 298.785C422.505 299.119 422.786 299.38 423.149 299.567C423.519 299.749 423.952 299.84 424.45 299.84C424.948 299.84 425.376 299.755 425.733 299.585C426.097 299.409 426.375 299.146 426.568 298.794C426.768 298.442 426.867 298 426.867 297.467C426.867 296.934 426.756 296.497 426.533 296.157C426.311 295.812 425.994 295.557 425.584 295.393C425.18 295.223 424.702 295.138 424.151 295.138H422.991ZM438.812 297.537C438.812 298.316 438.63 298.979 438.267 299.523C437.909 300.062 437.423 300.473 436.808 300.754C436.198 301.035 435.51 301.176 434.742 301.176C433.975 301.176 433.283 301.035 432.668 300.754C432.053 300.473 431.566 300.062 431.209 299.523C430.852 298.979 430.673 298.316 430.673 297.537C430.673 297.027 430.77 296.562 430.963 296.14C431.162 295.712 431.44 295.34 431.798 295.023C432.161 294.707 432.589 294.464 433.081 294.294C433.579 294.118 434.127 294.03 434.725 294.03C435.51 294.03 436.21 294.183 436.825 294.487C437.44 294.786 437.924 295.199 438.275 295.727C438.633 296.254 438.812 296.857 438.812 297.537ZM437.177 297.502C437.177 297.027 437.074 296.608 436.869 296.245C436.664 295.876 436.377 295.589 436.008 295.384C435.639 295.179 435.211 295.076 434.725 295.076C434.227 295.076 433.796 295.179 433.433 295.384C433.075 295.589 432.797 295.876 432.598 296.245C432.398 296.608 432.299 297.027 432.299 297.502C432.299 297.994 432.396 298.416 432.589 298.768C432.788 299.113 433.069 299.38 433.433 299.567C433.802 299.749 434.238 299.84 434.742 299.84C435.246 299.84 435.68 299.749 436.043 299.567C436.406 299.38 436.685 299.113 436.878 298.768C437.077 298.416 437.177 297.994 437.177 297.502ZM438.513 291.534C438.513 292.155 438.349 292.715 438.021 293.213C437.692 293.711 437.244 294.104 436.676 294.391C436.107 294.678 435.463 294.821 434.742 294.821C434.01 294.821 433.356 294.678 432.782 294.391C432.214 294.104 431.769 293.711 431.446 293.213C431.124 292.715 430.963 292.155 430.963 291.534C430.963 290.79 431.124 290.157 431.446 289.636C431.774 289.114 432.223 288.716 432.791 288.44C433.359 288.165 434.007 288.027 434.733 288.027C435.466 288.027 436.116 288.165 436.685 288.44C437.253 288.716 437.698 289.114 438.021 289.636C438.349 290.157 438.513 290.79 438.513 291.534ZM436.887 291.561C436.887 291.133 436.796 290.755 436.614 290.427C436.433 290.099 436.181 289.841 435.858 289.653C435.536 289.46 435.161 289.363 434.733 289.363C434.306 289.363 433.931 289.454 433.608 289.636C433.292 289.812 433.043 290.063 432.861 290.392C432.686 290.72 432.598 291.109 432.598 291.561C432.598 292 432.686 292.384 432.861 292.712C433.043 293.04 433.295 293.295 433.617 293.477C433.939 293.658 434.314 293.749 434.742 293.749C435.17 293.749 435.542 293.658 435.858 293.477C436.181 293.295 436.433 293.04 436.614 292.712C436.796 292.384 436.887 292 436.887 291.561ZM449.517 296.693V298.029H440.271V297.071L446.001 288.203H447.328L445.904 290.77L442.116 296.693H449.517ZM447.732 288.203V301H446.106V288.203H447.732ZM453.366 293.802H454.526C455.095 293.802 455.563 293.708 455.933 293.521C456.308 293.327 456.586 293.066 456.768 292.738C456.955 292.404 457.049 292.029 457.049 291.613C457.049 291.121 456.967 290.708 456.803 290.374C456.639 290.04 456.393 289.788 456.064 289.618C455.736 289.448 455.32 289.363 454.816 289.363C454.359 289.363 453.955 289.454 453.604 289.636C453.258 289.812 452.985 290.063 452.786 290.392C452.593 290.72 452.496 291.106 452.496 291.552H450.87C450.87 290.901 451.034 290.31 451.362 289.776C451.69 289.243 452.15 288.818 452.742 288.502C453.34 288.186 454.031 288.027 454.816 288.027C455.59 288.027 456.267 288.165 456.847 288.44C457.427 288.71 457.878 289.114 458.2 289.653C458.522 290.187 458.684 290.852 458.684 291.648C458.684 291.971 458.607 292.316 458.455 292.686C458.309 293.049 458.077 293.389 457.761 293.705C457.45 294.021 457.046 294.282 456.548 294.487C456.05 294.687 455.452 294.786 454.755 294.786H453.366V293.802ZM453.366 295.138V294.162H454.755C455.569 294.162 456.243 294.259 456.776 294.452C457.31 294.646 457.729 294.903 458.033 295.226C458.344 295.548 458.561 295.902 458.684 296.289C458.812 296.67 458.877 297.051 458.877 297.432C458.877 298.029 458.774 298.56 458.569 299.022C458.37 299.485 458.086 299.878 457.717 300.2C457.354 300.522 456.926 300.766 456.434 300.93C455.941 301.094 455.405 301.176 454.825 301.176C454.269 301.176 453.744 301.097 453.252 300.938C452.766 300.78 452.335 300.552 451.96 300.253C451.585 299.948 451.292 299.576 451.081 299.137C450.87 298.691 450.765 298.185 450.765 297.616H452.391C452.391 298.062 452.487 298.451 452.681 298.785C452.88 299.119 453.161 299.38 453.524 299.567C453.894 299.749 454.327 299.84 454.825 299.84C455.323 299.84 455.751 299.755 456.108 299.585C456.472 299.409 456.75 299.146 456.943 298.794C457.143 298.442 457.242 298 457.242 297.467C457.242 296.934 457.131 296.497 456.908 296.157C456.686 295.812 456.369 295.557 455.959 295.393C455.555 295.223 455.077 295.138 454.526 295.138H453.366ZM375.258 316.579C375.234 317.118 375.152 317.66 375.012 318.205C374.871 318.744 374.66 319.239 374.379 319.69C374.098 320.142 373.731 320.505 373.28 320.78C372.835 321.05 372.296 321.185 371.663 321.185C371.259 321.185 370.904 321.114 370.6 320.974C370.301 320.827 370.055 320.619 369.861 320.35C369.674 320.08 369.542 319.755 369.466 319.374C369.396 318.993 369.384 318.568 369.431 318.1L369.879 313.23H371.171L370.723 318.1C370.688 318.527 370.696 318.876 370.749 319.146C370.808 319.415 370.896 319.623 371.013 319.77C371.13 319.91 371.262 320.007 371.408 320.06C371.561 320.112 371.707 320.139 371.848 320.139C372.199 320.139 372.513 320.048 372.788 319.866C373.063 319.679 373.295 319.424 373.482 319.102C373.676 318.773 373.825 318.396 373.931 317.968C374.036 317.534 374.101 317.071 374.124 316.579C374.165 315.706 374.124 314.903 374.001 314.171C373.884 313.438 373.682 312.788 373.395 312.22C373.113 311.651 372.744 311.171 372.287 310.778C371.83 310.386 371.285 310.087 370.652 309.882C370.02 309.677 369.296 309.574 368.481 309.574C367.743 309.574 367.061 309.688 366.434 309.917C365.812 310.14 365.253 310.462 364.755 310.884C364.263 311.306 363.838 311.812 363.48 312.404C363.129 312.996 362.851 313.664 362.646 314.408C362.446 315.146 362.329 315.943 362.294 316.799C362.253 317.678 362.3 318.486 362.435 319.225C362.569 319.957 362.786 320.61 363.085 321.185C363.39 321.765 363.773 322.254 364.236 322.652C364.699 323.057 365.235 323.361 365.845 323.566C366.454 323.777 367.134 323.883 367.884 323.883C368.399 323.883 368.921 323.821 369.448 323.698C369.981 323.575 370.427 323.408 370.784 323.197L371.118 324.199C370.708 324.463 370.195 324.659 369.58 324.788C368.971 324.917 368.394 324.981 367.849 324.981C366.958 324.981 366.144 324.858 365.405 324.612C364.673 324.372 364.022 324.018 363.454 323.549C362.892 323.086 362.423 322.521 362.048 321.853C361.673 321.19 361.397 320.435 361.222 319.585C361.046 318.735 360.979 317.807 361.02 316.799C361.061 315.838 361.204 314.933 361.45 314.083C361.702 313.233 362.045 312.463 362.479 311.771C362.912 311.08 363.428 310.485 364.025 309.987C364.629 309.483 365.306 309.097 366.056 308.827C366.812 308.558 367.632 308.423 368.517 308.423C369.419 308.423 370.236 308.546 370.969 308.792C371.701 309.038 372.343 309.393 372.894 309.855C373.45 310.318 373.91 310.884 374.273 311.552C374.637 312.22 374.9 312.976 375.064 313.819C375.234 314.663 375.299 315.583 375.258 316.579ZM366.231 317.326C366.19 317.736 366.19 318.103 366.231 318.425C366.272 318.747 366.352 319.02 366.469 319.242C366.586 319.465 366.738 319.635 366.926 319.752C367.119 319.863 367.345 319.919 367.603 319.919C367.772 319.919 367.951 319.878 368.139 319.796C368.326 319.708 368.511 319.573 368.692 319.392C368.874 319.21 369.044 318.973 369.202 318.68C369.36 318.387 369.492 318.035 369.598 317.625L370.178 318.258C370.043 318.738 369.867 319.16 369.65 319.523C369.439 319.887 369.202 320.191 368.938 320.438C368.675 320.684 368.394 320.871 368.095 321C367.802 321.123 367.503 321.185 367.198 321.185C366.771 321.185 366.396 321.094 366.073 320.912C365.751 320.725 365.49 320.461 365.291 320.121C365.092 319.781 364.951 319.377 364.869 318.908C364.793 318.434 364.781 317.906 364.834 317.326C364.887 316.711 364.995 316.143 365.159 315.621C365.323 315.1 365.525 314.634 365.766 314.224C366.012 313.813 366.287 313.465 366.592 313.178C366.902 312.891 367.23 312.674 367.576 312.527C367.922 312.375 368.276 312.299 368.64 312.299C369.272 312.299 369.771 312.393 370.134 312.58C370.497 312.762 370.843 312.979 371.171 313.23L370.424 314.101C370.254 313.937 370.031 313.784 369.756 313.644C369.48 313.503 369.155 313.433 368.78 313.433C368.458 313.433 368.156 313.515 367.875 313.679C367.594 313.843 367.339 314.089 367.11 314.417C366.888 314.745 366.7 315.152 366.548 315.639C366.396 316.119 366.29 316.682 366.231 317.326ZM379.028 313.38V321H377.394V311.49H378.94L379.028 313.38ZM378.694 315.885L377.938 315.858C377.944 315.208 378.029 314.607 378.193 314.057C378.357 313.5 378.601 313.017 378.923 312.606C379.245 312.196 379.646 311.88 380.127 311.657C380.607 311.429 381.164 311.314 381.797 311.314C382.242 311.314 382.652 311.379 383.027 311.508C383.402 311.631 383.728 311.827 384.003 312.097C384.278 312.366 384.492 312.712 384.645 313.134C384.797 313.556 384.873 314.065 384.873 314.663V321H383.247V314.742C383.247 314.244 383.162 313.846 382.992 313.547C382.828 313.248 382.594 313.031 382.289 312.896C381.984 312.756 381.627 312.686 381.217 312.686C380.736 312.686 380.335 312.771 380.013 312.94C379.69 313.11 379.433 313.345 379.239 313.644C379.046 313.942 378.905 314.285 378.817 314.672C378.735 315.053 378.694 315.457 378.694 315.885ZM384.855 314.988L383.766 315.322C383.771 314.801 383.856 314.3 384.021 313.819C384.19 313.339 384.434 312.911 384.75 312.536C385.072 312.161 385.468 311.865 385.937 311.648C386.405 311.426 386.941 311.314 387.545 311.314C388.055 311.314 388.506 311.382 388.898 311.517C389.297 311.651 389.631 311.859 389.9 312.141C390.176 312.416 390.384 312.771 390.524 313.204C390.665 313.638 390.735 314.153 390.735 314.751V321H389.101V314.733C389.101 314.2 389.016 313.787 388.846 313.494C388.682 313.195 388.447 312.987 388.143 312.87C387.844 312.747 387.486 312.686 387.07 312.686C386.713 312.686 386.396 312.747 386.121 312.87C385.846 312.993 385.614 313.163 385.427 313.38C385.239 313.591 385.096 313.834 384.996 314.109C384.902 314.385 384.855 314.678 384.855 314.988ZM398.804 319.374V314.479C398.804 314.104 398.728 313.778 398.575 313.503C398.429 313.222 398.206 313.005 397.907 312.853C397.608 312.7 397.239 312.624 396.8 312.624C396.39 312.624 396.029 312.694 395.719 312.835C395.414 312.976 395.174 313.16 394.998 313.389C394.828 313.617 394.743 313.863 394.743 314.127H393.117C393.117 313.787 393.205 313.45 393.381 313.116C393.557 312.782 393.809 312.48 394.137 312.211C394.471 311.936 394.869 311.719 395.332 311.561C395.801 311.396 396.322 311.314 396.896 311.314C397.588 311.314 398.197 311.432 398.725 311.666C399.258 311.9 399.674 312.255 399.973 312.729C400.277 313.198 400.43 313.787 400.43 314.496V318.926C400.43 319.242 400.456 319.579 400.509 319.937C400.567 320.294 400.652 320.602 400.764 320.859V321H399.067C398.985 320.812 398.921 320.563 398.874 320.253C398.827 319.937 398.804 319.644 398.804 319.374ZM399.085 315.234L399.103 316.377H397.459C396.996 316.377 396.583 316.415 396.22 316.491C395.856 316.562 395.552 316.67 395.306 316.816C395.06 316.963 394.872 317.147 394.743 317.37C394.614 317.587 394.55 317.842 394.55 318.135C394.55 318.434 394.617 318.706 394.752 318.952C394.887 319.198 395.089 319.395 395.358 319.541C395.634 319.682 395.971 319.752 396.369 319.752C396.867 319.752 397.307 319.646 397.688 319.436C398.068 319.225 398.37 318.967 398.593 318.662C398.821 318.357 398.944 318.062 398.962 317.774L399.656 318.557C399.615 318.803 399.504 319.075 399.322 319.374C399.141 319.673 398.897 319.96 398.593 320.235C398.294 320.505 397.937 320.73 397.521 320.912C397.11 321.088 396.647 321.176 396.132 321.176C395.487 321.176 394.922 321.05 394.436 320.798C393.955 320.546 393.58 320.209 393.311 319.787C393.047 319.359 392.915 318.882 392.915 318.354C392.915 317.845 393.015 317.396 393.214 317.01C393.413 316.617 393.7 316.292 394.075 316.034C394.45 315.771 394.901 315.571 395.429 315.437C395.956 315.302 396.545 315.234 397.195 315.234H399.085ZM406.969 311.49V312.738H401.827V311.49H406.969ZM403.567 309.179H405.193V318.645C405.193 318.967 405.243 319.21 405.343 319.374C405.442 319.538 405.571 319.646 405.729 319.699C405.888 319.752 406.058 319.778 406.239 319.778C406.374 319.778 406.515 319.767 406.661 319.743C406.813 319.714 406.928 319.69 407.004 319.673L407.013 321C406.884 321.041 406.714 321.079 406.503 321.114C406.298 321.155 406.049 321.176 405.756 321.176C405.357 321.176 404.991 321.097 404.657 320.938C404.323 320.78 404.057 320.517 403.857 320.147C403.664 319.772 403.567 319.269 403.567 318.636V309.179ZM410.502 307.5V321H408.876V307.5H410.502ZM410.115 315.885L409.438 315.858C409.444 315.208 409.541 314.607 409.729 314.057C409.916 313.5 410.18 313.017 410.52 312.606C410.859 312.196 411.264 311.88 411.732 311.657C412.207 311.429 412.731 311.314 413.306 311.314C413.774 311.314 414.196 311.379 414.571 311.508C414.946 311.631 415.266 311.83 415.529 312.105C415.799 312.381 416.004 312.738 416.145 313.178C416.285 313.611 416.355 314.142 416.355 314.769V321H414.721V314.751C414.721 314.253 414.647 313.854 414.501 313.556C414.354 313.251 414.141 313.031 413.859 312.896C413.578 312.756 413.232 312.686 412.822 312.686C412.418 312.686 412.049 312.771 411.715 312.94C411.387 313.11 411.103 313.345 410.862 313.644C410.628 313.942 410.443 314.285 410.309 314.672C410.18 315.053 410.115 315.457 410.115 315.885ZM424.608 318.803V311.49H426.243V321H424.688L424.608 318.803ZM424.916 316.799L425.593 316.781C425.593 317.414 425.525 318 425.391 318.539C425.262 319.072 425.051 319.535 424.758 319.928C424.465 320.32 424.081 320.628 423.606 320.851C423.132 321.067 422.555 321.176 421.875 321.176C421.412 321.176 420.987 321.108 420.601 320.974C420.22 320.839 419.892 320.631 419.616 320.35C419.341 320.068 419.127 319.702 418.975 319.251C418.828 318.8 418.755 318.258 418.755 317.625V311.49H420.381V317.643C420.381 318.07 420.428 318.425 420.521 318.706C420.621 318.981 420.753 319.201 420.917 319.365C421.087 319.523 421.274 319.635 421.479 319.699C421.69 319.764 421.907 319.796 422.13 319.796C422.821 319.796 423.369 319.664 423.773 319.4C424.178 319.131 424.468 318.771 424.644 318.319C424.825 317.862 424.916 317.355 424.916 316.799ZM430.348 312.984V321H428.722V311.49H430.304L430.348 312.984ZM433.318 311.438L433.31 312.949C433.175 312.92 433.046 312.902 432.923 312.896C432.806 312.885 432.671 312.879 432.519 312.879C432.144 312.879 431.812 312.938 431.525 313.055C431.238 313.172 430.995 313.336 430.796 313.547C430.597 313.758 430.438 314.01 430.321 314.303C430.21 314.59 430.137 314.906 430.102 315.252L429.645 315.516C429.645 314.941 429.7 314.402 429.812 313.898C429.929 313.395 430.107 312.949 430.348 312.562C430.588 312.17 430.893 311.865 431.262 311.648C431.637 311.426 432.082 311.314 432.598 311.314C432.715 311.314 432.85 311.329 433.002 311.358C433.154 311.382 433.26 311.408 433.318 311.438ZM440.077 319.374V314.479C440.077 314.104 440.001 313.778 439.849 313.503C439.702 313.222 439.479 313.005 439.181 312.853C438.882 312.7 438.513 312.624 438.073 312.624C437.663 312.624 437.303 312.694 436.992 312.835C436.688 312.976 436.447 313.16 436.271 313.389C436.102 313.617 436.017 313.863 436.017 314.127H434.391C434.391 313.787 434.479 313.45 434.654 313.116C434.83 312.782 435.082 312.48 435.41 312.211C435.744 311.936 436.143 311.719 436.605 311.561C437.074 311.396 437.596 311.314 438.17 311.314C438.861 311.314 439.471 311.432 439.998 311.666C440.531 311.9 440.947 312.255 441.246 312.729C441.551 313.198 441.703 313.787 441.703 314.496V318.926C441.703 319.242 441.729 319.579 441.782 319.937C441.841 320.294 441.926 320.602 442.037 320.859V321H440.341C440.259 320.812 440.194 320.563 440.147 320.253C440.101 319.937 440.077 319.644 440.077 319.374ZM440.358 315.234L440.376 316.377H438.732C438.27 316.377 437.856 316.415 437.493 316.491C437.13 316.562 436.825 316.67 436.579 316.816C436.333 316.963 436.146 317.147 436.017 317.37C435.888 317.587 435.823 317.842 435.823 318.135C435.823 318.434 435.891 318.706 436.025 318.952C436.16 319.198 436.362 319.395 436.632 319.541C436.907 319.682 437.244 319.752 437.643 319.752C438.141 319.752 438.58 319.646 438.961 319.436C439.342 319.225 439.644 318.967 439.866 318.662C440.095 318.357 440.218 318.062 440.235 317.774L440.93 318.557C440.889 318.803 440.777 319.075 440.596 319.374C440.414 319.673 440.171 319.96 439.866 320.235C439.567 320.505 439.21 320.73 438.794 320.912C438.384 321.088 437.921 321.176 437.405 321.176C436.761 321.176 436.195 321.05 435.709 320.798C435.229 320.546 434.854 320.209 434.584 319.787C434.32 319.359 434.188 318.882 434.188 318.354C434.188 317.845 434.288 317.396 434.487 317.01C434.687 316.617 434.974 316.292 435.349 316.034C435.724 315.771 436.175 315.571 436.702 315.437C437.229 315.302 437.818 315.234 438.469 315.234H440.358ZM445.887 307.5V321H444.261V307.5H445.887ZM445.5 315.885L444.823 315.858C444.829 315.208 444.926 314.607 445.113 314.057C445.301 313.5 445.564 313.017 445.904 312.606C446.244 312.196 446.648 311.88 447.117 311.657C447.592 311.429 448.116 311.314 448.69 311.314C449.159 311.314 449.581 311.379 449.956 311.508C450.331 311.631 450.65 311.83 450.914 312.105C451.184 312.381 451.389 312.738 451.529 313.178C451.67 313.611 451.74 314.142 451.74 314.769V321H450.105V314.751C450.105 314.253 450.032 313.854 449.886 313.556C449.739 313.251 449.525 313.031 449.244 312.896C448.963 312.756 448.617 312.686 448.207 312.686C447.803 312.686 447.434 312.771 447.1 312.94C446.771 313.11 446.487 313.345 446.247 313.644C446.013 313.942 445.828 314.285 445.693 314.672C445.564 315.053 445.5 315.457 445.5 315.885ZM455.801 312.984V321H454.175V311.49H455.757L455.801 312.984ZM458.771 311.438L458.763 312.949C458.628 312.92 458.499 312.902 458.376 312.896C458.259 312.885 458.124 312.879 457.972 312.879C457.597 312.879 457.266 312.938 456.979 313.055C456.691 313.172 456.448 313.336 456.249 313.547C456.05 313.758 455.892 314.01 455.774 314.303C455.663 314.59 455.59 314.906 455.555 315.252L455.098 315.516C455.098 314.941 455.153 314.402 455.265 313.898C455.382 313.395 455.561 312.949 455.801 312.562C456.041 312.17 456.346 311.865 456.715 311.648C457.09 311.426 457.535 311.314 458.051 311.314C458.168 311.314 458.303 311.329 458.455 311.358C458.607 311.382 458.713 311.408 458.771 311.438ZM465.53 319.374V314.479C465.53 314.104 465.454 313.778 465.302 313.503C465.155 313.222 464.933 313.005 464.634 312.853C464.335 312.7 463.966 312.624 463.526 312.624C463.116 312.624 462.756 312.694 462.445 312.835C462.141 312.976 461.9 313.16 461.725 313.389C461.555 313.617 461.47 313.863 461.47 314.127H459.844C459.844 313.787 459.932 313.45 460.107 313.116C460.283 312.782 460.535 312.48 460.863 312.211C461.197 311.936 461.596 311.719 462.059 311.561C462.527 311.396 463.049 311.314 463.623 311.314C464.314 311.314 464.924 311.432 465.451 311.666C465.984 311.9 466.4 312.255 466.699 312.729C467.004 313.198 467.156 313.787 467.156 314.496V318.926C467.156 319.242 467.183 319.579 467.235 319.937C467.294 320.294 467.379 320.602 467.49 320.859V321H465.794C465.712 320.812 465.647 320.563 465.601 320.253C465.554 319.937 465.53 319.644 465.53 319.374ZM465.812 315.234L465.829 316.377H464.186C463.723 316.377 463.31 316.415 462.946 316.491C462.583 316.562 462.278 316.67 462.032 316.816C461.786 316.963 461.599 317.147 461.47 317.37C461.341 317.587 461.276 317.842 461.276 318.135C461.276 318.434 461.344 318.706 461.479 318.952C461.613 319.198 461.815 319.395 462.085 319.541C462.36 319.682 462.697 319.752 463.096 319.752C463.594 319.752 464.033 319.646 464.414 319.436C464.795 319.225 465.097 318.967 465.319 318.662C465.548 318.357 465.671 318.062 465.688 317.774L466.383 318.557C466.342 318.803 466.23 319.075 466.049 319.374C465.867 319.673 465.624 319.96 465.319 320.235C465.021 320.505 464.663 320.73 464.247 320.912C463.837 321.088 463.374 321.176 462.858 321.176C462.214 321.176 461.648 321.05 461.162 320.798C460.682 320.546 460.307 320.209 460.037 319.787C459.773 319.359 459.642 318.882 459.642 318.354C459.642 317.845 459.741 317.396 459.94 317.01C460.14 316.617 460.427 316.292 460.802 316.034C461.177 315.771 461.628 315.571 462.155 315.437C462.683 315.302 463.271 315.234 463.922 315.234H465.812ZM472.465 319.532L475.066 311.49H476.728L473.309 321H472.219L472.465 319.532ZM470.294 311.49L472.975 319.576L473.159 321H472.069L468.624 311.49H470.294ZM480.059 311.49V321H478.424V311.49H480.059ZM478.301 308.968C478.301 308.704 478.38 308.481 478.538 308.3C478.702 308.118 478.942 308.027 479.259 308.027C479.569 308.027 479.807 308.118 479.971 308.3C480.141 308.481 480.226 308.704 480.226 308.968C480.226 309.22 480.141 309.437 479.971 309.618C479.807 309.794 479.569 309.882 479.259 309.882C478.942 309.882 478.702 309.794 478.538 309.618C478.38 309.437 478.301 309.22 478.301 308.968Z" fill="#838383"/>
<path d="M52.7764 186.478C52.7764 186.243 52.7236 186.026 52.6182 185.827C52.5186 185.622 52.3105 185.438 51.9941 185.273C51.6836 185.104 51.2148 184.957 50.5879 184.834C50.0605 184.723 49.583 184.591 49.1553 184.438C48.7334 184.286 48.373 184.102 48.0742 183.885C47.7812 183.668 47.5557 183.413 47.3975 183.12C47.2393 182.827 47.1602 182.484 47.1602 182.092C47.1602 181.717 47.2422 181.362 47.4062 181.028C47.5762 180.694 47.8135 180.398 48.1182 180.141C48.4287 179.883 48.8008 179.681 49.2344 179.534C49.668 179.388 50.1514 179.314 50.6846 179.314C51.4463 179.314 52.0967 179.449 52.6357 179.719C53.1748 179.988 53.5879 180.349 53.875 180.8C54.1621 181.245 54.3057 181.74 54.3057 182.285H52.6797C52.6797 182.021 52.6006 181.767 52.4424 181.521C52.29 181.269 52.0645 181.061 51.7656 180.896C51.4727 180.732 51.1123 180.65 50.6846 180.65C50.2334 180.65 49.8672 180.721 49.5859 180.861C49.3105 180.996 49.1084 181.169 48.9795 181.38C48.8564 181.591 48.7949 181.813 48.7949 182.048C48.7949 182.224 48.8242 182.382 48.8828 182.522C48.9473 182.657 49.0586 182.783 49.2168 182.9C49.375 183.012 49.5977 183.117 49.8848 183.217C50.1719 183.316 50.5381 183.416 50.9834 183.516C51.7627 183.691 52.4043 183.902 52.9082 184.148C53.4121 184.395 53.7871 184.696 54.0332 185.054C54.2793 185.411 54.4023 185.845 54.4023 186.354C54.4023 186.771 54.3145 187.151 54.1387 187.497C53.9688 187.843 53.7197 188.142 53.3916 188.394C53.0693 188.64 52.6826 188.833 52.2314 188.974C51.7861 189.108 51.2852 189.176 50.7285 189.176C49.8906 189.176 49.1816 189.026 48.6016 188.728C48.0215 188.429 47.582 188.042 47.2832 187.567C46.9844 187.093 46.835 186.592 46.835 186.064H48.4697C48.4932 186.51 48.6221 186.864 48.8564 187.128C49.0908 187.386 49.3779 187.57 49.7178 187.682C50.0576 187.787 50.3945 187.84 50.7285 187.84C51.1738 187.84 51.5459 187.781 51.8447 187.664C52.1494 187.547 52.3809 187.386 52.5391 187.181C52.6973 186.976 52.7764 186.741 52.7764 186.478ZM60.5195 179.49V180.738H55.3779V179.49H60.5195ZM57.1182 177.179H58.7441V186.645C58.7441 186.967 58.7939 187.21 58.8936 187.374C58.9932 187.538 59.1221 187.646 59.2803 187.699C59.4385 187.752 59.6084 187.778 59.79 187.778C59.9248 187.778 60.0654 187.767 60.2119 187.743C60.3643 187.714 60.4785 187.69 60.5547 187.673L60.5635 189C60.4346 189.041 60.2646 189.079 60.0537 189.114C59.8486 189.155 59.5996 189.176 59.3066 189.176C58.9082 189.176 58.542 189.097 58.208 188.938C57.874 188.78 57.6074 188.517 57.4082 188.147C57.2148 187.772 57.1182 187.269 57.1182 186.636V177.179ZM64.0527 180.984V189H62.4268V179.49H64.0088L64.0527 180.984ZM67.0234 179.438L67.0146 180.949C66.8799 180.92 66.751 180.902 66.6279 180.896C66.5107 180.885 66.376 180.879 66.2236 180.879C65.8486 180.879 65.5176 180.938 65.2305 181.055C64.9434 181.172 64.7002 181.336 64.501 181.547C64.3018 181.758 64.1436 182.01 64.0264 182.303C63.915 182.59 63.8418 182.906 63.8066 183.252L63.3496 183.516C63.3496 182.941 63.4053 182.402 63.5166 181.898C63.6338 181.395 63.8125 180.949 64.0527 180.562C64.293 180.17 64.5977 179.865 64.9668 179.648C65.3418 179.426 65.7871 179.314 66.3027 179.314C66.4199 179.314 66.5547 179.329 66.707 179.358C66.8594 179.382 66.9648 179.408 67.0234 179.438ZM73.7822 187.374V182.479C73.7822 182.104 73.7061 181.778 73.5537 181.503C73.4072 181.222 73.1846 181.005 72.8857 180.853C72.5869 180.7 72.2178 180.624 71.7783 180.624C71.3682 180.624 71.0078 180.694 70.6973 180.835C70.3926 180.976 70.1523 181.16 69.9766 181.389C69.8066 181.617 69.7217 181.863 69.7217 182.127H68.0957C68.0957 181.787 68.1836 181.45 68.3594 181.116C68.5352 180.782 68.7871 180.48 69.1152 180.211C69.4492 179.936 69.8477 179.719 70.3105 179.561C70.7793 179.396 71.3008 179.314 71.875 179.314C72.5664 179.314 73.1758 179.432 73.7031 179.666C74.2363 179.9 74.6523 180.255 74.9512 180.729C75.2559 181.198 75.4082 181.787 75.4082 182.496V186.926C75.4082 187.242 75.4346 187.579 75.4873 187.937C75.5459 188.294 75.6309 188.602 75.7422 188.859V189H74.0459C73.9639 188.812 73.8994 188.563 73.8525 188.253C73.8057 187.937 73.7822 187.644 73.7822 187.374ZM74.0635 183.234L74.0811 184.377H72.4375C71.9746 184.377 71.5615 184.415 71.1982 184.491C70.835 184.562 70.5303 184.67 70.2842 184.816C70.0381 184.963 69.8506 185.147 69.7217 185.37C69.5928 185.587 69.5283 185.842 69.5283 186.135C69.5283 186.434 69.5957 186.706 69.7305 186.952C69.8652 187.198 70.0674 187.395 70.3369 187.541C70.6123 187.682 70.9492 187.752 71.3477 187.752C71.8457 187.752 72.2852 187.646 72.666 187.436C73.0469 187.225 73.3486 186.967 73.5713 186.662C73.7998 186.357 73.9229 186.062 73.9404 185.774L74.6348 186.557C74.5938 186.803 74.4824 187.075 74.3008 187.374C74.1191 187.673 73.876 187.96 73.5713 188.235C73.2725 188.505 72.915 188.73 72.499 188.912C72.0889 189.088 71.626 189.176 71.1104 189.176C70.4658 189.176 69.9004 189.05 69.4141 188.798C68.9336 188.546 68.5586 188.209 68.2891 187.787C68.0254 187.359 67.8936 186.882 67.8936 186.354C67.8936 185.845 67.9932 185.396 68.1924 185.01C68.3916 184.617 68.6787 184.292 69.0537 184.034C69.4287 183.771 69.8799 183.571 70.4072 183.437C70.9346 183.302 71.5234 183.234 72.1738 183.234H74.0635ZM79.7324 179.49V189H78.0977V179.49H79.7324ZM77.9746 176.968C77.9746 176.704 78.0537 176.481 78.2119 176.3C78.376 176.118 78.6162 176.027 78.9326 176.027C79.2432 176.027 79.4805 176.118 79.6445 176.3C79.8145 176.481 79.8994 176.704 79.8994 176.968C79.8994 177.22 79.8145 177.437 79.6445 177.618C79.4805 177.794 79.2432 177.882 78.9326 177.882C78.6162 177.882 78.376 177.794 78.2119 177.618C78.0537 177.437 77.9746 177.22 77.9746 176.968ZM88.5039 179.49H89.9805V188.798C89.9805 189.636 89.8105 190.351 89.4707 190.942C89.1309 191.534 88.6562 191.982 88.0469 192.287C87.4434 192.598 86.7461 192.753 85.9551 192.753C85.627 192.753 85.2402 192.7 84.7949 192.595C84.3555 192.495 83.9219 192.322 83.4941 192.076C83.0723 191.836 82.7178 191.511 82.4307 191.101L83.2832 190.134C83.6816 190.614 84.0977 190.948 84.5312 191.136C84.9707 191.323 85.4043 191.417 85.832 191.417C86.3477 191.417 86.793 191.32 87.168 191.127C87.543 190.934 87.833 190.646 88.0381 190.266C88.249 189.891 88.3545 189.428 88.3545 188.877V181.582L88.5039 179.49ZM81.9561 184.351V184.166C81.9561 183.439 82.041 182.78 82.2109 182.188C82.3867 181.591 82.6357 181.078 82.958 180.65C83.2861 180.223 83.6816 179.895 84.1445 179.666C84.6074 179.432 85.1289 179.314 85.709 179.314C86.3066 179.314 86.8281 179.42 87.2734 179.631C87.7246 179.836 88.1055 180.138 88.416 180.536C88.7324 180.929 88.9814 181.403 89.1631 181.96C89.3447 182.517 89.4707 183.146 89.541 183.85V184.658C89.4766 185.355 89.3506 185.982 89.1631 186.539C88.9814 187.096 88.7324 187.57 88.416 187.963C88.1055 188.355 87.7246 188.657 87.2734 188.868C86.8223 189.073 86.2949 189.176 85.6914 189.176C85.123 189.176 84.6074 189.056 84.1445 188.815C83.6875 188.575 83.2949 188.238 82.9668 187.805C82.6387 187.371 82.3867 186.861 82.2109 186.275C82.041 185.684 81.9561 185.042 81.9561 184.351ZM83.582 184.166V184.351C83.582 184.825 83.6289 185.271 83.7227 185.687C83.8223 186.103 83.9717 186.469 84.1709 186.785C84.376 187.102 84.6367 187.351 84.9531 187.532C85.2695 187.708 85.6475 187.796 86.0869 187.796C86.626 187.796 87.0713 187.682 87.4229 187.453C87.7744 187.225 88.0527 186.923 88.2578 186.548C88.4688 186.173 88.6328 185.766 88.75 185.326V183.208C88.6855 182.886 88.5859 182.575 88.4512 182.276C88.3223 181.972 88.1523 181.702 87.9414 181.468C87.7363 181.228 87.4814 181.037 87.1768 180.896C86.8721 180.756 86.5146 180.686 86.1045 180.686C85.6592 180.686 85.2754 180.779 84.9531 180.967C84.6367 181.148 84.376 181.4 84.1709 181.723C83.9717 182.039 83.8223 182.408 83.7227 182.83C83.6289 183.246 83.582 183.691 83.582 184.166ZM94.0762 175.5V189H92.4502V175.5H94.0762ZM93.6895 183.885L93.0127 183.858C93.0186 183.208 93.1152 182.607 93.3027 182.057C93.4902 181.5 93.7539 181.017 94.0938 180.606C94.4336 180.196 94.8379 179.88 95.3066 179.657C95.7812 179.429 96.3057 179.314 96.8799 179.314C97.3486 179.314 97.7705 179.379 98.1455 179.508C98.5205 179.631 98.8398 179.83 99.1035 180.105C99.373 180.381 99.5781 180.738 99.7188 181.178C99.8594 181.611 99.9297 182.142 99.9297 182.769V189H98.2949V182.751C98.2949 182.253 98.2217 181.854 98.0752 181.556C97.9287 181.251 97.7148 181.031 97.4336 180.896C97.1523 180.756 96.8066 180.686 96.3965 180.686C95.9922 180.686 95.623 180.771 95.2891 180.94C94.9609 181.11 94.6768 181.345 94.4365 181.644C94.2021 181.942 94.0176 182.285 93.8828 182.672C93.7539 183.053 93.6895 183.457 93.6895 183.885ZM106.346 179.49V180.738H101.204V179.49H106.346ZM102.944 177.179H104.57V186.645C104.57 186.967 104.62 187.21 104.72 187.374C104.819 187.538 104.948 187.646 105.106 187.699C105.265 187.752 105.435 187.778 105.616 187.778C105.751 187.778 105.892 187.767 106.038 187.743C106.19 187.714 106.305 187.69 106.381 187.673L106.39 189C106.261 189.041 106.091 189.079 105.88 189.114C105.675 189.155 105.426 189.176 105.133 189.176C104.734 189.176 104.368 189.097 104.034 188.938C103.7 188.78 103.434 188.517 103.234 188.147C103.041 187.772 102.944 187.269 102.944 186.636V177.179ZM114.071 186.803V179.49H115.706V189H114.15L114.071 186.803ZM114.379 184.799L115.056 184.781C115.056 185.414 114.988 186 114.854 186.539C114.725 187.072 114.514 187.535 114.221 187.928C113.928 188.32 113.544 188.628 113.069 188.851C112.595 189.067 112.018 189.176 111.338 189.176C110.875 189.176 110.45 189.108 110.063 188.974C109.683 188.839 109.354 188.631 109.079 188.35C108.804 188.068 108.59 187.702 108.438 187.251C108.291 186.8 108.218 186.258 108.218 185.625V179.49H109.844V185.643C109.844 186.07 109.891 186.425 109.984 186.706C110.084 186.981 110.216 187.201 110.38 187.365C110.55 187.523 110.737 187.635 110.942 187.699C111.153 187.764 111.37 187.796 111.593 187.796C112.284 187.796 112.832 187.664 113.236 187.4C113.641 187.131 113.931 186.771 114.106 186.319C114.288 185.862 114.379 185.355 114.379 184.799ZM119.811 181.318V192.656H118.176V179.49H119.67L119.811 181.318ZM126.218 184.166V184.351C126.218 185.042 126.136 185.684 125.972 186.275C125.808 186.861 125.567 187.371 125.251 187.805C124.94 188.238 124.557 188.575 124.1 188.815C123.643 189.056 123.118 189.176 122.526 189.176C121.923 189.176 121.39 189.076 120.927 188.877C120.464 188.678 120.071 188.388 119.749 188.007C119.427 187.626 119.169 187.169 118.976 186.636C118.788 186.103 118.659 185.502 118.589 184.834V183.85C118.659 183.146 118.791 182.517 118.984 181.96C119.178 181.403 119.433 180.929 119.749 180.536C120.071 180.138 120.461 179.836 120.918 179.631C121.375 179.42 121.902 179.314 122.5 179.314C123.098 179.314 123.628 179.432 124.091 179.666C124.554 179.895 124.943 180.223 125.26 180.65C125.576 181.078 125.813 181.591 125.972 182.188C126.136 182.78 126.218 183.439 126.218 184.166ZM124.583 184.351V184.166C124.583 183.691 124.533 183.246 124.434 182.83C124.334 182.408 124.179 182.039 123.968 181.723C123.763 181.4 123.499 181.148 123.177 180.967C122.854 180.779 122.471 180.686 122.025 180.686C121.615 180.686 121.258 180.756 120.953 180.896C120.654 181.037 120.399 181.228 120.188 181.468C119.978 181.702 119.805 181.972 119.67 182.276C119.541 182.575 119.444 182.886 119.38 183.208V185.484C119.497 185.895 119.661 186.281 119.872 186.645C120.083 187.002 120.364 187.292 120.716 187.515C121.067 187.731 121.51 187.84 122.043 187.84C122.482 187.84 122.86 187.749 123.177 187.567C123.499 187.38 123.763 187.125 123.968 186.803C124.179 186.48 124.334 186.111 124.434 185.695C124.533 185.273 124.583 184.825 124.583 184.351ZM128.336 179.49H129.971V190.134C129.971 190.714 129.877 191.206 129.689 191.61C129.508 192.015 129.232 192.319 128.863 192.524C128.5 192.735 128.04 192.841 127.483 192.841C127.337 192.841 127.167 192.826 126.974 192.797C126.774 192.768 126.607 192.732 126.473 192.691L126.481 191.382C126.593 191.405 126.719 191.423 126.859 191.435C127 191.452 127.123 191.461 127.229 191.461C127.469 191.461 127.671 191.417 127.835 191.329C127.999 191.241 128.122 191.101 128.204 190.907C128.292 190.714 128.336 190.456 128.336 190.134V179.49ZM128.169 176.968C128.169 176.704 128.251 176.481 128.415 176.3C128.579 176.118 128.816 176.027 129.127 176.027C129.443 176.027 129.684 176.118 129.848 176.3C130.012 176.481 130.094 176.704 130.094 176.968C130.094 177.22 130.012 177.437 129.848 177.618C129.684 177.794 129.443 177.882 129.127 177.882C128.816 177.882 128.579 177.794 128.415 177.618C128.251 177.437 128.169 177.22 128.169 176.968ZM138.206 187.374V182.479C138.206 182.104 138.13 181.778 137.978 181.503C137.831 181.222 137.608 181.005 137.31 180.853C137.011 180.7 136.642 180.624 136.202 180.624C135.792 180.624 135.432 180.694 135.121 180.835C134.816 180.976 134.576 181.16 134.4 181.389C134.23 181.617 134.146 181.863 134.146 182.127H132.52C132.52 181.787 132.607 181.45 132.783 181.116C132.959 180.782 133.211 180.48 133.539 180.211C133.873 179.936 134.271 179.719 134.734 179.561C135.203 179.396 135.725 179.314 136.299 179.314C136.99 179.314 137.6 179.432 138.127 179.666C138.66 179.9 139.076 180.255 139.375 180.729C139.68 181.198 139.832 181.787 139.832 182.496V186.926C139.832 187.242 139.858 187.579 139.911 187.937C139.97 188.294 140.055 188.602 140.166 188.859V189H138.47C138.388 188.812 138.323 188.563 138.276 188.253C138.229 187.937 138.206 187.644 138.206 187.374ZM138.487 183.234L138.505 184.377H136.861C136.398 184.377 135.985 184.415 135.622 184.491C135.259 184.562 134.954 184.67 134.708 184.816C134.462 184.963 134.274 185.147 134.146 185.37C134.017 185.587 133.952 185.842 133.952 186.135C133.952 186.434 134.02 186.706 134.154 186.952C134.289 187.198 134.491 187.395 134.761 187.541C135.036 187.682 135.373 187.752 135.771 187.752C136.27 187.752 136.709 187.646 137.09 187.436C137.471 187.225 137.772 186.967 137.995 186.662C138.224 186.357 138.347 186.062 138.364 185.774L139.059 186.557C139.018 186.803 138.906 187.075 138.725 187.374C138.543 187.673 138.3 187.96 137.995 188.235C137.696 188.505 137.339 188.73 136.923 188.912C136.513 189.088 136.05 189.176 135.534 189.176C134.89 189.176 134.324 189.05 133.838 188.798C133.357 188.546 132.982 188.209 132.713 187.787C132.449 187.359 132.317 186.882 132.317 186.354C132.317 185.845 132.417 185.396 132.616 185.01C132.815 184.617 133.103 184.292 133.478 184.034C133.853 183.771 134.304 183.571 134.831 183.437C135.358 183.302 135.947 183.234 136.598 183.234H138.487ZM146.195 187.84C146.582 187.84 146.939 187.761 147.268 187.603C147.596 187.444 147.865 187.228 148.076 186.952C148.287 186.671 148.407 186.352 148.437 185.994H149.983C149.954 186.557 149.764 187.081 149.412 187.567C149.066 188.048 148.612 188.438 148.05 188.736C147.487 189.029 146.869 189.176 146.195 189.176C145.48 189.176 144.856 189.05 144.323 188.798C143.796 188.546 143.356 188.2 143.005 187.761C142.659 187.321 142.398 186.817 142.223 186.249C142.053 185.675 141.968 185.068 141.968 184.43V184.061C141.968 183.422 142.053 182.818 142.223 182.25C142.398 181.676 142.659 181.169 143.005 180.729C143.356 180.29 143.796 179.944 144.323 179.692C144.856 179.44 145.48 179.314 146.195 179.314C146.939 179.314 147.59 179.467 148.146 179.771C148.703 180.07 149.14 180.48 149.456 181.002C149.778 181.518 149.954 182.104 149.983 182.76H148.437C148.407 182.367 148.296 182.013 148.103 181.696C147.915 181.38 147.657 181.128 147.329 180.94C147.007 180.747 146.629 180.65 146.195 180.65C145.697 180.65 145.278 180.75 144.938 180.949C144.604 181.143 144.338 181.406 144.139 181.74C143.945 182.068 143.805 182.435 143.717 182.839C143.635 183.237 143.594 183.645 143.594 184.061V184.43C143.594 184.846 143.635 185.256 143.717 185.66C143.799 186.064 143.937 186.431 144.13 186.759C144.329 187.087 144.596 187.351 144.93 187.55C145.27 187.743 145.691 187.84 146.195 187.84ZM151.838 188.139C151.838 187.863 151.923 187.632 152.093 187.444C152.269 187.251 152.521 187.154 152.849 187.154C153.177 187.154 153.426 187.251 153.596 187.444C153.771 187.632 153.859 187.863 153.859 188.139C153.859 188.408 153.771 188.637 153.596 188.824C153.426 189.012 153.177 189.105 152.849 189.105C152.521 189.105 152.269 189.012 152.093 188.824C151.923 188.637 151.838 188.408 151.838 188.139ZM160.504 189.176C159.842 189.176 159.241 189.064 158.702 188.842C158.169 188.613 157.709 188.294 157.322 187.884C156.941 187.474 156.648 186.987 156.443 186.425C156.238 185.862 156.136 185.247 156.136 184.579V184.21C156.136 183.437 156.25 182.748 156.479 182.145C156.707 181.535 157.018 181.02 157.41 180.598C157.803 180.176 158.248 179.856 158.746 179.64C159.244 179.423 159.76 179.314 160.293 179.314C160.973 179.314 161.559 179.432 162.051 179.666C162.549 179.9 162.956 180.229 163.272 180.65C163.589 181.066 163.823 181.559 163.976 182.127C164.128 182.689 164.204 183.305 164.204 183.973V184.702H157.103V183.375H162.578V183.252C162.555 182.83 162.467 182.42 162.314 182.021C162.168 181.623 161.934 181.295 161.611 181.037C161.289 180.779 160.85 180.65 160.293 180.65C159.924 180.65 159.584 180.729 159.273 180.888C158.963 181.04 158.696 181.269 158.474 181.573C158.251 181.878 158.078 182.25 157.955 182.689C157.832 183.129 157.771 183.636 157.771 184.21V184.579C157.771 185.03 157.832 185.455 157.955 185.854C158.084 186.246 158.269 186.592 158.509 186.891C158.755 187.189 159.051 187.424 159.396 187.594C159.748 187.764 160.146 187.849 160.592 187.849C161.166 187.849 161.652 187.731 162.051 187.497C162.449 187.263 162.798 186.949 163.097 186.557L164.081 187.339C163.876 187.649 163.615 187.945 163.299 188.227C162.982 188.508 162.593 188.736 162.13 188.912C161.673 189.088 161.131 189.176 160.504 189.176ZM170.084 179.49V180.738H164.942V179.49H170.084ZM166.683 177.179H168.309V186.645C168.309 186.967 168.358 187.21 168.458 187.374C168.558 187.538 168.687 187.646 168.845 187.699C169.003 187.752 169.173 187.778 169.354 187.778C169.489 187.778 169.63 187.767 169.776 187.743C169.929 187.714 170.043 187.69 170.119 187.673L170.128 189C169.999 189.041 169.829 189.079 169.618 189.114C169.413 189.155 169.164 189.176 168.871 189.176C168.473 189.176 168.106 189.097 167.772 188.938C167.438 188.78 167.172 188.517 166.973 188.147C166.779 187.772 166.683 187.269 166.683 186.636V177.179ZM173.617 175.5V189H171.991V175.5H173.617ZM173.23 183.885L172.554 183.858C172.56 183.208 172.656 182.607 172.844 182.057C173.031 181.5 173.295 181.017 173.635 180.606C173.975 180.196 174.379 179.88 174.848 179.657C175.322 179.429 175.847 179.314 176.421 179.314C176.89 179.314 177.312 179.379 177.687 179.508C178.062 179.631 178.381 179.83 178.645 180.105C178.914 180.381 179.119 180.738 179.26 181.178C179.4 181.611 179.471 182.142 179.471 182.769V189H177.836V182.751C177.836 182.253 177.763 181.854 177.616 181.556C177.47 181.251 177.256 181.031 176.975 180.896C176.693 180.756 176.348 180.686 175.938 180.686C175.533 180.686 175.164 180.771 174.83 180.94C174.502 181.11 174.218 181.345 173.978 181.644C173.743 181.942 173.559 182.285 173.424 182.672C173.295 183.053 173.23 183.457 173.23 183.885ZM61.2578 204.579C61.2344 205.118 61.1523 205.66 61.0117 206.205C60.8711 206.744 60.6602 207.239 60.3789 207.69C60.0977 208.142 59.7314 208.505 59.2803 208.78C58.835 209.05 58.2959 209.185 57.6631 209.185C57.2588 209.185 56.9043 209.114 56.5996 208.974C56.3008 208.827 56.0547 208.619 55.8613 208.35C55.6738 208.08 55.542 207.755 55.4658 207.374C55.3955 206.993 55.3838 206.568 55.4307 206.1L55.8789 201.23H57.1709L56.7227 206.1C56.6875 206.527 56.6963 206.876 56.749 207.146C56.8076 207.415 56.8955 207.623 57.0127 207.77C57.1299 207.91 57.2617 208.007 57.4082 208.06C57.5605 208.112 57.707 208.139 57.8477 208.139C58.1992 208.139 58.5127 208.048 58.7881 207.866C59.0635 207.679 59.2949 207.424 59.4824 207.102C59.6758 206.773 59.8252 206.396 59.9307 205.968C60.0361 205.534 60.1006 205.071 60.124 204.579C60.165 203.706 60.124 202.903 60.001 202.171C59.8838 201.438 59.6816 200.788 59.3945 200.22C59.1133 199.651 58.7441 199.171 58.2871 198.778C57.8301 198.386 57.2852 198.087 56.6523 197.882C56.0195 197.677 55.2959 197.574 54.4814 197.574C53.7432 197.574 53.0605 197.688 52.4336 197.917C51.8125 198.14 51.2529 198.462 50.7549 198.884C50.2627 199.306 49.8379 199.812 49.4805 200.404C49.1289 200.996 48.8506 201.664 48.6455 202.408C48.4463 203.146 48.3291 203.943 48.2939 204.799C48.2529 205.678 48.2998 206.486 48.4346 207.225C48.5693 207.957 48.7861 208.61 49.085 209.185C49.3896 209.765 49.7734 210.254 50.2363 210.652C50.6992 211.057 51.2354 211.361 51.8447 211.566C52.4541 211.777 53.1338 211.883 53.8838 211.883C54.3994 211.883 54.9209 211.821 55.4482 211.698C55.9814 211.575 56.4268 211.408 56.7842 211.197L57.1182 212.199C56.708 212.463 56.1953 212.659 55.5801 212.788C54.9707 212.917 54.3936 212.981 53.8486 212.981C52.958 212.981 52.1436 212.858 51.4053 212.612C50.6729 212.372 50.0225 212.018 49.4541 211.549C48.8916 211.086 48.4229 210.521 48.0479 209.853C47.6729 209.19 47.3975 208.435 47.2217 207.585C47.0459 206.735 46.9785 205.807 47.0195 204.799C47.0605 203.838 47.2041 202.933 47.4502 202.083C47.7021 201.233 48.0449 200.463 48.4785 199.771C48.9121 199.08 49.4277 198.485 50.0254 197.987C50.6289 197.483 51.3057 197.097 52.0557 196.827C52.8115 196.558 53.6318 196.423 54.5166 196.423C55.4189 196.423 56.2363 196.546 56.9688 196.792C57.7012 197.038 58.3428 197.393 58.8936 197.855C59.4502 198.318 59.9102 198.884 60.2734 199.552C60.6367 200.22 60.9004 200.976 61.0645 201.819C61.2344 202.663 61.2988 203.583 61.2578 204.579ZM52.2314 205.326C52.1904 205.736 52.1904 206.103 52.2314 206.425C52.2725 206.747 52.3516 207.02 52.4688 207.242C52.5859 207.465 52.7383 207.635 52.9258 207.752C53.1191 207.863 53.3447 207.919 53.6025 207.919C53.7725 207.919 53.9512 207.878 54.1387 207.796C54.3262 207.708 54.5107 207.573 54.6924 207.392C54.874 207.21 55.0439 206.973 55.2021 206.68C55.3604 206.387 55.4922 206.035 55.5977 205.625L56.1777 206.258C56.043 206.738 55.8672 207.16 55.6504 207.523C55.4395 207.887 55.2021 208.191 54.9385 208.438C54.6748 208.684 54.3936 208.871 54.0947 209C53.8018 209.123 53.5029 209.185 53.1982 209.185C52.7705 209.185 52.3955 209.094 52.0732 208.912C51.751 208.725 51.4902 208.461 51.291 208.121C51.0918 207.781 50.9512 207.377 50.8691 206.908C50.793 206.434 50.7812 205.906 50.834 205.326C50.8867 204.711 50.9951 204.143 51.1592 203.621C51.3232 203.1 51.5254 202.634 51.7656 202.224C52.0117 201.813 52.2871 201.465 52.5918 201.178C52.9023 200.891 53.2305 200.674 53.5762 200.527C53.9219 200.375 54.2764 200.299 54.6396 200.299C55.2725 200.299 55.7705 200.393 56.1338 200.58C56.4971 200.762 56.8428 200.979 57.1709 201.23L56.4238 202.101C56.2539 201.937 56.0312 201.784 55.7559 201.644C55.4805 201.503 55.1553 201.433 54.7803 201.433C54.458 201.433 54.1562 201.515 53.875 201.679C53.5938 201.843 53.3389 202.089 53.1104 202.417C52.8877 202.745 52.7002 203.152 52.5479 203.639C52.3955 204.119 52.29 204.682 52.2314 205.326ZM68.9482 206.478C68.9482 206.243 68.8955 206.026 68.79 205.827C68.6904 205.622 68.4824 205.438 68.166 205.273C67.8555 205.104 67.3867 204.957 66.7598 204.834C66.2324 204.723 65.7549 204.591 65.3271 204.438C64.9053 204.286 64.5449 204.102 64.2461 203.885C63.9531 203.668 63.7275 203.413 63.5693 203.12C63.4111 202.827 63.332 202.484 63.332 202.092C63.332 201.717 63.4141 201.362 63.5781 201.028C63.748 200.694 63.9854 200.398 64.29 200.141C64.6006 199.883 64.9727 199.681 65.4062 199.534C65.8398 199.388 66.3232 199.314 66.8564 199.314C67.6182 199.314 68.2686 199.449 68.8076 199.719C69.3467 199.988 69.7598 200.349 70.0469 200.8C70.334 201.245 70.4775 201.74 70.4775 202.285H68.8516C68.8516 202.021 68.7725 201.767 68.6143 201.521C68.4619 201.269 68.2363 201.061 67.9375 200.896C67.6445 200.732 67.2842 200.65 66.8564 200.65C66.4053 200.65 66.0391 200.721 65.7578 200.861C65.4824 200.996 65.2803 201.169 65.1514 201.38C65.0283 201.591 64.9668 201.813 64.9668 202.048C64.9668 202.224 64.9961 202.382 65.0547 202.522C65.1191 202.657 65.2305 202.783 65.3887 202.9C65.5469 203.012 65.7695 203.117 66.0566 203.217C66.3438 203.316 66.71 203.416 67.1553 203.516C67.9346 203.691 68.5762 203.902 69.0801 204.148C69.584 204.395 69.959 204.696 70.2051 205.054C70.4512 205.411 70.5742 205.845 70.5742 206.354C70.5742 206.771 70.4863 207.151 70.3105 207.497C70.1406 207.843 69.8916 208.142 69.5635 208.394C69.2412 208.64 68.8545 208.833 68.4033 208.974C67.958 209.108 67.457 209.176 66.9004 209.176C66.0625 209.176 65.3535 209.026 64.7734 208.728C64.1934 208.429 63.7539 208.042 63.4551 207.567C63.1562 207.093 63.0068 206.592 63.0068 206.064H64.6416C64.665 206.51 64.7939 206.864 65.0283 207.128C65.2627 207.386 65.5498 207.57 65.8896 207.682C66.2295 207.787 66.5664 207.84 66.9004 207.84C67.3457 207.84 67.7178 207.781 68.0166 207.664C68.3213 207.547 68.5527 207.386 68.7109 207.181C68.8691 206.976 68.9482 206.741 68.9482 206.478ZM76.6914 199.49V200.738H71.5498V199.49H76.6914ZM73.29 197.179H74.916V206.645C74.916 206.967 74.9658 207.21 75.0654 207.374C75.165 207.538 75.2939 207.646 75.4521 207.699C75.6104 207.752 75.7803 207.778 75.9619 207.778C76.0967 207.778 76.2373 207.767 76.3838 207.743C76.5361 207.714 76.6504 207.69 76.7266 207.673L76.7354 209C76.6064 209.041 76.4365 209.079 76.2256 209.114C76.0205 209.155 75.7715 209.176 75.4785 209.176C75.0801 209.176 74.7139 209.097 74.3799 208.938C74.0459 208.78 73.7793 208.517 73.5801 208.147C73.3867 207.772 73.29 207.269 73.29 206.636V197.179ZM80.2246 200.984V209H78.5986V199.49H80.1807L80.2246 200.984ZM83.1953 199.438L83.1865 200.949C83.0518 200.92 82.9229 200.902 82.7998 200.896C82.6826 200.885 82.5479 200.879 82.3955 200.879C82.0205 200.879 81.6895 200.938 81.4023 201.055C81.1152 201.172 80.8721 201.336 80.6729 201.547C80.4736 201.758 80.3154 202.01 80.1982 202.303C80.0869 202.59 80.0137 202.906 79.9785 203.252L79.5215 203.516C79.5215 202.941 79.5771 202.402 79.6885 201.898C79.8057 201.395 79.9844 200.949 80.2246 200.562C80.4648 200.17 80.7695 199.865 81.1387 199.648C81.5137 199.426 81.959 199.314 82.4746 199.314C82.5918 199.314 82.7266 199.329 82.8789 199.358C83.0312 199.382 83.1367 199.408 83.1953 199.438ZM89.9541 207.374V202.479C89.9541 202.104 89.8779 201.778 89.7256 201.503C89.5791 201.222 89.3564 201.005 89.0576 200.853C88.7588 200.7 88.3896 200.624 87.9502 200.624C87.54 200.624 87.1797 200.694 86.8691 200.835C86.5645 200.976 86.3242 201.16 86.1484 201.389C85.9785 201.617 85.8936 201.863 85.8936 202.127H84.2676C84.2676 201.787 84.3555 201.45 84.5312 201.116C84.707 200.782 84.959 200.48 85.2871 200.211C85.6211 199.936 86.0195 199.719 86.4824 199.561C86.9512 199.396 87.4727 199.314 88.0469 199.314C88.7383 199.314 89.3477 199.432 89.875 199.666C90.4082 199.9 90.8242 200.255 91.123 200.729C91.4277 201.198 91.5801 201.787 91.5801 202.496V206.926C91.5801 207.242 91.6064 207.579 91.6592 207.937C91.7178 208.294 91.8027 208.602 91.9141 208.859V209H90.2178C90.1357 208.812 90.0713 208.563 90.0244 208.253C89.9775 207.937 89.9541 207.644 89.9541 207.374ZM90.2354 203.234L90.2529 204.377H88.6094C88.1465 204.377 87.7334 204.415 87.3701 204.491C87.0068 204.562 86.7021 204.67 86.4561 204.816C86.21 204.963 86.0225 205.147 85.8936 205.37C85.7646 205.587 85.7002 205.842 85.7002 206.135C85.7002 206.434 85.7676 206.706 85.9023 206.952C86.0371 207.198 86.2393 207.395 86.5088 207.541C86.7842 207.682 87.1211 207.752 87.5195 207.752C88.0176 207.752 88.457 207.646 88.8379 207.436C89.2188 207.225 89.5205 206.967 89.7432 206.662C89.9717 206.357 90.0947 206.062 90.1123 205.774L90.8066 206.557C90.7656 206.803 90.6543 207.075 90.4727 207.374C90.291 207.673 90.0479 207.96 89.7432 208.235C89.4443 208.505 89.0869 208.73 88.6709 208.912C88.2607 209.088 87.7979 209.176 87.2822 209.176C86.6377 209.176 86.0723 209.05 85.5859 208.798C85.1055 208.546 84.7305 208.209 84.4609 207.787C84.1973 207.359 84.0654 206.882 84.0654 206.354C84.0654 205.845 84.165 205.396 84.3643 205.01C84.5635 204.617 84.8506 204.292 85.2256 204.034C85.6006 203.771 86.0518 203.571 86.5791 203.437C87.1064 203.302 87.6953 203.234 88.3457 203.234H90.2354ZM95.9043 199.49V209H94.2695V199.49H95.9043ZM94.1465 196.968C94.1465 196.704 94.2256 196.481 94.3838 196.3C94.5479 196.118 94.7881 196.027 95.1045 196.027C95.415 196.027 95.6523 196.118 95.8164 196.3C95.9863 196.481 96.0713 196.704 96.0713 196.968C96.0713 197.22 95.9863 197.437 95.8164 197.618C95.6523 197.794 95.415 197.882 95.1045 197.882C94.7881 197.882 94.5479 197.794 94.3838 197.618C94.2256 197.437 94.1465 197.22 94.1465 196.968ZM104.676 199.49H106.152V208.798C106.152 209.636 105.982 210.351 105.643 210.942C105.303 211.534 104.828 211.982 104.219 212.287C103.615 212.598 102.918 212.753 102.127 212.753C101.799 212.753 101.412 212.7 100.967 212.595C100.527 212.495 100.094 212.322 99.666 212.076C99.2441 211.836 98.8896 211.511 98.6025 211.101L99.4551 210.134C99.8535 210.614 100.27 210.948 100.703 211.136C101.143 211.323 101.576 211.417 102.004 211.417C102.52 211.417 102.965 211.32 103.34 211.127C103.715 210.934 104.005 210.646 104.21 210.266C104.421 209.891 104.526 209.428 104.526 208.877V201.582L104.676 199.49ZM98.1279 204.351V204.166C98.1279 203.439 98.2129 202.78 98.3828 202.188C98.5586 201.591 98.8076 201.078 99.1299 200.65C99.458 200.223 99.8535 199.895 100.316 199.666C100.779 199.432 101.301 199.314 101.881 199.314C102.479 199.314 103 199.42 103.445 199.631C103.896 199.836 104.277 200.138 104.588 200.536C104.904 200.929 105.153 201.403 105.335 201.96C105.517 202.517 105.643 203.146 105.713 203.85V204.658C105.648 205.355 105.522 205.982 105.335 206.539C105.153 207.096 104.904 207.57 104.588 207.963C104.277 208.355 103.896 208.657 103.445 208.868C102.994 209.073 102.467 209.176 101.863 209.176C101.295 209.176 100.779 209.056 100.316 208.815C99.8594 208.575 99.4668 208.238 99.1387 207.805C98.8105 207.371 98.5586 206.861 98.3828 206.275C98.2129 205.684 98.1279 205.042 98.1279 204.351ZM99.7539 204.166V204.351C99.7539 204.825 99.8008 205.271 99.8945 205.687C99.9941 206.103 100.144 206.469 100.343 206.785C100.548 207.102 100.809 207.351 101.125 207.532C101.441 207.708 101.819 207.796 102.259 207.796C102.798 207.796 103.243 207.682 103.595 207.453C103.946 207.225 104.225 206.923 104.43 206.548C104.641 206.173 104.805 205.766 104.922 205.326V203.208C104.857 202.886 104.758 202.575 104.623 202.276C104.494 201.972 104.324 201.702 104.113 201.468C103.908 201.228 103.653 201.037 103.349 200.896C103.044 200.756 102.687 200.686 102.276 200.686C101.831 200.686 101.447 200.779 101.125 200.967C100.809 201.148 100.548 201.4 100.343 201.723C100.144 202.039 99.9941 202.408 99.8945 202.83C99.8008 203.246 99.7539 203.691 99.7539 204.166ZM110.248 195.5V209H108.622V195.5H110.248ZM109.861 203.885L109.185 203.858C109.19 203.208 109.287 202.607 109.475 202.057C109.662 201.5 109.926 201.017 110.266 200.606C110.605 200.196 111.01 199.88 111.479 199.657C111.953 199.429 112.478 199.314 113.052 199.314C113.521 199.314 113.942 199.379 114.317 199.508C114.692 199.631 115.012 199.83 115.275 200.105C115.545 200.381 115.75 200.738 115.891 201.178C116.031 201.611 116.102 202.142 116.102 202.769V209H114.467V202.751C114.467 202.253 114.394 201.854 114.247 201.556C114.101 201.251 113.887 201.031 113.605 200.896C113.324 200.756 112.979 200.686 112.568 200.686C112.164 200.686 111.795 200.771 111.461 200.94C111.133 201.11 110.849 201.345 110.608 201.644C110.374 201.942 110.189 202.285 110.055 202.672C109.926 203.053 109.861 203.457 109.861 203.885ZM122.518 199.49V200.738H117.376V199.49H122.518ZM119.116 197.179H120.742V206.645C120.742 206.967 120.792 207.21 120.892 207.374C120.991 207.538 121.12 207.646 121.278 207.699C121.437 207.752 121.606 207.778 121.788 207.778C121.923 207.778 122.063 207.767 122.21 207.743C122.362 207.714 122.477 207.69 122.553 207.673L122.562 209C122.433 209.041 122.263 209.079 122.052 209.114C121.847 209.155 121.598 209.176 121.305 209.176C120.906 209.176 120.54 209.097 120.206 208.938C119.872 208.78 119.605 208.517 119.406 208.147C119.213 207.772 119.116 207.269 119.116 206.636V197.179ZM130.243 206.803V199.49H131.878V209H130.322L130.243 206.803ZM130.551 204.799L131.228 204.781C131.228 205.414 131.16 206 131.025 206.539C130.896 207.072 130.686 207.535 130.393 207.928C130.1 208.32 129.716 208.628 129.241 208.851C128.767 209.067 128.189 209.176 127.51 209.176C127.047 209.176 126.622 209.108 126.235 208.974C125.854 208.839 125.526 208.631 125.251 208.35C124.976 208.068 124.762 207.702 124.609 207.251C124.463 206.8 124.39 206.258 124.39 205.625V199.49H126.016V205.643C126.016 206.07 126.062 206.425 126.156 206.706C126.256 206.981 126.388 207.201 126.552 207.365C126.722 207.523 126.909 207.635 127.114 207.699C127.325 207.764 127.542 207.796 127.765 207.796C128.456 207.796 129.004 207.664 129.408 207.4C129.812 207.131 130.103 206.771 130.278 206.319C130.46 205.862 130.551 205.355 130.551 204.799ZM135.982 201.318V212.656H134.348V199.49H135.842L135.982 201.318ZM142.39 204.166V204.351C142.39 205.042 142.308 205.684 142.144 206.275C141.979 206.861 141.739 207.371 141.423 207.805C141.112 208.238 140.729 208.575 140.271 208.815C139.814 209.056 139.29 209.176 138.698 209.176C138.095 209.176 137.562 209.076 137.099 208.877C136.636 208.678 136.243 208.388 135.921 208.007C135.599 207.626 135.341 207.169 135.147 206.636C134.96 206.103 134.831 205.502 134.761 204.834V203.85C134.831 203.146 134.963 202.517 135.156 201.96C135.35 201.403 135.604 200.929 135.921 200.536C136.243 200.138 136.633 199.836 137.09 199.631C137.547 199.42 138.074 199.314 138.672 199.314C139.27 199.314 139.8 199.432 140.263 199.666C140.726 199.895 141.115 200.223 141.432 200.65C141.748 201.078 141.985 201.591 142.144 202.188C142.308 202.78 142.39 203.439 142.39 204.166ZM140.755 204.351V204.166C140.755 203.691 140.705 203.246 140.605 202.83C140.506 202.408 140.351 202.039 140.14 201.723C139.935 201.4 139.671 201.148 139.349 200.967C139.026 200.779 138.643 200.686 138.197 200.686C137.787 200.686 137.43 200.756 137.125 200.896C136.826 201.037 136.571 201.228 136.36 201.468C136.149 201.702 135.977 201.972 135.842 202.276C135.713 202.575 135.616 202.886 135.552 203.208V205.484C135.669 205.895 135.833 206.281 136.044 206.645C136.255 207.002 136.536 207.292 136.888 207.515C137.239 207.731 137.682 207.84 138.215 207.84C138.654 207.84 139.032 207.749 139.349 207.567C139.671 207.38 139.935 207.125 140.14 206.803C140.351 206.48 140.506 206.111 140.605 205.695C140.705 205.273 140.755 204.825 140.755 204.351ZM144.508 199.49H146.143V210.134C146.143 210.714 146.049 211.206 145.861 211.61C145.68 212.015 145.404 212.319 145.035 212.524C144.672 212.735 144.212 212.841 143.655 212.841C143.509 212.841 143.339 212.826 143.146 212.797C142.946 212.768 142.779 212.732 142.645 212.691L142.653 211.382C142.765 211.405 142.891 211.423 143.031 211.435C143.172 211.452 143.295 211.461 143.4 211.461C143.641 211.461 143.843 211.417 144.007 211.329C144.171 211.241 144.294 211.101 144.376 210.907C144.464 210.714 144.508 210.456 144.508 210.134V199.49ZM144.341 196.968C144.341 196.704 144.423 196.481 144.587 196.3C144.751 196.118 144.988 196.027 145.299 196.027C145.615 196.027 145.855 196.118 146.02 196.3C146.184 196.481 146.266 196.704 146.266 196.968C146.266 197.22 146.184 197.437 146.02 197.618C145.855 197.794 145.615 197.882 145.299 197.882C144.988 197.882 144.751 197.794 144.587 197.618C144.423 197.437 144.341 197.22 144.341 196.968ZM154.378 207.374V202.479C154.378 202.104 154.302 201.778 154.149 201.503C154.003 201.222 153.78 201.005 153.481 200.853C153.183 200.7 152.813 200.624 152.374 200.624C151.964 200.624 151.604 200.694 151.293 200.835C150.988 200.976 150.748 201.16 150.572 201.389C150.402 201.617 150.317 201.863 150.317 202.127H148.691C148.691 201.787 148.779 201.45 148.955 201.116C149.131 200.782 149.383 200.48 149.711 200.211C150.045 199.936 150.443 199.719 150.906 199.561C151.375 199.396 151.896 199.314 152.471 199.314C153.162 199.314 153.771 199.432 154.299 199.666C154.832 199.9 155.248 200.255 155.547 200.729C155.852 201.198 156.004 201.787 156.004 202.496V206.926C156.004 207.242 156.03 207.579 156.083 207.937C156.142 208.294 156.227 208.602 156.338 208.859V209H154.642C154.56 208.812 154.495 208.563 154.448 208.253C154.401 207.937 154.378 207.644 154.378 207.374ZM154.659 203.234L154.677 204.377H153.033C152.57 204.377 152.157 204.415 151.794 204.491C151.431 204.562 151.126 204.67 150.88 204.816C150.634 204.963 150.446 205.147 150.317 205.37C150.188 205.587 150.124 205.842 150.124 206.135C150.124 206.434 150.191 206.706 150.326 206.952C150.461 207.198 150.663 207.395 150.933 207.541C151.208 207.682 151.545 207.752 151.943 207.752C152.441 207.752 152.881 207.646 153.262 207.436C153.643 207.225 153.944 206.967 154.167 206.662C154.396 206.357 154.519 206.062 154.536 205.774L155.23 206.557C155.189 206.803 155.078 207.075 154.896 207.374C154.715 207.673 154.472 207.96 154.167 208.235C153.868 208.505 153.511 208.73 153.095 208.912C152.685 209.088 152.222 209.176 151.706 209.176C151.062 209.176 150.496 209.05 150.01 208.798C149.529 208.546 149.154 208.209 148.885 207.787C148.621 207.359 148.489 206.882 148.489 206.354C148.489 205.845 148.589 205.396 148.788 205.01C148.987 204.617 149.274 204.292 149.649 204.034C150.024 203.771 150.476 203.571 151.003 203.437C151.53 203.302 152.119 203.234 152.77 203.234H154.659ZM162.367 207.84C162.754 207.84 163.111 207.761 163.439 207.603C163.768 207.444 164.037 207.228 164.248 206.952C164.459 206.671 164.579 206.352 164.608 205.994H166.155C166.126 206.557 165.936 207.081 165.584 207.567C165.238 208.048 164.784 208.438 164.222 208.736C163.659 209.029 163.041 209.176 162.367 209.176C161.652 209.176 161.028 209.05 160.495 208.798C159.968 208.546 159.528 208.2 159.177 207.761C158.831 207.321 158.57 206.817 158.395 206.249C158.225 205.675 158.14 205.068 158.14 204.43V204.061C158.14 203.422 158.225 202.818 158.395 202.25C158.57 201.676 158.831 201.169 159.177 200.729C159.528 200.29 159.968 199.944 160.495 199.692C161.028 199.44 161.652 199.314 162.367 199.314C163.111 199.314 163.762 199.467 164.318 199.771C164.875 200.07 165.312 200.48 165.628 201.002C165.95 201.518 166.126 202.104 166.155 202.76H164.608C164.579 202.367 164.468 202.013 164.274 201.696C164.087 201.38 163.829 201.128 163.501 200.94C163.179 200.747 162.801 200.65 162.367 200.65C161.869 200.65 161.45 200.75 161.11 200.949C160.776 201.143 160.51 201.406 160.311 201.74C160.117 202.068 159.977 202.435 159.889 202.839C159.807 203.237 159.766 203.645 159.766 204.061V204.43C159.766 204.846 159.807 205.256 159.889 205.66C159.971 206.064 160.108 206.431 160.302 206.759C160.501 207.087 160.768 207.351 161.102 207.55C161.441 207.743 161.863 207.84 162.367 207.84Z" fill="#838383"/>
<circle cx="737.5" cy="279.5" r="25.5" fill="#659357"/>
<circle cx="460.5" cy="369.5" r="25.5" fill="#659357"/>
<circle cx="142.5" cy="262.5" r="25.5" fill="#659357"/>
<path d="M949.993 139.838L915.5 85.5L914.653 84.1696C913.688 82.653 915.058 80.7323 916.806 81.1508L980.55 96.4135C981.803 96.7133 982.449 98.1012 981.874 99.2529L981.5 100L972 111.5L991 120L984.5 138L959.5 126L953.512 139.574C952.866 141.037 950.85 141.188 949.993 139.838Z" fill="#6F9869" stroke="#70986A"/>
<path d="M946.011 140.876L910.589 85.5873L909.679 84.1711C908.706 82.6569 910.072 80.7289 911.823 81.1443L977.332 96.685C978.59 96.9833 979.238 98.3782 978.656 99.532L978.259 100.317L968.519 112L988 120.635L981.335 138.921L955.703 126.73L949.522 140.61C948.874 142.065 946.87 142.216 946.011 140.876Z" stroke="black" stroke-width="2"/>
<path d="M911.5 87.3506C859.764 47.1872 825 26.3506 794 26.3506" stroke="#020B2C" stroke-width="2" stroke-linecap="round" stroke-linejoin="round"/>
<path d="M1002 147C1098.8 111.8 1222.67 163.667 1272.5 194C1337.5 243.667 1424.1 339.9 1250.5 327.5C1033.5 312 1154.5 173.5 1231.5 241C1293.1 295 1177.5 352.5 1112 374.5C1082 381.833 1007.9 392.1 951.5 374.5C895.1 356.9 784 299.667 731 273.5C699 265.667 611.9 261.8 555.5 307C485 363.5 416 433 323 423.5C248.6 415.9 203 356.333 189.5 327.5C174.667 293 137.5 235.6 107.5 282C70 340 53 370 1 389" stroke="black" stroke-width="2" stroke-linecap="round"/>
</svg>
