<svg width="1362" height="426" viewBox="0 0 1362 426" fill="none" xmlns="http://www.w3.org/2000/svg">
<path d="M671.211 205.582V207.533C671.211 208.582 671.117 209.467 670.93 210.188C670.742 210.908 670.473 211.488 670.121 211.928C669.77 212.367 669.345 212.687 668.847 212.886C668.354 213.079 667.798 213.176 667.177 213.176C666.685 213.176 666.23 213.114 665.814 212.991C665.398 212.868 665.023 212.672 664.689 212.402C664.361 212.127 664.08 211.77 663.846 211.33C663.611 210.891 663.433 210.357 663.31 209.73C663.187 209.104 663.125 208.371 663.125 207.533V205.582C663.125 204.533 663.219 203.654 663.406 202.945C663.6 202.236 663.872 201.668 664.224 201.24C664.575 200.807 664.997 200.496 665.489 200.309C665.987 200.121 666.544 200.027 667.159 200.027C667.657 200.027 668.114 200.089 668.53 200.212C668.952 200.329 669.327 200.52 669.655 200.783C669.983 201.041 670.262 201.387 670.49 201.82C670.725 202.248 670.903 202.772 671.026 203.394C671.149 204.015 671.211 204.744 671.211 205.582ZM669.576 207.797V205.31C669.576 204.735 669.541 204.231 669.471 203.798C669.406 203.358 669.31 202.983 669.181 202.673C669.052 202.362 668.888 202.11 668.688 201.917C668.495 201.724 668.27 201.583 668.012 201.495C667.76 201.401 667.476 201.354 667.159 201.354C666.772 201.354 666.43 201.428 666.131 201.574C665.832 201.715 665.58 201.94 665.375 202.251C665.176 202.562 665.023 202.969 664.918 203.473C664.812 203.977 664.76 204.589 664.76 205.31V207.797C664.76 208.371 664.792 208.878 664.856 209.317C664.927 209.757 665.029 210.138 665.164 210.46C665.299 210.776 665.463 211.037 665.656 211.242C665.85 211.447 666.072 211.6 666.324 211.699C666.582 211.793 666.866 211.84 667.177 211.84C667.575 211.84 667.924 211.764 668.223 211.611C668.521 211.459 668.771 211.222 668.97 210.899C669.175 210.571 669.327 210.152 669.427 209.643C669.526 209.127 669.576 208.512 669.576 207.797ZM674.577 203.49L676.66 206.953L678.77 203.49H680.677L677.565 208.184L680.773 213H678.893L676.695 209.432L674.498 213H672.608L675.808 208.184L672.705 203.49H674.577ZM688.473 200.186H688.613V201.565H688.473C687.611 201.565 686.891 201.706 686.311 201.987C685.73 202.263 685.271 202.635 684.931 203.104C684.591 203.566 684.345 204.088 684.192 204.668C684.046 205.248 683.973 205.837 683.973 206.435V208.315C683.973 208.884 684.04 209.388 684.175 209.827C684.31 210.261 684.494 210.627 684.729 210.926C684.963 211.225 685.227 211.45 685.52 211.603C685.818 211.755 686.129 211.831 686.451 211.831C686.826 211.831 687.16 211.761 687.453 211.62C687.746 211.474 687.992 211.271 688.191 211.014C688.396 210.75 688.552 210.439 688.657 210.082C688.763 209.725 688.815 209.332 688.815 208.904C688.815 208.523 688.769 208.157 688.675 207.806C688.581 207.448 688.438 207.132 688.244 206.856C688.051 206.575 687.808 206.355 687.515 206.197C687.228 206.033 686.885 205.951 686.486 205.951C686.035 205.951 685.613 206.062 685.221 206.285C684.834 206.502 684.515 206.789 684.263 207.146C684.017 207.498 683.876 207.882 683.841 208.298L682.979 208.289C683.062 207.633 683.214 207.073 683.437 206.61C683.665 206.142 683.946 205.761 684.28 205.468C684.62 205.169 684.998 204.952 685.414 204.817C685.836 204.677 686.281 204.606 686.75 204.606C687.389 204.606 687.939 204.727 688.402 204.967C688.865 205.207 689.246 205.529 689.545 205.934C689.844 206.332 690.063 206.783 690.204 207.287C690.351 207.785 690.424 208.298 690.424 208.825C690.424 209.429 690.339 209.994 690.169 210.521C689.999 211.049 689.744 211.512 689.404 211.91C689.07 212.309 688.657 212.619 688.165 212.842C687.673 213.064 687.102 213.176 686.451 213.176C685.76 213.176 685.156 213.035 684.641 212.754C684.125 212.467 683.697 212.086 683.357 211.611C683.018 211.137 682.763 210.609 682.593 210.029C682.423 209.449 682.338 208.86 682.338 208.263V207.498C682.338 206.596 682.429 205.711 682.61 204.844C682.792 203.977 683.105 203.191 683.551 202.488C684.002 201.785 684.626 201.226 685.423 200.81C686.22 200.394 687.236 200.186 688.473 200.186ZM700.909 211.62V213H694.133V211.62H700.909ZM694.476 200.203V213H692.779V200.203H694.476ZM700.013 205.705V207.085H694.133V205.705H700.013ZM700.821 200.203V201.592H694.133V200.203H700.821ZM710.858 200.203V201.117L705.559 213H703.845L709.136 201.539H702.21V200.203H710.858ZM712.915 212.139C712.915 211.863 713 211.632 713.17 211.444C713.346 211.251 713.598 211.154 713.926 211.154C714.254 211.154 714.503 211.251 714.673 211.444C714.849 211.632 714.937 211.863 714.937 212.139C714.937 212.408 714.849 212.637 714.673 212.824C714.503 213.012 714.254 213.105 713.926 213.105C713.598 213.105 713.346 213.012 713.17 212.824C713 212.637 712.915 212.408 712.915 212.139ZM717.661 212.139C717.661 211.863 717.746 211.632 717.916 211.444C718.092 211.251 718.344 211.154 718.672 211.154C719 211.154 719.249 211.251 719.419 211.444C719.595 211.632 719.683 211.863 719.683 212.139C719.683 212.408 719.595 212.637 719.419 212.824C719.249 213.012 719 213.105 718.672 213.105C718.344 213.105 718.092 213.012 717.916 212.824C717.746 212.637 717.661 212.408 717.661 212.139ZM722.407 212.139C722.407 211.863 722.492 211.632 722.662 211.444C722.838 211.251 723.09 211.154 723.418 211.154C723.746 211.154 723.995 211.251 724.165 211.444C724.341 211.632 724.429 211.863 724.429 212.139C724.429 212.408 724.341 212.637 724.165 212.824C723.995 213.012 723.746 213.105 723.418 213.105C723.09 213.105 722.838 213.012 722.662 212.824C722.492 212.637 722.407 212.408 722.407 212.139ZM728.568 211.638H728.735C729.673 211.638 730.435 211.506 731.021 211.242C731.606 210.979 732.058 210.624 732.374 210.179C732.69 209.733 732.907 209.232 733.024 208.676C733.142 208.113 733.2 207.536 733.2 206.944V204.984C733.2 204.404 733.133 203.889 732.998 203.438C732.869 202.986 732.688 202.608 732.453 202.304C732.225 201.999 731.964 201.768 731.671 201.609C731.378 201.451 731.067 201.372 730.739 201.372C730.364 201.372 730.027 201.448 729.729 201.601C729.436 201.747 729.187 201.955 728.981 202.225C728.782 202.494 728.63 202.811 728.524 203.174C728.419 203.537 728.366 203.933 728.366 204.36C728.366 204.741 728.413 205.11 728.507 205.468C728.601 205.825 728.744 206.147 728.938 206.435C729.131 206.722 729.371 206.95 729.658 207.12C729.951 207.284 730.294 207.366 730.687 207.366C731.05 207.366 731.39 207.296 731.706 207.155C732.028 207.009 732.312 206.812 732.559 206.566C732.811 206.314 733.01 206.03 733.156 205.714C733.309 205.397 733.396 205.066 733.42 204.721H734.193C734.193 205.207 734.097 205.688 733.903 206.162C733.716 206.631 733.452 207.059 733.112 207.445C732.772 207.832 732.374 208.143 731.917 208.377C731.46 208.605 730.962 208.72 730.423 208.72C729.79 208.72 729.242 208.597 728.779 208.351C728.316 208.104 727.936 207.776 727.637 207.366C727.344 206.956 727.124 206.499 726.978 205.995C726.837 205.485 726.767 204.97 726.767 204.448C726.767 203.839 726.852 203.268 727.021 202.734C727.191 202.201 727.443 201.732 727.777 201.328C728.111 200.918 728.524 200.599 729.017 200.37C729.515 200.142 730.089 200.027 730.739 200.027C731.472 200.027 732.096 200.174 732.611 200.467C733.127 200.76 733.546 201.152 733.868 201.645C734.196 202.137 734.437 202.69 734.589 203.306C734.741 203.921 734.817 204.554 734.817 205.204V205.793C734.817 206.455 734.773 207.129 734.686 207.814C734.604 208.494 734.442 209.145 734.202 209.766C733.968 210.387 733.625 210.943 733.174 211.436C732.723 211.922 732.134 212.309 731.407 212.596C730.687 212.877 729.796 213.018 728.735 213.018H728.568V211.638ZM745.145 209.537C745.145 210.316 744.963 210.979 744.6 211.523C744.242 212.062 743.756 212.473 743.141 212.754C742.531 213.035 741.843 213.176 741.075 213.176C740.308 213.176 739.616 213.035 739.001 212.754C738.386 212.473 737.899 212.062 737.542 211.523C737.185 210.979 737.006 210.316 737.006 209.537C737.006 209.027 737.103 208.562 737.296 208.14C737.495 207.712 737.773 207.34 738.131 207.023C738.494 206.707 738.922 206.464 739.414 206.294C739.912 206.118 740.46 206.03 741.058 206.03C741.843 206.03 742.543 206.183 743.158 206.487C743.773 206.786 744.257 207.199 744.608 207.727C744.966 208.254 745.145 208.857 745.145 209.537ZM743.51 209.502C743.51 209.027 743.407 208.608 743.202 208.245C742.997 207.876 742.71 207.589 742.341 207.384C741.972 207.179 741.544 207.076 741.058 207.076C740.56 207.076 740.129 207.179 739.766 207.384C739.408 207.589 739.13 207.876 738.931 208.245C738.731 208.608 738.632 209.027 738.632 209.502C738.632 209.994 738.729 210.416 738.922 210.768C739.121 211.113 739.402 211.38 739.766 211.567C740.135 211.749 740.571 211.84 741.075 211.84C741.579 211.84 742.013 211.749 742.376 211.567C742.739 211.38 743.018 211.113 743.211 210.768C743.41 210.416 743.51 209.994 743.51 209.502ZM744.846 203.534C744.846 204.155 744.682 204.715 744.354 205.213C744.025 205.711 743.577 206.104 743.009 206.391C742.44 206.678 741.796 206.821 741.075 206.821C740.343 206.821 739.689 206.678 739.115 206.391C738.547 206.104 738.102 205.711 737.779 205.213C737.457 204.715 737.296 204.155 737.296 203.534C737.296 202.79 737.457 202.157 737.779 201.636C738.107 201.114 738.556 200.716 739.124 200.44C739.692 200.165 740.34 200.027 741.066 200.027C741.799 200.027 742.449 200.165 743.018 200.44C743.586 200.716 744.031 201.114 744.354 201.636C744.682 202.157 744.846 202.79 744.846 203.534ZM743.22 203.561C743.22 203.133 743.129 202.755 742.947 202.427C742.766 202.099 742.514 201.841 742.191 201.653C741.869 201.46 741.494 201.363 741.066 201.363C740.639 201.363 740.264 201.454 739.941 201.636C739.625 201.812 739.376 202.063 739.194 202.392C739.019 202.72 738.931 203.109 738.931 203.561C738.931 204 739.019 204.384 739.194 204.712C739.376 205.04 739.628 205.295 739.95 205.477C740.272 205.658 740.647 205.749 741.075 205.749C741.503 205.749 741.875 205.658 742.191 205.477C742.514 205.295 742.766 205.04 742.947 204.712C743.129 204.384 743.22 204 743.22 203.561ZM752.545 200.133V213H750.919V202.163L747.641 203.358V201.891L752.29 200.133H752.545ZM765.597 200.203V201.117L760.297 213H758.583L763.874 201.539H756.948V200.203H765.597ZM677.372 228.579C677.349 229.118 677.267 229.66 677.126 230.205C676.985 230.744 676.774 231.239 676.493 231.69C676.212 232.142 675.846 232.505 675.395 232.78C674.949 233.05 674.41 233.185 673.777 233.185C673.373 233.185 673.019 233.114 672.714 232.974C672.415 232.827 672.169 232.619 671.976 232.35C671.788 232.08 671.656 231.755 671.58 231.374C671.51 230.993 671.498 230.568 671.545 230.1L671.993 225.23H673.285L672.837 230.1C672.802 230.527 672.811 230.876 672.863 231.146C672.922 231.415 673.01 231.623 673.127 231.77C673.244 231.91 673.376 232.007 673.522 232.06C673.675 232.112 673.821 232.139 673.962 232.139C674.313 232.139 674.627 232.048 674.902 231.866C675.178 231.679 675.409 231.424 675.597 231.102C675.79 230.773 675.939 230.396 676.045 229.968C676.15 229.534 676.215 229.071 676.238 228.579C676.279 227.706 676.238 226.903 676.115 226.171C675.998 225.438 675.796 224.788 675.509 224.22C675.228 223.651 674.858 223.171 674.401 222.778C673.944 222.386 673.399 222.087 672.767 221.882C672.134 221.677 671.41 221.574 670.596 221.574C669.857 221.574 669.175 221.688 668.548 221.917C667.927 222.14 667.367 222.462 666.869 222.884C666.377 223.306 665.952 223.812 665.595 224.404C665.243 224.996 664.965 225.664 664.76 226.408C664.561 227.146 664.443 227.943 664.408 228.799C664.367 229.678 664.414 230.486 664.549 231.225C664.684 231.957 664.9 232.61 665.199 233.185C665.504 233.765 665.888 234.254 666.351 234.652C666.813 235.057 667.35 235.361 667.959 235.566C668.568 235.777 669.248 235.883 669.998 235.883C670.514 235.883 671.035 235.821 671.562 235.698C672.096 235.575 672.541 235.408 672.898 235.197L673.232 236.199C672.822 236.463 672.31 236.659 671.694 236.788C671.085 236.917 670.508 236.981 669.963 236.981C669.072 236.981 668.258 236.858 667.52 236.612C666.787 236.372 666.137 236.018 665.568 235.549C665.006 235.086 664.537 234.521 664.162 233.853C663.787 233.19 663.512 232.435 663.336 231.585C663.16 230.735 663.093 229.807 663.134 228.799C663.175 227.838 663.318 226.933 663.564 226.083C663.816 225.233 664.159 224.463 664.593 223.771C665.026 223.08 665.542 222.485 666.14 221.987C666.743 221.483 667.42 221.097 668.17 220.827C668.926 220.558 669.746 220.423 670.631 220.423C671.533 220.423 672.351 220.546 673.083 220.792C673.815 221.038 674.457 221.393 675.008 221.855C675.564 222.318 676.024 222.884 676.388 223.552C676.751 224.22 677.015 224.976 677.179 225.819C677.349 226.663 677.413 227.583 677.372 228.579ZM668.346 229.326C668.305 229.736 668.305 230.103 668.346 230.425C668.387 230.747 668.466 231.02 668.583 231.242C668.7 231.465 668.853 231.635 669.04 231.752C669.233 231.863 669.459 231.919 669.717 231.919C669.887 231.919 670.065 231.878 670.253 231.796C670.44 231.708 670.625 231.573 670.807 231.392C670.988 231.21 671.158 230.973 671.316 230.68C671.475 230.387 671.606 230.035 671.712 229.625L672.292 230.258C672.157 230.738 671.981 231.16 671.765 231.523C671.554 231.887 671.316 232.191 671.053 232.438C670.789 232.684 670.508 232.871 670.209 233C669.916 233.123 669.617 233.185 669.312 233.185C668.885 233.185 668.51 233.094 668.188 232.912C667.865 232.725 667.604 232.461 667.405 232.121C667.206 231.781 667.065 231.377 666.983 230.908C666.907 230.434 666.896 229.906 666.948 229.326C667.001 228.711 667.109 228.143 667.273 227.621C667.438 227.1 667.64 226.634 667.88 226.224C668.126 225.813 668.401 225.465 668.706 225.178C669.017 224.891 669.345 224.674 669.69 224.527C670.036 224.375 670.391 224.299 670.754 224.299C671.387 224.299 671.885 224.393 672.248 224.58C672.611 224.762 672.957 224.979 673.285 225.23L672.538 226.101C672.368 225.937 672.146 225.784 671.87 225.644C671.595 225.503 671.27 225.433 670.895 225.433C670.572 225.433 670.271 225.515 669.989 225.679C669.708 225.843 669.453 226.089 669.225 226.417C669.002 226.745 668.814 227.152 668.662 227.639C668.51 228.119 668.404 228.682 668.346 229.326ZM681.292 219.5V233H679.657V219.5H681.292ZM687.849 233.176C687.187 233.176 686.586 233.064 686.047 232.842C685.514 232.613 685.054 232.294 684.667 231.884C684.286 231.474 683.993 230.987 683.788 230.425C683.583 229.862 683.48 229.247 683.48 228.579V228.21C683.48 227.437 683.595 226.748 683.823 226.145C684.052 225.535 684.362 225.02 684.755 224.598C685.147 224.176 685.593 223.856 686.091 223.64C686.589 223.423 687.104 223.314 687.638 223.314C688.317 223.314 688.903 223.432 689.396 223.666C689.894 223.9 690.301 224.229 690.617 224.65C690.934 225.066 691.168 225.559 691.32 226.127C691.473 226.689 691.549 227.305 691.549 227.973V228.702H684.447V227.375H689.923V227.252C689.899 226.83 689.812 226.42 689.659 226.021C689.513 225.623 689.278 225.295 688.956 225.037C688.634 224.779 688.194 224.65 687.638 224.65C687.269 224.65 686.929 224.729 686.618 224.888C686.308 225.04 686.041 225.269 685.818 225.573C685.596 225.878 685.423 226.25 685.3 226.689C685.177 227.129 685.115 227.636 685.115 228.21V228.579C685.115 229.03 685.177 229.455 685.3 229.854C685.429 230.246 685.613 230.592 685.854 230.891C686.1 231.189 686.396 231.424 686.741 231.594C687.093 231.764 687.491 231.849 687.937 231.849C688.511 231.849 688.997 231.731 689.396 231.497C689.794 231.263 690.143 230.949 690.441 230.557L691.426 231.339C691.221 231.649 690.96 231.945 690.644 232.227C690.327 232.508 689.938 232.736 689.475 232.912C689.018 233.088 688.476 233.176 687.849 233.176ZM699.608 223.49H701.085V232.798C701.085 233.636 700.915 234.351 700.575 234.942C700.235 235.534 699.761 235.982 699.151 236.287C698.548 236.598 697.851 236.753 697.06 236.753C696.731 236.753 696.345 236.7 695.899 236.595C695.46 236.495 695.026 236.322 694.599 236.076C694.177 235.836 693.822 235.511 693.535 235.101L694.388 234.134C694.786 234.614 695.202 234.948 695.636 235.136C696.075 235.323 696.509 235.417 696.937 235.417C697.452 235.417 697.897 235.32 698.272 235.127C698.647 234.934 698.938 234.646 699.143 234.266C699.354 233.891 699.459 233.428 699.459 232.877V225.582L699.608 223.49ZM693.061 228.351V228.166C693.061 227.439 693.146 226.78 693.315 226.188C693.491 225.591 693.74 225.078 694.062 224.65C694.391 224.223 694.786 223.895 695.249 223.666C695.712 223.432 696.233 223.314 696.813 223.314C697.411 223.314 697.933 223.42 698.378 223.631C698.829 223.836 699.21 224.138 699.521 224.536C699.837 224.929 700.086 225.403 700.268 225.96C700.449 226.517 700.575 227.146 700.646 227.85V228.658C700.581 229.355 700.455 229.982 700.268 230.539C700.086 231.096 699.837 231.57 699.521 231.963C699.21 232.355 698.829 232.657 698.378 232.868C697.927 233.073 697.399 233.176 696.796 233.176C696.228 233.176 695.712 233.056 695.249 232.815C694.792 232.575 694.399 232.238 694.071 231.805C693.743 231.371 693.491 230.861 693.315 230.275C693.146 229.684 693.061 229.042 693.061 228.351ZM694.687 228.166V228.351C694.687 228.825 694.733 229.271 694.827 229.687C694.927 230.103 695.076 230.469 695.275 230.785C695.48 231.102 695.741 231.351 696.058 231.532C696.374 231.708 696.752 231.796 697.191 231.796C697.73 231.796 698.176 231.682 698.527 231.453C698.879 231.225 699.157 230.923 699.362 230.548C699.573 230.173 699.737 229.766 699.854 229.326V227.208C699.79 226.886 699.69 226.575 699.556 226.276C699.427 225.972 699.257 225.702 699.046 225.468C698.841 225.228 698.586 225.037 698.281 224.896C697.977 224.756 697.619 224.686 697.209 224.686C696.764 224.686 696.38 224.779 696.058 224.967C695.741 225.148 695.48 225.4 695.275 225.723C695.076 226.039 694.927 226.408 694.827 226.83C694.733 227.246 694.687 227.691 694.687 228.166ZM709.162 231.374V226.479C709.162 226.104 709.086 225.778 708.934 225.503C708.787 225.222 708.564 225.005 708.266 224.853C707.967 224.7 707.598 224.624 707.158 224.624C706.748 224.624 706.388 224.694 706.077 224.835C705.772 224.976 705.532 225.16 705.356 225.389C705.187 225.617 705.102 225.863 705.102 226.127H703.476C703.476 225.787 703.563 225.45 703.739 225.116C703.915 224.782 704.167 224.48 704.495 224.211C704.829 223.936 705.228 223.719 705.69 223.561C706.159 223.396 706.681 223.314 707.255 223.314C707.946 223.314 708.556 223.432 709.083 223.666C709.616 223.9 710.032 224.255 710.331 224.729C710.636 225.198 710.788 225.787 710.788 226.496V230.926C710.788 231.242 710.814 231.579 710.867 231.937C710.926 232.294 711.011 232.602 711.122 232.859V233H709.426C709.344 232.812 709.279 232.563 709.232 232.253C709.186 231.937 709.162 231.644 709.162 231.374ZM709.443 227.234L709.461 228.377H707.817C707.354 228.377 706.941 228.415 706.578 228.491C706.215 228.562 705.91 228.67 705.664 228.816C705.418 228.963 705.23 229.147 705.102 229.37C704.973 229.587 704.908 229.842 704.908 230.135C704.908 230.434 704.976 230.706 705.11 230.952C705.245 231.198 705.447 231.395 705.717 231.541C705.992 231.682 706.329 231.752 706.728 231.752C707.226 231.752 707.665 231.646 708.046 231.436C708.427 231.225 708.729 230.967 708.951 230.662C709.18 230.357 709.303 230.062 709.32 229.774L710.015 230.557C709.974 230.803 709.862 231.075 709.681 231.374C709.499 231.673 709.256 231.96 708.951 232.235C708.652 232.505 708.295 232.73 707.879 232.912C707.469 233.088 707.006 233.176 706.49 233.176C705.846 233.176 705.28 233.05 704.794 232.798C704.313 232.546 703.938 232.209 703.669 231.787C703.405 231.359 703.273 230.882 703.273 230.354C703.273 229.845 703.373 229.396 703.572 229.01C703.771 228.617 704.059 228.292 704.434 228.034C704.809 227.771 705.26 227.571 705.787 227.437C706.314 227.302 706.903 227.234 707.554 227.234H709.443ZM717.151 231.84C717.538 231.84 717.896 231.761 718.224 231.603C718.552 231.444 718.821 231.228 719.032 230.952C719.243 230.671 719.363 230.352 719.393 229.994H720.939C720.91 230.557 720.72 231.081 720.368 231.567C720.022 232.048 719.568 232.438 719.006 232.736C718.443 233.029 717.825 233.176 717.151 233.176C716.437 233.176 715.812 233.05 715.279 232.798C714.752 232.546 714.312 232.2 713.961 231.761C713.615 231.321 713.354 230.817 713.179 230.249C713.009 229.675 712.924 229.068 712.924 228.43V228.061C712.924 227.422 713.009 226.818 713.179 226.25C713.354 225.676 713.615 225.169 713.961 224.729C714.312 224.29 714.752 223.944 715.279 223.692C715.812 223.44 716.437 223.314 717.151 223.314C717.896 223.314 718.546 223.467 719.103 223.771C719.659 224.07 720.096 224.48 720.412 225.002C720.734 225.518 720.91 226.104 720.939 226.76H719.393C719.363 226.367 719.252 226.013 719.059 225.696C718.871 225.38 718.613 225.128 718.285 224.94C717.963 224.747 717.585 224.65 717.151 224.65C716.653 224.65 716.234 224.75 715.895 224.949C715.561 225.143 715.294 225.406 715.095 225.74C714.901 226.068 714.761 226.435 714.673 226.839C714.591 227.237 714.55 227.645 714.55 228.061V228.43C714.55 228.846 714.591 229.256 714.673 229.66C714.755 230.064 714.893 230.431 715.086 230.759C715.285 231.087 715.552 231.351 715.886 231.55C716.226 231.743 716.647 231.84 717.151 231.84ZM725.439 232.016L728.085 223.49H729.825L726.011 234.468C725.923 234.702 725.806 234.954 725.659 235.224C725.519 235.499 725.337 235.76 725.114 236.006C724.892 236.252 724.622 236.451 724.306 236.604C723.995 236.762 723.623 236.841 723.189 236.841C723.061 236.841 722.896 236.823 722.697 236.788C722.498 236.753 722.357 236.724 722.275 236.7L722.267 235.382C722.313 235.388 722.387 235.394 722.486 235.399C722.592 235.411 722.665 235.417 722.706 235.417C723.075 235.417 723.389 235.367 723.646 235.268C723.904 235.174 724.121 235.013 724.297 234.784C724.479 234.562 724.634 234.254 724.763 233.861L725.439 232.016ZM723.497 223.49L725.967 230.873L726.389 232.587L725.22 233.185L721.722 223.49H723.497ZM738.148 233V234.336H730.089V233H738.148ZM740.513 223.49L742.596 226.953L744.705 223.49H746.612L743.501 228.184L746.709 233H744.828L742.631 229.432L740.434 233H738.544L741.743 228.184L738.641 223.49H740.513ZM751.016 232.016L753.661 223.49H755.401L751.587 234.468C751.499 234.702 751.382 234.954 751.235 235.224C751.095 235.499 750.913 235.76 750.69 236.006C750.468 236.252 750.198 236.451 749.882 236.604C749.571 236.762 749.199 236.841 748.766 236.841C748.637 236.841 748.473 236.823 748.273 236.788C748.074 236.753 747.934 236.724 747.852 236.7L747.843 235.382C747.89 235.388 747.963 235.394 748.062 235.399C748.168 235.411 748.241 235.417 748.282 235.417C748.651 235.417 748.965 235.367 749.223 235.268C749.48 235.174 749.697 235.013 749.873 234.784C750.055 234.562 750.21 234.254 750.339 233.861L751.016 232.016ZM749.073 223.49L751.543 230.873L751.965 232.587L750.796 233.185L747.298 223.49H749.073ZM763.953 231.664V233H757.036V231.664H763.953ZM763.698 224.642L757.405 233H756.412V231.805L762.661 223.49H763.698V224.642ZM762.978 223.49V224.835H756.482V223.49H762.978Z" fill="#838383"/>
<path d="M371.345 293.582V295.533C371.345 296.582 371.251 297.467 371.063 298.188C370.876 298.908 370.606 299.488 370.255 299.928C369.903 300.367 369.479 300.687 368.98 300.886C368.488 301.079 367.932 301.176 367.311 301.176C366.818 301.176 366.364 301.114 365.948 300.991C365.532 300.868 365.157 300.672 364.823 300.402C364.495 300.127 364.214 299.77 363.979 299.33C363.745 298.891 363.566 298.357 363.443 297.73C363.32 297.104 363.259 296.371 363.259 295.533V293.582C363.259 292.533 363.353 291.654 363.54 290.945C363.733 290.236 364.006 289.668 364.357 289.24C364.709 288.807 365.131 288.496 365.623 288.309C366.121 288.121 366.678 288.027 367.293 288.027C367.791 288.027 368.248 288.089 368.664 288.212C369.086 288.329 369.461 288.52 369.789 288.783C370.117 289.041 370.396 289.387 370.624 289.82C370.858 290.248 371.037 290.772 371.16 291.394C371.283 292.015 371.345 292.744 371.345 293.582ZM369.71 295.797V293.31C369.71 292.735 369.675 292.231 369.604 291.798C369.54 291.358 369.443 290.983 369.314 290.673C369.186 290.362 369.021 290.11 368.822 289.917C368.629 289.724 368.403 289.583 368.146 289.495C367.894 289.401 367.609 289.354 367.293 289.354C366.906 289.354 366.563 289.428 366.265 289.574C365.966 289.715 365.714 289.94 365.509 290.251C365.31 290.562 365.157 290.969 365.052 291.473C364.946 291.977 364.894 292.589 364.894 293.31V295.797C364.894 296.371 364.926 296.878 364.99 297.317C365.061 297.757 365.163 298.138 365.298 298.46C365.433 298.776 365.597 299.037 365.79 299.242C365.983 299.447 366.206 299.6 366.458 299.699C366.716 299.793 367 299.84 367.311 299.84C367.709 299.84 368.058 299.764 368.356 299.611C368.655 299.459 368.904 299.222 369.104 298.899C369.309 298.571 369.461 298.152 369.561 297.643C369.66 297.127 369.71 296.512 369.71 295.797ZM374.711 291.49L376.794 294.953L378.903 291.49H380.811L377.699 296.184L380.907 301H379.026L376.829 297.432L374.632 301H372.742L375.941 296.184L372.839 291.49H374.711ZM390.637 288.203V289.117L385.337 301H383.623L388.914 289.539H381.988V288.203H390.637ZM397.835 288.133V301H396.209V290.163L392.931 291.358V289.891L397.58 288.133H397.835ZM410.764 296.931H412.451C412.363 297.739 412.132 298.463 411.757 299.102C411.382 299.74 410.852 300.247 410.166 300.622C409.48 300.991 408.625 301.176 407.6 301.176C406.85 301.176 406.167 301.035 405.552 300.754C404.942 300.473 404.418 300.074 403.979 299.559C403.539 299.037 403.199 298.413 402.959 297.687C402.725 296.954 402.607 296.14 402.607 295.243V293.969C402.607 293.072 402.725 292.261 402.959 291.534C403.199 290.802 403.542 290.175 403.987 289.653C404.438 289.132 404.98 288.73 405.613 288.449C406.246 288.168 406.958 288.027 407.749 288.027C408.716 288.027 409.533 288.209 410.201 288.572C410.869 288.936 411.388 289.439 411.757 290.084C412.132 290.723 412.363 291.464 412.451 292.308H410.764C410.682 291.71 410.529 291.197 410.307 290.77C410.084 290.336 409.768 290.002 409.357 289.768C408.947 289.533 408.411 289.416 407.749 289.416C407.181 289.416 406.68 289.524 406.246 289.741C405.818 289.958 405.458 290.266 405.165 290.664C404.878 291.062 404.661 291.54 404.515 292.097C404.368 292.653 404.295 293.271 404.295 293.951V295.243C404.295 295.87 404.359 296.459 404.488 297.01C404.623 297.561 404.825 298.044 405.095 298.46C405.364 298.876 405.707 299.204 406.123 299.444C406.539 299.679 407.031 299.796 407.6 299.796C408.32 299.796 408.895 299.682 409.322 299.453C409.75 299.225 410.072 298.896 410.289 298.469C410.512 298.041 410.67 297.528 410.764 296.931ZM420.581 288.186H420.722V289.565H420.581C419.72 289.565 418.999 289.706 418.419 289.987C417.839 290.263 417.379 290.635 417.039 291.104C416.699 291.566 416.453 292.088 416.301 292.668C416.154 293.248 416.081 293.837 416.081 294.435V296.315C416.081 296.884 416.148 297.388 416.283 297.827C416.418 298.261 416.603 298.627 416.837 298.926C417.071 299.225 417.335 299.45 417.628 299.603C417.927 299.755 418.237 299.831 418.56 299.831C418.935 299.831 419.269 299.761 419.562 299.62C419.854 299.474 420.101 299.271 420.3 299.014C420.505 298.75 420.66 298.439 420.766 298.082C420.871 297.725 420.924 297.332 420.924 296.904C420.924 296.523 420.877 296.157 420.783 295.806C420.689 295.448 420.546 295.132 420.353 294.856C420.159 294.575 419.916 294.355 419.623 294.197C419.336 294.033 418.993 293.951 418.595 293.951C418.144 293.951 417.722 294.062 417.329 294.285C416.942 294.502 416.623 294.789 416.371 295.146C416.125 295.498 415.984 295.882 415.949 296.298L415.088 296.289C415.17 295.633 415.322 295.073 415.545 294.61C415.773 294.142 416.055 293.761 416.389 293.468C416.729 293.169 417.106 292.952 417.522 292.817C417.944 292.677 418.39 292.606 418.858 292.606C419.497 292.606 420.048 292.727 420.511 292.967C420.974 293.207 421.354 293.529 421.653 293.934C421.952 294.332 422.172 294.783 422.312 295.287C422.459 295.785 422.532 296.298 422.532 296.825C422.532 297.429 422.447 297.994 422.277 298.521C422.107 299.049 421.853 299.512 421.513 299.91C421.179 300.309 420.766 300.619 420.273 300.842C419.781 301.064 419.21 301.176 418.56 301.176C417.868 301.176 417.265 301.035 416.749 300.754C416.233 300.467 415.806 300.086 415.466 299.611C415.126 299.137 414.871 298.609 414.701 298.029C414.531 297.449 414.446 296.86 414.446 296.263V295.498C414.446 294.596 414.537 293.711 414.719 292.844C414.9 291.977 415.214 291.191 415.659 290.488C416.11 289.785 416.734 289.226 417.531 288.81C418.328 288.394 419.345 288.186 420.581 288.186ZM424.668 300.139C424.668 299.863 424.753 299.632 424.923 299.444C425.099 299.251 425.351 299.154 425.679 299.154C426.007 299.154 426.256 299.251 426.426 299.444C426.602 299.632 426.689 299.863 426.689 300.139C426.689 300.408 426.602 300.637 426.426 300.824C426.256 301.012 426.007 301.105 425.679 301.105C425.351 301.105 425.099 301.012 424.923 300.824C424.753 300.637 424.668 300.408 424.668 300.139ZM429.414 300.139C429.414 299.863 429.499 299.632 429.669 299.444C429.845 299.251 430.097 299.154 430.425 299.154C430.753 299.154 431.002 299.251 431.172 299.444C431.348 299.632 431.436 299.863 431.436 300.139C431.436 300.408 431.348 300.637 431.172 300.824C431.002 301.012 430.753 301.105 430.425 301.105C430.097 301.105 429.845 301.012 429.669 300.824C429.499 300.637 429.414 300.408 429.414 300.139ZM434.16 300.139C434.16 299.863 434.245 299.632 434.415 299.444C434.591 299.251 434.843 299.154 435.171 299.154C435.499 299.154 435.748 299.251 435.918 299.444C436.094 299.632 436.182 299.863 436.182 300.139C436.182 300.408 436.094 300.637 435.918 300.824C435.748 301.012 435.499 301.105 435.171 301.105C434.843 301.105 434.591 301.012 434.415 300.824C434.245 300.637 434.16 300.408 434.16 300.139ZM444.874 299.154V287.5H446.509V301H445.015L444.874 299.154ZM438.476 296.351V296.166C438.476 295.439 438.563 294.78 438.739 294.188C438.921 293.591 439.176 293.078 439.504 292.65C439.838 292.223 440.233 291.895 440.69 291.666C441.153 291.432 441.669 291.314 442.237 291.314C442.835 291.314 443.356 291.42 443.802 291.631C444.253 291.836 444.634 292.138 444.944 292.536C445.261 292.929 445.51 293.403 445.691 293.96C445.873 294.517 445.999 295.146 446.069 295.85V296.658C446.005 297.355 445.879 297.982 445.691 298.539C445.51 299.096 445.261 299.57 444.944 299.963C444.634 300.355 444.253 300.657 443.802 300.868C443.351 301.073 442.823 301.176 442.22 301.176C441.663 301.176 441.153 301.056 440.69 300.815C440.233 300.575 439.838 300.238 439.504 299.805C439.176 299.371 438.921 298.861 438.739 298.275C438.563 297.684 438.476 297.042 438.476 296.351ZM440.11 296.166V296.351C440.11 296.825 440.157 297.271 440.251 297.687C440.351 298.103 440.503 298.469 440.708 298.785C440.913 299.102 441.174 299.351 441.49 299.532C441.807 299.708 442.185 299.796 442.624 299.796C443.163 299.796 443.605 299.682 443.951 299.453C444.303 299.225 444.584 298.923 444.795 298.548C445.006 298.173 445.17 297.766 445.287 297.326V295.208C445.217 294.886 445.114 294.575 444.979 294.276C444.851 293.972 444.681 293.702 444.47 293.468C444.265 293.228 444.01 293.037 443.705 292.896C443.406 292.756 443.052 292.686 442.642 292.686C442.196 292.686 441.812 292.779 441.49 292.967C441.174 293.148 440.913 293.4 440.708 293.723C440.503 294.039 440.351 294.408 440.251 294.83C440.157 295.246 440.11 295.691 440.11 296.166ZM456.933 297.537C456.933 298.316 456.751 298.979 456.388 299.523C456.03 300.062 455.544 300.473 454.929 300.754C454.319 301.035 453.631 301.176 452.863 301.176C452.096 301.176 451.404 301.035 450.789 300.754C450.174 300.473 449.688 300.062 449.33 299.523C448.973 298.979 448.794 298.316 448.794 297.537C448.794 297.027 448.891 296.562 449.084 296.14C449.283 295.712 449.562 295.34 449.919 295.023C450.282 294.707 450.71 294.464 451.202 294.294C451.7 294.118 452.248 294.03 452.846 294.03C453.631 294.03 454.331 294.183 454.946 294.487C455.562 294.786 456.045 295.199 456.396 295.727C456.754 296.254 456.933 296.857 456.933 297.537ZM455.298 297.502C455.298 297.027 455.195 296.608 454.99 296.245C454.785 295.876 454.498 295.589 454.129 295.384C453.76 295.179 453.332 295.076 452.846 295.076C452.348 295.076 451.917 295.179 451.554 295.384C451.196 295.589 450.918 295.876 450.719 296.245C450.52 296.608 450.42 297.027 450.42 297.502C450.42 297.994 450.517 298.416 450.71 298.768C450.909 299.113 451.19 299.38 451.554 299.567C451.923 299.749 452.359 299.84 452.863 299.84C453.367 299.84 453.801 299.749 454.164 299.567C454.527 299.38 454.806 299.113 454.999 298.768C455.198 298.416 455.298 297.994 455.298 297.502ZM456.634 291.534C456.634 292.155 456.47 292.715 456.142 293.213C455.813 293.711 455.365 294.104 454.797 294.391C454.229 294.678 453.584 294.821 452.863 294.821C452.131 294.821 451.478 294.678 450.903 294.391C450.335 294.104 449.89 293.711 449.567 293.213C449.245 292.715 449.084 292.155 449.084 291.534C449.084 290.79 449.245 290.157 449.567 289.636C449.896 289.114 450.344 288.716 450.912 288.44C451.48 288.165 452.128 288.027 452.854 288.027C453.587 288.027 454.237 288.165 454.806 288.44C455.374 288.716 455.819 289.114 456.142 289.636C456.47 290.157 456.634 290.79 456.634 291.534ZM455.008 291.561C455.008 291.133 454.917 290.755 454.735 290.427C454.554 290.099 454.302 289.841 453.979 289.653C453.657 289.46 453.282 289.363 452.854 289.363C452.427 289.363 452.052 289.454 451.729 289.636C451.413 289.812 451.164 290.063 450.982 290.392C450.807 290.72 450.719 291.109 450.719 291.561C450.719 292 450.807 292.384 450.982 292.712C451.164 293.04 451.416 293.295 451.738 293.477C452.061 293.658 452.436 293.749 452.863 293.749C453.291 293.749 453.663 293.658 453.979 293.477C454.302 293.295 454.554 293.04 454.735 292.712C454.917 292.384 455.008 292 455.008 291.561ZM460.606 299.638H460.773C461.711 299.638 462.473 299.506 463.059 299.242C463.645 298.979 464.096 298.624 464.412 298.179C464.729 297.733 464.945 297.232 465.062 296.676C465.18 296.113 465.238 295.536 465.238 294.944V292.984C465.238 292.404 465.171 291.889 465.036 291.438C464.907 290.986 464.726 290.608 464.491 290.304C464.263 289.999 464.002 289.768 463.709 289.609C463.416 289.451 463.105 289.372 462.777 289.372C462.402 289.372 462.065 289.448 461.767 289.601C461.474 289.747 461.225 289.955 461.02 290.225C460.82 290.494 460.668 290.811 460.562 291.174C460.457 291.537 460.404 291.933 460.404 292.36C460.404 292.741 460.451 293.11 460.545 293.468C460.639 293.825 460.782 294.147 460.976 294.435C461.169 294.722 461.409 294.95 461.696 295.12C461.989 295.284 462.332 295.366 462.725 295.366C463.088 295.366 463.428 295.296 463.744 295.155C464.066 295.009 464.351 294.812 464.597 294.566C464.849 294.314 465.048 294.03 465.194 293.714C465.347 293.397 465.435 293.066 465.458 292.721H466.231C466.231 293.207 466.135 293.688 465.941 294.162C465.754 294.631 465.49 295.059 465.15 295.445C464.811 295.832 464.412 296.143 463.955 296.377C463.498 296.605 463 296.72 462.461 296.72C461.828 296.72 461.28 296.597 460.817 296.351C460.354 296.104 459.974 295.776 459.675 295.366C459.382 294.956 459.162 294.499 459.016 293.995C458.875 293.485 458.805 292.97 458.805 292.448C458.805 291.839 458.89 291.268 459.06 290.734C459.229 290.201 459.481 289.732 459.815 289.328C460.149 288.918 460.562 288.599 461.055 288.37C461.553 288.142 462.127 288.027 462.777 288.027C463.51 288.027 464.134 288.174 464.649 288.467C465.165 288.76 465.584 289.152 465.906 289.645C466.234 290.137 466.475 290.69 466.627 291.306C466.779 291.921 466.855 292.554 466.855 293.204V293.793C466.855 294.455 466.812 295.129 466.724 295.814C466.642 296.494 466.48 297.145 466.24 297.766C466.006 298.387 465.663 298.943 465.212 299.436C464.761 299.922 464.172 300.309 463.445 300.596C462.725 300.877 461.834 301.018 460.773 301.018H460.606V299.638ZM477.385 288.203V289.117L472.085 301H470.371L475.662 289.539H468.736V288.203H477.385ZM377.506 316.579C377.482 317.118 377.4 317.66 377.26 318.205C377.119 318.744 376.908 319.239 376.627 319.69C376.346 320.142 375.979 320.505 375.528 320.78C375.083 321.05 374.544 321.185 373.911 321.185C373.507 321.185 373.152 321.114 372.848 320.974C372.549 320.827 372.303 320.619 372.109 320.35C371.922 320.08 371.79 319.755 371.714 319.374C371.644 318.993 371.632 318.568 371.679 318.1L372.127 313.23H373.419L372.971 318.1C372.936 318.527 372.944 318.876 372.997 319.146C373.056 319.415 373.144 319.623 373.261 319.77C373.378 319.91 373.51 320.007 373.656 320.06C373.809 320.112 373.955 320.139 374.096 320.139C374.447 320.139 374.761 320.048 375.036 319.866C375.312 319.679 375.543 319.424 375.73 319.102C375.924 318.773 376.073 318.396 376.179 317.968C376.284 317.534 376.349 317.071 376.372 316.579C376.413 315.706 376.372 314.903 376.249 314.171C376.132 313.438 375.93 312.788 375.643 312.22C375.361 311.651 374.992 311.171 374.535 310.778C374.078 310.386 373.533 310.087 372.9 309.882C372.268 309.677 371.544 309.574 370.729 309.574C369.991 309.574 369.309 309.688 368.682 309.917C368.061 310.14 367.501 310.462 367.003 310.884C366.511 311.306 366.086 311.812 365.729 312.404C365.377 312.996 365.099 313.664 364.894 314.408C364.694 315.146 364.577 315.943 364.542 316.799C364.501 317.678 364.548 318.486 364.683 319.225C364.817 319.957 365.034 320.61 365.333 321.185C365.638 321.765 366.021 322.254 366.484 322.652C366.947 323.057 367.483 323.361 368.093 323.566C368.702 323.777 369.382 323.883 370.132 323.883C370.647 323.883 371.169 323.821 371.696 323.698C372.229 323.575 372.675 323.408 373.032 323.197L373.366 324.199C372.956 324.463 372.443 324.659 371.828 324.788C371.219 324.917 370.642 324.981 370.097 324.981C369.206 324.981 368.392 324.858 367.653 324.612C366.921 324.372 366.271 324.018 365.702 323.549C365.14 323.086 364.671 322.521 364.296 321.853C363.921 321.19 363.646 320.435 363.47 319.585C363.294 318.735 363.227 317.807 363.268 316.799C363.309 315.838 363.452 314.933 363.698 314.083C363.95 313.233 364.293 312.463 364.727 311.771C365.16 311.08 365.676 310.485 366.273 309.987C366.877 309.483 367.554 309.097 368.304 308.827C369.06 308.558 369.88 308.423 370.765 308.423C371.667 308.423 372.484 308.546 373.217 308.792C373.949 309.038 374.591 309.393 375.142 309.855C375.698 310.318 376.158 310.884 376.521 311.552C376.885 312.22 377.148 312.976 377.312 313.819C377.482 314.663 377.547 315.583 377.506 316.579ZM368.479 317.326C368.438 317.736 368.438 318.103 368.479 318.425C368.521 318.747 368.6 319.02 368.717 319.242C368.834 319.465 368.986 319.635 369.174 319.752C369.367 319.863 369.593 319.919 369.851 319.919C370.021 319.919 370.199 319.878 370.387 319.796C370.574 319.708 370.759 319.573 370.94 319.392C371.122 319.21 371.292 318.973 371.45 318.68C371.608 318.387 371.74 318.035 371.846 317.625L372.426 318.258C372.291 318.738 372.115 319.16 371.898 319.523C371.688 319.887 371.45 320.191 371.187 320.438C370.923 320.684 370.642 320.871 370.343 321C370.05 321.123 369.751 321.185 369.446 321.185C369.019 321.185 368.644 321.094 368.321 320.912C367.999 320.725 367.738 320.461 367.539 320.121C367.34 319.781 367.199 319.377 367.117 318.908C367.041 318.434 367.029 317.906 367.082 317.326C367.135 316.711 367.243 316.143 367.407 315.621C367.571 315.1 367.773 314.634 368.014 314.224C368.26 313.813 368.535 313.465 368.84 313.178C369.15 312.891 369.479 312.674 369.824 312.527C370.17 312.375 370.524 312.299 370.888 312.299C371.521 312.299 372.019 312.393 372.382 312.58C372.745 312.762 373.091 312.979 373.419 313.23L372.672 314.101C372.502 313.937 372.279 313.784 372.004 313.644C371.729 313.503 371.403 313.433 371.028 313.433C370.706 313.433 370.404 313.515 370.123 313.679C369.842 313.843 369.587 314.089 369.358 314.417C369.136 314.745 368.948 315.152 368.796 315.639C368.644 316.119 368.538 316.682 368.479 317.326ZM381.276 313.38V321H379.642V311.49H381.188L381.276 313.38ZM380.942 315.885L380.187 315.858C380.192 315.208 380.277 314.607 380.441 314.057C380.605 313.5 380.849 313.017 381.171 312.606C381.493 312.196 381.895 311.88 382.375 311.657C382.855 311.429 383.412 311.314 384.045 311.314C384.49 311.314 384.9 311.379 385.275 311.508C385.65 311.631 385.976 311.827 386.251 312.097C386.526 312.366 386.74 312.712 386.893 313.134C387.045 313.556 387.121 314.065 387.121 314.663V321H385.495V314.742C385.495 314.244 385.41 313.846 385.24 313.547C385.076 313.248 384.842 313.031 384.537 312.896C384.232 312.756 383.875 312.686 383.465 312.686C382.984 312.686 382.583 312.771 382.261 312.94C381.938 313.11 381.681 313.345 381.487 313.644C381.294 313.942 381.153 314.285 381.065 314.672C380.983 315.053 380.942 315.457 380.942 315.885ZM387.104 314.988L386.014 315.322C386.02 314.801 386.104 314.3 386.269 313.819C386.438 313.339 386.682 312.911 386.998 312.536C387.32 312.161 387.716 311.865 388.185 311.648C388.653 311.426 389.189 311.314 389.793 311.314C390.303 311.314 390.754 311.382 391.146 311.517C391.545 311.651 391.879 311.859 392.148 312.141C392.424 312.416 392.632 312.771 392.772 313.204C392.913 313.638 392.983 314.153 392.983 314.751V321H391.349V314.733C391.349 314.2 391.264 313.787 391.094 313.494C390.93 313.195 390.695 312.987 390.391 312.87C390.092 312.747 389.734 312.686 389.318 312.686C388.961 312.686 388.645 312.747 388.369 312.87C388.094 312.993 387.862 313.163 387.675 313.38C387.487 313.591 387.344 313.834 387.244 314.109C387.15 314.385 387.104 314.678 387.104 314.988ZM401.052 319.374V314.479C401.052 314.104 400.976 313.778 400.823 313.503C400.677 313.222 400.454 313.005 400.155 312.853C399.856 312.7 399.487 312.624 399.048 312.624C398.638 312.624 398.277 312.694 397.967 312.835C397.662 312.976 397.422 313.16 397.246 313.389C397.076 313.617 396.991 313.863 396.991 314.127H395.365C395.365 313.787 395.453 313.45 395.629 313.116C395.805 312.782 396.057 312.48 396.385 312.211C396.719 311.936 397.117 311.719 397.58 311.561C398.049 311.396 398.57 311.314 399.145 311.314C399.836 311.314 400.445 311.432 400.973 311.666C401.506 311.9 401.922 312.255 402.221 312.729C402.525 313.198 402.678 313.787 402.678 314.496V318.926C402.678 319.242 402.704 319.579 402.757 319.937C402.815 320.294 402.9 320.602 403.012 320.859V321H401.315C401.233 320.812 401.169 320.563 401.122 320.253C401.075 319.937 401.052 319.644 401.052 319.374ZM401.333 315.234L401.351 316.377H399.707C399.244 316.377 398.831 316.415 398.468 316.491C398.104 316.562 397.8 316.67 397.554 316.816C397.308 316.963 397.12 317.147 396.991 317.37C396.862 317.587 396.798 317.842 396.798 318.135C396.798 318.434 396.865 318.706 397 318.952C397.135 319.198 397.337 319.395 397.606 319.541C397.882 319.682 398.219 319.752 398.617 319.752C399.115 319.752 399.555 319.646 399.936 319.436C400.316 319.225 400.618 318.967 400.841 318.662C401.069 318.357 401.192 318.062 401.21 317.774L401.904 318.557C401.863 318.803 401.752 319.075 401.57 319.374C401.389 319.673 401.146 319.96 400.841 320.235C400.542 320.505 400.185 320.73 399.769 320.912C399.358 321.088 398.896 321.176 398.38 321.176C397.735 321.176 397.17 321.05 396.684 320.798C396.203 320.546 395.828 320.209 395.559 319.787C395.295 319.359 395.163 318.882 395.163 318.354C395.163 317.845 395.263 317.396 395.462 317.01C395.661 316.617 395.948 316.292 396.323 316.034C396.698 315.771 397.149 315.571 397.677 315.437C398.204 315.302 398.793 315.234 399.443 315.234H401.333ZM409.217 311.49V312.738H404.075V311.49H409.217ZM405.815 309.179H407.441V318.645C407.441 318.967 407.491 319.21 407.591 319.374C407.69 319.538 407.819 319.646 407.978 319.699C408.136 319.752 408.306 319.778 408.487 319.778C408.622 319.778 408.763 319.767 408.909 319.743C409.062 319.714 409.176 319.69 409.252 319.673L409.261 321C409.132 321.041 408.962 321.079 408.751 321.114C408.546 321.155 408.297 321.176 408.004 321.176C407.605 321.176 407.239 321.097 406.905 320.938C406.571 320.78 406.305 320.517 406.105 320.147C405.912 319.772 405.815 319.269 405.815 318.636V309.179ZM412.75 307.5V321H411.124V307.5H412.75ZM412.363 315.885L411.687 315.858C411.692 315.208 411.789 314.607 411.977 314.057C412.164 313.5 412.428 313.017 412.768 312.606C413.107 312.196 413.512 311.88 413.98 311.657C414.455 311.429 414.979 311.314 415.554 311.314C416.022 311.314 416.444 311.379 416.819 311.508C417.194 311.631 417.514 311.83 417.777 312.105C418.047 312.381 418.252 312.738 418.393 313.178C418.533 313.611 418.604 314.142 418.604 314.769V321H416.969V314.751C416.969 314.253 416.896 313.854 416.749 313.556C416.603 313.251 416.389 313.031 416.107 312.896C415.826 312.756 415.48 312.686 415.07 312.686C414.666 312.686 414.297 312.771 413.963 312.94C413.635 313.11 413.351 313.345 413.11 313.644C412.876 313.942 412.691 314.285 412.557 314.672C412.428 315.053 412.363 315.457 412.363 315.885ZM426.856 318.803V311.49H428.491V321H426.936L426.856 318.803ZM427.164 316.799L427.841 316.781C427.841 317.414 427.773 318 427.639 318.539C427.51 319.072 427.299 319.535 427.006 319.928C426.713 320.32 426.329 320.628 425.854 320.851C425.38 321.067 424.803 321.176 424.123 321.176C423.66 321.176 423.235 321.108 422.849 320.974C422.468 320.839 422.14 320.631 421.864 320.35C421.589 320.068 421.375 319.702 421.223 319.251C421.076 318.8 421.003 318.258 421.003 317.625V311.49H422.629V317.643C422.629 318.07 422.676 318.425 422.77 318.706C422.869 318.981 423.001 319.201 423.165 319.365C423.335 319.523 423.522 319.635 423.728 319.699C423.938 319.764 424.155 319.796 424.378 319.796C425.069 319.796 425.617 319.664 426.021 319.4C426.426 319.131 426.716 318.771 426.892 318.319C427.073 317.862 427.164 317.355 427.164 316.799ZM432.596 312.984V321H430.97V311.49H432.552L432.596 312.984ZM435.566 311.438L435.558 312.949C435.423 312.92 435.294 312.902 435.171 312.896C435.054 312.885 434.919 312.879 434.767 312.879C434.392 312.879 434.061 312.938 433.773 313.055C433.486 313.172 433.243 313.336 433.044 313.547C432.845 313.758 432.687 314.01 432.569 314.303C432.458 314.59 432.385 314.906 432.35 315.252L431.893 315.516C431.893 314.941 431.948 314.402 432.06 313.898C432.177 313.395 432.355 312.949 432.596 312.562C432.836 312.17 433.141 311.865 433.51 311.648C433.885 311.426 434.33 311.314 434.846 311.314C434.963 311.314 435.098 311.329 435.25 311.358C435.402 311.382 435.508 311.408 435.566 311.438ZM442.325 319.374V314.479C442.325 314.104 442.249 313.778 442.097 313.503C441.95 313.222 441.728 313.005 441.429 312.853C441.13 312.7 440.761 312.624 440.321 312.624C439.911 312.624 439.551 312.694 439.24 312.835C438.936 312.976 438.695 313.16 438.52 313.389C438.35 313.617 438.265 313.863 438.265 314.127H436.639C436.639 313.787 436.727 313.45 436.902 313.116C437.078 312.782 437.33 312.48 437.658 312.211C437.992 311.936 438.391 311.719 438.854 311.561C439.322 311.396 439.844 311.314 440.418 311.314C441.109 311.314 441.719 311.432 442.246 311.666C442.779 311.9 443.195 312.255 443.494 312.729C443.799 313.198 443.951 313.787 443.951 314.496V318.926C443.951 319.242 443.978 319.579 444.03 319.937C444.089 320.294 444.174 320.602 444.285 320.859V321H442.589C442.507 320.812 442.442 320.563 442.396 320.253C442.349 319.937 442.325 319.644 442.325 319.374ZM442.606 315.234L442.624 316.377H440.98C440.518 316.377 440.104 316.415 439.741 316.491C439.378 316.562 439.073 316.67 438.827 316.816C438.581 316.963 438.394 317.147 438.265 317.37C438.136 317.587 438.071 317.842 438.071 318.135C438.071 318.434 438.139 318.706 438.273 318.952C438.408 319.198 438.61 319.395 438.88 319.541C439.155 319.682 439.492 319.752 439.891 319.752C440.389 319.752 440.828 319.646 441.209 319.436C441.59 319.225 441.892 318.967 442.114 318.662C442.343 318.357 442.466 318.062 442.483 317.774L443.178 318.557C443.137 318.803 443.025 319.075 442.844 319.374C442.662 319.673 442.419 319.96 442.114 320.235C441.815 320.505 441.458 320.73 441.042 320.912C440.632 321.088 440.169 321.176 439.653 321.176C439.009 321.176 438.443 321.05 437.957 320.798C437.477 320.546 437.102 320.209 436.832 319.787C436.568 319.359 436.437 318.882 436.437 318.354C436.437 317.845 436.536 317.396 436.735 317.01C436.935 316.617 437.222 316.292 437.597 316.034C437.972 315.771 438.423 315.571 438.95 315.437C439.478 315.302 440.066 315.234 440.717 315.234H442.606ZM448.135 307.5V321H446.509V307.5H448.135ZM447.748 315.885L447.071 315.858C447.077 315.208 447.174 314.607 447.361 314.057C447.549 313.5 447.812 313.017 448.152 312.606C448.492 312.196 448.896 311.88 449.365 311.657C449.84 311.429 450.364 311.314 450.938 311.314C451.407 311.314 451.829 311.379 452.204 311.508C452.579 311.631 452.898 311.83 453.162 312.105C453.432 312.381 453.637 312.738 453.777 313.178C453.918 313.611 453.988 314.142 453.988 314.769V321H452.354V314.751C452.354 314.253 452.28 313.854 452.134 313.556C451.987 313.251 451.773 313.031 451.492 312.896C451.211 312.756 450.865 312.686 450.455 312.686C450.051 312.686 449.682 312.771 449.348 312.94C449.02 313.11 448.735 313.345 448.495 313.644C448.261 313.942 448.076 314.285 447.941 314.672C447.812 315.053 447.748 315.457 447.748 315.885ZM458.049 312.984V321H456.423V311.49H458.005L458.049 312.984ZM461.02 311.438L461.011 312.949C460.876 312.92 460.747 312.902 460.624 312.896C460.507 312.885 460.372 312.879 460.22 312.879C459.845 312.879 459.514 312.938 459.227 313.055C458.939 313.172 458.696 313.336 458.497 313.547C458.298 313.758 458.14 314.01 458.022 314.303C457.911 314.59 457.838 314.906 457.803 315.252L457.346 315.516C457.346 314.941 457.401 314.402 457.513 313.898C457.63 313.395 457.809 312.949 458.049 312.562C458.289 312.17 458.594 311.865 458.963 311.648C459.338 311.426 459.783 311.314 460.299 311.314C460.416 311.314 460.551 311.329 460.703 311.358C460.855 311.382 460.961 311.408 461.02 311.438ZM467.778 319.374V314.479C467.778 314.104 467.702 313.778 467.55 313.503C467.403 313.222 467.181 313.005 466.882 312.853C466.583 312.7 466.214 312.624 465.774 312.624C465.364 312.624 465.004 312.694 464.693 312.835C464.389 312.976 464.148 313.16 463.973 313.389C463.803 313.617 463.718 313.863 463.718 314.127H462.092C462.092 313.787 462.18 313.45 462.355 313.116C462.531 312.782 462.783 312.48 463.111 312.211C463.445 311.936 463.844 311.719 464.307 311.561C464.775 311.396 465.297 311.314 465.871 311.314C466.562 311.314 467.172 311.432 467.699 311.666C468.232 311.9 468.648 312.255 468.947 312.729C469.252 313.198 469.404 313.787 469.404 314.496V318.926C469.404 319.242 469.431 319.579 469.483 319.937C469.542 320.294 469.627 320.602 469.738 320.859V321H468.042C467.96 320.812 467.896 320.563 467.849 320.253C467.802 319.937 467.778 319.644 467.778 319.374ZM468.06 315.234L468.077 316.377H466.434C465.971 316.377 465.558 316.415 465.194 316.491C464.831 316.562 464.526 316.67 464.28 316.816C464.034 316.963 463.847 317.147 463.718 317.37C463.589 317.587 463.524 317.842 463.524 318.135C463.524 318.434 463.592 318.706 463.727 318.952C463.861 319.198 464.063 319.395 464.333 319.541C464.608 319.682 464.945 319.752 465.344 319.752C465.842 319.752 466.281 319.646 466.662 319.436C467.043 319.225 467.345 318.967 467.567 318.662C467.796 318.357 467.919 318.062 467.937 317.774L468.631 318.557C468.59 318.803 468.479 319.075 468.297 319.374C468.115 319.673 467.872 319.96 467.567 320.235C467.269 320.505 466.911 320.73 466.495 320.912C466.085 321.088 465.622 321.176 465.106 321.176C464.462 321.176 463.896 321.05 463.41 320.798C462.93 320.546 462.555 320.209 462.285 319.787C462.021 319.359 461.89 318.882 461.89 318.354C461.89 317.845 461.989 317.396 462.188 317.01C462.388 316.617 462.675 316.292 463.05 316.034C463.425 315.771 463.876 315.571 464.403 315.437C464.931 315.302 465.52 315.234 466.17 315.234H468.06ZM474.713 319.532L477.314 311.49H478.976L475.557 321H474.467L474.713 319.532ZM472.542 311.49L475.223 319.576L475.407 321H474.317L470.872 311.49H472.542ZM482.307 311.49V321H480.672V311.49H482.307ZM480.549 308.968C480.549 308.704 480.628 308.481 480.786 308.3C480.95 308.118 481.19 308.027 481.507 308.027C481.817 308.027 482.055 308.118 482.219 308.3C482.389 308.481 482.474 308.704 482.474 308.968C482.474 309.22 482.389 309.437 482.219 309.618C482.055 309.794 481.817 309.882 481.507 309.882C481.19 309.882 480.95 309.794 480.786 309.618C480.628 309.437 480.549 309.22 480.549 308.968Z" fill="#838383"/>
<path d="M53.0576 186.478C53.0576 186.243 53.0049 186.026 52.8994 185.827C52.7998 185.622 52.5918 185.438 52.2754 185.273C51.9648 185.104 51.4961 184.957 50.8691 184.834C50.3418 184.723 49.8643 184.591 49.4365 184.438C49.0146 184.286 48.6543 184.102 48.3555 183.885C48.0625 183.668 47.8369 183.413 47.6787 183.12C47.5205 182.827 47.4414 182.484 47.4414 182.092C47.4414 181.717 47.5234 181.362 47.6875 181.028C47.8574 180.694 48.0947 180.398 48.3994 180.141C48.71 179.883 49.082 179.681 49.5156 179.534C49.9492 179.388 50.4326 179.314 50.9658 179.314C51.7275 179.314 52.3779 179.449 52.917 179.719C53.4561 179.988 53.8691 180.349 54.1562 180.8C54.4434 181.245 54.5869 181.74 54.5869 182.285H52.9609C52.9609 182.021 52.8818 181.767 52.7236 181.521C52.5713 181.269 52.3457 181.061 52.0469 180.896C51.7539 180.732 51.3936 180.65 50.9658 180.65C50.5146 180.65 50.1484 180.721 49.8672 180.861C49.5918 180.996 49.3896 181.169 49.2607 181.38C49.1377 181.591 49.0762 181.813 49.0762 182.048C49.0762 182.224 49.1055 182.382 49.1641 182.522C49.2285 182.657 49.3398 182.783 49.498 182.9C49.6562 183.012 49.8789 183.117 50.166 183.217C50.4531 183.316 50.8193 183.416 51.2646 183.516C52.0439 183.691 52.6855 183.902 53.1895 184.148C53.6934 184.395 54.0684 184.696 54.3145 185.054C54.5605 185.411 54.6836 185.845 54.6836 186.354C54.6836 186.771 54.5957 187.151 54.4199 187.497C54.25 187.843 54.001 188.142 53.6729 188.394C53.3506 188.64 52.9639 188.833 52.5127 188.974C52.0674 189.108 51.5664 189.176 51.0098 189.176C50.1719 189.176 49.4629 189.026 48.8828 188.728C48.3027 188.429 47.8633 188.042 47.5645 187.567C47.2656 187.093 47.1162 186.592 47.1162 186.064H48.751C48.7744 186.51 48.9033 186.864 49.1377 187.128C49.3721 187.386 49.6592 187.57 49.999 187.682C50.3389 187.787 50.6758 187.84 51.0098 187.84C51.4551 187.84 51.8271 187.781 52.126 187.664C52.4307 187.547 52.6621 187.386 52.8203 187.181C52.9785 186.976 53.0576 186.741 53.0576 186.478ZM60.8008 179.49V180.738H55.6592V179.49H60.8008ZM57.3994 177.179H59.0254V186.645C59.0254 186.967 59.0752 187.21 59.1748 187.374C59.2744 187.538 59.4033 187.646 59.5615 187.699C59.7197 187.752 59.8896 187.778 60.0713 187.778C60.2061 187.778 60.3467 187.767 60.4932 187.743C60.6455 187.714 60.7598 187.69 60.8359 187.673L60.8447 189C60.7158 189.041 60.5459 189.079 60.335 189.114C60.1299 189.155 59.8809 189.176 59.5879 189.176C59.1895 189.176 58.8232 189.097 58.4893 188.938C58.1553 188.78 57.8887 188.517 57.6895 188.147C57.4961 187.772 57.3994 187.269 57.3994 186.636V177.179ZM64.334 180.984V189H62.708V179.49H64.29L64.334 180.984ZM67.3047 179.438L67.2959 180.949C67.1611 180.92 67.0322 180.902 66.9092 180.896C66.792 180.885 66.6572 180.879 66.5049 180.879C66.1299 180.879 65.7988 180.938 65.5117 181.055C65.2246 181.172 64.9814 181.336 64.7822 181.547C64.583 181.758 64.4248 182.01 64.3076 182.303C64.1963 182.59 64.123 182.906 64.0879 183.252L63.6309 183.516C63.6309 182.941 63.6865 182.402 63.7979 181.898C63.915 181.395 64.0938 180.949 64.334 180.562C64.5742 180.17 64.8789 179.865 65.248 179.648C65.623 179.426 66.0684 179.314 66.584 179.314C66.7012 179.314 66.8359 179.329 66.9883 179.358C67.1406 179.382 67.2461 179.408 67.3047 179.438ZM74.0635 187.374V182.479C74.0635 182.104 73.9873 181.778 73.835 181.503C73.6885 181.222 73.4658 181.005 73.167 180.853C72.8682 180.7 72.499 180.624 72.0596 180.624C71.6494 180.624 71.2891 180.694 70.9785 180.835C70.6738 180.976 70.4336 181.16 70.2578 181.389C70.0879 181.617 70.0029 181.863 70.0029 182.127H68.377C68.377 181.787 68.4648 181.45 68.6406 181.116C68.8164 180.782 69.0684 180.48 69.3965 180.211C69.7305 179.936 70.1289 179.719 70.5918 179.561C71.0605 179.396 71.582 179.314 72.1562 179.314C72.8477 179.314 73.457 179.432 73.9844 179.666C74.5176 179.9 74.9336 180.255 75.2324 180.729C75.5371 181.198 75.6895 181.787 75.6895 182.496V186.926C75.6895 187.242 75.7158 187.579 75.7686 187.937C75.8271 188.294 75.9121 188.602 76.0234 188.859V189H74.3271C74.2451 188.812 74.1807 188.563 74.1338 188.253C74.0869 187.937 74.0635 187.644 74.0635 187.374ZM74.3447 183.234L74.3623 184.377H72.7188C72.2559 184.377 71.8428 184.415 71.4795 184.491C71.1162 184.562 70.8115 184.67 70.5654 184.816C70.3193 184.963 70.1318 185.147 70.0029 185.37C69.874 185.587 69.8096 185.842 69.8096 186.135C69.8096 186.434 69.877 186.706 70.0117 186.952C70.1465 187.198 70.3486 187.395 70.6182 187.541C70.8936 187.682 71.2305 187.752 71.6289 187.752C72.127 187.752 72.5664 187.646 72.9473 187.436C73.3281 187.225 73.6299 186.967 73.8525 186.662C74.0811 186.357 74.2041 186.062 74.2217 185.774L74.916 186.557C74.875 186.803 74.7637 187.075 74.582 187.374C74.4004 187.673 74.1572 187.96 73.8525 188.235C73.5537 188.505 73.1963 188.73 72.7803 188.912C72.3701 189.088 71.9072 189.176 71.3916 189.176C70.7471 189.176 70.1816 189.05 69.6953 188.798C69.2148 188.546 68.8398 188.209 68.5703 187.787C68.3066 187.359 68.1748 186.882 68.1748 186.354C68.1748 185.845 68.2744 185.396 68.4736 185.01C68.6729 184.617 68.96 184.292 69.335 184.034C69.71 183.771 70.1611 183.571 70.6885 183.437C71.2158 183.302 71.8047 183.234 72.4551 183.234H74.3447ZM80.0137 179.49V189H78.3789V179.49H80.0137ZM78.2559 176.968C78.2559 176.704 78.335 176.481 78.4932 176.3C78.6572 176.118 78.8975 176.027 79.2139 176.027C79.5244 176.027 79.7617 176.118 79.9258 176.3C80.0957 176.481 80.1807 176.704 80.1807 176.968C80.1807 177.22 80.0957 177.437 79.9258 177.618C79.7617 177.794 79.5244 177.882 79.2139 177.882C78.8975 177.882 78.6572 177.794 78.4932 177.618C78.335 177.437 78.2559 177.22 78.2559 176.968ZM88.7852 179.49H90.2617V188.798C90.2617 189.636 90.0918 190.351 89.752 190.942C89.4121 191.534 88.9375 191.982 88.3281 192.287C87.7246 192.598 87.0273 192.753 86.2363 192.753C85.9082 192.753 85.5215 192.7 85.0762 192.595C84.6367 192.495 84.2031 192.322 83.7754 192.076C83.3535 191.836 82.999 191.511 82.7119 191.101L83.5645 190.134C83.9629 190.614 84.3789 190.948 84.8125 191.136C85.252 191.323 85.6855 191.417 86.1133 191.417C86.6289 191.417 87.0742 191.32 87.4492 191.127C87.8242 190.934 88.1143 190.646 88.3193 190.266C88.5303 189.891 88.6357 189.428 88.6357 188.877V181.582L88.7852 179.49ZM82.2373 184.351V184.166C82.2373 183.439 82.3223 182.78 82.4922 182.188C82.668 181.591 82.917 181.078 83.2393 180.65C83.5674 180.223 83.9629 179.895 84.4258 179.666C84.8887 179.432 85.4102 179.314 85.9902 179.314C86.5879 179.314 87.1094 179.42 87.5547 179.631C88.0059 179.836 88.3867 180.138 88.6973 180.536C89.0137 180.929 89.2627 181.403 89.4443 181.96C89.626 182.517 89.752 183.146 89.8223 183.85V184.658C89.7578 185.355 89.6318 185.982 89.4443 186.539C89.2627 187.096 89.0137 187.57 88.6973 187.963C88.3867 188.355 88.0059 188.657 87.5547 188.868C87.1035 189.073 86.5762 189.176 85.9727 189.176C85.4043 189.176 84.8887 189.056 84.4258 188.815C83.9688 188.575 83.5762 188.238 83.248 187.805C82.9199 187.371 82.668 186.861 82.4922 186.275C82.3223 185.684 82.2373 185.042 82.2373 184.351ZM83.8633 184.166V184.351C83.8633 184.825 83.9102 185.271 84.0039 185.687C84.1035 186.103 84.2529 186.469 84.4521 186.785C84.6572 187.102 84.918 187.351 85.2344 187.532C85.5508 187.708 85.9287 187.796 86.3682 187.796C86.9072 187.796 87.3525 187.682 87.7041 187.453C88.0557 187.225 88.334 186.923 88.5391 186.548C88.75 186.173 88.9141 185.766 89.0312 185.326V183.208C88.9668 182.886 88.8672 182.575 88.7324 182.276C88.6035 181.972 88.4336 181.702 88.2227 181.468C88.0176 181.228 87.7627 181.037 87.458 180.896C87.1533 180.756 86.7959 180.686 86.3857 180.686C85.9404 180.686 85.5566 180.779 85.2344 180.967C84.918 181.148 84.6572 181.4 84.4521 181.723C84.2529 182.039 84.1035 182.408 84.0039 182.83C83.9102 183.246 83.8633 183.691 83.8633 184.166ZM94.3574 175.5V189H92.7314V175.5H94.3574ZM93.9707 183.885L93.2939 183.858C93.2998 183.208 93.3965 182.607 93.584 182.057C93.7715 181.5 94.0352 181.017 94.375 180.606C94.7148 180.196 95.1191 179.88 95.5879 179.657C96.0625 179.429 96.5869 179.314 97.1611 179.314C97.6299 179.314 98.0518 179.379 98.4268 179.508C98.8018 179.631 99.1211 179.83 99.3848 180.105C99.6543 180.381 99.8594 180.738 100 181.178C100.141 181.611 100.211 182.142 100.211 182.769V189H98.5762V182.751C98.5762 182.253 98.5029 181.854 98.3564 181.556C98.21 181.251 97.9961 181.031 97.7148 180.896C97.4336 180.756 97.0879 180.686 96.6777 180.686C96.2734 180.686 95.9043 180.771 95.5703 180.94C95.2422 181.11 94.958 181.345 94.7178 181.644C94.4834 181.942 94.2988 182.285 94.1641 182.672C94.0352 183.053 93.9707 183.457 93.9707 183.885ZM106.627 179.49V180.738H101.485V179.49H106.627ZM103.226 177.179H104.852V186.645C104.852 186.967 104.901 187.21 105.001 187.374C105.101 187.538 105.229 187.646 105.388 187.699C105.546 187.752 105.716 187.778 105.897 187.778C106.032 187.778 106.173 187.767 106.319 187.743C106.472 187.714 106.586 187.69 106.662 187.673L106.671 189C106.542 189.041 106.372 189.079 106.161 189.114C105.956 189.155 105.707 189.176 105.414 189.176C105.016 189.176 104.649 189.097 104.315 188.938C103.981 188.78 103.715 188.517 103.516 188.147C103.322 187.772 103.226 187.269 103.226 186.636V177.179ZM114.353 186.803V179.49H115.987V189H114.432L114.353 186.803ZM114.66 184.799L115.337 184.781C115.337 185.414 115.27 186 115.135 186.539C115.006 187.072 114.795 187.535 114.502 187.928C114.209 188.32 113.825 188.628 113.351 188.851C112.876 189.067 112.299 189.176 111.619 189.176C111.156 189.176 110.731 189.108 110.345 188.974C109.964 188.839 109.636 188.631 109.36 188.35C109.085 188.068 108.871 187.702 108.719 187.251C108.572 186.8 108.499 186.258 108.499 185.625V179.49H110.125V185.643C110.125 186.07 110.172 186.425 110.266 186.706C110.365 186.981 110.497 187.201 110.661 187.365C110.831 187.523 111.019 187.635 111.224 187.699C111.435 187.764 111.651 187.796 111.874 187.796C112.565 187.796 113.113 187.664 113.518 187.4C113.922 187.131 114.212 186.771 114.388 186.319C114.569 185.862 114.66 185.355 114.66 184.799ZM120.092 181.318V192.656H118.457V179.49H119.951L120.092 181.318ZM126.499 184.166V184.351C126.499 185.042 126.417 185.684 126.253 186.275C126.089 186.861 125.849 187.371 125.532 187.805C125.222 188.238 124.838 188.575 124.381 188.815C123.924 189.056 123.399 189.176 122.808 189.176C122.204 189.176 121.671 189.076 121.208 188.877C120.745 188.678 120.353 188.388 120.03 188.007C119.708 187.626 119.45 187.169 119.257 186.636C119.069 186.103 118.94 185.502 118.87 184.834V183.85C118.94 183.146 119.072 182.517 119.266 181.96C119.459 181.403 119.714 180.929 120.03 180.536C120.353 180.138 120.742 179.836 121.199 179.631C121.656 179.42 122.184 179.314 122.781 179.314C123.379 179.314 123.909 179.432 124.372 179.666C124.835 179.895 125.225 180.223 125.541 180.65C125.857 181.078 126.095 181.591 126.253 182.188C126.417 182.78 126.499 183.439 126.499 184.166ZM124.864 184.351V184.166C124.864 183.691 124.814 183.246 124.715 182.83C124.615 182.408 124.46 182.039 124.249 181.723C124.044 181.4 123.78 181.148 123.458 180.967C123.136 180.779 122.752 180.686 122.307 180.686C121.896 180.686 121.539 180.756 121.234 180.896C120.936 181.037 120.681 181.228 120.47 181.468C120.259 181.702 120.086 181.972 119.951 182.276C119.822 182.575 119.726 182.886 119.661 183.208V185.484C119.778 185.895 119.942 186.281 120.153 186.645C120.364 187.002 120.646 187.292 120.997 187.515C121.349 187.731 121.791 187.84 122.324 187.84C122.764 187.84 123.142 187.749 123.458 187.567C123.78 187.38 124.044 187.125 124.249 186.803C124.46 186.48 124.615 186.111 124.715 185.695C124.814 185.273 124.864 184.825 124.864 184.351ZM128.617 179.49H130.252V190.134C130.252 190.714 130.158 191.206 129.971 191.61C129.789 192.015 129.514 192.319 129.145 192.524C128.781 192.735 128.321 192.841 127.765 192.841C127.618 192.841 127.448 192.826 127.255 192.797C127.056 192.768 126.889 192.732 126.754 192.691L126.763 191.382C126.874 191.405 127 191.423 127.141 191.435C127.281 191.452 127.404 191.461 127.51 191.461C127.75 191.461 127.952 191.417 128.116 191.329C128.28 191.241 128.403 191.101 128.485 190.907C128.573 190.714 128.617 190.456 128.617 190.134V179.49ZM128.45 176.968C128.45 176.704 128.532 176.481 128.696 176.3C128.86 176.118 129.098 176.027 129.408 176.027C129.725 176.027 129.965 176.118 130.129 176.3C130.293 176.481 130.375 176.704 130.375 176.968C130.375 177.22 130.293 177.437 130.129 177.618C129.965 177.794 129.725 177.882 129.408 177.882C129.098 177.882 128.86 177.794 128.696 177.618C128.532 177.437 128.45 177.22 128.45 176.968ZM138.487 187.374V182.479C138.487 182.104 138.411 181.778 138.259 181.503C138.112 181.222 137.89 181.005 137.591 180.853C137.292 180.7 136.923 180.624 136.483 180.624C136.073 180.624 135.713 180.694 135.402 180.835C135.098 180.976 134.857 181.16 134.682 181.389C134.512 181.617 134.427 181.863 134.427 182.127H132.801C132.801 181.787 132.889 181.45 133.064 181.116C133.24 180.782 133.492 180.48 133.82 180.211C134.154 179.936 134.553 179.719 135.016 179.561C135.484 179.396 136.006 179.314 136.58 179.314C137.271 179.314 137.881 179.432 138.408 179.666C138.941 179.9 139.357 180.255 139.656 180.729C139.961 181.198 140.113 181.787 140.113 182.496V186.926C140.113 187.242 140.14 187.579 140.192 187.937C140.251 188.294 140.336 188.602 140.447 188.859V189H138.751C138.669 188.812 138.604 188.563 138.558 188.253C138.511 187.937 138.487 187.644 138.487 187.374ZM138.769 183.234L138.786 184.377H137.143C136.68 184.377 136.267 184.415 135.903 184.491C135.54 184.562 135.235 184.67 134.989 184.816C134.743 184.963 134.556 185.147 134.427 185.37C134.298 185.587 134.233 185.842 134.233 186.135C134.233 186.434 134.301 186.706 134.436 186.952C134.57 187.198 134.772 187.395 135.042 187.541C135.317 187.682 135.654 187.752 136.053 187.752C136.551 187.752 136.99 187.646 137.371 187.436C137.752 187.225 138.054 186.967 138.276 186.662C138.505 186.357 138.628 186.062 138.646 185.774L139.34 186.557C139.299 186.803 139.188 187.075 139.006 187.374C138.824 187.673 138.581 187.96 138.276 188.235C137.978 188.505 137.62 188.73 137.204 188.912C136.794 189.088 136.331 189.176 135.815 189.176C135.171 189.176 134.605 189.05 134.119 188.798C133.639 188.546 133.264 188.209 132.994 187.787C132.73 187.359 132.599 186.882 132.599 186.354C132.599 185.845 132.698 185.396 132.897 185.01C133.097 184.617 133.384 184.292 133.759 184.034C134.134 183.771 134.585 183.571 135.112 183.437C135.64 183.302 136.229 183.234 136.879 183.234H138.769ZM146.477 187.84C146.863 187.84 147.221 187.761 147.549 187.603C147.877 187.444 148.146 187.228 148.357 186.952C148.568 186.671 148.688 186.352 148.718 185.994H150.265C150.235 186.557 150.045 187.081 149.693 187.567C149.348 188.048 148.894 188.438 148.331 188.736C147.769 189.029 147.15 189.176 146.477 189.176C145.762 189.176 145.138 189.05 144.604 188.798C144.077 188.546 143.638 188.2 143.286 187.761C142.94 187.321 142.68 186.817 142.504 186.249C142.334 185.675 142.249 185.068 142.249 184.43V184.061C142.249 183.422 142.334 182.818 142.504 182.25C142.68 181.676 142.94 181.169 143.286 180.729C143.638 180.29 144.077 179.944 144.604 179.692C145.138 179.44 145.762 179.314 146.477 179.314C147.221 179.314 147.871 179.467 148.428 179.771C148.984 180.07 149.421 180.48 149.737 181.002C150.06 181.518 150.235 182.104 150.265 182.76H148.718C148.688 182.367 148.577 182.013 148.384 181.696C148.196 181.38 147.938 181.128 147.61 180.94C147.288 180.747 146.91 180.65 146.477 180.65C145.979 180.65 145.56 180.75 145.22 180.949C144.886 181.143 144.619 181.406 144.42 181.74C144.227 182.068 144.086 182.435 143.998 182.839C143.916 183.237 143.875 183.645 143.875 184.061V184.43C143.875 184.846 143.916 185.256 143.998 185.66C144.08 186.064 144.218 186.431 144.411 186.759C144.61 187.087 144.877 187.351 145.211 187.55C145.551 187.743 145.973 187.84 146.477 187.84ZM152.119 188.139C152.119 187.863 152.204 187.632 152.374 187.444C152.55 187.251 152.802 187.154 153.13 187.154C153.458 187.154 153.707 187.251 153.877 187.444C154.053 187.632 154.141 187.863 154.141 188.139C154.141 188.408 154.053 188.637 153.877 188.824C153.707 189.012 153.458 189.105 153.13 189.105C152.802 189.105 152.55 189.012 152.374 188.824C152.204 188.637 152.119 188.408 152.119 188.139ZM160.785 189.176C160.123 189.176 159.522 189.064 158.983 188.842C158.45 188.613 157.99 188.294 157.604 187.884C157.223 187.474 156.93 186.987 156.725 186.425C156.52 185.862 156.417 185.247 156.417 184.579V184.21C156.417 183.437 156.531 182.748 156.76 182.145C156.988 181.535 157.299 181.02 157.691 180.598C158.084 180.176 158.529 179.856 159.027 179.64C159.525 179.423 160.041 179.314 160.574 179.314C161.254 179.314 161.84 179.432 162.332 179.666C162.83 179.9 163.237 180.229 163.554 180.65C163.87 181.066 164.104 181.559 164.257 182.127C164.409 182.689 164.485 183.305 164.485 183.973V184.702H157.384V183.375H162.859V183.252C162.836 182.83 162.748 182.42 162.596 182.021C162.449 181.623 162.215 181.295 161.893 181.037C161.57 180.779 161.131 180.65 160.574 180.65C160.205 180.65 159.865 180.729 159.555 180.888C159.244 181.04 158.978 181.269 158.755 181.573C158.532 181.878 158.359 182.25 158.236 182.689C158.113 183.129 158.052 183.636 158.052 184.21V184.579C158.052 185.03 158.113 185.455 158.236 185.854C158.365 186.246 158.55 186.592 158.79 186.891C159.036 187.189 159.332 187.424 159.678 187.594C160.029 187.764 160.428 187.849 160.873 187.849C161.447 187.849 161.934 187.731 162.332 187.497C162.73 187.263 163.079 186.949 163.378 186.557L164.362 187.339C164.157 187.649 163.896 187.945 163.58 188.227C163.264 188.508 162.874 188.736 162.411 188.912C161.954 189.088 161.412 189.176 160.785 189.176ZM170.365 179.49V180.738H165.224V179.49H170.365ZM166.964 177.179H168.59V186.645C168.59 186.967 168.64 187.21 168.739 187.374C168.839 187.538 168.968 187.646 169.126 187.699C169.284 187.752 169.454 187.778 169.636 187.778C169.771 187.778 169.911 187.767 170.058 187.743C170.21 187.714 170.324 187.69 170.4 187.673L170.409 189C170.28 189.041 170.11 189.079 169.899 189.114C169.694 189.155 169.445 189.176 169.152 189.176C168.754 189.176 168.388 189.097 168.054 188.938C167.72 188.78 167.453 188.517 167.254 188.147C167.061 187.772 166.964 187.269 166.964 186.636V177.179ZM173.898 175.5V189H172.272V175.5H173.898ZM173.512 183.885L172.835 183.858C172.841 183.208 172.938 182.607 173.125 182.057C173.312 181.5 173.576 181.017 173.916 180.606C174.256 180.196 174.66 179.88 175.129 179.657C175.604 179.429 176.128 179.314 176.702 179.314C177.171 179.314 177.593 179.379 177.968 179.508C178.343 179.631 178.662 179.83 178.926 180.105C179.195 180.381 179.4 180.738 179.541 181.178C179.682 181.611 179.752 182.142 179.752 182.769V189H178.117V182.751C178.117 182.253 178.044 181.854 177.897 181.556C177.751 181.251 177.537 181.031 177.256 180.896C176.975 180.756 176.629 180.686 176.219 180.686C175.814 180.686 175.445 180.771 175.111 180.94C174.783 181.11 174.499 181.345 174.259 181.644C174.024 181.942 173.84 182.285 173.705 182.672C173.576 183.053 173.512 183.457 173.512 183.885ZM61.5391 204.579C61.5156 205.118 61.4336 205.66 61.293 206.205C61.1523 206.744 60.9414 207.239 60.6602 207.69C60.3789 208.142 60.0127 208.505 59.5615 208.78C59.1162 209.05 58.5771 209.185 57.9443 209.185C57.54 209.185 57.1855 209.114 56.8809 208.974C56.582 208.827 56.3359 208.619 56.1426 208.35C55.9551 208.08 55.8232 207.755 55.7471 207.374C55.6768 206.993 55.665 206.568 55.7119 206.1L56.1602 201.23H57.4521L57.0039 206.1C56.9688 206.527 56.9775 206.876 57.0303 207.146C57.0889 207.415 57.1768 207.623 57.2939 207.77C57.4111 207.91 57.543 208.007 57.6895 208.06C57.8418 208.112 57.9883 208.139 58.1289 208.139C58.4805 208.139 58.7939 208.048 59.0693 207.866C59.3447 207.679 59.5762 207.424 59.7637 207.102C59.957 206.773 60.1064 206.396 60.2119 205.968C60.3174 205.534 60.3818 205.071 60.4053 204.579C60.4463 203.706 60.4053 202.903 60.2822 202.171C60.165 201.438 59.9629 200.788 59.6758 200.22C59.3945 199.651 59.0254 199.171 58.5684 198.778C58.1113 198.386 57.5664 198.087 56.9336 197.882C56.3008 197.677 55.5771 197.574 54.7627 197.574C54.0244 197.574 53.3418 197.688 52.7148 197.917C52.0938 198.14 51.5342 198.462 51.0361 198.884C50.5439 199.306 50.1191 199.812 49.7617 200.404C49.4102 200.996 49.1318 201.664 48.9268 202.408C48.7275 203.146 48.6104 203.943 48.5752 204.799C48.5342 205.678 48.5811 206.486 48.7158 207.225C48.8506 207.957 49.0674 208.61 49.3662 209.185C49.6709 209.765 50.0547 210.254 50.5176 210.652C50.9805 211.057 51.5166 211.361 52.126 211.566C52.7354 211.777 53.415 211.883 54.165 211.883C54.6807 211.883 55.2021 211.821 55.7295 211.698C56.2627 211.575 56.708 211.408 57.0654 211.197L57.3994 212.199C56.9893 212.463 56.4766 212.659 55.8613 212.788C55.252 212.917 54.6748 212.981 54.1299 212.981C53.2393 212.981 52.4248 212.858 51.6865 212.612C50.9541 212.372 50.3037 212.018 49.7354 211.549C49.1729 211.086 48.7041 210.521 48.3291 209.853C47.9541 209.19 47.6787 208.435 47.5029 207.585C47.3271 206.735 47.2598 205.807 47.3008 204.799C47.3418 203.838 47.4854 202.933 47.7314 202.083C47.9834 201.233 48.3262 200.463 48.7598 199.771C49.1934 199.08 49.709 198.485 50.3066 197.987C50.9102 197.483 51.5869 197.097 52.3369 196.827C53.0928 196.558 53.9131 196.423 54.7979 196.423C55.7002 196.423 56.5176 196.546 57.25 196.792C57.9824 197.038 58.624 197.393 59.1748 197.855C59.7314 198.318 60.1914 198.884 60.5547 199.552C60.918 200.22 61.1816 200.976 61.3457 201.819C61.5156 202.663 61.5801 203.583 61.5391 204.579ZM52.5127 205.326C52.4717 205.736 52.4717 206.103 52.5127 206.425C52.5537 206.747 52.6328 207.02 52.75 207.242C52.8672 207.465 53.0195 207.635 53.207 207.752C53.4004 207.863 53.626 207.919 53.8838 207.919C54.0537 207.919 54.2324 207.878 54.4199 207.796C54.6074 207.708 54.792 207.573 54.9736 207.392C55.1553 207.21 55.3252 206.973 55.4834 206.68C55.6416 206.387 55.7734 206.035 55.8789 205.625L56.459 206.258C56.3242 206.738 56.1484 207.16 55.9316 207.523C55.7207 207.887 55.4834 208.191 55.2197 208.438C54.9561 208.684 54.6748 208.871 54.376 209C54.083 209.123 53.7842 209.185 53.4795 209.185C53.0518 209.185 52.6768 209.094 52.3545 208.912C52.0322 208.725 51.7715 208.461 51.5723 208.121C51.373 207.781 51.2324 207.377 51.1504 206.908C51.0742 206.434 51.0625 205.906 51.1152 205.326C51.168 204.711 51.2764 204.143 51.4404 203.621C51.6045 203.1 51.8066 202.634 52.0469 202.224C52.293 201.813 52.5684 201.465 52.873 201.178C53.1836 200.891 53.5117 200.674 53.8574 200.527C54.2031 200.375 54.5576 200.299 54.9209 200.299C55.5537 200.299 56.0518 200.393 56.415 200.58C56.7783 200.762 57.124 200.979 57.4521 201.23L56.7051 202.101C56.5352 201.937 56.3125 201.784 56.0371 201.644C55.7617 201.503 55.4365 201.433 55.0615 201.433C54.7393 201.433 54.4375 201.515 54.1562 201.679C53.875 201.843 53.6201 202.089 53.3916 202.417C53.1689 202.745 52.9814 203.152 52.8291 203.639C52.6768 204.119 52.5713 204.682 52.5127 205.326ZM69.2295 206.478C69.2295 206.243 69.1768 206.026 69.0713 205.827C68.9717 205.622 68.7637 205.438 68.4473 205.273C68.1367 205.104 67.668 204.957 67.041 204.834C66.5137 204.723 66.0361 204.591 65.6084 204.438C65.1865 204.286 64.8262 204.102 64.5273 203.885C64.2344 203.668 64.0088 203.413 63.8506 203.12C63.6924 202.827 63.6133 202.484 63.6133 202.092C63.6133 201.717 63.6953 201.362 63.8594 201.028C64.0293 200.694 64.2666 200.398 64.5713 200.141C64.8818 199.883 65.2539 199.681 65.6875 199.534C66.1211 199.388 66.6045 199.314 67.1377 199.314C67.8994 199.314 68.5498 199.449 69.0889 199.719C69.6279 199.988 70.041 200.349 70.3281 200.8C70.6152 201.245 70.7588 201.74 70.7588 202.285H69.1328C69.1328 202.021 69.0537 201.767 68.8955 201.521C68.7432 201.269 68.5176 201.061 68.2188 200.896C67.9258 200.732 67.5654 200.65 67.1377 200.65C66.6865 200.65 66.3203 200.721 66.0391 200.861C65.7637 200.996 65.5615 201.169 65.4326 201.38C65.3096 201.591 65.248 201.813 65.248 202.048C65.248 202.224 65.2773 202.382 65.3359 202.522C65.4004 202.657 65.5117 202.783 65.6699 202.9C65.8281 203.012 66.0508 203.117 66.3379 203.217C66.625 203.316 66.9912 203.416 67.4365 203.516C68.2158 203.691 68.8574 203.902 69.3613 204.148C69.8652 204.395 70.2402 204.696 70.4863 205.054C70.7324 205.411 70.8555 205.845 70.8555 206.354C70.8555 206.771 70.7676 207.151 70.5918 207.497C70.4219 207.843 70.1729 208.142 69.8447 208.394C69.5225 208.64 69.1357 208.833 68.6846 208.974C68.2393 209.108 67.7383 209.176 67.1816 209.176C66.3438 209.176 65.6348 209.026 65.0547 208.728C64.4746 208.429 64.0352 208.042 63.7363 207.567C63.4375 207.093 63.2881 206.592 63.2881 206.064H64.9229C64.9463 206.51 65.0752 206.864 65.3096 207.128C65.5439 207.386 65.8311 207.57 66.1709 207.682C66.5107 207.787 66.8477 207.84 67.1816 207.84C67.627 207.84 67.999 207.781 68.2979 207.664C68.6025 207.547 68.834 207.386 68.9922 207.181C69.1504 206.976 69.2295 206.741 69.2295 206.478ZM76.9727 199.49V200.738H71.8311V199.49H76.9727ZM73.5713 197.179H75.1973V206.645C75.1973 206.967 75.2471 207.21 75.3467 207.374C75.4463 207.538 75.5752 207.646 75.7334 207.699C75.8916 207.752 76.0615 207.778 76.2432 207.778C76.3779 207.778 76.5186 207.767 76.665 207.743C76.8174 207.714 76.9316 207.69 77.0078 207.673L77.0166 209C76.8877 209.041 76.7178 209.079 76.5068 209.114C76.3018 209.155 76.0527 209.176 75.7598 209.176C75.3613 209.176 74.9951 209.097 74.6611 208.938C74.3271 208.78 74.0605 208.517 73.8613 208.147C73.668 207.772 73.5713 207.269 73.5713 206.636V197.179ZM80.5059 200.984V209H78.8799V199.49H80.4619L80.5059 200.984ZM83.4766 199.438L83.4678 200.949C83.333 200.92 83.2041 200.902 83.0811 200.896C82.9639 200.885 82.8291 200.879 82.6768 200.879C82.3018 200.879 81.9707 200.938 81.6836 201.055C81.3965 201.172 81.1533 201.336 80.9541 201.547C80.7549 201.758 80.5967 202.01 80.4795 202.303C80.3682 202.59 80.2949 202.906 80.2598 203.252L79.8027 203.516C79.8027 202.941 79.8584 202.402 79.9697 201.898C80.0869 201.395 80.2656 200.949 80.5059 200.562C80.7461 200.17 81.0508 199.865 81.4199 199.648C81.7949 199.426 82.2402 199.314 82.7559 199.314C82.873 199.314 83.0078 199.329 83.1602 199.358C83.3125 199.382 83.418 199.408 83.4766 199.438ZM90.2354 207.374V202.479C90.2354 202.104 90.1592 201.778 90.0068 201.503C89.8604 201.222 89.6377 201.005 89.3389 200.853C89.04 200.7 88.6709 200.624 88.2314 200.624C87.8213 200.624 87.4609 200.694 87.1504 200.835C86.8457 200.976 86.6055 201.16 86.4297 201.389C86.2598 201.617 86.1748 201.863 86.1748 202.127H84.5488C84.5488 201.787 84.6367 201.45 84.8125 201.116C84.9883 200.782 85.2402 200.48 85.5684 200.211C85.9023 199.936 86.3008 199.719 86.7637 199.561C87.2324 199.396 87.7539 199.314 88.3281 199.314C89.0195 199.314 89.6289 199.432 90.1562 199.666C90.6895 199.9 91.1055 200.255 91.4043 200.729C91.709 201.198 91.8613 201.787 91.8613 202.496V206.926C91.8613 207.242 91.8877 207.579 91.9404 207.937C91.999 208.294 92.084 208.602 92.1953 208.859V209H90.499C90.417 208.812 90.3525 208.563 90.3057 208.253C90.2588 207.937 90.2354 207.644 90.2354 207.374ZM90.5166 203.234L90.5342 204.377H88.8906C88.4277 204.377 88.0146 204.415 87.6514 204.491C87.2881 204.562 86.9834 204.67 86.7373 204.816C86.4912 204.963 86.3037 205.147 86.1748 205.37C86.0459 205.587 85.9814 205.842 85.9814 206.135C85.9814 206.434 86.0488 206.706 86.1836 206.952C86.3184 207.198 86.5205 207.395 86.79 207.541C87.0654 207.682 87.4023 207.752 87.8008 207.752C88.2988 207.752 88.7383 207.646 89.1191 207.436C89.5 207.225 89.8018 206.967 90.0244 206.662C90.2529 206.357 90.376 206.062 90.3936 205.774L91.0879 206.557C91.0469 206.803 90.9355 207.075 90.7539 207.374C90.5723 207.673 90.3291 207.96 90.0244 208.235C89.7256 208.505 89.3682 208.73 88.9521 208.912C88.542 209.088 88.0791 209.176 87.5635 209.176C86.9189 209.176 86.3535 209.05 85.8672 208.798C85.3867 208.546 85.0117 208.209 84.7422 207.787C84.4785 207.359 84.3467 206.882 84.3467 206.354C84.3467 205.845 84.4463 205.396 84.6455 205.01C84.8447 204.617 85.1318 204.292 85.5068 204.034C85.8818 203.771 86.333 203.571 86.8604 203.437C87.3877 203.302 87.9766 203.234 88.627 203.234H90.5166ZM96.1855 199.49V209H94.5508V199.49H96.1855ZM94.4277 196.968C94.4277 196.704 94.5068 196.481 94.665 196.3C94.8291 196.118 95.0693 196.027 95.3857 196.027C95.6963 196.027 95.9336 196.118 96.0977 196.3C96.2676 196.481 96.3525 196.704 96.3525 196.968C96.3525 197.22 96.2676 197.437 96.0977 197.618C95.9336 197.794 95.6963 197.882 95.3857 197.882C95.0693 197.882 94.8291 197.794 94.665 197.618C94.5068 197.437 94.4277 197.22 94.4277 196.968ZM104.957 199.49H106.434V208.798C106.434 209.636 106.264 210.351 105.924 210.942C105.584 211.534 105.109 211.982 104.5 212.287C103.896 212.598 103.199 212.753 102.408 212.753C102.08 212.753 101.693 212.7 101.248 212.595C100.809 212.495 100.375 212.322 99.9473 212.076C99.5254 211.836 99.1709 211.511 98.8838 211.101L99.7363 210.134C100.135 210.614 100.551 210.948 100.984 211.136C101.424 211.323 101.857 211.417 102.285 211.417C102.801 211.417 103.246 211.32 103.621 211.127C103.996 210.934 104.286 210.646 104.491 210.266C104.702 209.891 104.808 209.428 104.808 208.877V201.582L104.957 199.49ZM98.4092 204.351V204.166C98.4092 203.439 98.4941 202.78 98.6641 202.188C98.8398 201.591 99.0889 201.078 99.4111 200.65C99.7393 200.223 100.135 199.895 100.598 199.666C101.061 199.432 101.582 199.314 102.162 199.314C102.76 199.314 103.281 199.42 103.727 199.631C104.178 199.836 104.559 200.138 104.869 200.536C105.186 200.929 105.435 201.403 105.616 201.96C105.798 202.517 105.924 203.146 105.994 203.85V204.658C105.93 205.355 105.804 205.982 105.616 206.539C105.435 207.096 105.186 207.57 104.869 207.963C104.559 208.355 104.178 208.657 103.727 208.868C103.275 209.073 102.748 209.176 102.145 209.176C101.576 209.176 101.061 209.056 100.598 208.815C100.141 208.575 99.748 208.238 99.4199 207.805C99.0918 207.371 98.8398 206.861 98.6641 206.275C98.4941 205.684 98.4092 205.042 98.4092 204.351ZM100.035 204.166V204.351C100.035 204.825 100.082 205.271 100.176 205.687C100.275 206.103 100.425 206.469 100.624 206.785C100.829 207.102 101.09 207.351 101.406 207.532C101.723 207.708 102.101 207.796 102.54 207.796C103.079 207.796 103.524 207.682 103.876 207.453C104.228 207.225 104.506 206.923 104.711 206.548C104.922 206.173 105.086 205.766 105.203 205.326V203.208C105.139 202.886 105.039 202.575 104.904 202.276C104.775 201.972 104.605 201.702 104.395 201.468C104.189 201.228 103.935 201.037 103.63 200.896C103.325 200.756 102.968 200.686 102.558 200.686C102.112 200.686 101.729 200.779 101.406 200.967C101.09 201.148 100.829 201.4 100.624 201.723C100.425 202.039 100.275 202.408 100.176 202.83C100.082 203.246 100.035 203.691 100.035 204.166ZM110.529 195.5V209H108.903V195.5H110.529ZM110.143 203.885L109.466 203.858C109.472 203.208 109.568 202.607 109.756 202.057C109.943 201.5 110.207 201.017 110.547 200.606C110.887 200.196 111.291 199.88 111.76 199.657C112.234 199.429 112.759 199.314 113.333 199.314C113.802 199.314 114.224 199.379 114.599 199.508C114.974 199.631 115.293 199.83 115.557 200.105C115.826 200.381 116.031 200.738 116.172 201.178C116.312 201.611 116.383 202.142 116.383 202.769V209H114.748V202.751C114.748 202.253 114.675 201.854 114.528 201.556C114.382 201.251 114.168 201.031 113.887 200.896C113.605 200.756 113.26 200.686 112.85 200.686C112.445 200.686 112.076 200.771 111.742 200.94C111.414 201.11 111.13 201.345 110.89 201.644C110.655 201.942 110.471 202.285 110.336 202.672C110.207 203.053 110.143 203.457 110.143 203.885ZM122.799 199.49V200.738H117.657V199.49H122.799ZM119.397 197.179H121.023V206.645C121.023 206.967 121.073 207.21 121.173 207.374C121.272 207.538 121.401 207.646 121.56 207.699C121.718 207.752 121.888 207.778 122.069 207.778C122.204 207.778 122.345 207.767 122.491 207.743C122.644 207.714 122.758 207.69 122.834 207.673L122.843 209C122.714 209.041 122.544 209.079 122.333 209.114C122.128 209.155 121.879 209.176 121.586 209.176C121.188 209.176 120.821 209.097 120.487 208.938C120.153 208.78 119.887 208.517 119.688 208.147C119.494 207.772 119.397 207.269 119.397 206.636V197.179ZM130.524 206.803V199.49H132.159V209H130.604L130.524 206.803ZM130.832 204.799L131.509 204.781C131.509 205.414 131.441 206 131.307 206.539C131.178 207.072 130.967 207.535 130.674 207.928C130.381 208.32 129.997 208.628 129.522 208.851C129.048 209.067 128.471 209.176 127.791 209.176C127.328 209.176 126.903 209.108 126.517 208.974C126.136 208.839 125.808 208.631 125.532 208.35C125.257 208.068 125.043 207.702 124.891 207.251C124.744 206.8 124.671 206.258 124.671 205.625V199.49H126.297V205.643C126.297 206.07 126.344 206.425 126.438 206.706C126.537 206.981 126.669 207.201 126.833 207.365C127.003 207.523 127.19 207.635 127.396 207.699C127.606 207.764 127.823 207.796 128.046 207.796C128.737 207.796 129.285 207.664 129.689 207.4C130.094 207.131 130.384 206.771 130.56 206.319C130.741 205.862 130.832 205.355 130.832 204.799ZM136.264 201.318V212.656H134.629V199.49H136.123L136.264 201.318ZM142.671 204.166V204.351C142.671 205.042 142.589 205.684 142.425 206.275C142.261 206.861 142.021 207.371 141.704 207.805C141.394 208.238 141.01 208.575 140.553 208.815C140.096 209.056 139.571 209.176 138.979 209.176C138.376 209.176 137.843 209.076 137.38 208.877C136.917 208.678 136.524 208.388 136.202 208.007C135.88 207.626 135.622 207.169 135.429 206.636C135.241 206.103 135.112 205.502 135.042 204.834V203.85C135.112 203.146 135.244 202.517 135.438 201.96C135.631 201.403 135.886 200.929 136.202 200.536C136.524 200.138 136.914 199.836 137.371 199.631C137.828 199.42 138.355 199.314 138.953 199.314C139.551 199.314 140.081 199.432 140.544 199.666C141.007 199.895 141.396 200.223 141.713 200.65C142.029 201.078 142.267 201.591 142.425 202.188C142.589 202.78 142.671 203.439 142.671 204.166ZM141.036 204.351V204.166C141.036 203.691 140.986 203.246 140.887 202.83C140.787 202.408 140.632 202.039 140.421 201.723C140.216 201.4 139.952 201.148 139.63 200.967C139.308 200.779 138.924 200.686 138.479 200.686C138.068 200.686 137.711 200.756 137.406 200.896C137.107 201.037 136.853 201.228 136.642 201.468C136.431 201.702 136.258 201.972 136.123 202.276C135.994 202.575 135.897 202.886 135.833 203.208V205.484C135.95 205.895 136.114 206.281 136.325 206.645C136.536 207.002 136.817 207.292 137.169 207.515C137.521 207.731 137.963 207.84 138.496 207.84C138.936 207.84 139.313 207.749 139.63 207.567C139.952 207.38 140.216 207.125 140.421 206.803C140.632 206.48 140.787 206.111 140.887 205.695C140.986 205.273 141.036 204.825 141.036 204.351ZM144.789 199.49H146.424V210.134C146.424 210.714 146.33 211.206 146.143 211.61C145.961 212.015 145.686 212.319 145.316 212.524C144.953 212.735 144.493 212.841 143.937 212.841C143.79 212.841 143.62 212.826 143.427 212.797C143.228 212.768 143.061 212.732 142.926 212.691L142.935 211.382C143.046 211.405 143.172 211.423 143.312 211.435C143.453 211.452 143.576 211.461 143.682 211.461C143.922 211.461 144.124 211.417 144.288 211.329C144.452 211.241 144.575 211.101 144.657 210.907C144.745 210.714 144.789 210.456 144.789 210.134V199.49ZM144.622 196.968C144.622 196.704 144.704 196.481 144.868 196.3C145.032 196.118 145.27 196.027 145.58 196.027C145.896 196.027 146.137 196.118 146.301 196.3C146.465 196.481 146.547 196.704 146.547 196.968C146.547 197.22 146.465 197.437 146.301 197.618C146.137 197.794 145.896 197.882 145.58 197.882C145.27 197.882 145.032 197.794 144.868 197.618C144.704 197.437 144.622 197.22 144.622 196.968ZM154.659 207.374V202.479C154.659 202.104 154.583 201.778 154.431 201.503C154.284 201.222 154.062 201.005 153.763 200.853C153.464 200.7 153.095 200.624 152.655 200.624C152.245 200.624 151.885 200.694 151.574 200.835C151.27 200.976 151.029 201.16 150.854 201.389C150.684 201.617 150.599 201.863 150.599 202.127H148.973C148.973 201.787 149.061 201.45 149.236 201.116C149.412 200.782 149.664 200.48 149.992 200.211C150.326 199.936 150.725 199.719 151.188 199.561C151.656 199.396 152.178 199.314 152.752 199.314C153.443 199.314 154.053 199.432 154.58 199.666C155.113 199.9 155.529 200.255 155.828 200.729C156.133 201.198 156.285 201.787 156.285 202.496V206.926C156.285 207.242 156.312 207.579 156.364 207.937C156.423 208.294 156.508 208.602 156.619 208.859V209H154.923C154.841 208.812 154.776 208.563 154.729 208.253C154.683 207.937 154.659 207.644 154.659 207.374ZM154.94 203.234L154.958 204.377H153.314C152.852 204.377 152.438 204.415 152.075 204.491C151.712 204.562 151.407 204.67 151.161 204.816C150.915 204.963 150.728 205.147 150.599 205.37C150.47 205.587 150.405 205.842 150.405 206.135C150.405 206.434 150.473 206.706 150.607 206.952C150.742 207.198 150.944 207.395 151.214 207.541C151.489 207.682 151.826 207.752 152.225 207.752C152.723 207.752 153.162 207.646 153.543 207.436C153.924 207.225 154.226 206.967 154.448 206.662C154.677 206.357 154.8 206.062 154.817 205.774L155.512 206.557C155.471 206.803 155.359 207.075 155.178 207.374C154.996 207.673 154.753 207.96 154.448 208.235C154.149 208.505 153.792 208.73 153.376 208.912C152.966 209.088 152.503 209.176 151.987 209.176C151.343 209.176 150.777 209.05 150.291 208.798C149.811 208.546 149.436 208.209 149.166 207.787C148.902 207.359 148.771 206.882 148.771 206.354C148.771 205.845 148.87 205.396 149.069 205.01C149.269 204.617 149.556 204.292 149.931 204.034C150.306 203.771 150.757 203.571 151.284 203.437C151.812 203.302 152.4 203.234 153.051 203.234H154.94ZM162.648 207.84C163.035 207.84 163.393 207.761 163.721 207.603C164.049 207.444 164.318 207.228 164.529 206.952C164.74 206.671 164.86 206.352 164.89 205.994H166.437C166.407 206.557 166.217 207.081 165.865 207.567C165.52 208.048 165.065 208.438 164.503 208.736C163.94 209.029 163.322 209.176 162.648 209.176C161.934 209.176 161.31 209.05 160.776 208.798C160.249 208.546 159.81 208.2 159.458 207.761C159.112 207.321 158.852 206.817 158.676 206.249C158.506 205.675 158.421 205.068 158.421 204.43V204.061C158.421 203.422 158.506 202.818 158.676 202.25C158.852 201.676 159.112 201.169 159.458 200.729C159.81 200.29 160.249 199.944 160.776 199.692C161.31 199.44 161.934 199.314 162.648 199.314C163.393 199.314 164.043 199.467 164.6 199.771C165.156 200.07 165.593 200.48 165.909 201.002C166.231 201.518 166.407 202.104 166.437 202.76H164.89C164.86 202.367 164.749 202.013 164.556 201.696C164.368 201.38 164.11 201.128 163.782 200.94C163.46 200.747 163.082 200.65 162.648 200.65C162.15 200.65 161.731 200.75 161.392 200.949C161.058 201.143 160.791 201.406 160.592 201.74C160.398 202.068 160.258 202.435 160.17 202.839C160.088 203.237 160.047 203.645 160.047 204.061V204.43C160.047 204.846 160.088 205.256 160.17 205.66C160.252 206.064 160.39 206.431 160.583 206.759C160.782 207.087 161.049 207.351 161.383 207.55C161.723 207.743 162.145 207.84 162.648 207.84Z" fill="#838383"/>
<ellipse cx="742.112" cy="279.5" rx="25.6597" ry="25.5" fill="#659357"/>
<ellipse cx="463.377" cy="369.5" rx="25.6597" ry="25.5" fill="#659357"/>
<ellipse cx="143.385" cy="262.5" rx="25.6597" ry="25.5" fill="#659357"/>
<path d="M955.951 139.864L921.226 85.5L920.375 84.1706C919.405 82.6556 920.772 80.73 922.522 81.1464L986.688 96.4146C987.944 96.7134 988.592 98.106 988.012 99.2592L987.639 100L978.08 111.5L997.199 120L990.658 138L965.502 126L959.465 139.598C958.818 141.056 956.809 141.207 955.951 139.864Z" fill="#6F9869" stroke="#70986A"/>
<path d="M951.944 140.901L916.284 85.5873L915.369 84.1721C914.392 82.6595 915.755 80.7266 917.508 81.1399L983.45 96.6861C984.711 96.9834 985.361 98.383 984.774 99.5382L984.379 100.317L974.577 112L994.18 120.635L987.474 138.921L961.68 126.73L955.45 140.635C954.801 142.083 952.804 142.235 951.944 140.901Z" stroke="black" stroke-width="2"/>
<path d="M917.202 87.3506C865.141 47.1872 830.16 26.3506 798.966 26.3506" stroke="#020B2C" stroke-width="2" stroke-linecap="round" stroke-linejoin="round"/>
<path d="M1008.27 147C1105.67 111.8 1230.32 163.667 1280.46 194C1345.87 243.667 1433.01 339.9 1258.32 327.5C1039.97 312 1161.72 173.5 1239.21 241C1301.19 295 1184.87 352.5 1118.96 374.5C1088.77 381.834 1014.21 392.1 957.452 374.5C900.699 356.9 788.903 299.667 735.571 273.5C703.371 265.667 615.726 261.8 558.972 307C488.031 363.5 418.599 433 325.016 423.5C250.151 415.9 204.265 356.334 190.68 327.5C175.754 293 138.355 235.6 108.167 282C70.4321 340 53.3256 370 1 389" stroke="black" stroke-width="2" stroke-linecap="round"/>
</svg>
