<svg width="1362" height="426" viewBox="0 0 1362 426" fill="none" xmlns="http://www.w3.org/2000/svg">
<path d="M671.211 205.582V207.533C671.211 208.582 671.117 209.467 670.93 210.188C670.742 210.908 670.473 211.488 670.121 211.928C669.77 212.367 669.345 212.687 668.847 212.886C668.354 213.079 667.798 213.176 667.177 213.176C666.685 213.176 666.23 213.114 665.814 212.991C665.398 212.868 665.023 212.672 664.689 212.402C664.361 212.127 664.08 211.77 663.846 211.33C663.611 210.891 663.433 210.357 663.31 209.73C663.187 209.104 663.125 208.371 663.125 207.533V205.582C663.125 204.533 663.219 203.654 663.406 202.945C663.6 202.236 663.872 201.668 664.224 201.24C664.575 200.807 664.997 200.496 665.489 200.309C665.987 200.121 666.544 200.027 667.159 200.027C667.657 200.027 668.114 200.089 668.53 200.212C668.952 200.329 669.327 200.52 669.655 200.783C669.983 201.041 670.262 201.387 670.49 201.82C670.725 202.248 670.903 202.772 671.026 203.394C671.149 204.015 671.211 204.744 671.211 205.582ZM669.576 207.797V205.31C669.576 204.735 669.541 204.231 669.471 203.798C669.406 203.358 669.31 202.983 669.181 202.673C669.052 202.362 668.888 202.11 668.688 201.917C668.495 201.724 668.27 201.583 668.012 201.495C667.76 201.401 667.476 201.354 667.159 201.354C666.772 201.354 666.43 201.428 666.131 201.574C665.832 201.715 665.58 201.94 665.375 202.251C665.176 202.562 665.023 202.969 664.918 203.473C664.812 203.977 664.76 204.589 664.76 205.31V207.797C664.76 208.371 664.792 208.878 664.856 209.317C664.927 209.757 665.029 210.138 665.164 210.46C665.299 210.776 665.463 211.037 665.656 211.242C665.85 211.447 666.072 211.6 666.324 211.699C666.582 211.793 666.866 211.84 667.177 211.84C667.575 211.84 667.924 211.764 668.223 211.611C668.521 211.459 668.771 211.222 668.97 210.899C669.175 210.571 669.327 210.152 669.427 209.643C669.526 209.127 669.576 208.512 669.576 207.797ZM674.577 203.49L676.66 206.953L678.77 203.49H680.677L677.565 208.184L680.773 213H678.893L676.695 209.432L674.498 213H672.608L675.808 208.184L672.705 203.49H674.577ZM688.473 200.186H688.613V201.565H688.473C687.611 201.565 686.891 201.706 686.311 201.987C685.73 202.263 685.271 202.635 684.931 203.104C684.591 203.566 684.345 204.088 684.192 204.668C684.046 205.248 683.973 205.837 683.973 206.435V208.315C683.973 208.884 684.04 209.388 684.175 209.827C684.31 210.261 684.494 210.627 684.729 210.926C684.963 211.225 685.227 211.45 685.52 211.603C685.818 211.755 686.129 211.831 686.451 211.831C686.826 211.831 687.16 211.761 687.453 211.62C687.746 211.474 687.992 211.271 688.191 211.014C688.396 210.75 688.552 210.439 688.657 210.082C688.763 209.725 688.815 209.332 688.815 208.904C688.815 208.523 688.769 208.157 688.675 207.806C688.581 207.448 688.438 207.132 688.244 206.856C688.051 206.575 687.808 206.355 687.515 206.197C687.228 206.033 686.885 205.951 686.486 205.951C686.035 205.951 685.613 206.062 685.221 206.285C684.834 206.502 684.515 206.789 684.263 207.146C684.017 207.498 683.876 207.882 683.841 208.298L682.979 208.289C683.062 207.633 683.214 207.073 683.437 206.61C683.665 206.142 683.946 205.761 684.28 205.468C684.62 205.169 684.998 204.952 685.414 204.817C685.836 204.677 686.281 204.606 686.75 204.606C687.389 204.606 687.939 204.727 688.402 204.967C688.865 205.207 689.246 205.529 689.545 205.934C689.844 206.332 690.063 206.783 690.204 207.287C690.351 207.785 690.424 208.298 690.424 208.825C690.424 209.429 690.339 209.994 690.169 210.521C689.999 211.049 689.744 211.512 689.404 211.91C689.07 212.309 688.657 212.619 688.165 212.842C687.673 213.064 687.102 213.176 686.451 213.176C685.76 213.176 685.156 213.035 684.641 212.754C684.125 212.467 683.697 212.086 683.357 211.611C683.018 211.137 682.763 210.609 682.593 210.029C682.423 209.449 682.338 208.86 682.338 208.263V207.498C682.338 206.596 682.429 205.711 682.61 204.844C682.792 203.977 683.105 203.191 683.551 202.488C684.002 201.785 684.626 201.226 685.423 200.81C686.22 200.394 687.236 200.186 688.473 200.186ZM700.909 211.62V213H694.133V211.62H700.909ZM694.476 200.203V213H692.779V200.203H694.476ZM700.013 205.705V207.085H694.133V205.705H700.013ZM700.821 200.203V201.592H694.133V200.203H700.821ZM710.735 208.931H712.423C712.335 209.739 712.104 210.463 711.729 211.102C711.354 211.74 710.823 212.247 710.138 212.622C709.452 212.991 708.597 213.176 707.571 213.176C706.821 213.176 706.139 213.035 705.523 212.754C704.914 212.473 704.39 212.074 703.95 211.559C703.511 211.037 703.171 210.413 702.931 209.687C702.696 208.954 702.579 208.14 702.579 207.243V205.969C702.579 205.072 702.696 204.261 702.931 203.534C703.171 202.802 703.514 202.175 703.959 201.653C704.41 201.132 704.952 200.73 705.585 200.449C706.218 200.168 706.93 200.027 707.721 200.027C708.688 200.027 709.505 200.209 710.173 200.572C710.841 200.936 711.359 201.439 711.729 202.084C712.104 202.723 712.335 203.464 712.423 204.308H710.735C710.653 203.71 710.501 203.197 710.278 202.77C710.056 202.336 709.739 202.002 709.329 201.768C708.919 201.533 708.383 201.416 707.721 201.416C707.152 201.416 706.651 201.524 706.218 201.741C705.79 201.958 705.43 202.266 705.137 202.664C704.85 203.062 704.633 203.54 704.486 204.097C704.34 204.653 704.267 205.271 704.267 205.951V207.243C704.267 207.87 704.331 208.459 704.46 209.01C704.595 209.561 704.797 210.044 705.066 210.46C705.336 210.876 705.679 211.204 706.095 211.444C706.511 211.679 707.003 211.796 707.571 211.796C708.292 211.796 708.866 211.682 709.294 211.453C709.722 211.225 710.044 210.896 710.261 210.469C710.483 210.041 710.642 209.528 710.735 208.931ZM722.583 200.203V201.117L717.283 213H715.569L720.86 201.539H713.935V200.203H722.583ZM724.64 212.139C724.64 211.863 724.725 211.632 724.895 211.444C725.07 211.251 725.322 211.154 725.65 211.154C725.979 211.154 726.228 211.251 726.397 211.444C726.573 211.632 726.661 211.863 726.661 212.139C726.661 212.408 726.573 212.637 726.397 212.824C726.228 213.012 725.979 213.105 725.65 213.105C725.322 213.105 725.07 213.012 724.895 212.824C724.725 212.637 724.64 212.408 724.64 212.139ZM729.386 212.139C729.386 211.863 729.471 211.632 729.641 211.444C729.816 211.251 730.068 211.154 730.396 211.154C730.725 211.154 730.974 211.251 731.144 211.444C731.319 211.632 731.407 211.863 731.407 212.139C731.407 212.408 731.319 212.637 731.144 212.824C730.974 213.012 730.725 213.105 730.396 213.105C730.068 213.105 729.816 213.012 729.641 212.824C729.471 212.637 729.386 212.408 729.386 212.139ZM734.132 212.139C734.132 211.863 734.217 211.632 734.387 211.444C734.562 211.251 734.814 211.154 735.143 211.154C735.471 211.154 735.72 211.251 735.89 211.444C736.065 211.632 736.153 211.863 736.153 212.139C736.153 212.408 736.065 212.637 735.89 212.824C735.72 213.012 735.471 213.105 735.143 213.105C734.814 213.105 734.562 213.012 734.387 212.824C734.217 212.637 734.132 212.408 734.132 212.139ZM740.293 211.638H740.46C741.397 211.638 742.159 211.506 742.745 211.242C743.331 210.979 743.782 210.624 744.099 210.179C744.415 209.733 744.632 209.232 744.749 208.676C744.866 208.113 744.925 207.536 744.925 206.944V204.984C744.925 204.404 744.857 203.889 744.723 203.438C744.594 202.986 744.412 202.608 744.178 202.304C743.949 201.999 743.688 201.768 743.396 201.609C743.103 201.451 742.792 201.372 742.464 201.372C742.089 201.372 741.752 201.448 741.453 201.601C741.16 201.747 740.911 201.955 740.706 202.225C740.507 202.494 740.354 202.811 740.249 203.174C740.144 203.537 740.091 203.933 740.091 204.36C740.091 204.741 740.138 205.11 740.231 205.468C740.325 205.825 740.469 206.147 740.662 206.435C740.855 206.722 741.096 206.95 741.383 207.12C741.676 207.284 742.019 207.366 742.411 207.366C742.774 207.366 743.114 207.296 743.431 207.155C743.753 207.009 744.037 206.812 744.283 206.566C744.535 206.314 744.734 206.03 744.881 205.714C745.033 205.397 745.121 205.066 745.145 204.721H745.918C745.918 205.207 745.821 205.688 745.628 206.162C745.44 206.631 745.177 207.059 744.837 207.445C744.497 207.832 744.099 208.143 743.642 208.377C743.185 208.605 742.687 208.72 742.147 208.72C741.515 208.72 740.967 208.597 740.504 208.351C740.041 208.104 739.66 207.776 739.361 207.366C739.068 206.956 738.849 206.499 738.702 205.995C738.562 205.485 738.491 204.97 738.491 204.448C738.491 203.839 738.576 203.268 738.746 202.734C738.916 202.201 739.168 201.732 739.502 201.328C739.836 200.918 740.249 200.599 740.741 200.37C741.239 200.142 741.813 200.027 742.464 200.027C743.196 200.027 743.82 200.174 744.336 200.467C744.852 200.76 745.271 201.152 745.593 201.645C745.921 202.137 746.161 202.69 746.313 203.306C746.466 203.921 746.542 204.554 746.542 205.204V205.793C746.542 206.455 746.498 207.129 746.41 207.814C746.328 208.494 746.167 209.145 745.927 209.766C745.692 210.387 745.35 210.943 744.898 211.436C744.447 211.922 743.858 212.309 743.132 212.596C742.411 212.877 741.521 213.018 740.46 213.018H740.293V211.638ZM756.869 209.537C756.869 210.316 756.688 210.979 756.324 211.523C755.967 212.062 755.48 212.473 754.865 212.754C754.256 213.035 753.567 213.176 752.8 213.176C752.032 213.176 751.341 213.035 750.726 212.754C750.11 212.473 749.624 212.062 749.267 211.523C748.909 210.979 748.73 210.316 748.73 209.537C748.73 209.027 748.827 208.562 749.021 208.14C749.22 207.712 749.498 207.34 749.855 207.023C750.219 206.707 750.646 206.464 751.139 206.294C751.637 206.118 752.185 206.03 752.782 206.03C753.567 206.03 754.268 206.183 754.883 206.487C755.498 206.786 755.981 207.199 756.333 207.727C756.69 208.254 756.869 208.857 756.869 209.537ZM755.234 209.502C755.234 209.027 755.132 208.608 754.927 208.245C754.722 207.876 754.435 207.589 754.065 207.384C753.696 207.179 753.269 207.076 752.782 207.076C752.284 207.076 751.854 207.179 751.49 207.384C751.133 207.589 750.854 207.876 750.655 208.245C750.456 208.608 750.356 209.027 750.356 209.502C750.356 209.994 750.453 210.416 750.646 210.768C750.846 211.113 751.127 211.38 751.49 211.567C751.859 211.749 752.296 211.84 752.8 211.84C753.304 211.84 753.737 211.749 754.101 211.567C754.464 211.38 754.742 211.113 754.936 210.768C755.135 210.416 755.234 209.994 755.234 209.502ZM756.57 203.534C756.57 204.155 756.406 204.715 756.078 205.213C755.75 205.711 755.302 206.104 754.733 206.391C754.165 206.678 753.521 206.821 752.8 206.821C752.067 206.821 751.414 206.678 750.84 206.391C750.271 206.104 749.826 205.711 749.504 205.213C749.182 204.715 749.021 204.155 749.021 203.534C749.021 202.79 749.182 202.157 749.504 201.636C749.832 201.114 750.28 200.716 750.849 200.44C751.417 200.165 752.064 200.027 752.791 200.027C753.523 200.027 754.174 200.165 754.742 200.44C755.311 200.716 755.756 201.114 756.078 201.636C756.406 202.157 756.57 202.79 756.57 203.534ZM754.944 203.561C754.944 203.133 754.854 202.755 754.672 202.427C754.49 202.099 754.238 201.841 753.916 201.653C753.594 201.46 753.219 201.363 752.791 201.363C752.363 201.363 751.988 201.454 751.666 201.636C751.35 201.812 751.101 202.063 750.919 202.392C750.743 202.72 750.655 203.109 750.655 203.561C750.655 204 750.743 204.384 750.919 204.712C751.101 205.04 751.353 205.295 751.675 205.477C751.997 205.658 752.372 205.749 752.8 205.749C753.228 205.749 753.6 205.658 753.916 205.477C754.238 205.295 754.49 205.04 754.672 204.712C754.854 204.384 754.944 204 754.944 203.561ZM764.27 200.133V213H762.644V202.163L759.365 203.358V201.891L764.015 200.133H764.27ZM777.321 200.203V201.117L772.021 213H770.308L775.599 201.539H768.673V200.203H777.321ZM677.372 228.579C677.349 229.118 677.267 229.66 677.126 230.205C676.985 230.744 676.774 231.239 676.493 231.69C676.212 232.142 675.846 232.505 675.395 232.78C674.949 233.05 674.41 233.185 673.777 233.185C673.373 233.185 673.019 233.114 672.714 232.974C672.415 232.827 672.169 232.619 671.976 232.35C671.788 232.08 671.656 231.755 671.58 231.374C671.51 230.993 671.498 230.568 671.545 230.1L671.993 225.23H673.285L672.837 230.1C672.802 230.527 672.811 230.876 672.863 231.146C672.922 231.415 673.01 231.623 673.127 231.77C673.244 231.91 673.376 232.007 673.522 232.06C673.675 232.112 673.821 232.139 673.962 232.139C674.313 232.139 674.627 232.048 674.902 231.866C675.178 231.679 675.409 231.424 675.597 231.102C675.79 230.773 675.939 230.396 676.045 229.968C676.15 229.534 676.215 229.071 676.238 228.579C676.279 227.706 676.238 226.903 676.115 226.171C675.998 225.438 675.796 224.788 675.509 224.22C675.228 223.651 674.858 223.171 674.401 222.778C673.944 222.386 673.399 222.087 672.767 221.882C672.134 221.677 671.41 221.574 670.596 221.574C669.857 221.574 669.175 221.688 668.548 221.917C667.927 222.14 667.367 222.462 666.869 222.884C666.377 223.306 665.952 223.812 665.595 224.404C665.243 224.996 664.965 225.664 664.76 226.408C664.561 227.146 664.443 227.943 664.408 228.799C664.367 229.678 664.414 230.486 664.549 231.225C664.684 231.957 664.9 232.61 665.199 233.185C665.504 233.765 665.888 234.254 666.351 234.652C666.813 235.057 667.35 235.361 667.959 235.566C668.568 235.777 669.248 235.883 669.998 235.883C670.514 235.883 671.035 235.821 671.562 235.698C672.096 235.575 672.541 235.408 672.898 235.197L673.232 236.199C672.822 236.463 672.31 236.659 671.694 236.788C671.085 236.917 670.508 236.981 669.963 236.981C669.072 236.981 668.258 236.858 667.52 236.612C666.787 236.372 666.137 236.018 665.568 235.549C665.006 235.086 664.537 234.521 664.162 233.853C663.787 233.19 663.512 232.435 663.336 231.585C663.16 230.735 663.093 229.807 663.134 228.799C663.175 227.838 663.318 226.933 663.564 226.083C663.816 225.233 664.159 224.463 664.593 223.771C665.026 223.08 665.542 222.485 666.14 221.987C666.743 221.483 667.42 221.097 668.17 220.827C668.926 220.558 669.746 220.423 670.631 220.423C671.533 220.423 672.351 220.546 673.083 220.792C673.815 221.038 674.457 221.393 675.008 221.855C675.564 222.318 676.024 222.884 676.388 223.552C676.751 224.22 677.015 224.976 677.179 225.819C677.349 226.663 677.413 227.583 677.372 228.579ZM668.346 229.326C668.305 229.736 668.305 230.103 668.346 230.425C668.387 230.747 668.466 231.02 668.583 231.242C668.7 231.465 668.853 231.635 669.04 231.752C669.233 231.863 669.459 231.919 669.717 231.919C669.887 231.919 670.065 231.878 670.253 231.796C670.44 231.708 670.625 231.573 670.807 231.392C670.988 231.21 671.158 230.973 671.316 230.68C671.475 230.387 671.606 230.035 671.712 229.625L672.292 230.258C672.157 230.738 671.981 231.16 671.765 231.523C671.554 231.887 671.316 232.191 671.053 232.438C670.789 232.684 670.508 232.871 670.209 233C669.916 233.123 669.617 233.185 669.312 233.185C668.885 233.185 668.51 233.094 668.188 232.912C667.865 232.725 667.604 232.461 667.405 232.121C667.206 231.781 667.065 231.377 666.983 230.908C666.907 230.434 666.896 229.906 666.948 229.326C667.001 228.711 667.109 228.143 667.273 227.621C667.438 227.1 667.64 226.634 667.88 226.224C668.126 225.813 668.401 225.465 668.706 225.178C669.017 224.891 669.345 224.674 669.69 224.527C670.036 224.375 670.391 224.299 670.754 224.299C671.387 224.299 671.885 224.393 672.248 224.58C672.611 224.762 672.957 224.979 673.285 225.23L672.538 226.101C672.368 225.937 672.146 225.784 671.87 225.644C671.595 225.503 671.27 225.433 670.895 225.433C670.572 225.433 670.271 225.515 669.989 225.679C669.708 225.843 669.453 226.089 669.225 226.417C669.002 226.745 668.814 227.152 668.662 227.639C668.51 228.119 668.404 228.682 668.346 229.326ZM681.292 219.5V233H679.657V219.5H681.292ZM687.849 233.176C687.187 233.176 686.586 233.064 686.047 232.842C685.514 232.613 685.054 232.294 684.667 231.884C684.286 231.474 683.993 230.987 683.788 230.425C683.583 229.862 683.48 229.247 683.48 228.579V228.21C683.48 227.437 683.595 226.748 683.823 226.145C684.052 225.535 684.362 225.02 684.755 224.598C685.147 224.176 685.593 223.856 686.091 223.64C686.589 223.423 687.104 223.314 687.638 223.314C688.317 223.314 688.903 223.432 689.396 223.666C689.894 223.9 690.301 224.229 690.617 224.65C690.934 225.066 691.168 225.559 691.32 226.127C691.473 226.689 691.549 227.305 691.549 227.973V228.702H684.447V227.375H689.923V227.252C689.899 226.83 689.812 226.42 689.659 226.021C689.513 225.623 689.278 225.295 688.956 225.037C688.634 224.779 688.194 224.65 687.638 224.65C687.269 224.65 686.929 224.729 686.618 224.888C686.308 225.04 686.041 225.269 685.818 225.573C685.596 225.878 685.423 226.25 685.3 226.689C685.177 227.129 685.115 227.636 685.115 228.21V228.579C685.115 229.03 685.177 229.455 685.3 229.854C685.429 230.246 685.613 230.592 685.854 230.891C686.1 231.189 686.396 231.424 686.741 231.594C687.093 231.764 687.491 231.849 687.937 231.849C688.511 231.849 688.997 231.731 689.396 231.497C689.794 231.263 690.143 230.949 690.441 230.557L691.426 231.339C691.221 231.649 690.96 231.945 690.644 232.227C690.327 232.508 689.938 232.736 689.475 232.912C689.018 233.088 688.476 233.176 687.849 233.176ZM699.608 223.49H701.085V232.798C701.085 233.636 700.915 234.351 700.575 234.942C700.235 235.534 699.761 235.982 699.151 236.287C698.548 236.598 697.851 236.753 697.06 236.753C696.731 236.753 696.345 236.7 695.899 236.595C695.46 236.495 695.026 236.322 694.599 236.076C694.177 235.836 693.822 235.511 693.535 235.101L694.388 234.134C694.786 234.614 695.202 234.948 695.636 235.136C696.075 235.323 696.509 235.417 696.937 235.417C697.452 235.417 697.897 235.32 698.272 235.127C698.647 234.934 698.938 234.646 699.143 234.266C699.354 233.891 699.459 233.428 699.459 232.877V225.582L699.608 223.49ZM693.061 228.351V228.166C693.061 227.439 693.146 226.78 693.315 226.188C693.491 225.591 693.74 225.078 694.062 224.65C694.391 224.223 694.786 223.895 695.249 223.666C695.712 223.432 696.233 223.314 696.813 223.314C697.411 223.314 697.933 223.42 698.378 223.631C698.829 223.836 699.21 224.138 699.521 224.536C699.837 224.929 700.086 225.403 700.268 225.96C700.449 226.517 700.575 227.146 700.646 227.85V228.658C700.581 229.355 700.455 229.982 700.268 230.539C700.086 231.096 699.837 231.57 699.521 231.963C699.21 232.355 698.829 232.657 698.378 232.868C697.927 233.073 697.399 233.176 696.796 233.176C696.228 233.176 695.712 233.056 695.249 232.815C694.792 232.575 694.399 232.238 694.071 231.805C693.743 231.371 693.491 230.861 693.315 230.275C693.146 229.684 693.061 229.042 693.061 228.351ZM694.687 228.166V228.351C694.687 228.825 694.733 229.271 694.827 229.687C694.927 230.103 695.076 230.469 695.275 230.785C695.48 231.102 695.741 231.351 696.058 231.532C696.374 231.708 696.752 231.796 697.191 231.796C697.73 231.796 698.176 231.682 698.527 231.453C698.879 231.225 699.157 230.923 699.362 230.548C699.573 230.173 699.737 229.766 699.854 229.326V227.208C699.79 226.886 699.69 226.575 699.556 226.276C699.427 225.972 699.257 225.702 699.046 225.468C698.841 225.228 698.586 225.037 698.281 224.896C697.977 224.756 697.619 224.686 697.209 224.686C696.764 224.686 696.38 224.779 696.058 224.967C695.741 225.148 695.48 225.4 695.275 225.723C695.076 226.039 694.927 226.408 694.827 226.83C694.733 227.246 694.687 227.691 694.687 228.166ZM709.162 231.374V226.479C709.162 226.104 709.086 225.778 708.934 225.503C708.787 225.222 708.564 225.005 708.266 224.853C707.967 224.7 707.598 224.624 707.158 224.624C706.748 224.624 706.388 224.694 706.077 224.835C705.772 224.976 705.532 225.16 705.356 225.389C705.187 225.617 705.102 225.863 705.102 226.127H703.476C703.476 225.787 703.563 225.45 703.739 225.116C703.915 224.782 704.167 224.48 704.495 224.211C704.829 223.936 705.228 223.719 705.69 223.561C706.159 223.396 706.681 223.314 707.255 223.314C707.946 223.314 708.556 223.432 709.083 223.666C709.616 223.9 710.032 224.255 710.331 224.729C710.636 225.198 710.788 225.787 710.788 226.496V230.926C710.788 231.242 710.814 231.579 710.867 231.937C710.926 232.294 711.011 232.602 711.122 232.859V233H709.426C709.344 232.812 709.279 232.563 709.232 232.253C709.186 231.937 709.162 231.644 709.162 231.374ZM709.443 227.234L709.461 228.377H707.817C707.354 228.377 706.941 228.415 706.578 228.491C706.215 228.562 705.91 228.67 705.664 228.816C705.418 228.963 705.23 229.147 705.102 229.37C704.973 229.587 704.908 229.842 704.908 230.135C704.908 230.434 704.976 230.706 705.11 230.952C705.245 231.198 705.447 231.395 705.717 231.541C705.992 231.682 706.329 231.752 706.728 231.752C707.226 231.752 707.665 231.646 708.046 231.436C708.427 231.225 708.729 230.967 708.951 230.662C709.18 230.357 709.303 230.062 709.32 229.774L710.015 230.557C709.974 230.803 709.862 231.075 709.681 231.374C709.499 231.673 709.256 231.96 708.951 232.235C708.652 232.505 708.295 232.73 707.879 232.912C707.469 233.088 707.006 233.176 706.49 233.176C705.846 233.176 705.28 233.05 704.794 232.798C704.313 232.546 703.938 232.209 703.669 231.787C703.405 231.359 703.273 230.882 703.273 230.354C703.273 229.845 703.373 229.396 703.572 229.01C703.771 228.617 704.059 228.292 704.434 228.034C704.809 227.771 705.26 227.571 705.787 227.437C706.314 227.302 706.903 227.234 707.554 227.234H709.443ZM717.151 231.84C717.538 231.84 717.896 231.761 718.224 231.603C718.552 231.444 718.821 231.228 719.032 230.952C719.243 230.671 719.363 230.352 719.393 229.994H720.939C720.91 230.557 720.72 231.081 720.368 231.567C720.022 232.048 719.568 232.438 719.006 232.736C718.443 233.029 717.825 233.176 717.151 233.176C716.437 233.176 715.812 233.05 715.279 232.798C714.752 232.546 714.312 232.2 713.961 231.761C713.615 231.321 713.354 230.817 713.179 230.249C713.009 229.675 712.924 229.068 712.924 228.43V228.061C712.924 227.422 713.009 226.818 713.179 226.25C713.354 225.676 713.615 225.169 713.961 224.729C714.312 224.29 714.752 223.944 715.279 223.692C715.812 223.44 716.437 223.314 717.151 223.314C717.896 223.314 718.546 223.467 719.103 223.771C719.659 224.07 720.096 224.48 720.412 225.002C720.734 225.518 720.91 226.104 720.939 226.76H719.393C719.363 226.367 719.252 226.013 719.059 225.696C718.871 225.38 718.613 225.128 718.285 224.94C717.963 224.747 717.585 224.65 717.151 224.65C716.653 224.65 716.234 224.75 715.895 224.949C715.561 225.143 715.294 225.406 715.095 225.74C714.901 226.068 714.761 226.435 714.673 226.839C714.591 227.237 714.55 227.645 714.55 228.061V228.43C714.55 228.846 714.591 229.256 714.673 229.66C714.755 230.064 714.893 230.431 715.086 230.759C715.285 231.087 715.552 231.351 715.886 231.55C716.226 231.743 716.647 231.84 717.151 231.84ZM725.439 232.016L728.085 223.49H729.825L726.011 234.468C725.923 234.702 725.806 234.954 725.659 235.224C725.519 235.499 725.337 235.76 725.114 236.006C724.892 236.252 724.622 236.451 724.306 236.604C723.995 236.762 723.623 236.841 723.189 236.841C723.061 236.841 722.896 236.823 722.697 236.788C722.498 236.753 722.357 236.724 722.275 236.7L722.267 235.382C722.313 235.388 722.387 235.394 722.486 235.399C722.592 235.411 722.665 235.417 722.706 235.417C723.075 235.417 723.389 235.367 723.646 235.268C723.904 235.174 724.121 235.013 724.297 234.784C724.479 234.562 724.634 234.254 724.763 233.861L725.439 232.016ZM723.497 223.49L725.967 230.873L726.389 232.587L725.22 233.185L721.722 223.49H723.497ZM738.148 233V234.336H730.089V233H738.148ZM740.513 223.49L742.596 226.953L744.705 223.49H746.612L743.501 228.184L746.709 233H744.828L742.631 229.432L740.434 233H738.544L741.743 228.184L738.641 223.49H740.513ZM751.016 232.016L753.661 223.49H755.401L751.587 234.468C751.499 234.702 751.382 234.954 751.235 235.224C751.095 235.499 750.913 235.76 750.69 236.006C750.468 236.252 750.198 236.451 749.882 236.604C749.571 236.762 749.199 236.841 748.766 236.841C748.637 236.841 748.473 236.823 748.273 236.788C748.074 236.753 747.934 236.724 747.852 236.7L747.843 235.382C747.89 235.388 747.963 235.394 748.062 235.399C748.168 235.411 748.241 235.417 748.282 235.417C748.651 235.417 748.965 235.367 749.223 235.268C749.48 235.174 749.697 235.013 749.873 234.784C750.055 234.562 750.21 234.254 750.339 233.861L751.016 232.016ZM749.073 223.49L751.543 230.873L751.965 232.587L750.796 233.185L747.298 223.49H749.073ZM763.953 231.664V233H757.036V231.664H763.953ZM763.698 224.642L757.405 233H756.412V231.805L762.661 223.49H763.698V224.642ZM762.978 223.49V224.835H756.482V223.49H762.978Z" fill="#838383"/>
<path d="M371.345 293.582V295.533C371.345 296.582 371.251 297.467 371.063 298.188C370.876 298.908 370.606 299.488 370.255 299.928C369.903 300.367 369.479 300.687 368.98 300.886C368.488 301.079 367.932 301.176 367.311 301.176C366.818 301.176 366.364 301.114 365.948 300.991C365.532 300.868 365.157 300.672 364.823 300.402C364.495 300.127 364.214 299.77 363.979 299.33C363.745 298.891 363.566 298.357 363.443 297.73C363.32 297.104 363.259 296.371 363.259 295.533V293.582C363.259 292.533 363.353 291.654 363.54 290.945C363.733 290.236 364.006 289.668 364.357 289.24C364.709 288.807 365.131 288.496 365.623 288.309C366.121 288.121 366.678 288.027 367.293 288.027C367.791 288.027 368.248 288.089 368.664 288.212C369.086 288.329 369.461 288.52 369.789 288.783C370.117 289.041 370.396 289.387 370.624 289.82C370.858 290.248 371.037 290.772 371.16 291.394C371.283 292.015 371.345 292.744 371.345 293.582ZM369.71 295.797V293.31C369.71 292.735 369.675 292.231 369.604 291.798C369.54 291.358 369.443 290.983 369.314 290.673C369.186 290.362 369.021 290.11 368.822 289.917C368.629 289.724 368.403 289.583 368.146 289.495C367.894 289.401 367.609 289.354 367.293 289.354C366.906 289.354 366.563 289.428 366.265 289.574C365.966 289.715 365.714 289.94 365.509 290.251C365.31 290.562 365.157 290.969 365.052 291.473C364.946 291.977 364.894 292.589 364.894 293.31V295.797C364.894 296.371 364.926 296.878 364.99 297.317C365.061 297.757 365.163 298.138 365.298 298.46C365.433 298.776 365.597 299.037 365.79 299.242C365.983 299.447 366.206 299.6 366.458 299.699C366.716 299.793 367 299.84 367.311 299.84C367.709 299.84 368.058 299.764 368.356 299.611C368.655 299.459 368.904 299.222 369.104 298.899C369.309 298.571 369.461 298.152 369.561 297.643C369.66 297.127 369.71 296.512 369.71 295.797ZM374.711 291.49L376.794 294.953L378.903 291.49H380.811L377.699 296.184L380.907 301H379.026L376.829 297.432L374.632 301H372.742L375.941 296.184L372.839 291.49H374.711ZM390.637 288.203V289.117L385.337 301H383.623L388.914 289.539H381.988V288.203H390.637ZM397.835 288.133V301H396.209V290.163L392.931 291.358V289.891L397.58 288.133H397.835ZM410.764 296.931H412.451C412.363 297.739 412.132 298.463 411.757 299.102C411.382 299.74 410.852 300.247 410.166 300.622C409.48 300.991 408.625 301.176 407.6 301.176C406.85 301.176 406.167 301.035 405.552 300.754C404.942 300.473 404.418 300.074 403.979 299.559C403.539 299.037 403.199 298.413 402.959 297.687C402.725 296.954 402.607 296.14 402.607 295.243V293.969C402.607 293.072 402.725 292.261 402.959 291.534C403.199 290.802 403.542 290.175 403.987 289.653C404.438 289.132 404.98 288.73 405.613 288.449C406.246 288.168 406.958 288.027 407.749 288.027C408.716 288.027 409.533 288.209 410.201 288.572C410.869 288.936 411.388 289.439 411.757 290.084C412.132 290.723 412.363 291.464 412.451 292.308H410.764C410.682 291.71 410.529 291.197 410.307 290.77C410.084 290.336 409.768 290.002 409.357 289.768C408.947 289.533 408.411 289.416 407.749 289.416C407.181 289.416 406.68 289.524 406.246 289.741C405.818 289.958 405.458 290.266 405.165 290.664C404.878 291.062 404.661 291.54 404.515 292.097C404.368 292.653 404.295 293.271 404.295 293.951V295.243C404.295 295.87 404.359 296.459 404.488 297.01C404.623 297.561 404.825 298.044 405.095 298.46C405.364 298.876 405.707 299.204 406.123 299.444C406.539 299.679 407.031 299.796 407.6 299.796C408.32 299.796 408.895 299.682 409.322 299.453C409.75 299.225 410.072 298.896 410.289 298.469C410.512 298.041 410.67 297.528 410.764 296.931ZM420.581 288.186H420.722V289.565H420.581C419.72 289.565 418.999 289.706 418.419 289.987C417.839 290.263 417.379 290.635 417.039 291.104C416.699 291.566 416.453 292.088 416.301 292.668C416.154 293.248 416.081 293.837 416.081 294.435V296.315C416.081 296.884 416.148 297.388 416.283 297.827C416.418 298.261 416.603 298.627 416.837 298.926C417.071 299.225 417.335 299.45 417.628 299.603C417.927 299.755 418.237 299.831 418.56 299.831C418.935 299.831 419.269 299.761 419.562 299.62C419.854 299.474 420.101 299.271 420.3 299.014C420.505 298.75 420.66 298.439 420.766 298.082C420.871 297.725 420.924 297.332 420.924 296.904C420.924 296.523 420.877 296.157 420.783 295.806C420.689 295.448 420.546 295.132 420.353 294.856C420.159 294.575 419.916 294.355 419.623 294.197C419.336 294.033 418.993 293.951 418.595 293.951C418.144 293.951 417.722 294.062 417.329 294.285C416.942 294.502 416.623 294.789 416.371 295.146C416.125 295.498 415.984 295.882 415.949 296.298L415.088 296.289C415.17 295.633 415.322 295.073 415.545 294.61C415.773 294.142 416.055 293.761 416.389 293.468C416.729 293.169 417.106 292.952 417.522 292.817C417.944 292.677 418.39 292.606 418.858 292.606C419.497 292.606 420.048 292.727 420.511 292.967C420.974 293.207 421.354 293.529 421.653 293.934C421.952 294.332 422.172 294.783 422.312 295.287C422.459 295.785 422.532 296.298 422.532 296.825C422.532 297.429 422.447 297.994 422.277 298.521C422.107 299.049 421.853 299.512 421.513 299.91C421.179 300.309 420.766 300.619 420.273 300.842C419.781 301.064 419.21 301.176 418.56 301.176C417.868 301.176 417.265 301.035 416.749 300.754C416.233 300.467 415.806 300.086 415.466 299.611C415.126 299.137 414.871 298.609 414.701 298.029C414.531 297.449 414.446 296.86 414.446 296.263V295.498C414.446 294.596 414.537 293.711 414.719 292.844C414.9 291.977 415.214 291.191 415.659 290.488C416.11 289.785 416.734 289.226 417.531 288.81C418.328 288.394 419.345 288.186 420.581 288.186ZM424.668 300.139C424.668 299.863 424.753 299.632 424.923 299.444C425.099 299.251 425.351 299.154 425.679 299.154C426.007 299.154 426.256 299.251 426.426 299.444C426.602 299.632 426.689 299.863 426.689 300.139C426.689 300.408 426.602 300.637 426.426 300.824C426.256 301.012 426.007 301.105 425.679 301.105C425.351 301.105 425.099 301.012 424.923 300.824C424.753 300.637 424.668 300.408 424.668 300.139ZM429.414 300.139C429.414 299.863 429.499 299.632 429.669 299.444C429.845 299.251 430.097 299.154 430.425 299.154C430.753 299.154 431.002 299.251 431.172 299.444C431.348 299.632 431.436 299.863 431.436 300.139C431.436 300.408 431.348 300.637 431.172 300.824C431.002 301.012 430.753 301.105 430.425 301.105C430.097 301.105 429.845 301.012 429.669 300.824C429.499 300.637 429.414 300.408 429.414 300.139ZM434.16 300.139C434.16 299.863 434.245 299.632 434.415 299.444C434.591 299.251 434.843 299.154 435.171 299.154C435.499 299.154 435.748 299.251 435.918 299.444C436.094 299.632 436.182 299.863 436.182 300.139C436.182 300.408 436.094 300.637 435.918 300.824C435.748 301.012 435.499 301.105 435.171 301.105C434.843 301.105 434.591 301.012 434.415 300.824C434.245 300.637 434.16 300.408 434.16 300.139ZM444.874 299.154V287.5H446.509V301H445.015L444.874 299.154ZM438.476 296.351V296.166C438.476 295.439 438.563 294.78 438.739 294.188C438.921 293.591 439.176 293.078 439.504 292.65C439.838 292.223 440.233 291.895 440.69 291.666C441.153 291.432 441.669 291.314 442.237 291.314C442.835 291.314 443.356 291.42 443.802 291.631C444.253 291.836 444.634 292.138 444.944 292.536C445.261 292.929 445.51 293.403 445.691 293.96C445.873 294.517 445.999 295.146 446.069 295.85V296.658C446.005 297.355 445.879 297.982 445.691 298.539C445.51 299.096 445.261 299.57 444.944 299.963C444.634 300.355 444.253 300.657 443.802 300.868C443.351 301.073 442.823 301.176 442.22 301.176C441.663 301.176 441.153 301.056 440.69 300.815C440.233 300.575 439.838 300.238 439.504 299.805C439.176 299.371 438.921 298.861 438.739 298.275C438.563 297.684 438.476 297.042 438.476 296.351ZM440.11 296.166V296.351C440.11 296.825 440.157 297.271 440.251 297.687C440.351 298.103 440.503 298.469 440.708 298.785C440.913 299.102 441.174 299.351 441.49 299.532C441.807 299.708 442.185 299.796 442.624 299.796C443.163 299.796 443.605 299.682 443.951 299.453C444.303 299.225 444.584 298.923 444.795 298.548C445.006 298.173 445.17 297.766 445.287 297.326V295.208C445.217 294.886 445.114 294.575 444.979 294.276C444.851 293.972 444.681 293.702 444.47 293.468C444.265 293.228 444.01 293.037 443.705 292.896C443.406 292.756 443.052 292.686 442.642 292.686C442.196 292.686 441.812 292.779 441.49 292.967C441.174 293.148 440.913 293.4 440.708 293.723C440.503 294.039 440.351 294.408 440.251 294.83C440.157 295.246 440.11 295.691 440.11 296.166ZM456.933 297.537C456.933 298.316 456.751 298.979 456.388 299.523C456.03 300.062 455.544 300.473 454.929 300.754C454.319 301.035 453.631 301.176 452.863 301.176C452.096 301.176 451.404 301.035 450.789 300.754C450.174 300.473 449.688 300.062 449.33 299.523C448.973 298.979 448.794 298.316 448.794 297.537C448.794 297.027 448.891 296.562 449.084 296.14C449.283 295.712 449.562 295.34 449.919 295.023C450.282 294.707 450.71 294.464 451.202 294.294C451.7 294.118 452.248 294.03 452.846 294.03C453.631 294.03 454.331 294.183 454.946 294.487C455.562 294.786 456.045 295.199 456.396 295.727C456.754 296.254 456.933 296.857 456.933 297.537ZM455.298 297.502C455.298 297.027 455.195 296.608 454.99 296.245C454.785 295.876 454.498 295.589 454.129 295.384C453.76 295.179 453.332 295.076 452.846 295.076C452.348 295.076 451.917 295.179 451.554 295.384C451.196 295.589 450.918 295.876 450.719 296.245C450.52 296.608 450.42 297.027 450.42 297.502C450.42 297.994 450.517 298.416 450.71 298.768C450.909 299.113 451.19 299.38 451.554 299.567C451.923 299.749 452.359 299.84 452.863 299.84C453.367 299.84 453.801 299.749 454.164 299.567C454.527 299.38 454.806 299.113 454.999 298.768C455.198 298.416 455.298 297.994 455.298 297.502ZM456.634 291.534C456.634 292.155 456.47 292.715 456.142 293.213C455.813 293.711 455.365 294.104 454.797 294.391C454.229 294.678 453.584 294.821 452.863 294.821C452.131 294.821 451.478 294.678 450.903 294.391C450.335 294.104 449.89 293.711 449.567 293.213C449.245 292.715 449.084 292.155 449.084 291.534C449.084 290.79 449.245 290.157 449.567 289.636C449.896 289.114 450.344 288.716 450.912 288.44C451.48 288.165 452.128 288.027 452.854 288.027C453.587 288.027 454.237 288.165 454.806 288.44C455.374 288.716 455.819 289.114 456.142 289.636C456.47 290.157 456.634 290.79 456.634 291.534ZM455.008 291.561C455.008 291.133 454.917 290.755 454.735 290.427C454.554 290.099 454.302 289.841 453.979 289.653C453.657 289.46 453.282 289.363 452.854 289.363C452.427 289.363 452.052 289.454 451.729 289.636C451.413 289.812 451.164 290.063 450.982 290.392C450.807 290.72 450.719 291.109 450.719 291.561C450.719 292 450.807 292.384 450.982 292.712C451.164 293.04 451.416 293.295 451.738 293.477C452.061 293.658 452.436 293.749 452.863 293.749C453.291 293.749 453.663 293.658 453.979 293.477C454.302 293.295 454.554 293.04 454.735 292.712C454.917 292.384 455.008 292 455.008 291.561ZM460.606 299.638H460.773C461.711 299.638 462.473 299.506 463.059 299.242C463.645 298.979 464.096 298.624 464.412 298.179C464.729 297.733 464.945 297.232 465.062 296.676C465.18 296.113 465.238 295.536 465.238 294.944V292.984C465.238 292.404 465.171 291.889 465.036 291.438C464.907 290.986 464.726 290.608 464.491 290.304C464.263 289.999 464.002 289.768 463.709 289.609C463.416 289.451 463.105 289.372 462.777 289.372C462.402 289.372 462.065 289.448 461.767 289.601C461.474 289.747 461.225 289.955 461.02 290.225C460.82 290.494 460.668 290.811 460.562 291.174C460.457 291.537 460.404 291.933 460.404 292.36C460.404 292.741 460.451 293.11 460.545 293.468C460.639 293.825 460.782 294.147 460.976 294.435C461.169 294.722 461.409 294.95 461.696 295.12C461.989 295.284 462.332 295.366 462.725 295.366C463.088 295.366 463.428 295.296 463.744 295.155C464.066 295.009 464.351 294.812 464.597 294.566C464.849 294.314 465.048 294.03 465.194 293.714C465.347 293.397 465.435 293.066 465.458 292.721H466.231C466.231 293.207 466.135 293.688 465.941 294.162C465.754 294.631 465.49 295.059 465.15 295.445C464.811 295.832 464.412 296.143 463.955 296.377C463.498 296.605 463 296.72 462.461 296.72C461.828 296.72 461.28 296.597 460.817 296.351C460.354 296.104 459.974 295.776 459.675 295.366C459.382 294.956 459.162 294.499 459.016 293.995C458.875 293.485 458.805 292.97 458.805 292.448C458.805 291.839 458.89 291.268 459.06 290.734C459.229 290.201 459.481 289.732 459.815 289.328C460.149 288.918 460.562 288.599 461.055 288.37C461.553 288.142 462.127 288.027 462.777 288.027C463.51 288.027 464.134 288.174 464.649 288.467C465.165 288.76 465.584 289.152 465.906 289.645C466.234 290.137 466.475 290.69 466.627 291.306C466.779 291.921 466.855 292.554 466.855 293.204V293.793C466.855 294.455 466.812 295.129 466.724 295.814C466.642 296.494 466.48 297.145 466.24 297.766C466.006 298.387 465.663 298.943 465.212 299.436C464.761 299.922 464.172 300.309 463.445 300.596C462.725 300.877 461.834 301.018 460.773 301.018H460.606V299.638ZM477.385 288.203V289.117L472.085 301H470.371L475.662 289.539H468.736V288.203H477.385Z" fill="#838383"/>
<path d="M55.3779 181.582V183.533C55.3779 184.582 55.2842 185.467 55.0967 186.188C54.9092 186.908 54.6396 187.488 54.2881 187.928C53.9365 188.367 53.5117 188.687 53.0137 188.886C52.5215 189.079 51.9648 189.176 51.3438 189.176C50.8516 189.176 50.3975 189.114 49.9814 188.991C49.5654 188.868 49.1904 188.672 48.8564 188.402C48.5283 188.127 48.2471 187.77 48.0127 187.33C47.7783 186.891 47.5996 186.357 47.4766 185.73C47.3535 185.104 47.292 184.371 47.292 183.533V181.582C47.292 180.533 47.3857 179.654 47.5732 178.945C47.7666 178.236 48.0391 177.668 48.3906 177.24C48.7422 176.807 49.1641 176.496 49.6562 176.309C50.1543 176.121 50.7109 176.027 51.3262 176.027C51.8242 176.027 52.2812 176.089 52.6973 176.212C53.1191 176.329 53.4941 176.52 53.8223 176.783C54.1504 177.041 54.4287 177.387 54.6572 177.82C54.8916 178.248 55.0703 178.772 55.1934 179.394C55.3164 180.015 55.3779 180.744 55.3779 181.582ZM53.7432 183.797V181.31C53.7432 180.735 53.708 180.231 53.6377 179.798C53.5732 179.358 53.4766 178.983 53.3477 178.673C53.2188 178.362 53.0547 178.11 52.8555 177.917C52.6621 177.724 52.4365 177.583 52.1787 177.495C51.9268 177.401 51.6426 177.354 51.3262 177.354C50.9395 177.354 50.5967 177.428 50.2979 177.574C49.999 177.715 49.7471 177.94 49.542 178.251C49.3428 178.562 49.1904 178.969 49.085 179.473C48.9795 179.977 48.9268 180.589 48.9268 181.31V183.797C48.9268 184.371 48.959 184.878 49.0234 185.317C49.0938 185.757 49.1963 186.138 49.3311 186.46C49.4658 186.776 49.6299 187.037 49.8232 187.242C50.0166 187.447 50.2393 187.6 50.4912 187.699C50.749 187.793 51.0332 187.84 51.3438 187.84C51.7422 187.84 52.0908 187.764 52.3896 187.611C52.6885 187.459 52.9375 187.222 53.1367 186.899C53.3418 186.571 53.4941 186.152 53.5938 185.643C53.6934 185.127 53.7432 184.512 53.7432 183.797ZM58.7441 179.49L60.8271 182.953L62.9365 179.49H64.8438L61.7324 184.184L64.9404 189H63.0596L60.8623 185.432L58.665 189H56.7754L59.9746 184.184L56.8721 179.49H58.7441ZM74.9512 187.62V189H68.1748V187.62H74.9512ZM68.5176 176.203V189H66.8213V176.203H68.5176ZM74.0547 181.705V183.085H68.1748V181.705H74.0547ZM74.8633 176.203V177.592H68.1748V176.203H74.8633ZM84.6631 181.582V183.533C84.6631 184.582 84.5693 185.467 84.3818 186.188C84.1943 186.908 83.9248 187.488 83.5732 187.928C83.2217 188.367 82.7969 188.687 82.2988 188.886C81.8066 189.079 81.25 189.176 80.6289 189.176C80.1367 189.176 79.6826 189.114 79.2666 188.991C78.8506 188.868 78.4756 188.672 78.1416 188.402C77.8135 188.127 77.5322 187.77 77.2979 187.33C77.0635 186.891 76.8848 186.357 76.7617 185.73C76.6387 185.104 76.5771 184.371 76.5771 183.533V181.582C76.5771 180.533 76.6709 179.654 76.8584 178.945C77.0518 178.236 77.3242 177.668 77.6758 177.24C78.0273 176.807 78.4492 176.496 78.9414 176.309C79.4395 176.121 79.9961 176.027 80.6113 176.027C81.1094 176.027 81.5664 176.089 81.9824 176.212C82.4043 176.329 82.7793 176.52 83.1074 176.783C83.4355 177.041 83.7139 177.387 83.9424 177.82C84.1768 178.248 84.3555 178.772 84.4785 179.394C84.6016 180.015 84.6631 180.744 84.6631 181.582ZM83.0283 183.797V181.31C83.0283 180.735 82.9932 180.231 82.9229 179.798C82.8584 179.358 82.7617 178.983 82.6328 178.673C82.5039 178.362 82.3398 178.11 82.1406 177.917C81.9473 177.724 81.7217 177.583 81.4639 177.495C81.2119 177.401 80.9277 177.354 80.6113 177.354C80.2246 177.354 79.8818 177.428 79.583 177.574C79.2842 177.715 79.0322 177.94 78.8271 178.251C78.6279 178.562 78.4756 178.969 78.3701 179.473C78.2646 179.977 78.2119 180.589 78.2119 181.31V183.797C78.2119 184.371 78.2441 184.878 78.3086 185.317C78.3789 185.757 78.4814 186.138 78.6162 186.46C78.751 186.776 78.915 187.037 79.1084 187.242C79.3018 187.447 79.5244 187.6 79.7764 187.699C80.0342 187.793 80.3184 187.84 80.6289 187.84C81.0273 187.84 81.376 187.764 81.6748 187.611C81.9736 187.459 82.2227 187.222 82.4219 186.899C82.627 186.571 82.7793 186.152 82.8789 185.643C82.9785 185.127 83.0283 184.512 83.0283 183.797ZM89.1279 181.802H90.2881C90.8564 181.802 91.3252 181.708 91.6943 181.521C92.0693 181.327 92.3477 181.066 92.5293 180.738C92.7168 180.404 92.8105 180.029 92.8105 179.613C92.8105 179.121 92.7285 178.708 92.5645 178.374C92.4004 178.04 92.1543 177.788 91.8262 177.618C91.498 177.448 91.082 177.363 90.5781 177.363C90.1211 177.363 89.7168 177.454 89.3652 177.636C89.0195 177.812 88.7471 178.063 88.5479 178.392C88.3545 178.72 88.2578 179.106 88.2578 179.552H86.6318C86.6318 178.901 86.7959 178.31 87.124 177.776C87.4521 177.243 87.9121 176.818 88.5039 176.502C89.1016 176.186 89.793 176.027 90.5781 176.027C91.3516 176.027 92.0283 176.165 92.6084 176.44C93.1885 176.71 93.6396 177.114 93.9619 177.653C94.2842 178.187 94.4453 178.852 94.4453 179.648C94.4453 179.971 94.3691 180.316 94.2168 180.686C94.0703 181.049 93.8389 181.389 93.5225 181.705C93.2119 182.021 92.8076 182.282 92.3096 182.487C91.8115 182.687 91.2139 182.786 90.5166 182.786H89.1279V181.802ZM89.1279 183.138V182.162H90.5166C91.3311 182.162 92.0049 182.259 92.5381 182.452C93.0713 182.646 93.4902 182.903 93.7949 183.226C94.1055 183.548 94.3223 183.902 94.4453 184.289C94.5742 184.67 94.6387 185.051 94.6387 185.432C94.6387 186.029 94.5361 186.56 94.3311 187.022C94.1318 187.485 93.8477 187.878 93.4785 188.2C93.1152 188.522 92.6875 188.766 92.1953 188.93C91.7031 189.094 91.167 189.176 90.5869 189.176C90.0303 189.176 89.5059 189.097 89.0137 188.938C88.5273 188.78 88.0967 188.552 87.7217 188.253C87.3467 187.948 87.0537 187.576 86.8428 187.137C86.6318 186.691 86.5264 186.185 86.5264 185.616H88.1523C88.1523 186.062 88.249 186.451 88.4424 186.785C88.6416 187.119 88.9229 187.38 89.2861 187.567C89.6553 187.749 90.0889 187.84 90.5869 187.84C91.085 187.84 91.5127 187.755 91.8701 187.585C92.2334 187.409 92.5117 187.146 92.7051 186.794C92.9043 186.442 93.0039 186 93.0039 185.467C93.0039 184.934 92.8926 184.497 92.6699 184.157C92.4473 183.812 92.1309 183.557 91.7207 183.393C91.3164 183.223 90.8389 183.138 90.2881 183.138H89.1279ZM98.4971 187.638H98.6641C99.6016 187.638 100.363 187.506 100.949 187.242C101.535 186.979 101.986 186.624 102.303 186.179C102.619 185.733 102.836 185.232 102.953 184.676C103.07 184.113 103.129 183.536 103.129 182.944V180.984C103.129 180.404 103.062 179.889 102.927 179.438C102.798 178.986 102.616 178.608 102.382 178.304C102.153 177.999 101.893 177.768 101.6 177.609C101.307 177.451 100.996 177.372 100.668 177.372C100.293 177.372 99.9561 177.448 99.6572 177.601C99.3643 177.747 99.1152 177.955 98.9102 178.225C98.7109 178.494 98.5586 178.811 98.4531 179.174C98.3477 179.537 98.2949 179.933 98.2949 180.36C98.2949 180.741 98.3418 181.11 98.4355 181.468C98.5293 181.825 98.6729 182.147 98.8662 182.435C99.0596 182.722 99.2998 182.95 99.5869 183.12C99.8799 183.284 100.223 183.366 100.615 183.366C100.979 183.366 101.318 183.296 101.635 183.155C101.957 183.009 102.241 182.812 102.487 182.566C102.739 182.314 102.938 182.03 103.085 181.714C103.237 181.397 103.325 181.066 103.349 180.721H104.122C104.122 181.207 104.025 181.688 103.832 182.162C103.645 182.631 103.381 183.059 103.041 183.445C102.701 183.832 102.303 184.143 101.846 184.377C101.389 184.605 100.891 184.72 100.352 184.72C99.7188 184.72 99.1709 184.597 98.708 184.351C98.2451 184.104 97.8643 183.776 97.5654 183.366C97.2725 182.956 97.0527 182.499 96.9062 181.995C96.7656 181.485 96.6953 180.97 96.6953 180.448C96.6953 179.839 96.7803 179.268 96.9502 178.734C97.1201 178.201 97.3721 177.732 97.7061 177.328C98.04 176.918 98.4531 176.599 98.9453 176.37C99.4434 176.142 100.018 176.027 100.668 176.027C101.4 176.027 102.024 176.174 102.54 176.467C103.056 176.76 103.475 177.152 103.797 177.645C104.125 178.137 104.365 178.69 104.518 179.306C104.67 179.921 104.746 180.554 104.746 181.204V181.793C104.746 182.455 104.702 183.129 104.614 183.814C104.532 184.494 104.371 185.145 104.131 185.766C103.896 186.387 103.554 186.943 103.103 187.436C102.651 187.922 102.062 188.309 101.336 188.596C100.615 188.877 99.7246 189.018 98.6641 189.018H98.4971V187.638ZM107.207 188.139C107.207 187.863 107.292 187.632 107.462 187.444C107.638 187.251 107.89 187.154 108.218 187.154C108.546 187.154 108.795 187.251 108.965 187.444C109.141 187.632 109.229 187.863 109.229 188.139C109.229 188.408 109.141 188.637 108.965 188.824C108.795 189.012 108.546 189.105 108.218 189.105C107.89 189.105 107.638 189.012 107.462 188.824C107.292 188.637 107.207 188.408 107.207 188.139ZM111.953 188.139C111.953 187.863 112.038 187.632 112.208 187.444C112.384 187.251 112.636 187.154 112.964 187.154C113.292 187.154 113.541 187.251 113.711 187.444C113.887 187.632 113.975 187.863 113.975 188.139C113.975 188.408 113.887 188.637 113.711 188.824C113.541 189.012 113.292 189.105 112.964 189.105C112.636 189.105 112.384 189.012 112.208 188.824C112.038 188.637 111.953 188.408 111.953 188.139ZM116.699 188.139C116.699 187.863 116.784 187.632 116.954 187.444C117.13 187.251 117.382 187.154 117.71 187.154C118.038 187.154 118.287 187.251 118.457 187.444C118.633 187.632 118.721 187.863 118.721 188.139C118.721 188.408 118.633 188.637 118.457 188.824C118.287 189.012 118.038 189.105 117.71 189.105C117.382 189.105 117.13 189.012 116.954 188.824C116.784 188.637 116.699 188.408 116.699 188.139ZM129.276 181.582V183.533C129.276 184.582 129.183 185.467 128.995 186.188C128.808 186.908 128.538 187.488 128.187 187.928C127.835 188.367 127.41 188.687 126.912 188.886C126.42 189.079 125.863 189.176 125.242 189.176C124.75 189.176 124.296 189.114 123.88 188.991C123.464 188.868 123.089 188.672 122.755 188.402C122.427 188.127 122.146 187.77 121.911 187.33C121.677 186.891 121.498 186.357 121.375 185.73C121.252 185.104 121.19 184.371 121.19 183.533V181.582C121.19 180.533 121.284 179.654 121.472 178.945C121.665 178.236 121.938 177.668 122.289 177.24C122.641 176.807 123.062 176.496 123.555 176.309C124.053 176.121 124.609 176.027 125.225 176.027C125.723 176.027 126.18 176.089 126.596 176.212C127.018 176.329 127.393 176.52 127.721 176.783C128.049 177.041 128.327 177.387 128.556 177.82C128.79 178.248 128.969 178.772 129.092 179.394C129.215 180.015 129.276 180.744 129.276 181.582ZM127.642 183.797V181.31C127.642 180.735 127.606 180.231 127.536 179.798C127.472 179.358 127.375 178.983 127.246 178.673C127.117 178.362 126.953 178.11 126.754 177.917C126.561 177.724 126.335 177.583 126.077 177.495C125.825 177.401 125.541 177.354 125.225 177.354C124.838 177.354 124.495 177.428 124.196 177.574C123.897 177.715 123.646 177.94 123.44 178.251C123.241 178.562 123.089 178.969 122.983 179.473C122.878 179.977 122.825 180.589 122.825 181.31V183.797C122.825 184.371 122.857 184.878 122.922 185.317C122.992 185.757 123.095 186.138 123.229 186.46C123.364 186.776 123.528 187.037 123.722 187.242C123.915 187.447 124.138 187.6 124.39 187.699C124.647 187.793 124.932 187.84 125.242 187.84C125.641 187.84 125.989 187.764 126.288 187.611C126.587 187.459 126.836 187.222 127.035 186.899C127.24 186.571 127.393 186.152 127.492 185.643C127.592 185.127 127.642 184.512 127.642 183.797ZM133.741 181.802H134.901C135.47 181.802 135.938 181.708 136.308 181.521C136.683 181.327 136.961 181.066 137.143 180.738C137.33 180.404 137.424 180.029 137.424 179.613C137.424 179.121 137.342 178.708 137.178 178.374C137.014 178.04 136.768 177.788 136.439 177.618C136.111 177.448 135.695 177.363 135.191 177.363C134.734 177.363 134.33 177.454 133.979 177.636C133.633 177.812 133.36 178.063 133.161 178.392C132.968 178.72 132.871 179.106 132.871 179.552H131.245C131.245 178.901 131.409 178.31 131.737 177.776C132.065 177.243 132.525 176.818 133.117 176.502C133.715 176.186 134.406 176.027 135.191 176.027C135.965 176.027 136.642 176.165 137.222 176.44C137.802 176.71 138.253 177.114 138.575 177.653C138.897 178.187 139.059 178.852 139.059 179.648C139.059 179.971 138.982 180.316 138.83 180.686C138.684 181.049 138.452 181.389 138.136 181.705C137.825 182.021 137.421 182.282 136.923 182.487C136.425 182.687 135.827 182.786 135.13 182.786H133.741V181.802ZM133.741 183.138V182.162H135.13C135.944 182.162 136.618 182.259 137.151 182.452C137.685 182.646 138.104 182.903 138.408 183.226C138.719 183.548 138.936 183.902 139.059 184.289C139.188 184.67 139.252 185.051 139.252 185.432C139.252 186.029 139.149 186.56 138.944 187.022C138.745 187.485 138.461 187.878 138.092 188.2C137.729 188.522 137.301 188.766 136.809 188.93C136.316 189.094 135.78 189.176 135.2 189.176C134.644 189.176 134.119 189.097 133.627 188.938C133.141 188.78 132.71 188.552 132.335 188.253C131.96 187.948 131.667 187.576 131.456 187.137C131.245 186.691 131.14 186.185 131.14 185.616H132.766C132.766 186.062 132.862 186.451 133.056 186.785C133.255 187.119 133.536 187.38 133.899 187.567C134.269 187.749 134.702 187.84 135.2 187.84C135.698 187.84 136.126 187.755 136.483 187.585C136.847 187.409 137.125 187.146 137.318 186.794C137.518 186.442 137.617 186 137.617 185.467C137.617 184.934 137.506 184.497 137.283 184.157C137.061 183.812 136.744 183.557 136.334 183.393C135.93 183.223 135.452 183.138 134.901 183.138H133.741ZM147.733 176.186H147.874V177.565H147.733C146.872 177.565 146.151 177.706 145.571 177.987C144.991 178.263 144.531 178.635 144.191 179.104C143.852 179.566 143.605 180.088 143.453 180.668C143.307 181.248 143.233 181.837 143.233 182.435V184.315C143.233 184.884 143.301 185.388 143.436 185.827C143.57 186.261 143.755 186.627 143.989 186.926C144.224 187.225 144.487 187.45 144.78 187.603C145.079 187.755 145.39 187.831 145.712 187.831C146.087 187.831 146.421 187.761 146.714 187.62C147.007 187.474 147.253 187.271 147.452 187.014C147.657 186.75 147.812 186.439 147.918 186.082C148.023 185.725 148.076 185.332 148.076 184.904C148.076 184.523 148.029 184.157 147.936 183.806C147.842 183.448 147.698 183.132 147.505 182.856C147.312 182.575 147.068 182.355 146.775 182.197C146.488 182.033 146.146 181.951 145.747 181.951C145.296 181.951 144.874 182.062 144.481 182.285C144.095 182.502 143.775 182.789 143.523 183.146C143.277 183.498 143.137 183.882 143.102 184.298L142.24 184.289C142.322 183.633 142.475 183.073 142.697 182.61C142.926 182.142 143.207 181.761 143.541 181.468C143.881 181.169 144.259 180.952 144.675 180.817C145.097 180.677 145.542 180.606 146.011 180.606C146.649 180.606 147.2 180.727 147.663 180.967C148.126 181.207 148.507 181.529 148.806 181.934C149.104 182.332 149.324 182.783 149.465 183.287C149.611 183.785 149.685 184.298 149.685 184.825C149.685 185.429 149.6 185.994 149.43 186.521C149.26 187.049 149.005 187.512 148.665 187.91C148.331 188.309 147.918 188.619 147.426 188.842C146.934 189.064 146.362 189.176 145.712 189.176C145.021 189.176 144.417 189.035 143.901 188.754C143.386 188.467 142.958 188.086 142.618 187.611C142.278 187.137 142.023 186.609 141.854 186.029C141.684 185.449 141.599 184.86 141.599 184.263V183.498C141.599 182.596 141.689 181.711 141.871 180.844C142.053 179.977 142.366 179.191 142.812 178.488C143.263 177.785 143.887 177.226 144.684 176.81C145.48 176.394 146.497 176.186 147.733 176.186ZM156.962 176.133V189H155.336V178.163L152.058 179.358V177.891L156.707 176.133H156.962Z" fill="#838383"/>
<ellipse cx="742.112" cy="279.5" rx="25.6597" ry="25.5" fill="#659357"/>
<ellipse cx="463.377" cy="369.5" rx="25.6597" ry="25.5" fill="#659357"/>
<ellipse cx="143.385" cy="262.5" rx="25.6597" ry="25.5" fill="#659357"/>
<path d="M955.951 139.864L921.226 85.5L920.375 84.1706C919.405 82.6556 920.772 80.73 922.522 81.1464L986.688 96.4146C987.944 96.7134 988.592 98.106 988.012 99.2592L987.639 100L978.08 111.5L997.199 120L990.658 138L965.502 126L959.465 139.598C958.818 141.056 956.809 141.207 955.951 139.864Z" fill="#6F9869" stroke="#70986A"/>
<path d="M951.944 140.901L916.284 85.5873L915.369 84.1721C914.392 82.6595 915.755 80.7266 917.508 81.1399L983.45 96.6861C984.711 96.9834 985.361 98.383 984.774 99.5382L984.379 100.317L974.577 112L994.18 120.635L987.474 138.921L961.68 126.73L955.45 140.635C954.801 142.083 952.804 142.235 951.944 140.901Z" stroke="black" stroke-width="2"/>
<path d="M917.202 87.3506C865.141 47.1872 830.16 26.3506 798.966 26.3506" stroke="#020B2C" stroke-width="2" stroke-linecap="round" stroke-linejoin="round"/>
<path d="M1008.27 147C1105.67 111.8 1230.32 163.667 1280.46 194C1345.87 243.667 1433.01 339.9 1258.32 327.5C1039.97 312 1161.72 173.5 1239.21 241C1301.19 295 1184.87 352.5 1118.96 374.5C1088.77 381.834 1014.21 392.1 957.452 374.5C900.699 356.9 788.903 299.667 735.571 273.5C703.371 265.667 615.726 261.8 558.972 307C488.031 363.5 418.599 433 325.016 423.5C250.151 415.9 204.265 356.334 190.68 327.5C175.754 293 138.355 235.6 108.167 282C70.4321 340 53.3256 370 1 389" stroke="black" stroke-width="2" stroke-linecap="round"/>
</svg>
