<svg width="1354" height="426" viewBox="0 0 1354 426" fill="none" xmlns="http://www.w3.org/2000/svg">
<path d="M667.097 205.582V207.533C667.097 208.582 667.003 209.467 666.815 210.188C666.628 210.908 666.358 211.488 666.007 211.928C665.655 212.367 665.23 212.687 664.732 212.886C664.24 213.079 663.684 213.176 663.062 213.176C662.57 213.176 662.116 213.114 661.7 212.991C661.284 212.868 660.909 212.672 660.575 212.402C660.247 212.127 659.966 211.77 659.731 211.33C659.497 210.891 659.318 210.357 659.195 209.73C659.072 209.104 659.011 208.371 659.011 207.533V205.582C659.011 204.533 659.104 203.654 659.292 202.945C659.485 202.236 659.758 201.668 660.109 201.24C660.461 200.807 660.883 200.496 661.375 200.309C661.873 200.121 662.43 200.027 663.045 200.027C663.543 200.027 664 200.089 664.416 200.212C664.838 200.329 665.213 200.52 665.541 200.783C665.869 201.041 666.147 201.387 666.376 201.82C666.61 202.248 666.789 202.772 666.912 203.394C667.035 204.015 667.097 204.744 667.097 205.582ZM665.462 207.797V205.31C665.462 204.735 665.427 204.231 665.356 203.798C665.292 203.358 665.195 202.983 665.066 202.673C664.938 202.362 664.773 202.11 664.574 201.917C664.381 201.724 664.155 201.583 663.897 201.495C663.646 201.401 663.361 201.354 663.045 201.354C662.658 201.354 662.315 201.428 662.017 201.574C661.718 201.715 661.466 201.94 661.261 202.251C661.062 202.562 660.909 202.969 660.804 203.473C660.698 203.977 660.646 204.589 660.646 205.31V207.797C660.646 208.371 660.678 208.878 660.742 209.317C660.812 209.757 660.915 210.138 661.05 210.46C661.185 210.776 661.349 211.037 661.542 211.242C661.735 211.447 661.958 211.6 662.21 211.699C662.468 211.793 662.752 211.84 663.062 211.84C663.461 211.84 663.81 211.764 664.108 211.611C664.407 211.459 664.656 211.222 664.855 210.899C665.061 210.571 665.213 210.152 665.312 209.643C665.412 209.127 665.462 208.512 665.462 207.797ZM670.463 203.49L672.546 206.953L674.655 203.49H676.562L673.451 208.184L676.659 213H674.778L672.581 209.432L670.384 213H668.494L671.693 208.184L668.591 203.49H670.463ZM686.767 208.693V210.029H677.521V209.071L683.251 200.203H684.578L683.154 202.77L679.366 208.693H686.767ZM684.982 200.203V213H683.356V200.203H684.982ZM690.3 206.909L688.999 206.575L689.641 200.203H696.206V201.706H691.021L690.634 205.187C690.868 205.052 691.164 204.926 691.521 204.809C691.885 204.691 692.301 204.633 692.77 204.633C693.361 204.633 693.892 204.735 694.36 204.94C694.829 205.14 695.228 205.427 695.556 205.802C695.89 206.177 696.145 206.628 696.32 207.155C696.496 207.683 696.584 208.271 696.584 208.922C696.584 209.537 696.499 210.103 696.329 210.618C696.165 211.134 695.916 211.585 695.582 211.972C695.248 212.353 694.826 212.648 694.316 212.859C693.812 213.07 693.218 213.176 692.532 213.176C692.017 213.176 691.527 213.105 691.064 212.965C690.607 212.818 690.197 212.599 689.834 212.306C689.477 212.007 689.184 211.638 688.955 211.198C688.732 210.753 688.592 210.231 688.533 209.634H690.08C690.15 210.114 690.291 210.519 690.502 210.847C690.713 211.175 690.988 211.424 691.328 211.594C691.674 211.758 692.075 211.84 692.532 211.84C692.919 211.84 693.262 211.772 693.561 211.638C693.859 211.503 694.111 211.31 694.316 211.058C694.521 210.806 694.677 210.501 694.782 210.144C694.894 209.786 694.949 209.385 694.949 208.939C694.949 208.535 694.894 208.16 694.782 207.814C694.671 207.469 694.504 207.167 694.281 206.909C694.064 206.651 693.798 206.452 693.481 206.312C693.165 206.165 692.802 206.092 692.392 206.092C691.847 206.092 691.434 206.165 691.152 206.312C690.877 206.458 690.593 206.657 690.3 206.909ZM704.608 200.186H704.749V201.565H704.608C703.747 201.565 703.026 201.706 702.446 201.987C701.866 202.263 701.406 202.635 701.066 203.104C700.727 203.566 700.48 204.088 700.328 204.668C700.182 205.248 700.108 205.837 700.108 206.435V208.315C700.108 208.884 700.176 209.388 700.311 209.827C700.445 210.261 700.63 210.627 700.864 210.926C701.099 211.225 701.362 211.45 701.655 211.603C701.954 211.755 702.265 211.831 702.587 211.831C702.962 211.831 703.296 211.761 703.589 211.62C703.882 211.474 704.128 211.271 704.327 211.014C704.532 210.75 704.688 210.439 704.793 210.082C704.898 209.725 704.951 209.332 704.951 208.904C704.951 208.523 704.904 208.157 704.811 207.806C704.717 207.448 704.573 207.132 704.38 206.856C704.187 206.575 703.943 206.355 703.65 206.197C703.363 206.033 703.021 205.951 702.622 205.951C702.171 205.951 701.749 206.062 701.356 206.285C700.97 206.502 700.65 206.789 700.398 207.146C700.152 207.498 700.012 207.882 699.977 208.298L699.115 208.289C699.197 207.633 699.35 207.073 699.572 206.61C699.801 206.142 700.082 205.761 700.416 205.468C700.756 205.169 701.134 204.952 701.55 204.817C701.972 204.677 702.417 204.606 702.886 204.606C703.524 204.606 704.075 204.727 704.538 204.967C705.001 205.207 705.382 205.529 705.681 205.934C705.979 206.332 706.199 206.783 706.34 207.287C706.486 207.785 706.56 208.298 706.56 208.825C706.56 209.429 706.475 209.994 706.305 210.521C706.135 211.049 705.88 211.512 705.54 211.91C705.206 212.309 704.793 212.619 704.301 212.842C703.809 213.064 703.237 213.176 702.587 213.176C701.896 213.176 701.292 213.035 700.776 212.754C700.261 212.467 699.833 212.086 699.493 211.611C699.153 211.137 698.898 210.609 698.729 210.029C698.559 209.449 698.474 208.86 698.474 208.263V207.498C698.474 206.596 698.564 205.711 698.746 204.844C698.928 203.977 699.241 203.191 699.687 202.488C700.138 201.785 700.762 201.226 701.559 200.81C702.355 200.394 703.372 200.186 704.608 200.186ZM710.866 205.802H712.026C712.595 205.802 713.063 205.708 713.433 205.521C713.808 205.327 714.086 205.066 714.268 204.738C714.455 204.404 714.549 204.029 714.549 203.613C714.549 203.121 714.467 202.708 714.303 202.374C714.139 202.04 713.893 201.788 713.564 201.618C713.236 201.448 712.82 201.363 712.316 201.363C711.859 201.363 711.455 201.454 711.104 201.636C710.758 201.812 710.485 202.063 710.286 202.392C710.093 202.72 709.996 203.106 709.996 203.552H708.37C708.37 202.901 708.534 202.31 708.862 201.776C709.19 201.243 709.65 200.818 710.242 200.502C710.84 200.186 711.531 200.027 712.316 200.027C713.09 200.027 713.767 200.165 714.347 200.44C714.927 200.71 715.378 201.114 715.7 201.653C716.022 202.187 716.184 202.852 716.184 203.648C716.184 203.971 716.107 204.316 715.955 204.686C715.809 205.049 715.577 205.389 715.261 205.705C714.95 206.021 714.546 206.282 714.048 206.487C713.55 206.687 712.952 206.786 712.255 206.786H710.866V205.802ZM710.866 207.138V206.162H712.255C713.069 206.162 713.743 206.259 714.276 206.452C714.81 206.646 715.229 206.903 715.533 207.226C715.844 207.548 716.061 207.902 716.184 208.289C716.312 208.67 716.377 209.051 716.377 209.432C716.377 210.029 716.274 210.56 716.069 211.022C715.87 211.485 715.586 211.878 715.217 212.2C714.854 212.522 714.426 212.766 713.934 212.93C713.441 213.094 712.905 213.176 712.325 213.176C711.769 213.176 711.244 213.097 710.752 212.938C710.266 212.78 709.835 212.552 709.46 212.253C709.085 211.948 708.792 211.576 708.581 211.137C708.37 210.691 708.265 210.185 708.265 209.616H709.891C709.891 210.062 709.987 210.451 710.181 210.785C710.38 211.119 710.661 211.38 711.024 211.567C711.394 211.749 711.827 211.84 712.325 211.84C712.823 211.84 713.251 211.755 713.608 211.585C713.972 211.409 714.25 211.146 714.443 210.794C714.643 210.442 714.742 210 714.742 209.467C714.742 208.934 714.631 208.497 714.408 208.157C714.186 207.812 713.869 207.557 713.459 207.393C713.055 207.223 712.577 207.138 712.026 207.138H710.866ZM724.858 200.186H724.999V201.565H724.858C723.997 201.565 723.276 201.706 722.696 201.987C722.116 202.263 721.656 202.635 721.316 203.104C720.977 203.566 720.73 204.088 720.578 204.668C720.432 205.248 720.358 205.837 720.358 206.435V208.315C720.358 208.884 720.426 209.388 720.561 209.827C720.695 210.261 720.88 210.627 721.114 210.926C721.349 211.225 721.612 211.45 721.905 211.603C722.204 211.755 722.515 211.831 722.837 211.831C723.212 211.831 723.546 211.761 723.839 211.62C724.132 211.474 724.378 211.271 724.577 211.014C724.782 210.75 724.938 210.439 725.043 210.082C725.148 209.725 725.201 209.332 725.201 208.904C725.201 208.523 725.154 208.157 725.061 207.806C724.967 207.448 724.823 207.132 724.63 206.856C724.437 206.575 724.193 206.355 723.9 206.197C723.613 206.033 723.271 205.951 722.872 205.951C722.421 205.951 721.999 206.062 721.606 206.285C721.22 206.502 720.9 206.789 720.648 207.146C720.402 207.498 720.262 207.882 720.227 208.298L719.365 208.289C719.447 207.633 719.6 207.073 719.822 206.61C720.051 206.142 720.332 205.761 720.666 205.468C721.006 205.169 721.384 204.952 721.8 204.817C722.222 204.677 722.667 204.606 723.136 204.606C723.774 204.606 724.325 204.727 724.788 204.967C725.251 205.207 725.632 205.529 725.931 205.934C726.229 206.332 726.449 206.783 726.59 207.287C726.736 207.785 726.81 208.298 726.81 208.825C726.81 209.429 726.725 209.994 726.555 210.521C726.385 211.049 726.13 211.512 725.79 211.91C725.456 212.309 725.043 212.619 724.551 212.842C724.059 213.064 723.487 213.176 722.837 213.176C722.146 213.176 721.542 213.035 721.026 212.754C720.511 212.467 720.083 212.086 719.743 211.611C719.403 211.137 719.148 210.609 718.979 210.029C718.809 209.449 718.724 208.86 718.724 208.263V207.498C718.724 206.596 718.814 205.711 718.996 204.844C719.178 203.977 719.491 203.191 719.937 202.488C720.388 201.785 721.012 201.226 721.809 200.81C722.605 200.394 723.622 200.186 724.858 200.186ZM737.392 208.693V210.029H728.146V209.071L733.876 200.203H735.203L733.779 202.77L729.991 208.693H737.392ZM735.607 200.203V213H733.981V200.203H735.607ZM741.241 205.802H742.401C742.97 205.802 743.438 205.708 743.808 205.521C744.183 205.327 744.461 205.066 744.643 204.738C744.83 204.404 744.924 204.029 744.924 203.613C744.924 203.121 744.842 202.708 744.678 202.374C744.514 202.04 744.268 201.788 743.939 201.618C743.611 201.448 743.195 201.363 742.691 201.363C742.234 201.363 741.83 201.454 741.479 201.636C741.133 201.812 740.86 202.063 740.661 202.392C740.468 202.72 740.371 203.106 740.371 203.552H738.745C738.745 202.901 738.909 202.31 739.237 201.776C739.565 201.243 740.025 200.818 740.617 200.502C741.215 200.186 741.906 200.027 742.691 200.027C743.465 200.027 744.142 200.165 744.722 200.44C745.302 200.71 745.753 201.114 746.075 201.653C746.397 202.187 746.559 202.852 746.559 203.648C746.559 203.971 746.482 204.316 746.33 204.686C746.184 205.049 745.952 205.389 745.636 205.705C745.325 206.021 744.921 206.282 744.423 206.487C743.925 206.687 743.327 206.786 742.63 206.786H741.241V205.802ZM741.241 207.138V206.162H742.63C743.444 206.162 744.118 206.259 744.651 206.452C745.185 206.646 745.604 206.903 745.908 207.226C746.219 207.548 746.436 207.902 746.559 208.289C746.688 208.67 746.752 209.051 746.752 209.432C746.752 210.029 746.649 210.56 746.444 211.022C746.245 211.485 745.961 211.878 745.592 212.2C745.229 212.522 744.801 212.766 744.309 212.93C743.816 213.094 743.28 213.176 742.7 213.176C742.144 213.176 741.619 213.097 741.127 212.938C740.641 212.78 740.21 212.552 739.835 212.253C739.46 211.948 739.167 211.576 738.956 211.137C738.745 210.691 738.64 210.185 738.64 209.616H740.266C740.266 210.062 740.362 210.451 740.556 210.785C740.755 211.119 741.036 211.38 741.399 211.567C741.769 211.749 742.202 211.84 742.7 211.84C743.198 211.84 743.626 211.755 743.983 211.585C744.347 211.409 744.625 211.146 744.818 210.794C745.018 210.442 745.117 210 745.117 209.467C745.117 208.934 745.006 208.497 744.783 208.157C744.561 207.812 744.244 207.557 743.834 207.393C743.43 207.223 742.952 207.138 742.401 207.138H741.241ZM755.233 200.186H755.374V201.565H755.233C754.372 201.565 753.651 201.706 753.071 201.987C752.491 202.263 752.031 202.635 751.691 203.104C751.352 203.566 751.105 204.088 750.953 204.668C750.807 205.248 750.733 205.837 750.733 206.435V208.315C750.733 208.884 750.801 209.388 750.936 209.827C751.07 210.261 751.255 210.627 751.489 210.926C751.724 211.225 751.987 211.45 752.28 211.603C752.579 211.755 752.89 211.831 753.212 211.831C753.587 211.831 753.921 211.761 754.214 211.62C754.507 211.474 754.753 211.271 754.952 211.014C755.157 210.75 755.312 210.439 755.418 210.082C755.523 209.725 755.576 209.332 755.576 208.904C755.576 208.523 755.529 208.157 755.436 207.806C755.342 207.448 755.198 207.132 755.005 206.856C754.812 206.575 754.568 206.355 754.275 206.197C753.988 206.033 753.646 205.951 753.247 205.951C752.796 205.951 752.374 206.062 751.981 206.285C751.595 206.502 751.275 206.789 751.023 207.146C750.777 207.498 750.637 207.882 750.602 208.298L749.74 208.289C749.822 207.633 749.975 207.073 750.197 206.61C750.426 206.142 750.707 205.761 751.041 205.468C751.381 205.169 751.759 204.952 752.175 204.817C752.597 204.677 753.042 204.606 753.511 204.606C754.149 204.606 754.7 204.727 755.163 204.967C755.626 205.207 756.007 205.529 756.306 205.934C756.604 206.332 756.824 206.783 756.965 207.287C757.111 207.785 757.185 208.298 757.185 208.825C757.185 209.429 757.1 209.994 756.93 210.521C756.76 211.049 756.505 211.512 756.165 211.91C755.831 212.309 755.418 212.619 754.926 212.842C754.434 213.064 753.862 213.176 753.212 213.176C752.521 213.176 751.917 213.035 751.401 212.754C750.886 212.467 750.458 212.086 750.118 211.611C749.778 211.137 749.523 210.609 749.354 210.029C749.184 209.449 749.099 208.86 749.099 208.263V207.498C749.099 206.596 749.189 205.711 749.371 204.844C749.553 203.977 749.866 203.191 750.312 202.488C750.763 201.785 751.387 201.226 752.184 200.81C752.98 200.394 753.997 200.186 755.233 200.186ZM673.258 228.579C673.234 229.118 673.152 229.66 673.012 230.205C672.871 230.744 672.66 231.239 672.379 231.69C672.098 232.142 671.731 232.505 671.28 232.78C670.835 233.05 670.296 233.185 669.663 233.185C669.259 233.185 668.904 233.114 668.6 232.974C668.301 232.827 668.055 232.619 667.861 232.35C667.674 232.08 667.542 231.755 667.466 231.374C667.396 230.993 667.384 230.568 667.431 230.1L667.879 225.23H669.171L668.723 230.1C668.688 230.527 668.696 230.876 668.749 231.146C668.808 231.415 668.896 231.623 669.013 231.77C669.13 231.91 669.262 232.007 669.408 232.06C669.561 232.112 669.707 232.139 669.848 232.139C670.199 232.139 670.513 232.048 670.788 231.866C671.063 231.679 671.295 231.424 671.482 231.102C671.676 230.773 671.825 230.396 671.931 229.968C672.036 229.534 672.101 229.071 672.124 228.579C672.165 227.706 672.124 226.903 672.001 226.171C671.884 225.438 671.682 224.788 671.395 224.22C671.113 223.651 670.744 223.171 670.287 222.778C669.83 222.386 669.285 222.087 668.652 221.882C668.02 221.677 667.296 221.574 666.481 221.574C665.743 221.574 665.061 221.688 664.434 221.917C663.812 222.14 663.253 222.462 662.755 222.884C662.263 223.306 661.838 223.812 661.48 224.404C661.129 224.996 660.851 225.664 660.646 226.408C660.446 227.146 660.329 227.943 660.294 228.799C660.253 229.678 660.3 230.486 660.435 231.225C660.569 231.957 660.786 232.61 661.085 233.185C661.39 233.765 661.773 234.254 662.236 234.652C662.699 235.057 663.235 235.361 663.845 235.566C664.454 235.777 665.134 235.883 665.884 235.883C666.399 235.883 666.921 235.821 667.448 235.698C667.981 235.575 668.427 235.408 668.784 235.197L669.118 236.199C668.708 236.463 668.195 236.659 667.58 236.788C666.971 236.917 666.394 236.981 665.849 236.981C664.958 236.981 664.144 236.858 663.405 236.612C662.673 236.372 662.022 236.018 661.454 235.549C660.892 235.086 660.423 234.521 660.048 233.853C659.673 233.19 659.397 232.435 659.222 231.585C659.046 230.735 658.979 229.807 659.02 228.799C659.061 227.838 659.204 226.933 659.45 226.083C659.702 225.233 660.045 224.463 660.479 223.771C660.912 223.08 661.428 222.485 662.025 221.987C662.629 221.483 663.306 221.097 664.056 220.827C664.812 220.558 665.632 220.423 666.517 220.423C667.419 220.423 668.236 220.546 668.969 220.792C669.701 221.038 670.343 221.393 670.894 221.855C671.45 222.318 671.91 222.884 672.273 223.552C672.637 224.22 672.9 224.976 673.064 225.819C673.234 226.663 673.299 227.583 673.258 228.579ZM664.231 229.326C664.19 229.736 664.19 230.103 664.231 230.425C664.272 230.747 664.352 231.02 664.469 231.242C664.586 231.465 664.738 231.635 664.926 231.752C665.119 231.863 665.345 231.919 665.603 231.919C665.772 231.919 665.951 231.878 666.139 231.796C666.326 231.708 666.511 231.573 666.692 231.392C666.874 231.21 667.044 230.973 667.202 230.68C667.36 230.387 667.492 230.035 667.598 229.625L668.178 230.258C668.043 230.738 667.867 231.16 667.65 231.523C667.439 231.887 667.202 232.191 666.938 232.438C666.675 232.684 666.394 232.871 666.095 233C665.802 233.123 665.503 233.185 665.198 233.185C664.771 233.185 664.396 233.094 664.073 232.912C663.751 232.725 663.49 232.461 663.291 232.121C663.092 231.781 662.951 231.377 662.869 230.908C662.793 230.434 662.781 229.906 662.834 229.326C662.887 228.711 662.995 228.143 663.159 227.621C663.323 227.1 663.525 226.634 663.766 226.224C664.012 225.813 664.287 225.465 664.592 225.178C664.902 224.891 665.23 224.674 665.576 224.527C665.922 224.375 666.276 224.299 666.64 224.299C667.272 224.299 667.771 224.393 668.134 224.58C668.497 224.762 668.843 224.979 669.171 225.23L668.424 226.101C668.254 225.937 668.031 225.784 667.756 225.644C667.48 225.503 667.155 225.433 666.78 225.433C666.458 225.433 666.156 225.515 665.875 225.679C665.594 225.843 665.339 226.089 665.11 226.417C664.888 226.745 664.7 227.152 664.548 227.639C664.396 228.119 664.29 228.682 664.231 229.326ZM677.178 219.5V233H675.543V219.5H677.178ZM683.734 233.176C683.072 233.176 682.472 233.064 681.933 232.842C681.399 232.613 680.939 232.294 680.553 231.884C680.172 231.474 679.879 230.987 679.674 230.425C679.469 229.862 679.366 229.247 679.366 228.579V228.21C679.366 227.437 679.48 226.748 679.709 226.145C679.938 225.535 680.248 225.02 680.641 224.598C681.033 224.176 681.479 223.856 681.977 223.64C682.475 223.423 682.99 223.314 683.523 223.314C684.203 223.314 684.789 223.432 685.281 223.666C685.779 223.9 686.187 224.229 686.503 224.65C686.819 225.066 687.054 225.559 687.206 226.127C687.358 226.689 687.435 227.305 687.435 227.973V228.702H680.333V227.375H685.809V227.252C685.785 226.83 685.697 226.42 685.545 226.021C685.398 225.623 685.164 225.295 684.842 225.037C684.52 224.779 684.08 224.65 683.523 224.65C683.154 224.65 682.814 224.729 682.504 224.888C682.193 225.04 681.927 225.269 681.704 225.573C681.481 225.878 681.309 226.25 681.186 226.689C681.062 227.129 681.001 227.636 681.001 228.21V228.579C681.001 229.03 681.062 229.455 681.186 229.854C681.314 230.246 681.499 230.592 681.739 230.891C681.985 231.189 682.281 231.424 682.627 231.594C682.979 231.764 683.377 231.849 683.822 231.849C684.396 231.849 684.883 231.731 685.281 231.497C685.68 231.263 686.028 230.949 686.327 230.557L687.312 231.339C687.106 231.649 686.846 231.945 686.529 232.227C686.213 232.508 685.823 232.736 685.36 232.912C684.903 233.088 684.361 233.176 683.734 233.176ZM695.494 223.49H696.971V232.798C696.971 233.636 696.801 234.351 696.461 234.942C696.121 235.534 695.646 235.982 695.037 236.287C694.434 236.598 693.736 236.753 692.945 236.753C692.617 236.753 692.23 236.7 691.785 236.595C691.346 236.495 690.912 236.322 690.484 236.076C690.062 235.836 689.708 235.511 689.421 235.101L690.273 234.134C690.672 234.614 691.088 234.948 691.521 235.136C691.961 235.323 692.395 235.417 692.822 235.417C693.338 235.417 693.783 235.32 694.158 235.127C694.533 234.934 694.823 234.646 695.028 234.266C695.239 233.891 695.345 233.428 695.345 232.877V225.582L695.494 223.49ZM688.946 228.351V228.166C688.946 227.439 689.031 226.78 689.201 226.188C689.377 225.591 689.626 225.078 689.948 224.65C690.276 224.223 690.672 223.895 691.135 223.666C691.598 223.432 692.119 223.314 692.699 223.314C693.297 223.314 693.818 223.42 694.264 223.631C694.715 223.836 695.096 224.138 695.406 224.536C695.723 224.929 695.972 225.403 696.153 225.96C696.335 226.517 696.461 227.146 696.531 227.85V228.658C696.467 229.355 696.341 229.982 696.153 230.539C695.972 231.096 695.723 231.57 695.406 231.963C695.096 232.355 694.715 232.657 694.264 232.868C693.812 233.073 693.285 233.176 692.682 233.176C692.113 233.176 691.598 233.056 691.135 232.815C690.678 232.575 690.285 232.238 689.957 231.805C689.629 231.371 689.377 230.861 689.201 230.275C689.031 229.684 688.946 229.042 688.946 228.351ZM690.572 228.166V228.351C690.572 228.825 690.619 229.271 690.713 229.687C690.812 230.103 690.962 230.469 691.161 230.785C691.366 231.102 691.627 231.351 691.943 231.532C692.26 231.708 692.638 231.796 693.077 231.796C693.616 231.796 694.062 231.682 694.413 231.453C694.765 231.225 695.043 230.923 695.248 230.548C695.459 230.173 695.623 229.766 695.74 229.326V227.208C695.676 226.886 695.576 226.575 695.441 226.276C695.312 225.972 695.143 225.702 694.932 225.468C694.727 225.228 694.472 225.037 694.167 224.896C693.862 224.756 693.505 224.686 693.095 224.686C692.649 224.686 692.266 224.779 691.943 224.967C691.627 225.148 691.366 225.4 691.161 225.723C690.962 226.039 690.812 226.408 690.713 226.83C690.619 227.246 690.572 227.691 690.572 228.166ZM705.048 231.374V226.479C705.048 226.104 704.972 225.778 704.819 225.503C704.673 225.222 704.45 225.005 704.151 224.853C703.853 224.7 703.483 224.624 703.044 224.624C702.634 224.624 702.273 224.694 701.963 224.835C701.658 224.976 701.418 225.16 701.242 225.389C701.072 225.617 700.987 225.863 700.987 226.127H699.361C699.361 225.787 699.449 225.45 699.625 225.116C699.801 224.782 700.053 224.48 700.381 224.211C700.715 223.936 701.113 223.719 701.576 223.561C702.045 223.396 702.566 223.314 703.141 223.314C703.832 223.314 704.441 223.432 704.969 223.666C705.502 223.9 705.918 224.255 706.217 224.729C706.521 225.198 706.674 225.787 706.674 226.496V230.926C706.674 231.242 706.7 231.579 706.753 231.937C706.812 232.294 706.896 232.602 707.008 232.859V233H705.312C705.229 232.812 705.165 232.563 705.118 232.253C705.071 231.937 705.048 231.644 705.048 231.374ZM705.329 227.234L705.347 228.377H703.703C703.24 228.377 702.827 228.415 702.464 228.491C702.101 228.562 701.796 228.67 701.55 228.816C701.304 228.963 701.116 229.147 700.987 229.37C700.858 229.587 700.794 229.842 700.794 230.135C700.794 230.434 700.861 230.706 700.996 230.952C701.131 231.198 701.333 231.395 701.603 231.541C701.878 231.682 702.215 231.752 702.613 231.752C703.111 231.752 703.551 231.646 703.932 231.436C704.312 231.225 704.614 230.967 704.837 230.662C705.065 230.357 705.188 230.062 705.206 229.774L705.9 230.557C705.859 230.803 705.748 231.075 705.566 231.374C705.385 231.673 705.142 231.96 704.837 232.235C704.538 232.505 704.181 232.73 703.765 232.912C703.354 233.088 702.892 233.176 702.376 233.176C701.731 233.176 701.166 233.05 700.68 232.798C700.199 232.546 699.824 232.209 699.555 231.787C699.291 231.359 699.159 230.882 699.159 230.354C699.159 229.845 699.259 229.396 699.458 229.01C699.657 228.617 699.944 228.292 700.319 228.034C700.694 227.771 701.146 227.571 701.673 227.437C702.2 227.302 702.789 227.234 703.439 227.234H705.329ZM713.037 231.84C713.424 231.84 713.781 231.761 714.109 231.603C714.438 231.444 714.707 231.228 714.918 230.952C715.129 230.671 715.249 230.352 715.278 229.994H716.825C716.796 230.557 716.605 231.081 716.254 231.567C715.908 232.048 715.454 232.438 714.892 232.736C714.329 233.029 713.711 233.176 713.037 233.176C712.322 233.176 711.698 233.05 711.165 232.798C710.638 232.546 710.198 232.2 709.847 231.761C709.501 231.321 709.24 230.817 709.064 230.249C708.895 229.675 708.81 229.068 708.81 228.43V228.061C708.81 227.422 708.895 226.818 709.064 226.25C709.24 225.676 709.501 225.169 709.847 224.729C710.198 224.29 710.638 223.944 711.165 223.692C711.698 223.44 712.322 223.314 713.037 223.314C713.781 223.314 714.432 223.467 714.988 223.771C715.545 224.07 715.981 224.48 716.298 225.002C716.62 225.518 716.796 226.104 716.825 226.76H715.278C715.249 226.367 715.138 226.013 714.944 225.696C714.757 225.38 714.499 225.128 714.171 224.94C713.849 224.747 713.471 224.65 713.037 224.65C712.539 224.65 712.12 224.75 711.78 224.949C711.446 225.143 711.18 225.406 710.98 225.74C710.787 226.068 710.646 226.435 710.559 226.839C710.477 227.237 710.436 227.645 710.436 228.061V228.43C710.436 228.846 710.477 229.256 710.559 229.66C710.641 230.064 710.778 230.431 710.972 230.759C711.171 231.087 711.438 231.351 711.771 231.55C712.111 231.743 712.533 231.84 713.037 231.84ZM721.325 232.016L723.971 223.49H725.711L721.896 234.468C721.809 234.702 721.691 234.954 721.545 235.224C721.404 235.499 721.223 235.76 721 236.006C720.777 236.252 720.508 236.451 720.191 236.604C719.881 236.762 719.509 236.841 719.075 236.841C718.946 236.841 718.782 236.823 718.583 236.788C718.384 236.753 718.243 236.724 718.161 236.7L718.152 235.382C718.199 235.388 718.272 235.394 718.372 235.399C718.478 235.411 718.551 235.417 718.592 235.417C718.961 235.417 719.274 235.367 719.532 235.268C719.79 235.174 720.007 235.013 720.183 234.784C720.364 234.562 720.52 234.254 720.648 233.861L721.325 232.016ZM719.383 223.49L721.853 230.873L722.274 232.587L721.105 233.185L717.607 223.49H719.383ZM728.277 223.49L730.36 226.953L732.47 223.49H734.377L731.266 228.184L734.474 233H732.593L730.396 229.432L728.198 233H726.309L729.508 228.184L726.405 223.49H728.277ZM738.78 232.016L741.426 223.49H743.166L739.352 234.468C739.264 234.702 739.146 234.954 739 235.224C738.859 235.499 738.678 235.76 738.455 236.006C738.232 236.252 737.963 236.451 737.646 236.604C737.336 236.762 736.964 236.841 736.53 236.841C736.401 236.841 736.237 236.823 736.038 236.788C735.839 236.753 735.698 236.724 735.616 236.7L735.607 235.382C735.654 235.388 735.728 235.394 735.827 235.399C735.933 235.411 736.006 235.417 736.047 235.417C736.416 235.417 736.729 235.367 736.987 235.268C737.245 235.174 737.462 235.013 737.638 234.784C737.819 234.562 737.975 234.254 738.104 233.861L738.78 232.016ZM736.838 223.49L739.308 230.873L739.729 232.587L738.561 233.185L735.062 223.49H736.838ZM751.718 231.664V233H744.801V231.664H751.718ZM751.463 224.642L745.17 233H744.177V231.805L750.426 223.49H751.463V224.642ZM750.742 223.49V224.835H744.247V223.49H750.742Z" fill="#838383"/>
<path d="M369.097 293.582V295.533C369.097 296.582 369.003 297.467 368.815 298.188C368.628 298.908 368.358 299.488 368.007 299.928C367.655 300.367 367.23 300.687 366.732 300.886C366.24 301.079 365.684 301.176 365.062 301.176C364.57 301.176 364.116 301.114 363.7 300.991C363.284 300.868 362.909 300.672 362.575 300.402C362.247 300.127 361.966 299.77 361.731 299.33C361.497 298.891 361.318 298.357 361.195 297.73C361.072 297.104 361.011 296.371 361.011 295.533V293.582C361.011 292.533 361.104 291.654 361.292 290.945C361.485 290.236 361.758 289.668 362.109 289.24C362.461 288.807 362.883 288.496 363.375 288.309C363.873 288.121 364.43 288.027 365.045 288.027C365.543 288.027 366 288.089 366.416 288.212C366.838 288.329 367.213 288.52 367.541 288.783C367.869 289.041 368.147 289.387 368.376 289.82C368.61 290.248 368.789 290.772 368.912 291.394C369.035 292.015 369.097 292.744 369.097 293.582ZM367.462 295.797V293.31C367.462 292.735 367.427 292.231 367.356 291.798C367.292 291.358 367.195 290.983 367.066 290.673C366.938 290.362 366.773 290.11 366.574 289.917C366.381 289.724 366.155 289.583 365.897 289.495C365.646 289.401 365.361 289.354 365.045 289.354C364.658 289.354 364.315 289.428 364.017 289.574C363.718 289.715 363.466 289.94 363.261 290.251C363.062 290.562 362.909 290.969 362.804 291.473C362.698 291.977 362.646 292.589 362.646 293.31V295.797C362.646 296.371 362.678 296.878 362.742 297.317C362.812 297.757 362.915 298.138 363.05 298.46C363.185 298.776 363.349 299.037 363.542 299.242C363.735 299.447 363.958 299.6 364.21 299.699C364.468 299.793 364.752 299.84 365.062 299.84C365.461 299.84 365.81 299.764 366.108 299.611C366.407 299.459 366.656 299.222 366.855 298.899C367.061 298.571 367.213 298.152 367.312 297.643C367.412 297.127 367.462 296.512 367.462 295.797ZM372.463 291.49L374.546 294.953L376.655 291.49H378.562L375.451 296.184L378.659 301H376.778L374.581 297.432L372.384 301H370.494L373.693 296.184L370.591 291.49H372.463ZM382.175 294.909L380.874 294.575L381.516 288.203H388.081V289.706H382.896L382.509 293.187C382.743 293.052 383.039 292.926 383.396 292.809C383.76 292.691 384.176 292.633 384.645 292.633C385.236 292.633 385.767 292.735 386.235 292.94C386.704 293.14 387.103 293.427 387.431 293.802C387.765 294.177 388.02 294.628 388.195 295.155C388.371 295.683 388.459 296.271 388.459 296.922C388.459 297.537 388.374 298.103 388.204 298.618C388.04 299.134 387.791 299.585 387.457 299.972C387.123 300.353 386.701 300.648 386.191 300.859C385.688 301.07 385.093 301.176 384.407 301.176C383.892 301.176 383.402 301.105 382.939 300.965C382.482 300.818 382.072 300.599 381.709 300.306C381.352 300.007 381.059 299.638 380.83 299.198C380.607 298.753 380.467 298.231 380.408 297.634H381.955C382.025 298.114 382.166 298.519 382.377 298.847C382.588 299.175 382.863 299.424 383.203 299.594C383.549 299.758 383.95 299.84 384.407 299.84C384.794 299.84 385.137 299.772 385.436 299.638C385.734 299.503 385.986 299.31 386.191 299.058C386.396 298.806 386.552 298.501 386.657 298.144C386.769 297.786 386.824 297.385 386.824 296.939C386.824 296.535 386.769 296.16 386.657 295.814C386.546 295.469 386.379 295.167 386.156 294.909C385.939 294.651 385.673 294.452 385.356 294.312C385.04 294.165 384.677 294.092 384.267 294.092C383.722 294.092 383.309 294.165 383.027 294.312C382.752 294.458 382.468 294.657 382.175 294.909ZM398.892 296.693V298.029H389.646V297.071L395.376 288.203H396.703L395.279 290.77L391.491 296.693H398.892ZM397.107 288.203V301H395.481V288.203H397.107ZM408.437 297.537C408.437 298.316 408.255 298.979 407.892 299.523C407.534 300.062 407.048 300.473 406.433 300.754C405.823 301.035 405.135 301.176 404.367 301.176C403.6 301.176 402.908 301.035 402.293 300.754C401.678 300.473 401.191 300.062 400.834 299.523C400.477 298.979 400.298 298.316 400.298 297.537C400.298 297.027 400.395 296.562 400.588 296.14C400.787 295.712 401.065 295.34 401.423 295.023C401.786 294.707 402.214 294.464 402.706 294.294C403.204 294.118 403.752 294.03 404.35 294.03C405.135 294.03 405.835 294.183 406.45 294.487C407.065 294.786 407.549 295.199 407.9 295.727C408.258 296.254 408.437 296.857 408.437 297.537ZM406.802 297.502C406.802 297.027 406.699 296.608 406.494 296.245C406.289 295.876 406.002 295.589 405.633 295.384C405.264 295.179 404.836 295.076 404.35 295.076C403.852 295.076 403.421 295.179 403.058 295.384C402.7 295.589 402.422 295.876 402.223 296.245C402.023 296.608 401.924 297.027 401.924 297.502C401.924 297.994 402.021 298.416 402.214 298.768C402.413 299.113 402.694 299.38 403.058 299.567C403.427 299.749 403.863 299.84 404.367 299.84C404.871 299.84 405.305 299.749 405.668 299.567C406.031 299.38 406.31 299.113 406.503 298.768C406.702 298.416 406.802 297.994 406.802 297.502ZM408.138 291.534C408.138 292.155 407.974 292.715 407.646 293.213C407.317 293.711 406.869 294.104 406.301 294.391C405.732 294.678 405.088 294.821 404.367 294.821C403.635 294.821 402.981 294.678 402.407 294.391C401.839 294.104 401.394 293.711 401.071 293.213C400.749 292.715 400.588 292.155 400.588 291.534C400.588 290.79 400.749 290.157 401.071 289.636C401.399 289.114 401.848 288.716 402.416 288.44C402.984 288.165 403.632 288.027 404.358 288.027C405.091 288.027 405.741 288.165 406.31 288.44C406.878 288.716 407.323 289.114 407.646 289.636C407.974 290.157 408.138 290.79 408.138 291.534ZM406.512 291.561C406.512 291.133 406.421 290.755 406.239 290.427C406.058 290.099 405.806 289.841 405.483 289.653C405.161 289.46 404.786 289.363 404.358 289.363C403.931 289.363 403.556 289.454 403.233 289.636C402.917 289.812 402.668 290.063 402.486 290.392C402.311 290.72 402.223 291.109 402.223 291.561C402.223 292 402.311 292.384 402.486 292.712C402.668 293.04 402.92 293.295 403.242 293.477C403.564 293.658 403.939 293.749 404.367 293.749C404.795 293.749 405.167 293.658 405.483 293.477C405.806 293.295 406.058 293.04 406.239 292.712C406.421 292.384 406.512 292 406.512 291.561ZM412.11 299.638H412.277C413.215 299.638 413.977 299.506 414.562 299.242C415.148 298.979 415.6 298.624 415.916 298.179C416.232 297.733 416.449 297.232 416.566 296.676C416.684 296.113 416.742 295.536 416.742 294.944V292.984C416.742 292.404 416.675 291.889 416.54 291.438C416.411 290.986 416.229 290.608 415.995 290.304C415.767 289.999 415.506 289.768 415.213 289.609C414.92 289.451 414.609 289.372 414.281 289.372C413.906 289.372 413.569 289.448 413.271 289.601C412.978 289.747 412.729 289.955 412.523 290.225C412.324 290.494 412.172 290.811 412.066 291.174C411.961 291.537 411.908 291.933 411.908 292.36C411.908 292.741 411.955 293.11 412.049 293.468C412.143 293.825 412.286 294.147 412.479 294.435C412.673 294.722 412.913 294.95 413.2 295.12C413.493 295.284 413.836 295.366 414.229 295.366C414.592 295.366 414.932 295.296 415.248 295.155C415.57 295.009 415.854 294.812 416.101 294.566C416.353 294.314 416.552 294.03 416.698 293.714C416.851 293.397 416.938 293.066 416.962 292.721H417.735C417.735 293.207 417.639 293.688 417.445 294.162C417.258 294.631 416.994 295.059 416.654 295.445C416.314 295.832 415.916 296.143 415.459 296.377C415.002 296.605 414.504 296.72 413.965 296.72C413.332 296.72 412.784 296.597 412.321 296.351C411.858 296.104 411.478 295.776 411.179 295.366C410.886 294.956 410.666 294.499 410.52 293.995C410.379 293.485 410.309 292.97 410.309 292.448C410.309 291.839 410.394 291.268 410.563 290.734C410.733 290.201 410.985 289.732 411.319 289.328C411.653 288.918 412.066 288.599 412.559 288.37C413.057 288.142 413.631 288.027 414.281 288.027C415.014 288.027 415.638 288.174 416.153 288.467C416.669 288.76 417.088 289.152 417.41 289.645C417.738 290.137 417.979 290.69 418.131 291.306C418.283 291.921 418.359 292.554 418.359 293.204V293.793C418.359 294.455 418.315 295.129 418.228 295.814C418.146 296.494 417.984 297.145 417.744 297.766C417.51 298.387 417.167 298.943 416.716 299.436C416.265 299.922 415.676 300.309 414.949 300.596C414.229 300.877 413.338 301.018 412.277 301.018H412.11V299.638ZM428.687 297.537C428.687 298.316 428.505 298.979 428.142 299.523C427.784 300.062 427.298 300.473 426.683 300.754C426.073 301.035 425.385 301.176 424.617 301.176C423.85 301.176 423.158 301.035 422.543 300.754C421.928 300.473 421.441 300.062 421.084 299.523C420.727 298.979 420.548 298.316 420.548 297.537C420.548 297.027 420.645 296.562 420.838 296.14C421.037 295.712 421.315 295.34 421.673 295.023C422.036 294.707 422.464 294.464 422.956 294.294C423.454 294.118 424.002 294.03 424.6 294.03C425.385 294.03 426.085 294.183 426.7 294.487C427.315 294.786 427.799 295.199 428.15 295.727C428.508 296.254 428.687 296.857 428.687 297.537ZM427.052 297.502C427.052 297.027 426.949 296.608 426.744 296.245C426.539 295.876 426.252 295.589 425.883 295.384C425.514 295.179 425.086 295.076 424.6 295.076C424.102 295.076 423.671 295.179 423.308 295.384C422.95 295.589 422.672 295.876 422.473 296.245C422.273 296.608 422.174 297.027 422.174 297.502C422.174 297.994 422.271 298.416 422.464 298.768C422.663 299.113 422.944 299.38 423.308 299.567C423.677 299.749 424.113 299.84 424.617 299.84C425.121 299.84 425.555 299.749 425.918 299.567C426.281 299.38 426.56 299.113 426.753 298.768C426.952 298.416 427.052 297.994 427.052 297.502ZM428.388 291.534C428.388 292.155 428.224 292.715 427.896 293.213C427.567 293.711 427.119 294.104 426.551 294.391C425.982 294.678 425.338 294.821 424.617 294.821C423.885 294.821 423.231 294.678 422.657 294.391C422.089 294.104 421.644 293.711 421.321 293.213C420.999 292.715 420.838 292.155 420.838 291.534C420.838 290.79 420.999 290.157 421.321 289.636C421.649 289.114 422.098 288.716 422.666 288.44C423.234 288.165 423.882 288.027 424.608 288.027C425.341 288.027 425.991 288.165 426.56 288.44C427.128 288.716 427.573 289.114 427.896 289.636C428.224 290.157 428.388 290.79 428.388 291.534ZM426.762 291.561C426.762 291.133 426.671 290.755 426.489 290.427C426.308 290.099 426.056 289.841 425.733 289.653C425.411 289.46 425.036 289.363 424.608 289.363C424.181 289.363 423.806 289.454 423.483 289.636C423.167 289.812 422.918 290.063 422.736 290.392C422.561 290.72 422.473 291.109 422.473 291.561C422.473 292 422.561 292.384 422.736 292.712C422.918 293.04 423.17 293.295 423.492 293.477C423.814 293.658 424.189 293.749 424.617 293.749C425.045 293.749 425.417 293.658 425.733 293.477C426.056 293.295 426.308 293.04 426.489 292.712C426.671 292.384 426.762 292 426.762 291.561ZM436.737 298.803V291.49H438.372V301H436.816L436.737 298.803ZM437.045 296.799L437.722 296.781C437.722 297.414 437.654 298 437.52 298.539C437.391 299.072 437.18 299.535 436.887 299.928C436.594 300.32 436.21 300.628 435.735 300.851C435.261 301.067 434.684 301.176 434.004 301.176C433.541 301.176 433.116 301.108 432.729 300.974C432.349 300.839 432.021 300.631 431.745 300.35C431.47 300.068 431.256 299.702 431.104 299.251C430.957 298.8 430.884 298.258 430.884 297.625V291.49H432.51V297.643C432.51 298.07 432.557 298.425 432.65 298.706C432.75 298.981 432.882 299.201 433.046 299.365C433.216 299.523 433.403 299.635 433.608 299.699C433.819 299.764 434.036 299.796 434.259 299.796C434.95 299.796 435.498 299.664 435.902 299.4C436.307 299.131 436.597 298.771 436.772 298.319C436.954 297.862 437.045 297.355 437.045 296.799ZM442.731 294.909L441.431 294.575L442.072 288.203H448.638V289.706H443.452L443.065 293.187C443.3 293.052 443.596 292.926 443.953 292.809C444.316 292.691 444.732 292.633 445.201 292.633C445.793 292.633 446.323 292.735 446.792 292.94C447.261 293.14 447.659 293.427 447.987 293.802C448.321 294.177 448.576 294.628 448.752 295.155C448.928 295.683 449.016 296.271 449.016 296.922C449.016 297.537 448.931 298.103 448.761 298.618C448.597 299.134 448.348 299.585 448.014 299.972C447.68 300.353 447.258 300.648 446.748 300.859C446.244 301.07 445.649 301.176 444.964 301.176C444.448 301.176 443.959 301.105 443.496 300.965C443.039 300.818 442.629 300.599 442.266 300.306C441.908 300.007 441.615 299.638 441.387 299.198C441.164 298.753 441.023 298.231 440.965 297.634H442.512C442.582 298.114 442.723 298.519 442.934 298.847C443.145 299.175 443.42 299.424 443.76 299.594C444.105 299.758 444.507 299.84 444.964 299.84C445.351 299.84 445.693 299.772 445.992 299.638C446.291 299.503 446.543 299.31 446.748 299.058C446.953 298.806 447.108 298.501 447.214 298.144C447.325 297.786 447.381 297.385 447.381 296.939C447.381 296.535 447.325 296.16 447.214 295.814C447.103 295.469 446.936 295.167 446.713 294.909C446.496 294.651 446.229 294.452 445.913 294.312C445.597 294.165 445.233 294.092 444.823 294.092C444.278 294.092 443.865 294.165 443.584 294.312C443.309 294.458 443.024 294.657 442.731 294.909ZM458.868 297.537C458.868 298.316 458.687 298.979 458.323 299.523C457.966 300.062 457.479 300.473 456.864 300.754C456.255 301.035 455.566 301.176 454.799 301.176C454.031 301.176 453.34 301.035 452.725 300.754C452.109 300.473 451.623 300.062 451.266 299.523C450.908 298.979 450.729 298.316 450.729 297.537C450.729 297.027 450.826 296.562 451.02 296.14C451.219 295.712 451.497 295.34 451.854 295.023C452.218 294.707 452.646 294.464 453.138 294.294C453.636 294.118 454.184 294.03 454.781 294.03C455.566 294.03 456.267 294.183 456.882 294.487C457.497 294.786 457.98 295.199 458.332 295.727C458.689 296.254 458.868 296.857 458.868 297.537ZM457.233 297.502C457.233 297.027 457.131 296.608 456.926 296.245C456.721 295.876 456.434 295.589 456.064 295.384C455.695 295.179 455.268 295.076 454.781 295.076C454.283 295.076 453.853 295.179 453.489 295.384C453.132 295.589 452.854 295.876 452.654 296.245C452.455 296.608 452.355 297.027 452.355 297.502C452.355 297.994 452.452 298.416 452.646 298.768C452.845 299.113 453.126 299.38 453.489 299.567C453.858 299.749 454.295 299.84 454.799 299.84C455.303 299.84 455.736 299.749 456.1 299.567C456.463 299.38 456.741 299.113 456.935 298.768C457.134 298.416 457.233 297.994 457.233 297.502ZM458.569 291.534C458.569 292.155 458.405 292.715 458.077 293.213C457.749 293.711 457.301 294.104 456.732 294.391C456.164 294.678 455.52 294.821 454.799 294.821C454.066 294.821 453.413 294.678 452.839 294.391C452.271 294.104 451.825 293.711 451.503 293.213C451.181 292.715 451.02 292.155 451.02 291.534C451.02 290.79 451.181 290.157 451.503 289.636C451.831 289.114 452.279 288.716 452.848 288.44C453.416 288.165 454.063 288.027 454.79 288.027C455.522 288.027 456.173 288.165 456.741 288.44C457.31 288.716 457.755 289.114 458.077 289.636C458.405 290.157 458.569 290.79 458.569 291.534ZM456.943 291.561C456.943 291.133 456.853 290.755 456.671 290.427C456.489 290.099 456.237 289.841 455.915 289.653C455.593 289.46 455.218 289.363 454.79 289.363C454.362 289.363 453.987 289.454 453.665 289.636C453.349 289.812 453.1 290.063 452.918 290.392C452.742 290.72 452.654 291.109 452.654 291.561C452.654 292 452.742 292.384 452.918 292.712C453.1 293.04 453.352 293.295 453.674 293.477C453.996 293.658 454.371 293.749 454.799 293.749C455.227 293.749 455.599 293.658 455.915 293.477C456.237 293.295 456.489 293.04 456.671 292.712C456.853 292.384 456.943 292 456.943 291.561ZM462.542 299.638H462.709C463.646 299.638 464.408 299.506 464.994 299.242C465.58 298.979 466.031 298.624 466.348 298.179C466.664 297.733 466.881 297.232 466.998 296.676C467.115 296.113 467.174 295.536 467.174 294.944V292.984C467.174 292.404 467.106 291.889 466.972 291.438C466.843 290.986 466.661 290.608 466.427 290.304C466.198 289.999 465.938 289.768 465.645 289.609C465.352 289.451 465.041 289.372 464.713 289.372C464.338 289.372 464.001 289.448 463.702 289.601C463.409 289.747 463.16 289.955 462.955 290.225C462.756 290.494 462.604 290.811 462.498 291.174C462.393 291.537 462.34 291.933 462.34 292.36C462.34 292.741 462.387 293.11 462.48 293.468C462.574 293.825 462.718 294.147 462.911 294.435C463.104 294.722 463.345 294.95 463.632 295.12C463.925 295.284 464.268 295.366 464.66 295.366C465.023 295.366 465.363 295.296 465.68 295.155C466.002 295.009 466.286 294.812 466.532 294.566C466.784 294.314 466.983 294.03 467.13 293.714C467.282 293.397 467.37 293.066 467.394 292.721H468.167C468.167 293.207 468.07 293.688 467.877 294.162C467.689 294.631 467.426 295.059 467.086 295.445C466.746 295.832 466.348 296.143 465.891 296.377C465.434 296.605 464.936 296.72 464.396 296.72C463.764 296.72 463.216 296.597 462.753 296.351C462.29 296.104 461.909 295.776 461.61 295.366C461.317 294.956 461.098 294.499 460.951 293.995C460.811 293.485 460.74 292.97 460.74 292.448C460.74 291.839 460.825 291.268 460.995 290.734C461.165 290.201 461.417 289.732 461.751 289.328C462.085 288.918 462.498 288.599 462.99 288.37C463.488 288.142 464.062 288.027 464.713 288.027C465.445 288.027 466.069 288.174 466.585 288.467C467.101 288.76 467.52 289.152 467.842 289.645C468.17 290.137 468.41 290.69 468.562 291.306C468.715 291.921 468.791 292.554 468.791 293.204V293.793C468.791 294.455 468.747 295.129 468.659 295.814C468.577 296.494 468.416 297.145 468.176 297.766C467.941 298.387 467.599 298.943 467.147 299.436C466.696 299.922 466.107 300.309 465.381 300.596C464.66 300.877 463.77 301.018 462.709 301.018H462.542V299.638ZM477.22 299.154V287.5H478.854V301H477.36L477.22 299.154ZM470.821 296.351V296.166C470.821 295.439 470.909 294.78 471.085 294.188C471.267 293.591 471.521 293.078 471.85 292.65C472.184 292.223 472.579 291.895 473.036 291.666C473.499 291.432 474.015 291.314 474.583 291.314C475.181 291.314 475.702 291.42 476.147 291.631C476.599 291.836 476.979 292.138 477.29 292.536C477.606 292.929 477.855 293.403 478.037 293.96C478.219 294.517 478.345 295.146 478.415 295.85V296.658C478.351 297.355 478.225 297.982 478.037 298.539C477.855 299.096 477.606 299.57 477.29 299.963C476.979 300.355 476.599 300.657 476.147 300.868C475.696 301.073 475.169 301.176 474.565 301.176C474.009 301.176 473.499 301.056 473.036 300.815C472.579 300.575 472.184 300.238 471.85 299.805C471.521 299.371 471.267 298.861 471.085 298.275C470.909 297.684 470.821 297.042 470.821 296.351ZM472.456 296.166V296.351C472.456 296.825 472.503 297.271 472.597 297.687C472.696 298.103 472.849 298.469 473.054 298.785C473.259 299.102 473.52 299.351 473.836 299.532C474.152 299.708 474.53 299.796 474.97 299.796C475.509 299.796 475.951 299.682 476.297 299.453C476.648 299.225 476.93 298.923 477.141 298.548C477.352 298.173 477.516 297.766 477.633 297.326V295.208C477.562 294.886 477.46 294.575 477.325 294.276C477.196 293.972 477.026 293.702 476.815 293.468C476.61 293.228 476.355 293.037 476.051 292.896C475.752 292.756 475.397 292.686 474.987 292.686C474.542 292.686 474.158 292.779 473.836 292.967C473.52 293.148 473.259 293.4 473.054 293.723C472.849 294.039 472.696 294.408 472.597 294.83C472.503 295.246 472.456 295.691 472.456 296.166ZM375.258 316.579C375.234 317.118 375.152 317.66 375.012 318.205C374.871 318.744 374.66 319.239 374.379 319.69C374.098 320.142 373.731 320.505 373.28 320.78C372.835 321.05 372.296 321.185 371.663 321.185C371.259 321.185 370.904 321.114 370.6 320.974C370.301 320.827 370.055 320.619 369.861 320.35C369.674 320.08 369.542 319.755 369.466 319.374C369.396 318.993 369.384 318.568 369.431 318.1L369.879 313.23H371.171L370.723 318.1C370.688 318.527 370.696 318.876 370.749 319.146C370.808 319.415 370.896 319.623 371.013 319.77C371.13 319.91 371.262 320.007 371.408 320.06C371.561 320.112 371.707 320.139 371.848 320.139C372.199 320.139 372.513 320.048 372.788 319.866C373.063 319.679 373.295 319.424 373.482 319.102C373.676 318.773 373.825 318.396 373.931 317.968C374.036 317.534 374.101 317.071 374.124 316.579C374.165 315.706 374.124 314.903 374.001 314.171C373.884 313.438 373.682 312.788 373.395 312.22C373.113 311.651 372.744 311.171 372.287 310.778C371.83 310.386 371.285 310.087 370.652 309.882C370.02 309.677 369.296 309.574 368.481 309.574C367.743 309.574 367.061 309.688 366.434 309.917C365.812 310.14 365.253 310.462 364.755 310.884C364.263 311.306 363.838 311.812 363.48 312.404C363.129 312.996 362.851 313.664 362.646 314.408C362.446 315.146 362.329 315.943 362.294 316.799C362.253 317.678 362.3 318.486 362.435 319.225C362.569 319.957 362.786 320.61 363.085 321.185C363.39 321.765 363.773 322.254 364.236 322.652C364.699 323.057 365.235 323.361 365.845 323.566C366.454 323.777 367.134 323.883 367.884 323.883C368.399 323.883 368.921 323.821 369.448 323.698C369.981 323.575 370.427 323.408 370.784 323.197L371.118 324.199C370.708 324.463 370.195 324.659 369.58 324.788C368.971 324.917 368.394 324.981 367.849 324.981C366.958 324.981 366.144 324.858 365.405 324.612C364.673 324.372 364.022 324.018 363.454 323.549C362.892 323.086 362.423 322.521 362.048 321.853C361.673 321.19 361.397 320.435 361.222 319.585C361.046 318.735 360.979 317.807 361.02 316.799C361.061 315.838 361.204 314.933 361.45 314.083C361.702 313.233 362.045 312.463 362.479 311.771C362.912 311.08 363.428 310.485 364.025 309.987C364.629 309.483 365.306 309.097 366.056 308.827C366.812 308.558 367.632 308.423 368.517 308.423C369.419 308.423 370.236 308.546 370.969 308.792C371.701 309.038 372.343 309.393 372.894 309.855C373.45 310.318 373.91 310.884 374.273 311.552C374.637 312.22 374.9 312.976 375.064 313.819C375.234 314.663 375.299 315.583 375.258 316.579ZM366.231 317.326C366.19 317.736 366.19 318.103 366.231 318.425C366.272 318.747 366.352 319.02 366.469 319.242C366.586 319.465 366.738 319.635 366.926 319.752C367.119 319.863 367.345 319.919 367.603 319.919C367.772 319.919 367.951 319.878 368.139 319.796C368.326 319.708 368.511 319.573 368.692 319.392C368.874 319.21 369.044 318.973 369.202 318.68C369.36 318.387 369.492 318.035 369.598 317.625L370.178 318.258C370.043 318.738 369.867 319.16 369.65 319.523C369.439 319.887 369.202 320.191 368.938 320.438C368.675 320.684 368.394 320.871 368.095 321C367.802 321.123 367.503 321.185 367.198 321.185C366.771 321.185 366.396 321.094 366.073 320.912C365.751 320.725 365.49 320.461 365.291 320.121C365.092 319.781 364.951 319.377 364.869 318.908C364.793 318.434 364.781 317.906 364.834 317.326C364.887 316.711 364.995 316.143 365.159 315.621C365.323 315.1 365.525 314.634 365.766 314.224C366.012 313.813 366.287 313.465 366.592 313.178C366.902 312.891 367.23 312.674 367.576 312.527C367.922 312.375 368.276 312.299 368.64 312.299C369.272 312.299 369.771 312.393 370.134 312.58C370.497 312.762 370.843 312.979 371.171 313.23L370.424 314.101C370.254 313.937 370.031 313.784 369.756 313.644C369.48 313.503 369.155 313.433 368.78 313.433C368.458 313.433 368.156 313.515 367.875 313.679C367.594 313.843 367.339 314.089 367.11 314.417C366.888 314.745 366.7 315.152 366.548 315.639C366.396 316.119 366.29 316.682 366.231 317.326ZM379.028 313.38V321H377.394V311.49H378.94L379.028 313.38ZM378.694 315.885L377.938 315.858C377.944 315.208 378.029 314.607 378.193 314.057C378.357 313.5 378.601 313.017 378.923 312.606C379.245 312.196 379.646 311.88 380.127 311.657C380.607 311.429 381.164 311.314 381.797 311.314C382.242 311.314 382.652 311.379 383.027 311.508C383.402 311.631 383.728 311.827 384.003 312.097C384.278 312.366 384.492 312.712 384.645 313.134C384.797 313.556 384.873 314.065 384.873 314.663V321H383.247V314.742C383.247 314.244 383.162 313.846 382.992 313.547C382.828 313.248 382.594 313.031 382.289 312.896C381.984 312.756 381.627 312.686 381.217 312.686C380.736 312.686 380.335 312.771 380.013 312.94C379.69 313.11 379.433 313.345 379.239 313.644C379.046 313.942 378.905 314.285 378.817 314.672C378.735 315.053 378.694 315.457 378.694 315.885ZM384.855 314.988L383.766 315.322C383.771 314.801 383.856 314.3 384.021 313.819C384.19 313.339 384.434 312.911 384.75 312.536C385.072 312.161 385.468 311.865 385.937 311.648C386.405 311.426 386.941 311.314 387.545 311.314C388.055 311.314 388.506 311.382 388.898 311.517C389.297 311.651 389.631 311.859 389.9 312.141C390.176 312.416 390.384 312.771 390.524 313.204C390.665 313.638 390.735 314.153 390.735 314.751V321H389.101V314.733C389.101 314.2 389.016 313.787 388.846 313.494C388.682 313.195 388.447 312.987 388.143 312.87C387.844 312.747 387.486 312.686 387.07 312.686C386.713 312.686 386.396 312.747 386.121 312.87C385.846 312.993 385.614 313.163 385.427 313.38C385.239 313.591 385.096 313.834 384.996 314.109C384.902 314.385 384.855 314.678 384.855 314.988ZM398.804 319.374V314.479C398.804 314.104 398.728 313.778 398.575 313.503C398.429 313.222 398.206 313.005 397.907 312.853C397.608 312.7 397.239 312.624 396.8 312.624C396.39 312.624 396.029 312.694 395.719 312.835C395.414 312.976 395.174 313.16 394.998 313.389C394.828 313.617 394.743 313.863 394.743 314.127H393.117C393.117 313.787 393.205 313.45 393.381 313.116C393.557 312.782 393.809 312.48 394.137 312.211C394.471 311.936 394.869 311.719 395.332 311.561C395.801 311.396 396.322 311.314 396.896 311.314C397.588 311.314 398.197 311.432 398.725 311.666C399.258 311.9 399.674 312.255 399.973 312.729C400.277 313.198 400.43 313.787 400.43 314.496V318.926C400.43 319.242 400.456 319.579 400.509 319.937C400.567 320.294 400.652 320.602 400.764 320.859V321H399.067C398.985 320.812 398.921 320.563 398.874 320.253C398.827 319.937 398.804 319.644 398.804 319.374ZM399.085 315.234L399.103 316.377H397.459C396.996 316.377 396.583 316.415 396.22 316.491C395.856 316.562 395.552 316.67 395.306 316.816C395.06 316.963 394.872 317.147 394.743 317.37C394.614 317.587 394.55 317.842 394.55 318.135C394.55 318.434 394.617 318.706 394.752 318.952C394.887 319.198 395.089 319.395 395.358 319.541C395.634 319.682 395.971 319.752 396.369 319.752C396.867 319.752 397.307 319.646 397.688 319.436C398.068 319.225 398.37 318.967 398.593 318.662C398.821 318.357 398.944 318.062 398.962 317.774L399.656 318.557C399.615 318.803 399.504 319.075 399.322 319.374C399.141 319.673 398.897 319.96 398.593 320.235C398.294 320.505 397.937 320.73 397.521 320.912C397.11 321.088 396.647 321.176 396.132 321.176C395.487 321.176 394.922 321.05 394.436 320.798C393.955 320.546 393.58 320.209 393.311 319.787C393.047 319.359 392.915 318.882 392.915 318.354C392.915 317.845 393.015 317.396 393.214 317.01C393.413 316.617 393.7 316.292 394.075 316.034C394.45 315.771 394.901 315.571 395.429 315.437C395.956 315.302 396.545 315.234 397.195 315.234H399.085ZM406.969 311.49V312.738H401.827V311.49H406.969ZM403.567 309.179H405.193V318.645C405.193 318.967 405.243 319.21 405.343 319.374C405.442 319.538 405.571 319.646 405.729 319.699C405.888 319.752 406.058 319.778 406.239 319.778C406.374 319.778 406.515 319.767 406.661 319.743C406.813 319.714 406.928 319.69 407.004 319.673L407.013 321C406.884 321.041 406.714 321.079 406.503 321.114C406.298 321.155 406.049 321.176 405.756 321.176C405.357 321.176 404.991 321.097 404.657 320.938C404.323 320.78 404.057 320.517 403.857 320.147C403.664 319.772 403.567 319.269 403.567 318.636V309.179ZM410.502 307.5V321H408.876V307.5H410.502ZM410.115 315.885L409.438 315.858C409.444 315.208 409.541 314.607 409.729 314.057C409.916 313.5 410.18 313.017 410.52 312.606C410.859 312.196 411.264 311.88 411.732 311.657C412.207 311.429 412.731 311.314 413.306 311.314C413.774 311.314 414.196 311.379 414.571 311.508C414.946 311.631 415.266 311.83 415.529 312.105C415.799 312.381 416.004 312.738 416.145 313.178C416.285 313.611 416.355 314.142 416.355 314.769V321H414.721V314.751C414.721 314.253 414.647 313.854 414.501 313.556C414.354 313.251 414.141 313.031 413.859 312.896C413.578 312.756 413.232 312.686 412.822 312.686C412.418 312.686 412.049 312.771 411.715 312.94C411.387 313.11 411.103 313.345 410.862 313.644C410.628 313.942 410.443 314.285 410.309 314.672C410.18 315.053 410.115 315.457 410.115 315.885ZM424.608 318.803V311.49H426.243V321H424.688L424.608 318.803ZM424.916 316.799L425.593 316.781C425.593 317.414 425.525 318 425.391 318.539C425.262 319.072 425.051 319.535 424.758 319.928C424.465 320.32 424.081 320.628 423.606 320.851C423.132 321.067 422.555 321.176 421.875 321.176C421.412 321.176 420.987 321.108 420.601 320.974C420.22 320.839 419.892 320.631 419.616 320.35C419.341 320.068 419.127 319.702 418.975 319.251C418.828 318.8 418.755 318.258 418.755 317.625V311.49H420.381V317.643C420.381 318.07 420.428 318.425 420.521 318.706C420.621 318.981 420.753 319.201 420.917 319.365C421.087 319.523 421.274 319.635 421.479 319.699C421.69 319.764 421.907 319.796 422.13 319.796C422.821 319.796 423.369 319.664 423.773 319.4C424.178 319.131 424.468 318.771 424.644 318.319C424.825 317.862 424.916 317.355 424.916 316.799ZM430.348 312.984V321H428.722V311.49H430.304L430.348 312.984ZM433.318 311.438L433.31 312.949C433.175 312.92 433.046 312.902 432.923 312.896C432.806 312.885 432.671 312.879 432.519 312.879C432.144 312.879 431.812 312.938 431.525 313.055C431.238 313.172 430.995 313.336 430.796 313.547C430.597 313.758 430.438 314.01 430.321 314.303C430.21 314.59 430.137 314.906 430.102 315.252L429.645 315.516C429.645 314.941 429.7 314.402 429.812 313.898C429.929 313.395 430.107 312.949 430.348 312.562C430.588 312.17 430.893 311.865 431.262 311.648C431.637 311.426 432.082 311.314 432.598 311.314C432.715 311.314 432.85 311.329 433.002 311.358C433.154 311.382 433.26 311.408 433.318 311.438ZM440.077 319.374V314.479C440.077 314.104 440.001 313.778 439.849 313.503C439.702 313.222 439.479 313.005 439.181 312.853C438.882 312.7 438.513 312.624 438.073 312.624C437.663 312.624 437.303 312.694 436.992 312.835C436.688 312.976 436.447 313.16 436.271 313.389C436.102 313.617 436.017 313.863 436.017 314.127H434.391C434.391 313.787 434.479 313.45 434.654 313.116C434.83 312.782 435.082 312.48 435.41 312.211C435.744 311.936 436.143 311.719 436.605 311.561C437.074 311.396 437.596 311.314 438.17 311.314C438.861 311.314 439.471 311.432 439.998 311.666C440.531 311.9 440.947 312.255 441.246 312.729C441.551 313.198 441.703 313.787 441.703 314.496V318.926C441.703 319.242 441.729 319.579 441.782 319.937C441.841 320.294 441.926 320.602 442.037 320.859V321H440.341C440.259 320.812 440.194 320.563 440.147 320.253C440.101 319.937 440.077 319.644 440.077 319.374ZM440.358 315.234L440.376 316.377H438.732C438.27 316.377 437.856 316.415 437.493 316.491C437.13 316.562 436.825 316.67 436.579 316.816C436.333 316.963 436.146 317.147 436.017 317.37C435.888 317.587 435.823 317.842 435.823 318.135C435.823 318.434 435.891 318.706 436.025 318.952C436.16 319.198 436.362 319.395 436.632 319.541C436.907 319.682 437.244 319.752 437.643 319.752C438.141 319.752 438.58 319.646 438.961 319.436C439.342 319.225 439.644 318.967 439.866 318.662C440.095 318.357 440.218 318.062 440.235 317.774L440.93 318.557C440.889 318.803 440.777 319.075 440.596 319.374C440.414 319.673 440.171 319.96 439.866 320.235C439.567 320.505 439.21 320.73 438.794 320.912C438.384 321.088 437.921 321.176 437.405 321.176C436.761 321.176 436.195 321.05 435.709 320.798C435.229 320.546 434.854 320.209 434.584 319.787C434.32 319.359 434.188 318.882 434.188 318.354C434.188 317.845 434.288 317.396 434.487 317.01C434.687 316.617 434.974 316.292 435.349 316.034C435.724 315.771 436.175 315.571 436.702 315.437C437.229 315.302 437.818 315.234 438.469 315.234H440.358ZM445.887 307.5V321H444.261V307.5H445.887ZM445.5 315.885L444.823 315.858C444.829 315.208 444.926 314.607 445.113 314.057C445.301 313.5 445.564 313.017 445.904 312.606C446.244 312.196 446.648 311.88 447.117 311.657C447.592 311.429 448.116 311.314 448.69 311.314C449.159 311.314 449.581 311.379 449.956 311.508C450.331 311.631 450.65 311.83 450.914 312.105C451.184 312.381 451.389 312.738 451.529 313.178C451.67 313.611 451.74 314.142 451.74 314.769V321H450.105V314.751C450.105 314.253 450.032 313.854 449.886 313.556C449.739 313.251 449.525 313.031 449.244 312.896C448.963 312.756 448.617 312.686 448.207 312.686C447.803 312.686 447.434 312.771 447.1 312.94C446.771 313.11 446.487 313.345 446.247 313.644C446.013 313.942 445.828 314.285 445.693 314.672C445.564 315.053 445.5 315.457 445.5 315.885ZM455.801 312.984V321H454.175V311.49H455.757L455.801 312.984ZM458.771 311.438L458.763 312.949C458.628 312.92 458.499 312.902 458.376 312.896C458.259 312.885 458.124 312.879 457.972 312.879C457.597 312.879 457.266 312.938 456.979 313.055C456.691 313.172 456.448 313.336 456.249 313.547C456.05 313.758 455.892 314.01 455.774 314.303C455.663 314.59 455.59 314.906 455.555 315.252L455.098 315.516C455.098 314.941 455.153 314.402 455.265 313.898C455.382 313.395 455.561 312.949 455.801 312.562C456.041 312.17 456.346 311.865 456.715 311.648C457.09 311.426 457.535 311.314 458.051 311.314C458.168 311.314 458.303 311.329 458.455 311.358C458.607 311.382 458.713 311.408 458.771 311.438ZM465.53 319.374V314.479C465.53 314.104 465.454 313.778 465.302 313.503C465.155 313.222 464.933 313.005 464.634 312.853C464.335 312.7 463.966 312.624 463.526 312.624C463.116 312.624 462.756 312.694 462.445 312.835C462.141 312.976 461.9 313.16 461.725 313.389C461.555 313.617 461.47 313.863 461.47 314.127H459.844C459.844 313.787 459.932 313.45 460.107 313.116C460.283 312.782 460.535 312.48 460.863 312.211C461.197 311.936 461.596 311.719 462.059 311.561C462.527 311.396 463.049 311.314 463.623 311.314C464.314 311.314 464.924 311.432 465.451 311.666C465.984 311.9 466.4 312.255 466.699 312.729C467.004 313.198 467.156 313.787 467.156 314.496V318.926C467.156 319.242 467.183 319.579 467.235 319.937C467.294 320.294 467.379 320.602 467.49 320.859V321H465.794C465.712 320.812 465.647 320.563 465.601 320.253C465.554 319.937 465.53 319.644 465.53 319.374ZM465.812 315.234L465.829 316.377H464.186C463.723 316.377 463.31 316.415 462.946 316.491C462.583 316.562 462.278 316.67 462.032 316.816C461.786 316.963 461.599 317.147 461.47 317.37C461.341 317.587 461.276 317.842 461.276 318.135C461.276 318.434 461.344 318.706 461.479 318.952C461.613 319.198 461.815 319.395 462.085 319.541C462.36 319.682 462.697 319.752 463.096 319.752C463.594 319.752 464.033 319.646 464.414 319.436C464.795 319.225 465.097 318.967 465.319 318.662C465.548 318.357 465.671 318.062 465.688 317.774L466.383 318.557C466.342 318.803 466.23 319.075 466.049 319.374C465.867 319.673 465.624 319.96 465.319 320.235C465.021 320.505 464.663 320.73 464.247 320.912C463.837 321.088 463.374 321.176 462.858 321.176C462.214 321.176 461.648 321.05 461.162 320.798C460.682 320.546 460.307 320.209 460.037 319.787C459.773 319.359 459.642 318.882 459.642 318.354C459.642 317.845 459.741 317.396 459.94 317.01C460.14 316.617 460.427 316.292 460.802 316.034C461.177 315.771 461.628 315.571 462.155 315.437C462.683 315.302 463.271 315.234 463.922 315.234H465.812ZM472.465 319.532L475.066 311.49H476.728L473.309 321H472.219L472.465 319.532ZM470.294 311.49L472.975 319.576L473.159 321H472.069L468.624 311.49H470.294ZM480.059 311.49V321H478.424V311.49H480.059ZM478.301 308.968C478.301 308.704 478.38 308.481 478.538 308.3C478.702 308.118 478.942 308.027 479.259 308.027C479.569 308.027 479.807 308.118 479.971 308.3C480.141 308.481 480.226 308.704 480.226 308.968C480.226 309.22 480.141 309.437 479.971 309.618C479.807 309.794 479.569 309.882 479.259 309.882C478.942 309.882 478.702 309.794 478.538 309.618C478.38 309.437 478.301 309.22 478.301 308.968Z" fill="#838383"/>
<path d="M55.0967 181.582V183.533C55.0967 184.582 55.0029 185.467 54.8154 186.188C54.6279 186.908 54.3584 187.488 54.0068 187.928C53.6553 188.367 53.2305 188.687 52.7324 188.886C52.2402 189.079 51.6836 189.176 51.0625 189.176C50.5703 189.176 50.1162 189.114 49.7002 188.991C49.2842 188.868 48.9092 188.672 48.5752 188.402C48.2471 188.127 47.9658 187.77 47.7314 187.33C47.4971 186.891 47.3184 186.357 47.1953 185.73C47.0723 185.104 47.0107 184.371 47.0107 183.533V181.582C47.0107 180.533 47.1045 179.654 47.292 178.945C47.4854 178.236 47.7578 177.668 48.1094 177.24C48.4609 176.807 48.8828 176.496 49.375 176.309C49.873 176.121 50.4297 176.027 51.0449 176.027C51.543 176.027 52 176.089 52.416 176.212C52.8379 176.329 53.2129 176.52 53.541 176.783C53.8691 177.041 54.1475 177.387 54.376 177.82C54.6104 178.248 54.7891 178.772 54.9121 179.394C55.0352 180.015 55.0967 180.744 55.0967 181.582ZM53.4619 183.797V181.31C53.4619 180.735 53.4268 180.231 53.3564 179.798C53.292 179.358 53.1953 178.983 53.0664 178.673C52.9375 178.362 52.7734 178.11 52.5742 177.917C52.3809 177.724 52.1553 177.583 51.8975 177.495C51.6455 177.401 51.3613 177.354 51.0449 177.354C50.6582 177.354 50.3154 177.428 50.0166 177.574C49.7178 177.715 49.4658 177.94 49.2607 178.251C49.0615 178.562 48.9092 178.969 48.8037 179.473C48.6982 179.977 48.6455 180.589 48.6455 181.31V183.797C48.6455 184.371 48.6777 184.878 48.7422 185.317C48.8125 185.757 48.915 186.138 49.0498 186.46C49.1846 186.776 49.3486 187.037 49.542 187.242C49.7354 187.447 49.958 187.6 50.21 187.699C50.4678 187.793 50.752 187.84 51.0625 187.84C51.4609 187.84 51.8096 187.764 52.1084 187.611C52.4072 187.459 52.6562 187.222 52.8555 186.899C53.0605 186.571 53.2129 186.152 53.3125 185.643C53.4121 185.127 53.4619 184.512 53.4619 183.797ZM58.4629 179.49L60.5459 182.953L62.6553 179.49H64.5625L61.4512 184.184L64.6592 189H62.7783L60.5811 185.432L58.3838 189H56.4941L59.6934 184.184L56.5908 179.49H58.4629ZM74.6699 187.62V189H67.8936V187.62H74.6699ZM68.2363 176.203V189H66.54V176.203H68.2363ZM73.7734 181.705V183.085H67.8936V181.705H73.7734ZM74.582 176.203V177.592H67.8936V176.203H74.582ZM81.6924 176.133V189H80.0664V178.163L76.7881 179.358V177.891L81.4375 176.133H81.6924ZM94.8584 187.664V189H86.4824V187.831L90.6748 183.164C91.1904 182.59 91.5889 182.104 91.8701 181.705C92.1572 181.301 92.3564 180.94 92.4678 180.624C92.585 180.302 92.6436 179.974 92.6436 179.64C92.6436 179.218 92.5557 178.837 92.3799 178.497C92.21 178.151 91.958 177.876 91.624 177.671C91.29 177.466 90.8857 177.363 90.4111 177.363C89.8428 177.363 89.3682 177.475 88.9873 177.697C88.6123 177.914 88.3311 178.219 88.1436 178.611C87.9561 179.004 87.8623 179.455 87.8623 179.965H86.2363C86.2363 179.244 86.3945 178.585 86.7109 177.987C87.0273 177.39 87.4961 176.915 88.1172 176.563C88.7383 176.206 89.5029 176.027 90.4111 176.027C91.2197 176.027 91.9111 176.171 92.4854 176.458C93.0596 176.739 93.499 177.138 93.8037 177.653C94.1143 178.163 94.2695 178.761 94.2695 179.446C94.2695 179.821 94.2051 180.202 94.0762 180.589C93.9531 180.97 93.7803 181.351 93.5576 181.731C93.3408 182.112 93.0859 182.487 92.793 182.856C92.5059 183.226 92.1982 183.589 91.8701 183.946L88.4424 187.664H94.8584ZM96.8008 188.139C96.8008 187.863 96.8857 187.632 97.0557 187.444C97.2314 187.251 97.4834 187.154 97.8115 187.154C98.1396 187.154 98.3887 187.251 98.5586 187.444C98.7344 187.632 98.8223 187.863 98.8223 188.139C98.8223 188.408 98.7344 188.637 98.5586 188.824C98.3887 189.012 98.1396 189.105 97.8115 189.105C97.4834 189.105 97.2314 189.012 97.0557 188.824C96.8857 188.637 96.8008 188.408 96.8008 188.139ZM101.547 188.139C101.547 187.863 101.632 187.632 101.802 187.444C101.978 187.251 102.229 187.154 102.558 187.154C102.886 187.154 103.135 187.251 103.305 187.444C103.48 187.632 103.568 187.863 103.568 188.139C103.568 188.408 103.48 188.637 103.305 188.824C103.135 189.012 102.886 189.105 102.558 189.105C102.229 189.105 101.978 189.012 101.802 188.824C101.632 188.637 101.547 188.408 101.547 188.139ZM114.124 181.582V183.533C114.124 184.582 114.03 185.467 113.843 186.188C113.655 186.908 113.386 187.488 113.034 187.928C112.683 188.367 112.258 188.687 111.76 188.886C111.268 189.079 110.711 189.176 110.09 189.176C109.598 189.176 109.144 189.114 108.728 188.991C108.312 188.868 107.937 188.672 107.603 188.402C107.274 188.127 106.993 187.77 106.759 187.33C106.524 186.891 106.346 186.357 106.223 185.73C106.1 185.104 106.038 184.371 106.038 183.533V181.582C106.038 180.533 106.132 179.654 106.319 178.945C106.513 178.236 106.785 177.668 107.137 177.24C107.488 176.807 107.91 176.496 108.402 176.309C108.9 176.121 109.457 176.027 110.072 176.027C110.57 176.027 111.027 176.089 111.443 176.212C111.865 176.329 112.24 176.52 112.568 176.783C112.896 177.041 113.175 177.387 113.403 177.82C113.638 178.248 113.816 178.772 113.939 179.394C114.062 180.015 114.124 180.744 114.124 181.582ZM112.489 183.797V181.31C112.489 180.735 112.454 180.231 112.384 179.798C112.319 179.358 112.223 178.983 112.094 178.673C111.965 178.362 111.801 178.11 111.602 177.917C111.408 177.724 111.183 177.583 110.925 177.495C110.673 177.401 110.389 177.354 110.072 177.354C109.686 177.354 109.343 177.428 109.044 177.574C108.745 177.715 108.493 177.94 108.288 178.251C108.089 178.562 107.937 178.969 107.831 179.473C107.726 179.977 107.673 180.589 107.673 181.31V183.797C107.673 184.371 107.705 184.878 107.77 185.317C107.84 185.757 107.942 186.138 108.077 186.46C108.212 186.776 108.376 187.037 108.569 187.242C108.763 187.447 108.985 187.6 109.237 187.699C109.495 187.793 109.779 187.84 110.09 187.84C110.488 187.84 110.837 187.764 111.136 187.611C111.435 187.459 111.684 187.222 111.883 186.899C112.088 186.571 112.24 186.152 112.34 185.643C112.439 185.127 112.489 184.512 112.489 183.797ZM118.589 181.802H119.749C120.317 181.802 120.786 181.708 121.155 181.521C121.53 181.327 121.809 181.066 121.99 180.738C122.178 180.404 122.271 180.029 122.271 179.613C122.271 179.121 122.189 178.708 122.025 178.374C121.861 178.04 121.615 177.788 121.287 177.618C120.959 177.448 120.543 177.363 120.039 177.363C119.582 177.363 119.178 177.454 118.826 177.636C118.48 177.812 118.208 178.063 118.009 178.392C117.815 178.72 117.719 179.106 117.719 179.552H116.093C116.093 178.901 116.257 178.31 116.585 177.776C116.913 177.243 117.373 176.818 117.965 176.502C118.562 176.186 119.254 176.027 120.039 176.027C120.812 176.027 121.489 176.165 122.069 176.44C122.649 176.71 123.101 177.114 123.423 177.653C123.745 178.187 123.906 178.852 123.906 179.648C123.906 179.971 123.83 180.316 123.678 180.686C123.531 181.049 123.3 181.389 122.983 181.705C122.673 182.021 122.269 182.282 121.771 182.487C121.272 182.687 120.675 182.786 119.978 182.786H118.589V181.802ZM118.589 183.138V182.162H119.978C120.792 182.162 121.466 182.259 121.999 182.452C122.532 182.646 122.951 182.903 123.256 183.226C123.566 183.548 123.783 183.902 123.906 184.289C124.035 184.67 124.1 185.051 124.1 185.432C124.1 186.029 123.997 186.56 123.792 187.022C123.593 187.485 123.309 187.878 122.939 188.2C122.576 188.522 122.148 188.766 121.656 188.93C121.164 189.094 120.628 189.176 120.048 189.176C119.491 189.176 118.967 189.097 118.475 188.938C117.988 188.78 117.558 188.552 117.183 188.253C116.808 187.948 116.515 187.576 116.304 187.137C116.093 186.691 115.987 186.185 115.987 185.616H117.613C117.613 186.062 117.71 186.451 117.903 186.785C118.103 187.119 118.384 187.38 118.747 187.567C119.116 187.749 119.55 187.84 120.048 187.84C120.546 187.84 120.974 187.755 121.331 187.585C121.694 187.409 121.973 187.146 122.166 186.794C122.365 186.442 122.465 186 122.465 185.467C122.465 184.934 122.354 184.497 122.131 184.157C121.908 183.812 121.592 183.557 121.182 183.393C120.777 183.223 120.3 183.138 119.749 183.138H118.589ZM127.958 187.638H128.125C129.062 187.638 129.824 187.506 130.41 187.242C130.996 186.979 131.447 186.624 131.764 186.179C132.08 185.733 132.297 185.232 132.414 184.676C132.531 184.113 132.59 183.536 132.59 182.944V180.984C132.59 180.404 132.522 179.889 132.388 179.438C132.259 178.986 132.077 178.608 131.843 178.304C131.614 177.999 131.354 177.768 131.061 177.609C130.768 177.451 130.457 177.372 130.129 177.372C129.754 177.372 129.417 177.448 129.118 177.601C128.825 177.747 128.576 177.955 128.371 178.225C128.172 178.494 128.02 178.811 127.914 179.174C127.809 179.537 127.756 179.933 127.756 180.36C127.756 180.741 127.803 181.11 127.896 181.468C127.99 181.825 128.134 182.147 128.327 182.435C128.521 182.722 128.761 182.95 129.048 183.12C129.341 183.284 129.684 183.366 130.076 183.366C130.439 183.366 130.779 183.296 131.096 183.155C131.418 183.009 131.702 182.812 131.948 182.566C132.2 182.314 132.399 182.03 132.546 181.714C132.698 181.397 132.786 181.066 132.81 180.721H133.583C133.583 181.207 133.486 181.688 133.293 182.162C133.105 182.631 132.842 183.059 132.502 183.445C132.162 183.832 131.764 184.143 131.307 184.377C130.85 184.605 130.352 184.72 129.812 184.72C129.18 184.72 128.632 184.597 128.169 184.351C127.706 184.104 127.325 183.776 127.026 183.366C126.733 182.956 126.514 182.499 126.367 181.995C126.227 181.485 126.156 180.97 126.156 180.448C126.156 179.839 126.241 179.268 126.411 178.734C126.581 178.201 126.833 177.732 127.167 177.328C127.501 176.918 127.914 176.599 128.406 176.37C128.904 176.142 129.479 176.027 130.129 176.027C130.861 176.027 131.485 176.174 132.001 176.467C132.517 176.76 132.936 177.152 133.258 177.645C133.586 178.137 133.826 178.69 133.979 179.306C134.131 179.921 134.207 180.554 134.207 181.204V181.793C134.207 182.455 134.163 183.129 134.075 183.814C133.993 184.494 133.832 185.145 133.592 185.766C133.357 186.387 133.015 186.943 132.563 187.436C132.112 187.922 131.523 188.309 130.797 188.596C130.076 188.877 129.186 189.018 128.125 189.018H127.958V187.638ZM61.2578 204.579C61.2344 205.118 61.1523 205.66 61.0117 206.205C60.8711 206.744 60.6602 207.239 60.3789 207.69C60.0977 208.142 59.7314 208.505 59.2803 208.78C58.835 209.05 58.2959 209.185 57.6631 209.185C57.2588 209.185 56.9043 209.114 56.5996 208.974C56.3008 208.827 56.0547 208.619 55.8613 208.35C55.6738 208.08 55.542 207.755 55.4658 207.374C55.3955 206.993 55.3838 206.568 55.4307 206.1L55.8789 201.23H57.1709L56.7227 206.1C56.6875 206.527 56.6963 206.876 56.749 207.146C56.8076 207.415 56.8955 207.623 57.0127 207.77C57.1299 207.91 57.2617 208.007 57.4082 208.06C57.5605 208.112 57.707 208.139 57.8477 208.139C58.1992 208.139 58.5127 208.048 58.7881 207.866C59.0635 207.679 59.2949 207.424 59.4824 207.102C59.6758 206.773 59.8252 206.396 59.9307 205.968C60.0361 205.534 60.1006 205.071 60.124 204.579C60.165 203.706 60.124 202.903 60.001 202.171C59.8838 201.438 59.6816 200.788 59.3945 200.22C59.1133 199.651 58.7441 199.171 58.2871 198.778C57.8301 198.386 57.2852 198.087 56.6523 197.882C56.0195 197.677 55.2959 197.574 54.4814 197.574C53.7432 197.574 53.0605 197.688 52.4336 197.917C51.8125 198.14 51.2529 198.462 50.7549 198.884C50.2627 199.306 49.8379 199.812 49.4805 200.404C49.1289 200.996 48.8506 201.664 48.6455 202.408C48.4463 203.146 48.3291 203.943 48.2939 204.799C48.2529 205.678 48.2998 206.486 48.4346 207.225C48.5693 207.957 48.7861 208.61 49.085 209.185C49.3896 209.765 49.7734 210.254 50.2363 210.652C50.6992 211.057 51.2354 211.361 51.8447 211.566C52.4541 211.777 53.1338 211.883 53.8838 211.883C54.3994 211.883 54.9209 211.821 55.4482 211.698C55.9814 211.575 56.4268 211.408 56.7842 211.197L57.1182 212.199C56.708 212.463 56.1953 212.659 55.5801 212.788C54.9707 212.917 54.3936 212.981 53.8486 212.981C52.958 212.981 52.1436 212.858 51.4053 212.612C50.6729 212.372 50.0225 212.018 49.4541 211.549C48.8916 211.086 48.4229 210.521 48.0479 209.853C47.6729 209.19 47.3975 208.435 47.2217 207.585C47.0459 206.735 46.9785 205.807 47.0195 204.799C47.0605 203.838 47.2041 202.933 47.4502 202.083C47.7021 201.233 48.0449 200.463 48.4785 199.771C48.9121 199.08 49.4277 198.485 50.0254 197.987C50.6289 197.483 51.3057 197.097 52.0557 196.827C52.8115 196.558 53.6318 196.423 54.5166 196.423C55.4189 196.423 56.2363 196.546 56.9688 196.792C57.7012 197.038 58.3428 197.393 58.8936 197.855C59.4502 198.318 59.9102 198.884 60.2734 199.552C60.6367 200.22 60.9004 200.976 61.0645 201.819C61.2344 202.663 61.2988 203.583 61.2578 204.579ZM52.2314 205.326C52.1904 205.736 52.1904 206.103 52.2314 206.425C52.2725 206.747 52.3516 207.02 52.4688 207.242C52.5859 207.465 52.7383 207.635 52.9258 207.752C53.1191 207.863 53.3447 207.919 53.6025 207.919C53.7725 207.919 53.9512 207.878 54.1387 207.796C54.3262 207.708 54.5107 207.573 54.6924 207.392C54.874 207.21 55.0439 206.973 55.2021 206.68C55.3604 206.387 55.4922 206.035 55.5977 205.625L56.1777 206.258C56.043 206.738 55.8672 207.16 55.6504 207.523C55.4395 207.887 55.2021 208.191 54.9385 208.438C54.6748 208.684 54.3936 208.871 54.0947 209C53.8018 209.123 53.5029 209.185 53.1982 209.185C52.7705 209.185 52.3955 209.094 52.0732 208.912C51.751 208.725 51.4902 208.461 51.291 208.121C51.0918 207.781 50.9512 207.377 50.8691 206.908C50.793 206.434 50.7812 205.906 50.834 205.326C50.8867 204.711 50.9951 204.143 51.1592 203.621C51.3232 203.1 51.5254 202.634 51.7656 202.224C52.0117 201.813 52.2871 201.465 52.5918 201.178C52.9023 200.891 53.2305 200.674 53.5762 200.527C53.9219 200.375 54.2764 200.299 54.6396 200.299C55.2725 200.299 55.7705 200.393 56.1338 200.58C56.4971 200.762 56.8428 200.979 57.1709 201.23L56.4238 202.101C56.2539 201.937 56.0312 201.784 55.7559 201.644C55.4805 201.503 55.1553 201.433 54.7803 201.433C54.458 201.433 54.1562 201.515 53.875 201.679C53.5938 201.843 53.3389 202.089 53.1104 202.417C52.8877 202.745 52.7002 203.152 52.5479 203.639C52.3955 204.119 52.29 204.682 52.2314 205.326ZM68.9482 206.478C68.9482 206.243 68.8955 206.026 68.79 205.827C68.6904 205.622 68.4824 205.438 68.166 205.273C67.8555 205.104 67.3867 204.957 66.7598 204.834C66.2324 204.723 65.7549 204.591 65.3271 204.438C64.9053 204.286 64.5449 204.102 64.2461 203.885C63.9531 203.668 63.7275 203.413 63.5693 203.12C63.4111 202.827 63.332 202.484 63.332 202.092C63.332 201.717 63.4141 201.362 63.5781 201.028C63.748 200.694 63.9854 200.398 64.29 200.141C64.6006 199.883 64.9727 199.681 65.4062 199.534C65.8398 199.388 66.3232 199.314 66.8564 199.314C67.6182 199.314 68.2686 199.449 68.8076 199.719C69.3467 199.988 69.7598 200.349 70.0469 200.8C70.334 201.245 70.4775 201.74 70.4775 202.285H68.8516C68.8516 202.021 68.7725 201.767 68.6143 201.521C68.4619 201.269 68.2363 201.061 67.9375 200.896C67.6445 200.732 67.2842 200.65 66.8564 200.65C66.4053 200.65 66.0391 200.721 65.7578 200.861C65.4824 200.996 65.2803 201.169 65.1514 201.38C65.0283 201.591 64.9668 201.813 64.9668 202.048C64.9668 202.224 64.9961 202.382 65.0547 202.522C65.1191 202.657 65.2305 202.783 65.3887 202.9C65.5469 203.012 65.7695 203.117 66.0566 203.217C66.3438 203.316 66.71 203.416 67.1553 203.516C67.9346 203.691 68.5762 203.902 69.0801 204.148C69.584 204.395 69.959 204.696 70.2051 205.054C70.4512 205.411 70.5742 205.845 70.5742 206.354C70.5742 206.771 70.4863 207.151 70.3105 207.497C70.1406 207.843 69.8916 208.142 69.5635 208.394C69.2412 208.64 68.8545 208.833 68.4033 208.974C67.958 209.108 67.457 209.176 66.9004 209.176C66.0625 209.176 65.3535 209.026 64.7734 208.728C64.1934 208.429 63.7539 208.042 63.4551 207.567C63.1562 207.093 63.0068 206.592 63.0068 206.064H64.6416C64.665 206.51 64.7939 206.864 65.0283 207.128C65.2627 207.386 65.5498 207.57 65.8896 207.682C66.2295 207.787 66.5664 207.84 66.9004 207.84C67.3457 207.84 67.7178 207.781 68.0166 207.664C68.3213 207.547 68.5527 207.386 68.7109 207.181C68.8691 206.976 68.9482 206.741 68.9482 206.478ZM76.6914 199.49V200.738H71.5498V199.49H76.6914ZM73.29 197.179H74.916V206.645C74.916 206.967 74.9658 207.21 75.0654 207.374C75.165 207.538 75.2939 207.646 75.4521 207.699C75.6104 207.752 75.7803 207.778 75.9619 207.778C76.0967 207.778 76.2373 207.767 76.3838 207.743C76.5361 207.714 76.6504 207.69 76.7266 207.673L76.7354 209C76.6064 209.041 76.4365 209.079 76.2256 209.114C76.0205 209.155 75.7715 209.176 75.4785 209.176C75.0801 209.176 74.7139 209.097 74.3799 208.938C74.0459 208.78 73.7793 208.517 73.5801 208.147C73.3867 207.772 73.29 207.269 73.29 206.636V197.179ZM80.2246 200.984V209H78.5986V199.49H80.1807L80.2246 200.984ZM83.1953 199.438L83.1865 200.949C83.0518 200.92 82.9229 200.902 82.7998 200.896C82.6826 200.885 82.5479 200.879 82.3955 200.879C82.0205 200.879 81.6895 200.938 81.4023 201.055C81.1152 201.172 80.8721 201.336 80.6729 201.547C80.4736 201.758 80.3154 202.01 80.1982 202.303C80.0869 202.59 80.0137 202.906 79.9785 203.252L79.5215 203.516C79.5215 202.941 79.5771 202.402 79.6885 201.898C79.8057 201.395 79.9844 200.949 80.2246 200.562C80.4648 200.17 80.7695 199.865 81.1387 199.648C81.5137 199.426 81.959 199.314 82.4746 199.314C82.5918 199.314 82.7266 199.329 82.8789 199.358C83.0312 199.382 83.1367 199.408 83.1953 199.438ZM89.9541 207.374V202.479C89.9541 202.104 89.8779 201.778 89.7256 201.503C89.5791 201.222 89.3564 201.005 89.0576 200.853C88.7588 200.7 88.3896 200.624 87.9502 200.624C87.54 200.624 87.1797 200.694 86.8691 200.835C86.5645 200.976 86.3242 201.16 86.1484 201.389C85.9785 201.617 85.8936 201.863 85.8936 202.127H84.2676C84.2676 201.787 84.3555 201.45 84.5312 201.116C84.707 200.782 84.959 200.48 85.2871 200.211C85.6211 199.936 86.0195 199.719 86.4824 199.561C86.9512 199.396 87.4727 199.314 88.0469 199.314C88.7383 199.314 89.3477 199.432 89.875 199.666C90.4082 199.9 90.8242 200.255 91.123 200.729C91.4277 201.198 91.5801 201.787 91.5801 202.496V206.926C91.5801 207.242 91.6064 207.579 91.6592 207.937C91.7178 208.294 91.8027 208.602 91.9141 208.859V209H90.2178C90.1357 208.812 90.0713 208.563 90.0244 208.253C89.9775 207.937 89.9541 207.644 89.9541 207.374ZM90.2354 203.234L90.2529 204.377H88.6094C88.1465 204.377 87.7334 204.415 87.3701 204.491C87.0068 204.562 86.7021 204.67 86.4561 204.816C86.21 204.963 86.0225 205.147 85.8936 205.37C85.7646 205.587 85.7002 205.842 85.7002 206.135C85.7002 206.434 85.7676 206.706 85.9023 206.952C86.0371 207.198 86.2393 207.395 86.5088 207.541C86.7842 207.682 87.1211 207.752 87.5195 207.752C88.0176 207.752 88.457 207.646 88.8379 207.436C89.2188 207.225 89.5205 206.967 89.7432 206.662C89.9717 206.357 90.0947 206.062 90.1123 205.774L90.8066 206.557C90.7656 206.803 90.6543 207.075 90.4727 207.374C90.291 207.673 90.0479 207.96 89.7432 208.235C89.4443 208.505 89.0869 208.73 88.6709 208.912C88.2607 209.088 87.7979 209.176 87.2822 209.176C86.6377 209.176 86.0723 209.05 85.5859 208.798C85.1055 208.546 84.7305 208.209 84.4609 207.787C84.1973 207.359 84.0654 206.882 84.0654 206.354C84.0654 205.845 84.165 205.396 84.3643 205.01C84.5635 204.617 84.8506 204.292 85.2256 204.034C85.6006 203.771 86.0518 203.571 86.5791 203.437C87.1064 203.302 87.6953 203.234 88.3457 203.234H90.2354ZM95.9043 199.49V209H94.2695V199.49H95.9043ZM94.1465 196.968C94.1465 196.704 94.2256 196.481 94.3838 196.3C94.5479 196.118 94.7881 196.027 95.1045 196.027C95.415 196.027 95.6523 196.118 95.8164 196.3C95.9863 196.481 96.0713 196.704 96.0713 196.968C96.0713 197.22 95.9863 197.437 95.8164 197.618C95.6523 197.794 95.415 197.882 95.1045 197.882C94.7881 197.882 94.5479 197.794 94.3838 197.618C94.2256 197.437 94.1465 197.22 94.1465 196.968ZM104.676 199.49H106.152V208.798C106.152 209.636 105.982 210.351 105.643 210.942C105.303 211.534 104.828 211.982 104.219 212.287C103.615 212.598 102.918 212.753 102.127 212.753C101.799 212.753 101.412 212.7 100.967 212.595C100.527 212.495 100.094 212.322 99.666 212.076C99.2441 211.836 98.8896 211.511 98.6025 211.101L99.4551 210.134C99.8535 210.614 100.27 210.948 100.703 211.136C101.143 211.323 101.576 211.417 102.004 211.417C102.52 211.417 102.965 211.32 103.34 211.127C103.715 210.934 104.005 210.646 104.21 210.266C104.421 209.891 104.526 209.428 104.526 208.877V201.582L104.676 199.49ZM98.1279 204.351V204.166C98.1279 203.439 98.2129 202.78 98.3828 202.188C98.5586 201.591 98.8076 201.078 99.1299 200.65C99.458 200.223 99.8535 199.895 100.316 199.666C100.779 199.432 101.301 199.314 101.881 199.314C102.479 199.314 103 199.42 103.445 199.631C103.896 199.836 104.277 200.138 104.588 200.536C104.904 200.929 105.153 201.403 105.335 201.96C105.517 202.517 105.643 203.146 105.713 203.85V204.658C105.648 205.355 105.522 205.982 105.335 206.539C105.153 207.096 104.904 207.57 104.588 207.963C104.277 208.355 103.896 208.657 103.445 208.868C102.994 209.073 102.467 209.176 101.863 209.176C101.295 209.176 100.779 209.056 100.316 208.815C99.8594 208.575 99.4668 208.238 99.1387 207.805C98.8105 207.371 98.5586 206.861 98.3828 206.275C98.2129 205.684 98.1279 205.042 98.1279 204.351ZM99.7539 204.166V204.351C99.7539 204.825 99.8008 205.271 99.8945 205.687C99.9941 206.103 100.144 206.469 100.343 206.785C100.548 207.102 100.809 207.351 101.125 207.532C101.441 207.708 101.819 207.796 102.259 207.796C102.798 207.796 103.243 207.682 103.595 207.453C103.946 207.225 104.225 206.923 104.43 206.548C104.641 206.173 104.805 205.766 104.922 205.326V203.208C104.857 202.886 104.758 202.575 104.623 202.276C104.494 201.972 104.324 201.702 104.113 201.468C103.908 201.228 103.653 201.037 103.349 200.896C103.044 200.756 102.687 200.686 102.276 200.686C101.831 200.686 101.447 200.779 101.125 200.967C100.809 201.148 100.548 201.4 100.343 201.723C100.144 202.039 99.9941 202.408 99.8945 202.83C99.8008 203.246 99.7539 203.691 99.7539 204.166ZM110.248 195.5V209H108.622V195.5H110.248ZM109.861 203.885L109.185 203.858C109.19 203.208 109.287 202.607 109.475 202.057C109.662 201.5 109.926 201.017 110.266 200.606C110.605 200.196 111.01 199.88 111.479 199.657C111.953 199.429 112.478 199.314 113.052 199.314C113.521 199.314 113.942 199.379 114.317 199.508C114.692 199.631 115.012 199.83 115.275 200.105C115.545 200.381 115.75 200.738 115.891 201.178C116.031 201.611 116.102 202.142 116.102 202.769V209H114.467V202.751C114.467 202.253 114.394 201.854 114.247 201.556C114.101 201.251 113.887 201.031 113.605 200.896C113.324 200.756 112.979 200.686 112.568 200.686C112.164 200.686 111.795 200.771 111.461 200.94C111.133 201.11 110.849 201.345 110.608 201.644C110.374 201.942 110.189 202.285 110.055 202.672C109.926 203.053 109.861 203.457 109.861 203.885ZM122.518 199.49V200.738H117.376V199.49H122.518ZM119.116 197.179H120.742V206.645C120.742 206.967 120.792 207.21 120.892 207.374C120.991 207.538 121.12 207.646 121.278 207.699C121.437 207.752 121.606 207.778 121.788 207.778C121.923 207.778 122.063 207.767 122.21 207.743C122.362 207.714 122.477 207.69 122.553 207.673L122.562 209C122.433 209.041 122.263 209.079 122.052 209.114C121.847 209.155 121.598 209.176 121.305 209.176C120.906 209.176 120.54 209.097 120.206 208.938C119.872 208.78 119.605 208.517 119.406 208.147C119.213 207.772 119.116 207.269 119.116 206.636V197.179ZM130.243 206.803V199.49H131.878V209H130.322L130.243 206.803ZM130.551 204.799L131.228 204.781C131.228 205.414 131.16 206 131.025 206.539C130.896 207.072 130.686 207.535 130.393 207.928C130.1 208.32 129.716 208.628 129.241 208.851C128.767 209.067 128.189 209.176 127.51 209.176C127.047 209.176 126.622 209.108 126.235 208.974C125.854 208.839 125.526 208.631 125.251 208.35C124.976 208.068 124.762 207.702 124.609 207.251C124.463 206.8 124.39 206.258 124.39 205.625V199.49H126.016V205.643C126.016 206.07 126.062 206.425 126.156 206.706C126.256 206.981 126.388 207.201 126.552 207.365C126.722 207.523 126.909 207.635 127.114 207.699C127.325 207.764 127.542 207.796 127.765 207.796C128.456 207.796 129.004 207.664 129.408 207.4C129.812 207.131 130.103 206.771 130.278 206.319C130.46 205.862 130.551 205.355 130.551 204.799ZM135.982 201.318V212.656H134.348V199.49H135.842L135.982 201.318ZM142.39 204.166V204.351C142.39 205.042 142.308 205.684 142.144 206.275C141.979 206.861 141.739 207.371 141.423 207.805C141.112 208.238 140.729 208.575 140.271 208.815C139.814 209.056 139.29 209.176 138.698 209.176C138.095 209.176 137.562 209.076 137.099 208.877C136.636 208.678 136.243 208.388 135.921 208.007C135.599 207.626 135.341 207.169 135.147 206.636C134.96 206.103 134.831 205.502 134.761 204.834V203.85C134.831 203.146 134.963 202.517 135.156 201.96C135.35 201.403 135.604 200.929 135.921 200.536C136.243 200.138 136.633 199.836 137.09 199.631C137.547 199.42 138.074 199.314 138.672 199.314C139.27 199.314 139.8 199.432 140.263 199.666C140.726 199.895 141.115 200.223 141.432 200.65C141.748 201.078 141.985 201.591 142.144 202.188C142.308 202.78 142.39 203.439 142.39 204.166ZM140.755 204.351V204.166C140.755 203.691 140.705 203.246 140.605 202.83C140.506 202.408 140.351 202.039 140.14 201.723C139.935 201.4 139.671 201.148 139.349 200.967C139.026 200.779 138.643 200.686 138.197 200.686C137.787 200.686 137.43 200.756 137.125 200.896C136.826 201.037 136.571 201.228 136.36 201.468C136.149 201.702 135.977 201.972 135.842 202.276C135.713 202.575 135.616 202.886 135.552 203.208V205.484C135.669 205.895 135.833 206.281 136.044 206.645C136.255 207.002 136.536 207.292 136.888 207.515C137.239 207.731 137.682 207.84 138.215 207.84C138.654 207.84 139.032 207.749 139.349 207.567C139.671 207.38 139.935 207.125 140.14 206.803C140.351 206.48 140.506 206.111 140.605 205.695C140.705 205.273 140.755 204.825 140.755 204.351ZM144.508 199.49H146.143V210.134C146.143 210.714 146.049 211.206 145.861 211.61C145.68 212.015 145.404 212.319 145.035 212.524C144.672 212.735 144.212 212.841 143.655 212.841C143.509 212.841 143.339 212.826 143.146 212.797C142.946 212.768 142.779 212.732 142.645 212.691L142.653 211.382C142.765 211.405 142.891 211.423 143.031 211.435C143.172 211.452 143.295 211.461 143.4 211.461C143.641 211.461 143.843 211.417 144.007 211.329C144.171 211.241 144.294 211.101 144.376 210.907C144.464 210.714 144.508 210.456 144.508 210.134V199.49ZM144.341 196.968C144.341 196.704 144.423 196.481 144.587 196.3C144.751 196.118 144.988 196.027 145.299 196.027C145.615 196.027 145.855 196.118 146.02 196.3C146.184 196.481 146.266 196.704 146.266 196.968C146.266 197.22 146.184 197.437 146.02 197.618C145.855 197.794 145.615 197.882 145.299 197.882C144.988 197.882 144.751 197.794 144.587 197.618C144.423 197.437 144.341 197.22 144.341 196.968ZM154.378 207.374V202.479C154.378 202.104 154.302 201.778 154.149 201.503C154.003 201.222 153.78 201.005 153.481 200.853C153.183 200.7 152.813 200.624 152.374 200.624C151.964 200.624 151.604 200.694 151.293 200.835C150.988 200.976 150.748 201.16 150.572 201.389C150.402 201.617 150.317 201.863 150.317 202.127H148.691C148.691 201.787 148.779 201.45 148.955 201.116C149.131 200.782 149.383 200.48 149.711 200.211C150.045 199.936 150.443 199.719 150.906 199.561C151.375 199.396 151.896 199.314 152.471 199.314C153.162 199.314 153.771 199.432 154.299 199.666C154.832 199.9 155.248 200.255 155.547 200.729C155.852 201.198 156.004 201.787 156.004 202.496V206.926C156.004 207.242 156.03 207.579 156.083 207.937C156.142 208.294 156.227 208.602 156.338 208.859V209H154.642C154.56 208.812 154.495 208.563 154.448 208.253C154.401 207.937 154.378 207.644 154.378 207.374ZM154.659 203.234L154.677 204.377H153.033C152.57 204.377 152.157 204.415 151.794 204.491C151.431 204.562 151.126 204.67 150.88 204.816C150.634 204.963 150.446 205.147 150.317 205.37C150.188 205.587 150.124 205.842 150.124 206.135C150.124 206.434 150.191 206.706 150.326 206.952C150.461 207.198 150.663 207.395 150.933 207.541C151.208 207.682 151.545 207.752 151.943 207.752C152.441 207.752 152.881 207.646 153.262 207.436C153.643 207.225 153.944 206.967 154.167 206.662C154.396 206.357 154.519 206.062 154.536 205.774L155.23 206.557C155.189 206.803 155.078 207.075 154.896 207.374C154.715 207.673 154.472 207.96 154.167 208.235C153.868 208.505 153.511 208.73 153.095 208.912C152.685 209.088 152.222 209.176 151.706 209.176C151.062 209.176 150.496 209.05 150.01 208.798C149.529 208.546 149.154 208.209 148.885 207.787C148.621 207.359 148.489 206.882 148.489 206.354C148.489 205.845 148.589 205.396 148.788 205.01C148.987 204.617 149.274 204.292 149.649 204.034C150.024 203.771 150.476 203.571 151.003 203.437C151.53 203.302 152.119 203.234 152.77 203.234H154.659ZM162.367 207.84C162.754 207.84 163.111 207.761 163.439 207.603C163.768 207.444 164.037 207.228 164.248 206.952C164.459 206.671 164.579 206.352 164.608 205.994H166.155C166.126 206.557 165.936 207.081 165.584 207.567C165.238 208.048 164.784 208.438 164.222 208.736C163.659 209.029 163.041 209.176 162.367 209.176C161.652 209.176 161.028 209.05 160.495 208.798C159.968 208.546 159.528 208.2 159.177 207.761C158.831 207.321 158.57 206.817 158.395 206.249C158.225 205.675 158.14 205.068 158.14 204.43V204.061C158.14 203.422 158.225 202.818 158.395 202.25C158.57 201.676 158.831 201.169 159.177 200.729C159.528 200.29 159.968 199.944 160.495 199.692C161.028 199.44 161.652 199.314 162.367 199.314C163.111 199.314 163.762 199.467 164.318 199.771C164.875 200.07 165.312 200.48 165.628 201.002C165.95 201.518 166.126 202.104 166.155 202.76H164.608C164.579 202.367 164.468 202.013 164.274 201.696C164.087 201.38 163.829 201.128 163.501 200.94C163.179 200.747 162.801 200.65 162.367 200.65C161.869 200.65 161.45 200.75 161.11 200.949C160.776 201.143 160.51 201.406 160.311 201.74C160.117 202.068 159.977 202.435 159.889 202.839C159.807 203.237 159.766 203.645 159.766 204.061V204.43C159.766 204.846 159.807 205.256 159.889 205.66C159.971 206.064 160.108 206.431 160.302 206.759C160.501 207.087 160.768 207.351 161.102 207.55C161.441 207.743 161.863 207.84 162.367 207.84Z" fill="#838383"/>
<circle cx="737.5" cy="279.5" r="25.5" fill="#659357"/>
<circle cx="460.5" cy="369.5" r="25.5" fill="#659357"/>
<circle cx="142.5" cy="262.5" r="25.5" fill="#659357"/>
<path d="M949.993 139.838L915.5 85.5L914.653 84.1696C913.688 82.653 915.058 80.7323 916.806 81.1508L980.55 96.4135C981.803 96.7133 982.449 98.1012 981.874 99.2529L981.5 100L972 111.5L991 120L984.5 138L959.5 126L953.512 139.574C952.866 141.037 950.85 141.188 949.993 139.838Z" fill="#6F9869" stroke="#70986A"/>
<path d="M946.011 140.876L910.589 85.5873L909.679 84.1711C908.706 82.6569 910.072 80.7289 911.823 81.1443L977.332 96.685C978.59 96.9833 979.238 98.3782 978.656 99.532L978.259 100.317L968.519 112L988 120.635L981.335 138.921L955.703 126.73L949.522 140.61C948.874 142.065 946.87 142.216 946.011 140.876Z" stroke="black" stroke-width="2"/>
<path d="M911.5 87.3506C859.764 47.1872 825 26.3506 794 26.3506" stroke="#020B2C" stroke-width="2" stroke-linecap="round" stroke-linejoin="round"/>
<path d="M1002 147C1098.8 111.8 1222.67 163.667 1272.5 194C1337.5 243.667 1424.1 339.9 1250.5 327.5C1033.5 312 1154.5 173.5 1231.5 241C1293.1 295 1177.5 352.5 1112 374.5C1082 381.833 1007.9 392.1 951.5 374.5C895.1 356.9 784 299.667 731 273.5C699 265.667 611.9 261.8 555.5 307C485 363.5 416 433 323 423.5C248.6 415.9 203 356.333 189.5 327.5C174.667 293 137.5 235.6 107.5 282C70 340 53 370 1 389" stroke="black" stroke-width="2" stroke-linecap="round"/>
</svg>
